<svg xmlns="http://www.w3.org/2000/svg" xmlns:xlink="http://www.w3.org/1999/xlink" x="0px" y="0px" viewBox="0 0 600 400" style="enable-background:new 0 0 600 400;" xml:space="preserve">
<style type="text/css">
	.st0{fill:#FFDE11;}
	.st1{fill:#EC2227;}
	.st2{fill:none;stroke:#283678;stroke-width:0.5;stroke-linecap:round;stroke-linejoin:round;stroke-miterlimit:10;}
	.st3{fill:none;stroke:#283678;stroke-width:0.5;stroke-miterlimit:10;}
	.st4{fill:#283678;}
</style>
<g>
	<g>
		<path class="st0" d="M183.67,213.07l10.76-34.2c-3.77,0.78-8.67-0.82-13.71-2.7c0.04-0.76,0.02-1.25,0.02-1.25l-0.02-0.02
			c3.69-0.59,6.25-2.89,7.68-4.57c-3.83,1.76-8.28,2.36-8.28-1.27s1.58-4.08,1.58-6.78c0-1.27-0.53-2.46-1.15-3.48
			c4.45,1.68,6.86-0.23,7.79-2.25c-1.09,0.86-6,1.43-5.62-1.35s-2.81-6.33-4.49-5.8l-0.02-0.04c0.12-0.25,0.21-0.55,0.25-0.84
			l0.9-5.74c0.16-1-0.8-1.84-1.76-1.52c-0.76,0.23-1.66,0.51-2.62,0.78l-0.08-0.18c0.92-0.7,2.01-2.25,2.27-4.39
			c-2.81,3.05-15.02,2.07-14.82,3.81c-0.51-0.16-1.02-0.25-1.48-0.27c-1.66-0.06-9.1,0.2-10.2,0.2c-1.09,0-3.95,2.05-5.2,2.54
			c-1.25,0.51-1.76-0.1-5.55,2.34c-3.91-0.29-5.64,0.74-7.15,1.25c-1.02,0.33-4.55,0.49-6.78,0.55c-0.78,0.02-1.23,0.94-0.74,1.56
			c0.64,0.84,1.37,1.76,1.68,1.97c0.29,0.21,0.8,0.39,1.31,0.43l0.04,0.43l-0.62-0.2c-0.2,1.86,1.05,5.49,3.11,5.2
			c0.39-0.06,0.98-0.14,1.68-0.21l0.12,0.12l2.7,3.5l1.8-4.02c1.91-0.12,3.77-0.16,4.94,0l0.47,0.08l0.74,0.21
			c-0.02,0-0.04,0.02-0.06,0.02l0.1,0.08c-0.27-0.1-0.53-0.18-0.76-0.21c3.22,1.11,5.49,2.62,6.43,4.71
			c-6.52-0.1-19.98-1-24.26-1.99c-0.41-0.1-0.66,0.39-0.37,0.68c3.87,3.73,9.82,4.18,23.93,5.18l-0.1,0.37
			c-3.2,4.49-10.14,2.7-11.05,2.27c-0.64-0.31-2.4-0.62-3.89-0.78l1.19,0.06l-0.08-2.38l-2.97,2.23l0.27,0.02
			c-0.25,0-0.45,0.02-0.57,0.06c-0.74,0.21-1.82,1.52-1.05,2.75h-0.14c-2.7,1.6-7.85,1.89-8.75,1.41c-0.9-0.51-0.25-3.59,4.8-2.79
			c-1.66-1.45-5.55-1.33-7.5-0.16c-1.76,1.05-1.89,4-0.51,4.79c0.76,0.43,5.31,0.62,6.89,0.31c-0.78,0.25-1.43,0.57-1.84,0.84
			c-1.07,0.68-3.73,2.05-5.68,2.29l-0.86,0.02c0.31,0.51,0.66,1.02,1.33,1.43l0,0l-1.74,1.64c-2.89,2.38-6.93,4.38-9.3,3.73
			c-2.91-0.8-3.55-1.5-3.14-2.66c0.39-1.15,3.11-2.21,3.14-2.79c0.06-0.61-6.31,1.45-6.31,4.39c-1.13-1.8-5.1-4.04-9.22-6.52
			l-8.59-6.07l-1.17-1.31c1.6-2.83,9.12-4.63,10.61-4.41c1.5,0.21,2.4-1.91,0.96-2.36c-0.23-0.08-0.45-0.18-0.66-0.29l0.1-0.02
			c5.23-3.32,2.79-10.21-0.57-11.11c0.61,0.98,0.49,5-2.52,6.72l-0.06,0.04c-0.08-0.16-0.18-0.31-0.25-0.45
			c-0.96-1.66-3.24,0.08-4.08,1.46c-0.84,1.39-1.97,1.66-3.96,1.6l-0.57-0.18c0.31-1.64,0.74-2.99,0.96-3.73
			c0.49-1.74-0.62-4.22-1.95-2.89c-1.33,1.31-5.16,1.04-6.97,0.84c-1.82-0.2-2.95-2.03-3.73-0.59c-0.68,1.29,1.97,3.77,1.95,6.86
			L70.39,160c-2.71,0.66-4.53,0.25-5.16-1.17c-0.62-1.45-2.09-2.23-2.89-0.33c-0.23,0.57-0.51,1.31-0.78,2.07
			c-6.43-2.36-10.25,0.31-11.45,3.57c3.01-1.78,6.11-0.92,8.38,0.86l0.04-0.04l0.12,0.12c-0.43,0.8,0.02,2.19,1.82,1.78
			c1.76-0.39,4.86-0.55,5.74,0.43l0.04,1.37l0.02,0.06c-2.27-1.84-5.43-1.54-6.56-0.68c0.14,0.41,0.23,1.02,0.31,1.72
			c-1.39,1.39-6.68,1.39-9.86,0.23c0.78,4.9,4.84,5.8,9.65,5.74c-0.06,0.18-0.12,0.31-0.18,0.43c-0.72,1.31,1.02,0.41,2.64-0.08
			c1.6-0.49,4.43-1.37,6.88-0.29c0.62,1.88,1.64,4.75,2.34,5.96l-0.04-0.04c-3.24-0.27-5.64,3.32-5.16,5.33
			c1.07-0.92,7.07-2.32,10.39,0.35l-4.88-5.31l0,0l4.88,5.31l0,0l1.11,1.21l0.14,0.1c-2.68,0.96-5.23,2.68-7.19,5.76
			c3.22-0.49,6.74-0.7,9.96-0.27l-0.14,0.04l2.91,2.99c0.7,0.9,1.31,1.66,1.64,1.68l0.1,0.1c-2.81-0.14-5.61-0.86-6.89-2.3
			c0.29,3.52,10.14,7.5,13.2,7.87l0.1,0.1c-2.77-0.08-5.55,0.8-6.31,3.87c-1.13,4.49,1.13,5.62,1.58,5.84
			c0.66-1.68,3.69-4.8,10.27-3.4l-6.46,7.15c5.12-0.66,8.95-1.91,11.86-3.46l-0.02,0.04c3.91,8.01,11.5,12.29,17.56,14.32
			c0,0-2.73,7.11-5.57,13.26c-2.23,4.82-4.32,9.06-6.58,8.83c-2.11-0.18-3.81-1.21-4.39-1.41c-3.79-1.29-4.98-1.52-5.61-1.52
			c-1.31,0-0.55,0.64-1.31,1.5c-0.02,0.04-0.06,0.06-0.08,0.1l0.31-0.96c-1.7-0.64-7.75-1.64-10.31,2.44c3.2-0.7,8.4,0.06,9.26,0.61
			l0.14-0.41c-0.08,0.76,0.04,1.6,0.53,2.25l-0.06,1.89c-0.02,0.14-0.02,0.25-0.02,0.39c-1.5-1.25-7.66-0.64-7.01,6.19
			c2.15-1.89,3.01-3.3,7.6-1.99l0.14,0.02c0.14,1.7,0.08,1.76,3.26,1.58c1.04-0.06,2.01-0.39,2.95-0.82l0.16,0.02l2.5-0.68l0,0
			l3.67-1l0.04-0.02c0.06,0.16,0.18,0.31,0.41,0.47c0.74,0.49,0.16,1.68,1.09,1.68s0-2.05,1.62-2.66c1.62-0.61,5.21,1.19,5.92,1.54
			c0.7,0.33,1.23,1.13,1.68,1.09s0.64-1.76-0.16-2.4l3.12-0.41c0.1,0,0.2-0.02,0.27-0.04l0.21-0.02c0.37,0.74,1.54,0.76,2.77,1.5
			c1.25,0.74,2.3,0.29,2.7-0.1c0.35-0.35,0.27-0.31-0.57-0.84l0.57,0.29c3.11-0.25,5.7,1.54,5.55,3.11c4.04-1.86,1.35-5.64-0.55-6.7
			l-0.31-0.18c0.37-0.12,0.68-0.21,0.92-0.27c-1.23-0.86-2.44-1.11-3.5-1.13l-1.82-1l1.05-1.7c2.15-2.95,4.45-7.11,4.45-7.11
			l1.6-0.06l0.12-0.64c0.08,0.35,0.1,0.74,0,1.15c1.7-0.57,2.4-2.23,1.74-3.54l0.12,0.02c1.54,1.31,5.08,2.01,7.03,1.35l0.04-0.04
			c1.91,0.64,4.49,0.82,7.93,0.08c0.25-0.06,0.21-0.41-0.02-0.43c-4.73-0.41-5.18-1.56-4.94-3.24c2.34-1.25,6.89-4,6.05-8.91
			c1-1.64,0.92-3.36,0.45-5.27c-0.04-0.18-0.08-0.35-0.12-0.53l0.04-0.37C162.21,223.79,167.91,220.04,183.67,213.07z M60.06,170.27
			c0.02,0.21,0.04,0.43,0.04,0.66L60.04,171L60.06,170.27z M59.9,175.14L59.9,175.14c0,0.04,0,0.08,0,0.12V175.14z"/>
		<path class="st0" d="M136.8,244.32l-3.4,3.3C135.1,247.11,136.45,245.41,136.8,244.32z"/>
		<path class="st0" d="M106.04,260.25l-2.5,0.68C104.39,261.07,105.33,260.7,106.04,260.25z"/>
		<path class="st0" d="M70.31,152.85l6.95,0.84c0.82-3.85-1.5-6.58-7.21-5.72C70.04,147.99,71.39,150.57,70.31,152.85z"/>
	</g>
	<path class="st1" d="M96.48,256c-1.5-1.25-7.66-0.64-7.01,6.19c2.15-1.89,3.01-3.3,7.6-1.99C98.2,259.41,97.93,257.99,96.48,256z"
		/>
	<path class="st1" d="M96.93,248.85c-1.35-0.7-7.75-1.64-10.31,2.44c3.2-0.7,8.55,0.1,9.26,0.61
		C96.02,250.55,97.09,249.3,96.93,248.85z"/>
	<path class="st1" d="M134.45,255.78c1.89,1.05,4.61,4.84,0.55,6.7c0.16-1.54-2.44-3.34-5.55-3.11
		C126.17,258.83,133.63,255.08,134.45,255.78z"/>
	<path class="st1" d="M148.85,161.54c-5.7,0.21-19.22-0.78-24.2-1.97c-0.41-0.1-0.66,0.39-0.37,0.68c3.87,3.73,9.82,4.18,23.93,5.18
		C149.49,163.85,149.55,162.6,148.85,161.54z"/>
	<path class="st1" d="M59.94,175.7c-4.86,0.08-8.96-0.8-9.75-5.74c3.24,1.17,8.67,1.15,9.92-0.29"/>
	<path class="st1" d="M89.28,157.07c3.01-1.74,3.12-5.76,2.52-6.72c3.36,0.9,5.8,7.79,0.57,11.11
		C90.98,161.17,90.22,159.14,89.28,157.07z"/>
	<path class="st1" d="M70.35,152.89c1.09-2.29-0.27-4.88-0.27-4.88c5.72-0.86,8.03,1.86,7.21,5.72
		C74.75,154.14,72.38,154.02,70.35,152.89z"/>
	<path class="st1" d="M58.54,165.04c-2.27-1.78-5.37-2.62-8.38-0.86c1.19-3.28,5.06-5.96,11.52-3.54
		C60.98,162.48,60.16,164.18,58.54,165.04z"/>
	<g>
		<path class="st2" d="M180.78,174.98c0,0,0.08,7.6-2.48,10.82"/>
		<path class="st2" d="M174.55,177.97c2.62,2.32,7.3,11.27-0.72,14.88"/>
		<path class="st2" d="M165.41,187.34c2.25,2.17,3.3,4.12,1.05,7.56s-3.63,3.91-3.3,8.4c0.45,6.07,13.44,8.54,17.56,1.64
			c-1.35,1.43-11.11,2.4-11.11-3.14c0-5.84,5.78-5.47,4.43-14.53"/>
		<path class="st2" d="M158.65,202.4c1.43,2.62,0.9,5.62-0.08,7.19c-0.98,1.58-1.43,7.05-0.29,8.24c-2.7-1.13-7.05-2.93-4.8-13.34"
			/>
		<path class="st2" d="M150.1,205.23c-3.46,2.54-4.12,7.64-4.04,12.29c-2.77-3.59-3.14-7.5-3.01-9.43"/>
		<path class="st2" d="M152.83,209.84c-1.13,1.72-2.44,3.03-3.71,3.71s-2.89,1.8-2.97,2.62"/>
		<path class="st2" d="M183.71,213.11c-15.76,6.97-21.46,10.72-28.44,10.86c4.8-2.85,5.78-4.98,5.62-11.87"/>
		<path class="st2" d="M164.36,206.21c-0.2,1.64-2.6,4-3.22,4.53c-0.64,0.53-3.11,1.72-3.42,2.5"/>
		<path class="st2" d="M166.43,167.52c1.88,0.82,1.76,7.56,12.56,7.56c4.65,0,7.79-2.77,9.45-4.73c-3.83,1.76-8.28,2.36-8.28-1.27
			s1.58-4.08,1.58-6.78s-2.44-5.1-2.85-6.15"/>
		<path class="st2" d="M178.24,149.43c1.68-0.53,4.88,3.03,4.49,5.8c-0.39,2.77,4.53,2.21,5.62,1.35c-0.94,2.03-3.34,3.93-7.79,2.25
			"/>
		<path class="st2" d="M174.8,151.21c-1.45,0.7-3.95,1.76-5.61,1.5c3.71,2.54,5.29,4.39,5.51,8.05c-1.31-1.19-3.36-2.4-5.61-2.99
			c3.11,1.29,6,1.5,3.75,8.05"/>
		<path class="st2" d="M169.67,163.46c1.05,0.18,6.31,3.55,3.73,8.85"/>
		<path class="st2" d="M148.85,161.54c-5.7,0.21-19.22-0.78-24.2-1.97c-0.41-0.1-0.66,0.39-0.37,0.68
			c3.87,3.73,9.82,4.18,23.93,5.18"/>
		<polyline class="st2" points="132.54,157.25 135.25,160.74 137.05,156.7 		"/>
		<polyline class="st2" points="131.29,167.21 134.28,164.98 134.36,167.36 		"/>
		<path class="st2" d="M130.04,177.17c4.2-3.2,6.21-5.2,14.36-4.79c8.14,0.41,18.48,2.56,17.13,13.01"/>
		<path class="st2" d="M157.01,179.77c1.95,0.64,5.1,5.45,4.61,8.24c-0.51,2.79-2.5,4.84-5.29,5.35"/>
		<path class="st2" d="M150.7,196.6c3.11-0.55,6.41-3.14,7.01-5.9s-1.19-5.2-1.19-5.2"/>
		<path class="st2" d="M134.65,211.99c4.04-0.7,10.9-1.95,10.1-11.89c2.34-1,6.41-2.4,8.55-6.74"/>
		<path class="st2" d="M129.45,151.45c-0.45,0.74-1.89,0.51-2.5,0.06c-0.31-0.23-1.04-1.15-1.68-1.97
			c-0.49-0.62-0.04-1.54,0.74-1.56c2.23-0.06,5.78-0.21,6.78-0.55c1.5-0.51,3.26-1.56,7.15-1.27c3.81-2.44,4.3-1.86,5.55-2.34
			c1.25-0.51,4.1-2.54,5.2-2.54s8.55-0.25,10.2-0.2s3.77,1,4.47,2.89"/>
		<path class="st2" d="M127.64,152.15c-0.2,1.86,1.05,5.49,3.11,5.2s9.3-1.09,11.7-0.55"/>
		<path class="st2" d="M150.25,167.19c-1.19,1.7-1.25,3.4-3.91,4.1s-13.65,0.84-15.66-0.51c-1.99-1.35-0.61-3.24,0.29-3.5
			s5,0.29,6.05,0.8s10,2.79,12.21-4.65c0.74-2.6-4.45-6.09-6.78-6.56"/>
		<path class="st2" d="M145,148.5c1.99-0.74,3.5,0.35,5.16,0.55s4.2-0.06,4.9,0.64s1.7,0.64,2.11,0.39"/>
		<path class="st2" d="M149.3,146.91c-0.04,1.35,1,2.29,2.3,2.25"/>
		<path class="st2" d="M157.11,147.5c-0.9,1.35-2.75,1.8-3.55,1.76"/>
		<path class="st2" d="M164.96,146.91c-0.86,1.41-5.61,1.35-8.46,0.16s-5.76-2.44-6.86-2.66c0.61-1.15,1.54-1.33,3.85-1.39"/>
		<path class="st2" d="M152.38,145.53c-0.57,1.15-0.94,2.36-0.61,2.66s1.68,0.45,2.4,0.16c0.7-0.29,0.9-1.39,0.7-1.95"/>
		<path class="st2" d="M144.51,155.23c1.99-0.25,6.48-0.12,7.66,0.98"/>
		<path class="st2" d="M143.13,157.03c1.23-0.53,6.04-0.57,7.79,0.57s6.19,3.52,4.36,7.3"/>
		<path class="st2" d="M163.16,160.7c-1.27,0.16-7.01,0.61-8.36,0"/>
		<path class="st2" d="M153.22,161.6c1.13,0.94,2.89,2.93,0.78,6c-0.29-0.7-0.04-1.95-0.82-2.48"/>
		<path class="st2" d="M148.87,169.65c-0.16,0.41-0.33,0.41,0.33,0.2c0.68-0.23,4.28-1.62,4.32-4.04"/>
		<path class="st2" d="M180.82,176.37c1.74,0.27,4.53,1.58,7.52,2.27c1.86,0.43,3.93,0.64,6.11,0.29"/>
		<path class="st2" d="M85.88,187.42c-4.96,0.23-11.17,0.9-15.08,7.05c6-0.9,13.05-0.9,17.32,2.62"/>
		<path class="st2" d="M92.48,197.83c-2.77,1.72-11.48,1.8-14.1-1.13c0.29,3.52,10.14,7.5,13.2,7.87"/>
		<path class="st2" d="M95.33,205.23c-3.46-0.98-8.85-1.19-9.98,3.3s1.13,5.62,1.58,5.84c0.68-1.72,3.83-4.94,10.72-3.3"/>
		<path class="st2" d="M80.63,194.24c1.43,0.53,3.79,4.61,4.55,4.69"/>
		<path class="st2" d="M117.7,178.12c-2.7,2.99-8.14,6.19-11.05,5.39s-3.55-1.5-3.14-2.66c0.39-1.15,3.11-2.21,3.14-2.79
			c0.06-0.61-6.31,1.45-6.31,4.39c0,3.2,4.49,6.45,8.2,5.29"/>
		<path class="st2" d="M90.72,218.12c3.05-2.44,8.11-7.05,8.95-11.23c0.86-4.2,0-7.6,2.44-10.74c2.34-2.99,9.9-7.15,13.4-7.99
			s3.83-1.35,3.98-1.8"/>
		<path class="st2" d="M116.29,183.42c-2.91,1.29-10.92,4.73-13.52,11.91"/>
		<path class="st2" d="M101.68,208.95c1.45-1.09,2.4-3.5,2.79-5.59s4.49-6.35,8.05-7.15s5-1.54,5-1.54"/>
		<path class="st2" d="M124.3,196.15c-3.01,0.96-7.85,2.25-10.51,5.45c-2.85,3.44-3.95,14.04-23.07,16.52"/>
		<path class="st2" d="M120.55,208.16c-3.46,6.89-5.86,14.9,6.97,22.4c-4.65-0.16-19.02-3.71-24.94-15.84"/>
		<path class="st2" d="M113.26,206.45c-1.8,3.59-3.59,11.68,1.43,18.2"/>
		<path class="st2" d="M128.5,208.91c-3.91,4.49-5.41,8.24-3.14,12.73c2.25,4.49,7.05,4.2,8.18,5.7"/>
		<path class="st2" d="M137.38,208.24c-0.74,2.62-6.35,5.55-6.41,10.86s6.35,7.64,8.81,7.95c-3.11,1.76-14.82,1.35-20.14-3.44"/>
		<path class="st2" d="M147.75,224.12c3.05,0.74,6.6,4.75,6.95,6.35c1.19-1.76,1.15-3.55,0.64-5.59c-0.51-2.05-0.39-5.25-0.39-6.39"
			/>
		<path class="st2" d="M148.85,239.06c2.34-1.25,6.91-4,6.05-8.95"/>
		<path class="st2" d="M135.55,233.42c3.11,0.06,5,1.99,5.2,3.69c0.2,1.62,2.64,7.89,13.07,5.62c0.25-0.06,0.21-0.41-0.02-0.43
			c-4.73-0.41-5.18-1.56-4.94-3.24c0.25-1.86,3.2-7.25-8.91-9.88"/>
		<path class="st2" d="M145.86,242.7c-2.05,0.7-5.86-0.1-7.27-1.54"/>
		<path class="st2" d="M134.04,240.86c1.45,0.55,3.34,1.93,2.91,4c2.32-0.76,2.77-3.61,0.43-4.77c-2.85-0.74-3.5-3.34-2.4-5.64"/>
		<path class="st2" d="M120.2,228.96c-0.8,2.79-8.3,18.89-9.55,20.53c-1.25,1.64-3.24,2.09-5.16,1.05c-1.89-1.05-6.21-2.34-7.5-2.34
			c-1.31,0-0.55,0.64-1.31,1.5c-0.74,0.84-1.23,3.52,0.51,4.61"/>
		<path class="st2" d="M108.59,253.5c-1.89,0.74-8.2,1.15-9.8,0.8c-1.6-0.35-2.4,0.8-2.3,1.7s2.25,2.46,1.89,4.8"/>
		<path class="st2" d="M109.34,258.18c-2.5,0.2-5.41,3.4-8.85,3.59c-3.46,0.2-3.11,0.1-3.3-2.05"/>
		<path class="st2" d="M96.93,248.85c-1.7-0.64-7.75-1.64-10.31,2.44c3.2-0.7,8.4,0.06,9.26,0.61"/>
		<path class="st2" d="M96.48,256c-1.5-1.25-7.66-0.64-7.01,6.19c2.15-1.89,3.01-3.3,7.6-1.99"/>
		<path class="st2" d="M157.01,170.41c0,0-6.91,1.68-8.03,2.48"/>
		<path class="st2" d="M159.02,171.46c-0.64,1.72-3.22,2.73-4.24,2.66s-3.42-2.03-5.21-1.5"/>
		<path class="st2" d="M162.32,171.19c1.84,1.5,1.46,2.93,0.74,3.3c-0.7,0.37-5.55,1.05-6.48,0.7"/>
		<path class="st2" d="M168.67,170.62c-0.49,1.46-2.68,4.69-5.55,3.87"/>
		<path class="st2" d="M158.5,176.45c-0.53-0.78,0.04-1.13,0.49-1.13"/>
		<path class="st2" d="M130.2,173.63c-2.79-1.19-6.05,0-7.3,0.8c-1.25,0.8-4.61,2.5-6.54,2.3c0.61,0.96,1.31,1.95,4.04,2.09"/>
		<path class="st2" d="M129.79,170.04c-2.7,1.6-7.85,1.89-8.75,1.41c-0.9-0.51-0.25-3.59,4.8-2.79c-1.66-1.45-5.55-1.33-7.5-0.16
			c-1.76,1.05-1.89,4-0.51,4.79c0.82,0.47,5.92,0.64,7.17,0.25"/>
		<path class="st2" d="M162.4,141.41c-0.61-1.86,11.95-0.8,14.8-3.89c-0.25,2.15-1.35,3.69-2.3,4.34"/>
		<path class="st2" d="M167.91,150.31l7.13,0.84c1.66,0.2,3.18-0.96,3.44-2.6l0.9-5.74c0.16-1-0.8-1.84-1.76-1.52
			c-2.81,0.86-7.6,2.27-9.1,2.29c-2.15,0.06-3.3,0.06-3.3,0.06"/>
		<path class="st2" d="M166.91,144.71c2.56,0.16,7.4-0.55,8.46-0.9s1.66,1.76,0.25,4"/>
		<path class="st2" d="M136.86,244.36c-0.35,1.09-1.7,2.79-3.4,3.3"/>
		<path class="st2" d="M135.25,244.39c0,0-4.84,8.75-7.05,9.88"/>
		<path class="st2" d="M125.2,253.95c1.45,0,2.6,0.84,3.59,0.64c1-0.2,3.59-1.09,6.25,0.74c-1.19,0.35-4.75,1.35-6.66,3.44
			c1.31,0.84,1.45,0.74,1.05,1.15c-0.39,0.39-1.45,0.84-2.7,0.1s-2.44-0.74-2.79-1.54s-2.3-2.44-3.5-2.34"/>
		<path class="st2" d="M119.69,258.18c1.41-0.1,3.59,0.7,4.26,0.29"/>
		<path class="st2" d="M134.45,255.78c1.89,1.05,4.61,4.84,0.55,6.7c0.16-1.54-2.44-3.34-5.55-3.11"/>
		<path class="st2" d="M117.42,255.82c0.94,1.5,2.13,2.54,2.93,3.18c0.78,0.64,0.61,2.36,0.16,2.4s-0.98-0.74-1.68-1.09
			c-0.7-0.33-4.32-2.13-5.92-1.54c-1.62,0.61-0.68,2.66-1.62,2.66c-0.94,0-0.33-1.19-1.09-1.68c-0.74-0.49-0.37-1.09,0.04-1.5
			s0.98-2.81,0.53-3.93"/>
		<path class="st2" d="M103.59,260.98c1.17,0.2,2.52-0.61,3.14-1.15c0.64-0.57,2.07-1.05,3.01-0.53"/>
		<path class="st3" d="M77.85,188.61c-2.85-4.28-10.31-2.62-11.52-1.58c-0.49-2.01,1.91-5.62,5.16-5.33"/>
		<path class="st3" d="M68.61,174c0,0,2.34,7.5,3.3,8.26"/>
		<path class="st3" d="M59.94,175.7c-4.86,0.08-8.96-0.8-9.75-5.74c3.24,1.17,8.67,1.15,9.92-0.29"/>
		<path class="st3" d="M66.64,169c-2.29-2.15-5.7-1.88-6.89-0.98c0.55,1.66,0.66,6.8-0.06,8.12c-0.72,1.31,1.02,0.41,2.64-0.08
			s4.47-1.39,6.93-0.27"/>
		<path class="st3" d="M100.33,182.46c-2.46-3.89-18.26-9.92-19.94-15.76c-1.19-4.24,0.45-9.18,0.94-10.9
			c0.49-1.74-0.62-4.22-1.95-2.89s-5.16,1.04-6.97,0.84c-1.8-0.21-2.91-1.99-3.67-0.53c-0.78,1.46,2.77,4.49,1.76,8.16"/>
		<path class="st3" d="M80.92,159.71c1.97,0.08,3.12-0.21,3.96-1.6s3.13-3.12,4.08-1.46c0.96,1.66,1.91,4.51,3.96,5.14
			c1.45,0.45,0.55,2.56-0.96,2.36c-1.5-0.21-9.06,1.6-10.62,4.43"/>
		<path class="st3" d="M89.28,157.07c3.01-1.74,3.12-5.76,2.52-6.72c3.36,0.9,5.8,7.79,0.57,11.11"/>
		<path class="st3" d="M70.35,152.89c1.09-2.29-0.27-4.88-0.27-4.88c5.72-0.86,8.03,1.86,7.21,5.72"/>
		<path class="st2" d="M70.43,160.06c-2.71,0.66-4.53,0.25-5.16-1.17s-2.09-2.23-2.89-0.33s-1.88,5.7-3.07,6.04
			s-1.13,2.81,1.19,2.29s7.03-0.62,5.78,1.8"/>
		<path class="st2" d="M58.54,165.04c-2.27-1.78-5.37-2.62-8.38-0.86c1.19-3.28,5.06-5.96,11.52-3.54"/>
	</g>
</g>
<g>
	<path class="st4" d="M207.09,167.91c1.27-2.23,3.01-3.95,5.2-5.2c2.21-1.25,4.67-1.86,7.4-1.86c3.2,0,6,0.82,8.4,2.46
		c2.4,1.64,4.08,3.91,5.04,6.8h-6.6c-0.66-1.37-1.58-2.38-2.77-3.07s-2.56-1.02-4.12-1.02c-1.66,0-3.14,0.39-4.45,1.17
		c-1.29,0.78-2.3,1.88-3.03,3.3s-1.09,3.09-1.09,5c0,1.88,0.37,3.54,1.09,4.98c0.72,1.43,1.74,2.54,3.03,3.32
		c1.29,0.78,2.77,1.17,4.45,1.17c1.56,0,2.93-0.35,4.12-1.04c1.19-0.7,2.11-1.72,2.77-3.09h6.6c-0.96,2.91-2.64,5.2-5.02,6.82
		s-5.2,2.44-8.42,2.44c-2.73,0-5.2-0.62-7.4-1.86c-2.21-1.25-3.93-2.97-5.2-5.18c-1.27-2.21-1.91-4.73-1.91-7.52
		C205.2,172.64,205.82,170.12,207.09,167.91z"/>
	<path class="st4" d="M243.95,188.18c-2.25-1.25-4.02-2.99-5.33-5.21c-1.31-2.23-1.97-4.75-1.97-7.56c0-2.77,0.66-5.29,1.97-7.5
		c1.31-2.23,3.09-3.96,5.33-5.21s4.71-1.88,7.38-1.88c2.7,0,5.18,0.62,7.4,1.88s3.98,2.99,5.29,5.21c1.29,2.23,1.95,4.73,1.95,7.5
		c0,2.81-0.64,5.33-1.95,7.56c-1.29,2.23-3.07,3.96-5.31,5.21s-4.71,1.88-7.38,1.88C248.65,190.06,246.19,189.43,243.95,188.18z
		 M255.88,183.77c1.31-0.78,2.34-1.89,3.07-3.34c0.74-1.45,1.11-3.12,1.11-5.04s-0.37-3.57-1.11-5.02c-0.74-1.43-1.76-2.54-3.07-3.3
		c-1.31-0.76-2.83-1.15-4.55-1.15c-1.72,0-3.24,0.39-4.57,1.15c-1.33,0.76-2.36,1.86-3.09,3.3c-0.74,1.43-1.11,3.11-1.11,5.02
		s0.37,3.59,1.11,5.04s1.78,2.56,3.09,3.34c1.33,0.78,2.85,1.17,4.57,1.17C253.05,184.94,254.57,184.55,255.88,183.77z"/>
	<path class="st4" d="M289.69,161.21v4.63h-7.62v23.95h-5.74v-23.95h-7.62v-4.63H289.69z"/>
	<path class="st4" d="M298.34,189.04c-1.6-0.68-2.87-1.66-3.79-2.95c-0.94-1.29-1.41-2.79-1.43-4.55h6.15
		c0.08,1.17,0.49,2.11,1.25,2.77c0.74,0.68,1.78,1.02,3.09,1.02c1.35,0,2.38-0.31,3.16-0.96c0.76-0.64,1.15-1.48,1.15-2.52
		c0-0.84-0.25-1.54-0.78-2.09c-0.53-0.55-1.17-0.98-1.95-1.29s-1.86-0.66-3.22-1.04c-1.86-0.55-3.36-1.09-4.53-1.62
		c-1.15-0.53-2.15-1.33-2.99-2.42c-0.84-1.07-1.25-2.52-1.25-4.32c0-1.7,0.43-3.16,1.27-4.41s2.03-2.21,3.57-2.89
		c1.52-0.66,3.28-1,5.25-1c2.95,0,5.35,0.72,7.19,2.15c1.84,1.43,2.85,3.44,3.05,6h-6.31c-0.06-0.98-0.47-1.8-1.25-2.44
		c-0.78-0.64-1.82-0.96-3.09-0.96c-1.11,0-2.01,0.29-2.68,0.86c-0.66,0.57-1,1.41-1,2.5c0,0.76,0.25,1.41,0.76,1.89
		c0.51,0.51,1.13,0.92,1.89,1.23c0.74,0.31,1.82,0.68,3.18,1.09c1.86,0.55,3.38,1.09,4.55,1.64c1.17,0.55,2.19,1.37,3.03,2.46
		c0.84,1.09,1.27,2.52,1.27,4.3c0,1.52-0.39,2.95-1.19,4.26c-0.8,1.31-1.95,2.34-3.48,3.12s-3.34,1.17-5.45,1.17
		C301.74,190.06,299.94,189.73,298.34,189.04z"/>
	<path class="st4" d="M357.05,161.21l-7.99,28.55h-6.76l-5.37-20.33l-5.61,20.33l-6.72,0.04l-7.7-28.59h6.15l5.04,22.17l5.82-22.17
		h6.39l5.49,22.05l5.08-22.05C350.88,161.21,357.05,161.21,357.05,161.21z"/>
	<path class="st4" d="M366.68,188.18c-2.25-1.25-4.02-2.99-5.33-5.21s-1.97-4.75-1.97-7.56c0-2.77,0.66-5.29,1.97-7.5
		c1.31-2.23,3.09-3.96,5.33-5.21c2.25-1.25,4.71-1.88,7.38-1.88c2.7,0,5.18,0.62,7.4,1.88s3.98,2.99,5.29,5.21
		c1.29,2.23,1.95,4.73,1.95,7.5c0,2.81-0.64,5.33-1.95,7.56c-1.29,2.23-3.07,3.96-5.31,5.21c-2.25,1.25-4.71,1.88-7.38,1.88
		C371.37,190.06,368.91,189.43,366.68,188.18z M378.59,183.77c1.31-0.78,2.34-1.89,3.07-3.34c0.74-1.45,1.11-3.12,1.11-5.04
		s-0.37-3.57-1.11-5.02c-0.74-1.43-1.76-2.54-3.07-3.3c-1.31-0.76-2.83-1.15-4.55-1.15s-3.24,0.39-4.57,1.15
		c-1.33,0.76-2.36,1.86-3.09,3.3c-0.74,1.43-1.11,3.11-1.11,5.02s0.37,3.59,1.11,5.04s1.78,2.56,3.09,3.34
		c1.33,0.78,2.85,1.17,4.57,1.17S377.29,184.55,378.59,183.77z"/>
	<path class="st4" d="M398.67,185.23h9.43v4.55h-15.16v-28.57h5.74v24.02H398.67z"/>
	<path class="st4" d="M429.67,162.97c2.29,1.17,4.04,2.85,5.29,5.02s1.86,4.69,1.86,7.56s-0.63,5.37-1.86,7.5
		c-1.25,2.15-3.01,3.79-5.29,4.98c-2.29,1.17-4.92,1.76-7.93,1.76h-10v-28.57h10C424.75,161.21,427.38,161.8,429.67,162.97z
		 M428.5,182.44c1.64-1.64,2.46-3.95,2.46-6.91s-0.82-5.29-2.46-6.97s-3.96-2.52-6.97-2.52h-4.06v18.87h4.06
		C424.55,184.9,426.86,184.08,428.5,182.44z"/>
	<path class="st4" d="M456.62,165.84v7.17h9.63v4.55h-9.63v7.58h10.86v4.67h-16.6v-28.63h16.6v4.67H456.62z"/>
	<path class="st4" d="M490.61,162.97c2.29,1.17,4.04,2.85,5.29,5.02s1.86,4.69,1.86,7.56s-0.63,5.37-1.86,7.5
		c-1.25,2.15-3.01,3.79-5.29,4.98c-2.29,1.17-4.92,1.76-7.93,1.76h-10v-28.57h10C485.68,161.21,488.32,161.8,490.61,162.97z
		 M489.43,182.44c1.64-1.64,2.46-3.95,2.46-6.91s-0.82-5.29-2.46-6.97s-3.96-2.52-6.97-2.52h-4.06v18.87h4.06
		C485.47,184.9,487.79,184.08,489.43,182.44z"/>
	<path class="st4" d="M521.97,169.8c-0.66-1.19-1.56-2.11-2.7-2.73c-1.15-0.62-2.48-0.94-4.02-0.94c-1.7,0-3.2,0.39-4.51,1.15
		s-2.34,1.86-3.07,3.28c-0.74,1.43-1.11,3.05-1.11,4.9c0,1.91,0.37,3.57,1.13,5c0.74,1.43,1.8,2.52,3.13,3.28
		c1.35,0.76,2.89,1.15,4.67,1.15c2.19,0,3.98-0.59,5.37-1.74s2.3-2.77,2.75-4.84h-9.84v-4.38h15.49v5
		c-0.39,1.99-1.21,3.83-2.46,5.53s-2.87,3.05-4.86,4.06c-1.97,1.02-4.2,1.54-6.66,1.54c-2.75,0-5.25-0.62-7.48-1.86
		c-2.23-1.25-3.98-2.97-5.25-5.18s-1.91-4.73-1.91-7.52c0-2.81,0.64-5.33,1.91-7.56c1.27-2.23,3.03-3.95,5.25-5.2
		s4.71-1.86,7.44-1.86c3.22,0,6.02,0.78,8.4,2.34s4.02,3.77,4.92,6.6h-6.58V169.8z"/>
	<path class="st4" d="M539.26,165.84v7.17h9.63v4.55h-9.63v7.58h10.86v4.67h-16.6v-28.63h16.6v4.67H539.26z"/>
	<path class="st4" d="M226.5,218.91c-0.66-1.19-1.56-2.11-2.7-2.73c-1.15-0.62-2.48-0.94-4.02-0.94c-1.7,0-3.2,0.39-4.51,1.15
		c-1.31,0.76-2.34,1.86-3.07,3.28c-0.74,1.43-1.11,3.05-1.11,4.9c0,1.91,0.37,3.57,1.13,5c0.74,1.43,1.8,2.52,3.12,3.28
		s2.89,1.15,4.67,1.15c2.19,0,3.98-0.59,5.37-1.74s2.3-2.77,2.75-4.84h-9.84v-4.38h15.49v5c-0.39,1.99-1.21,3.83-2.46,5.53
		c-1.25,1.7-2.87,3.05-4.86,4.06c-1.97,1.02-4.2,1.54-6.66,1.54c-2.75,0-5.25-0.62-7.48-1.86c-2.23-1.25-3.98-2.97-5.25-5.18
		s-1.91-4.73-1.91-7.52c0-2.81,0.64-5.33,1.91-7.56s3.03-3.95,5.25-5.2c2.23-1.25,4.71-1.86,7.44-1.86c3.22,0,6.02,0.78,8.4,2.34
		c2.38,1.56,4.02,3.77,4.92,6.6h-6.58V218.91z"/>
	<path class="st4" d="M243.95,237.29c-2.25-1.25-4.02-2.99-5.33-5.21c-1.31-2.23-1.97-4.75-1.97-7.56c0-2.77,0.66-5.29,1.97-7.5
		c1.31-2.23,3.09-3.96,5.33-5.21s4.71-1.87,7.38-1.87c2.7,0,5.18,0.62,7.4,1.87s3.98,2.99,5.29,5.21c1.29,2.23,1.95,4.73,1.95,7.5
		c0,2.81-0.64,5.33-1.95,7.56c-1.29,2.23-3.07,3.96-5.31,5.21s-4.71,1.88-7.38,1.88C248.65,239.16,246.19,238.54,243.95,237.29z
		 M255.88,232.87c1.31-0.78,2.34-1.89,3.07-3.34c0.74-1.45,1.11-3.12,1.11-5.04s-0.37-3.57-1.11-5.02c-0.74-1.43-1.76-2.54-3.07-3.3
		c-1.31-0.76-2.83-1.15-4.55-1.15c-1.72,0-3.24,0.39-4.57,1.15c-1.33,0.76-2.36,1.86-3.09,3.3c-0.74,1.43-1.11,3.11-1.11,5.02
		s0.37,3.59,1.11,5.04c0.74,1.45,1.78,2.56,3.09,3.34c1.33,0.78,2.85,1.17,4.57,1.17C253.05,234.04,254.57,233.65,255.88,232.87z"/>
	<path class="st4" d="M275.96,234.34h9.43v4.55h-15.16v-28.57h5.74v24.02H275.96z"/>
	<path class="st4" d="M306.68,210.31v4.63h-11.91v7.32h9.14v4.55h-9.14v12.07h-5.74v-28.57H306.68z"/>
	<path class="st4" d="M321.02,216.99c1.27-2.23,3.01-3.95,5.2-5.2c2.21-1.25,4.67-1.86,7.4-1.86c3.2,0,6,0.82,8.4,2.46
		c2.4,1.64,4.08,3.91,5.04,6.8h-6.6c-0.66-1.37-1.58-2.38-2.77-3.07c-1.19-0.68-2.56-1.02-4.12-1.02c-1.66,0-3.14,0.39-4.45,1.17
		c-1.29,0.78-2.3,1.88-3.03,3.3c-0.72,1.43-1.09,3.09-1.09,5c0,1.88,0.37,3.54,1.09,4.98c0.72,1.43,1.74,2.54,3.03,3.32
		c1.29,0.78,2.77,1.17,4.45,1.17c1.56,0,2.93-0.35,4.12-1.04c1.19-0.7,2.11-1.72,2.77-3.09h6.6c-0.96,2.91-2.64,5.2-5.02,6.82
		s-5.2,2.44-8.42,2.44c-2.73,0-5.2-0.62-7.4-1.86c-2.21-1.25-3.93-2.97-5.2-5.18c-1.27-2.21-1.91-4.73-1.91-7.52
		C319.1,221.74,319.73,219.22,321.02,216.99z"/>
	<path class="st4" d="M357.7,234.34h9.43v4.55h-15.16v-28.57h5.74v24.02H357.7z"/>
	<path class="st4" d="M376.43,210.31v17.68c0,1.93,0.51,3.42,1.52,4.43s2.42,1.54,4.26,1.54c1.86,0,3.3-0.51,4.3-1.54
		c1.02-1.02,1.52-2.5,1.52-4.43v-17.68h5.78v17.64c0,2.42-0.53,4.47-1.58,6.15c-1.05,1.68-2.46,2.95-4.22,3.79s-3.73,1.27-5.88,1.27
		c-2.13,0-4.06-0.43-5.8-1.27s-3.11-2.11-4.12-3.79c-1.02-1.68-1.52-3.73-1.52-6.15v-17.64H376.43z"/>
	<path class="st4" d="M419.53,226.64c1.04,1.31,1.56,2.81,1.56,4.49c0,1.52-0.37,2.87-1.13,4.02s-1.84,2.07-3.26,2.71
		c-1.43,0.66-3.11,0.98-5.04,0.98h-12.32v-28.54h11.8c1.93,0,3.61,0.31,5.02,0.94s2.48,1.5,3.2,2.62c0.72,1.11,1.09,2.38,1.09,3.81
		c0,1.66-0.45,3.05-1.33,4.18c-0.88,1.11-2.07,1.91-3.54,2.38C417.17,224.53,418.5,225.33,419.53,226.64z M405.06,222.09h5.25
		c1.37,0,2.42-0.31,3.16-0.92c0.74-0.61,1.11-1.48,1.11-2.64s-0.37-2.03-1.11-2.66s-1.8-0.94-3.16-0.94h-5.25V222.09z M414.1,233.22
		c0.78-0.66,1.17-1.58,1.17-2.77c0-1.23-0.41-2.19-1.23-2.89s-1.93-1.04-3.32-1.04h-5.66v7.7h5.78
		C412.25,234.2,413.32,233.89,414.1,233.22z"/>
</g>
</svg>
