<?xml version="1.0" encoding="utf-8"?>
<!-- Generator: Adobe Illustrator 28.3.0, SVG Export Plug-In . SVG Version: 6.00 Build 0)  -->
<svg version="1.1" id="Layer_1" xmlns="http://www.w3.org/2000/svg" xmlns:xlink="http://www.w3.org/1999/xlink" x="0px" y="0px"
	 viewBox="0 0 600 400" style="enable-background:new 0 0 600 400;" xml:space="preserve">
<style type="text/css">
	.st0{fill:#F2EA25;}
	.st1{fill:#FEE000;}
	.st2{fill:#80AB40;}
	.st3{fill:#33612F;}
	.st4{fill:#40352B;}
	.st5{fill:#FFFFFF;}
	.st6{fill:#2F5226;}
	.st7{fill:#2A793C;}
</style>
<g>
	<g>
		<path class="st0" d="M226.55,270.57c1.13-0.94,2.25-1.81,3.56-2.31c0.44-0.19,0.94-0.31,1.44-0.44c3.81-1.19,6.75-4.19,8.88-7.56
			c0.75-1.19,1.44-2.5,2.31-3.56c0.88-1.06,2-2,2.75-3.13c1.13-1.63,1.63-3.69,2.88-5.25c0.81-1,1.88-1.75,2.44-2.88
			c0.75-1.38,0.69-3.06,0.56-4.56c-0.06-0.44-0.06-0.88-0.31-1.25c-0.19-0.38-0.56-0.69-0.94-0.94c-2.5-1.63-6.06-1.38-8.31,0.63
			c-0.63,0.56-1.19,1.25-1.75,1.94c-1.75,2.25-3.5,4.5-5.25,6.69c-1.38,1.75-2.75,3.5-4,5.38c-2.88,4.31-4.88,9.19-5.94,14.31
			c-0.06,0.44-0.19,0.88-0.13,1.31c0.13,0.94,1.06,1.75,2.06,1.69"/>
	</g>
	<g>
		<path class="st0" d="M212.18,244.69c-1.69,0.19-3.44,0.44-4.69,1.56c-1.5,1.31-1.75,3.69-0.94,5.5c0.19,0.44,0.44,0.88,0.5,1.38
			c0.13,0.63-0.06,1.25-0.06,1.88c-0.06,0.94,0.19,1.81,0.38,2.75c0.31,1.38,0.69,2.75,1,4.13c0.38,1.56,0.88,3.25,2.19,4.19
			c0.38,0.25,0.81,0.38,1.13,0.69c1.13,0.81,1.38,2.38,1.94,3.69c1,2.44,3.19,4.13,5.31,5.75c0.94,0.69,1.88,1.44,2.81,2.13
			c0.63,0.5,1.56,0.94,2.13,0.44c0.19-0.19,0.31-0.44,0.38-0.69c0.69-2.31-1.19-4.81-0.5-7.06c0.13-0.44,0.38-0.88,0.44-1.31
			c0.19-1-0.25-2-0.69-2.94c-2-4.13-3.63-8.38-4.94-12.75c-0.13-0.38-0.19-0.75-0.44-1c-0.5-0.56-1.31-0.69-1.88-1.25
			c-0.63-0.63-0.63-1.69-0.81-2.56c-0.5-1.88-2.69-3.13-4.56-2.56c0.19-0.75,0.81-1.38,1.56-1.63"/>
	</g>
	<g>
		<path class="st0" d="M267.62,167.31c0.94,0.19,2.13,0.38,2.75-0.38c0.25-0.31,0.38-0.69,0.44-1.06c0.56-2.25,0.63-4.56,1.25-6.75
			c0.63-2.06,1.69-3.94,2.44-5.94c1.31-3.44,1.63-7.19,0.88-10.81c-0.06-0.38-0.19-0.81-0.5-1.06c-0.31-0.25-0.75-0.25-1.13-0.31
			c-1.38-0.19-2.44-1.25-3.38-2.25c-1.94,1.81-1.81,4.81-1.88,7.44c-0.25,6.56-3,12.94-2.56,19.5c0.06,0.56,0.13,1.13,0.44,1.56
			s1.06,0.63,1.44,0.25"/>
	</g>
	<g>
		<path class="st1" d="M187.42,303.2c-2.75,3.13-3.13,7.63-3.38,11.81c-0.06,1.31-0.13,2.69,0.44,3.88
			c0.31,0.56,0.75,1.13,0.94,1.75c0.19,0.63,0.19,1.31,0.13,2c-0.06,2.69,0.25,5.44,1.06,8c0.06,0.31,0.25,0.63,0.5,0.75
			c0.19,0.06,0.44,0.06,0.69,0c1.63-0.38,3.31-0.56,5-0.56c0.44,0,0.94,0,1.38,0.25c0.38,0.25,0.63,0.69,0.81,1.13
			c0.75,1.69,1.31,3.75,3.06,4.38c0.75,0.25,1.56,0.13,2.38-0.06c2.25-0.69,4.06-2.63,4.63-4.88c0.19-0.75,0.31-1.63,1-2
			c0.94-0.56,2.06,0.31,3.06,0.63c1.94,0.63,4.19-1.13,4.13-3.13c-0.06-1.88-1.81-3.38-2.13-5.25c-0.56-3.13,2.88-5.63,3.19-8.75
			c0.25-2.13-0.94-4.13-2.06-6c-0.5-0.75-1-1.56-1.75-2c-0.75-0.44-1.69-0.44-2.56-0.5c-5.5-0.25-11-1-16.31-2.31
			c-1.56-0.38-3.63-0.69-4.5,0.69"/>
	</g>
	<g>
		<path class="st1" d="M262.62,161.43c-0.5-3-1.25-6.13-3.44-8.25c-1.5-1.5-3.5-2.31-5.31-3.44c-3.25-2.06-5.81-5.25-9.5-6.44
			c-5.94-2-13.44,1.75-18.38-2.13c-2.25-1.81-3.25-4.75-5-7.06c-2.13-2.81-5.38-4.56-8.56-6.19c-3.25-1.69-6.56-3.44-9.81-5.13
			c-1.5-0.81-3.63-1.5-4.81-0.25c-0.94,1.06-1,3.19-2.38,3.06c-0.31,0-0.63-0.19-0.94-0.44c-1.56-1.25-1.81-3.44-2.44-5.38
			c-0.63-1.88-2.19-3.94-4.19-3.5c-3.13,2.81-4.69,7.31-3.88,11.44c0.69,3.63,3,6.94,3.19,10.63c0.19,3.19-1.31,6.25-1.5,9.5
			c-0.13,2.56,0.56,5.25-0.19,7.69c-0.56,1.88-1.88,3.5-2.56,5.31c-0.88,2.31-0.63,4.88-0.63,7.38c0.19,11.19-3.38,22.25-2.81,33.44
			c0.31,5.94,1.75,11.94,0.5,17.75c-0.81,3.69-2.63,7.56-1.06,10.94c0.69-0.5,1.25-1.31,1.44-2.19l0.25-0.38
			c-0.13,1.56,0,3.13,0.31,4.63c-0.19,0.38-0.31,0.81-0.31,1.25c-0.5,0-1,0-1.5,0c-0.38,0-0.75,0-1.06,0.19
			c-0.56,0.38-0.63,1.19-0.56,1.88c0.31,3.94,0.94,8,0.06,11.88c-0.25,1-0.56,1.94-0.75,2.94c-0.5,2.38-0.19,4.88,0.06,7.31
			c0.31,2.94,0.75,6.06,2.88,8.13c0.13,0.12,0.31,0.25,0.5,0.25c0.13,0,0.31-0.06,0.44-0.13c0.38-0.19,0.63-0.5,0.94-0.81
			c-0.38,3.75-1.06,7.5-1,11.25c0,1.56,0.13,3.19,0.69,4.63c0.81,2.19,2.44,3.94,3.38,6.06c1.44,3.38,0.88,7.25-0.44,10.63
			c-0.63,1.56-1.38,3.38-0.44,4.75c0.56,0.81,1.5,1.19,2.38,1.56c3.13,1.19,6.19,2.44,9.31,3.63c2.31,0.88,4.63,1.81,7,2.19
			c3.5,0.56,7.13,0.06,10.69,0.56c0-6.56-0.63-13.06-1.88-19.5c-0.5-2.5-1.06-5.06-2.25-7.31c-1-1.88-2.44-3.5-3.13-5.5
			c-0.81-2.44-0.56-5.06-0.88-7.63c-0.56-4.31-2.88-8.13-4.31-12.25c-1.44-4.13-1.69-9.13,1.25-12.31c0.69-0.75,1.5-1.31,2.19-2.06
			c1.44-1.63,2.06-3.81,3.13-5.69c0.44-0.75,1.06-1.5,1.75-2.13c1.38-0.69,2.94-0.81,4.5-0.5c0.06,0.06,0.13,0.06,0.13,0.13
			c0.69,0.75,0.44,1.94,0.44,3c-0.13,4.19,3.81,8.06,8,7.81c3.88-0.25,7.19-3.94,7.13-7.81c0.06-0.06,0.19-0.13,0.25-0.25l0.25,0.56
			c0.5-0.44,0.75-1.06,0.81-1.69c0.81-1,1.5-2.13,2.19-3.19c2.56-4,5.75-7.5,9.5-10.44c2.44-1.94,5.13-3.63,7.31-5.81
			s3.94-5.13,3.88-8.25c-0.06-1.75-0.63-3.44-0.44-5.19c0.13-1.75,1.44-3.56,3.19-3.44c0.69,0.06,1.31,0.44,2,0.25
			c0.81-0.19,1.19-1.06,1.44-1.88C263.75,187.37,264.81,174.12,262.62,161.43z"/>
	</g>
	<g>
		<path class="st1" d="M191.24,97.68c1.5-0.88,3.13,1.56,4.81,1.13c1.38-0.31,1.56-2.13,1.69-3.5c0.13-1.69,0.44-3.38,0.94-5
			c0.38-1.19,0.88-2.44,0.5-3.63c-0.31-0.88-1.06-1.56-1.69-2.31c-2.13-2.69-1.69-6.44-1.44-9.81c0.25-4.06,0-8.19-0.75-12.25
			c-0.06-0.38-0.13-0.75-0.38-1c-0.88-1.06-2.88,0.13-3.81-0.81c-0.25-0.25-0.38-0.63-0.63-0.94c-0.81-0.81-2.31-0.06-2.75,1
			c-0.44,1.06-0.44,2.31-1,3.31c-0.25,0.5-0.69,0.94-1,1.44c-0.94,1.44-1.25,3.19-1.13,4.94s0.69,3.38,1.31,4.94
			c0.19,0.5,0.38,1.06,0.5,1.56c0.06,0.5,0.06,1,0,1.56c-0.25,4.63-0.5,9.25-0.75,13.88c-0.13,2.25-0.25,4.5-0.38,6.81
			c-0.13,2.25-0.25,4.5-0.38,6.75c-0.19,3.19-0.31,6.31-0.5,9.5c-0.06,1.06,0.06,2.31,1,2.69c0.56,0.19,1.13,0,1.69-0.19
			c2-0.75,4.25-1.88,4.5-3.94c0.19-1.5-0.88-2.88-1.5-4.25c-0.69-1.69-0.81-3.56-0.31-5.31c0.19-0.69,0.5-1.44,0.56-2.19
			c0.06-0.69-0.13-1.44-0.13-2.19s0.19-1.5,0.75-1.94"/>
	</g>
	<g>
		<path class="st0" d="M203.36,65.48c-1.13-0.44-2.56,0.5-2.69,1.69c-0.06,0.88,0.38,1.69,0.81,2.38c0.44,0.75,0.94,1.5,0.94,2.38
			s-0.69,1.81-1.56,1.63c-0.75-0.13-1.44-1-2.06-0.56c-0.38,0.25-0.38,0.75-0.38,1.19c0.25,2.44,1.5,4.88,0.94,7.25
			c-0.94,0.25-2-0.31-2.25-1.25c-0.13-0.5-0.13-1-0.06-1.44c0.13-2.13,0.31-4.19,0.44-6.31c0.06-0.75,0.13-1.5,0.25-2.19
			c0.13-0.56,0.38-1.13,0.5-1.69c0.25-1,0.25-2.06,0.25-3.13c0-1.81,0-3.56,0-5.38c0-0.63,0-1.31-0.44-1.81
			c-0.5-0.56-1.31-0.56-2.06-0.56c-2.25,0-4.5,0-6.75,0c-0.19,0-0.44,0-0.56,0.13c-0.13,0.13-0.19,0.25-0.25,0.44
			c-0.56,1.38-0.94,3.19,0.31,4c0.69,0.44,1.56,0.38,2.31,0.31c1.25-0.06,2.75,0.19,3.31,1.31c0.19,0.44,0.25,0.88,0.31,1.38
			c0.19,1.94,0.31,3.88,0.5,5.81c0.13,1.31,0.19,2.63,0.13,3.94c-0.06,1.25-0.31,2.5-0.31,3.69c0.06,2.44,1.13,4.75,2.38,6.88
			c0.38,0.56,0.69,1.19,0.88,1.81c0.25,0.88,0.06,1.81-0.06,2.75c-0.25,1.56-0.56,3.19-0.81,4.75c-0.19,0.94-0.31,1.88-0.81,2.69
			c-0.13,0.25-0.31,0.5-0.63,0.63c-0.75,0.44-1.69-0.13-2.31-0.69c-0.63-0.56-1.31-1.25-2.19-1.19c-0.38,0-0.81,0.25-0.88,0.63
			c-0.06,0.31,0.06,0.69,0.25,0.94c1.31,1.88,4.13,2.44,5,4.5c0.5,1.19,0.31,2.5,0,3.75c-0.44,1.75-0.94,3.5-1.63,5.19
			c-1.56-0.56-1.81-2.63-2-4.25c-0.19-1.69-0.56-3.31-1.06-4.94c-0.06-0.13-0.13-0.31-0.25-0.38c-0.25-0.19-0.63,0.06-0.81,0.31
			c-1.13,1.44-0.75,3.5-0.38,5.31c0.88,3.88,1.75,7.75,2.63,11.63c0.69-0.5,1.38-1.06,1.81-1.81s0.56-1.75,0.06-2.44
			c0.5-0.44,1.44-0.19,1.69,0.44c0.81-1.25,1.19-2.81,1.56-4.31c0.69-2.94,1.38-5.88,2.13-8.75c0.38-1.5,0.69-3,1-4.5
			c1.13-5.31,1.69-10.75,1.69-16.25c0-0.44,0.06-0.88,0.38-1.06c0.31-0.19,0.75,0,1.13-0.06c0.44-0.06,0.69-0.5,0.88-0.94
			c1.81-4.38-1.69-9.31-0.94-14.06"/>
	</g>
	<g>
		<path class="st2" d="M202.49,85.3c1.19,2.56,2.31,5.19,3.5,7.75c0.31,0.69,0.69,1.44,1.44,1.63c0.31,0.06,0.69,0,1,0.13
			c0.31,0.19,0.5,0.56,0.69,0.88c1.44,3.25,3.38,6.31,5.69,9.06c1.25,1.5,2.63,2.88,4,4.31c0.44,0.44,0.88,0.88,1.31,1.38
			c1.44,1.5,2.94,3,4.63,4.19c1.38,0.94,2.88,1.63,4.38,2.38c1.06,0.5,2.13,1,3.19,1.5c0.63,0.31,1.25,0.63,1.94,0.88
			c4.06,1.88,8.13,3.81,11.81,6.25c0.31,0.19,0.56,0.38,0.88,0.44c0.94,0.19,1.75-0.75,1.88-1.69c0.06-0.94-0.31-1.81-0.75-2.69
			c-0.88-1.75-1.81-3.63-3.38-4.81c-0.94-0.69-2.06-1.13-3.06-1.75c-1.38-0.81-2.56-1.94-3.44-3.31c0.5-0.94,1.88-0.75,2.75-0.13
			c0.81,0.63,1.5,1.5,2.5,1.81c0.38,0.13,0.81,0.13,1.19,0.25c1,0.44,1.31,1.81,2.25,2.38c0.75,0.44,1.88,0.19,2.38-0.63
			c2.5,2.94,2.94,7.13,3.31,11c0.13,1.31,0.25,2.63,0.31,3.94c0.06,0.63,0.12,1.25-0.13,1.81c-0.44,1.06-1.75,1.44-2.88,1.63
			c-2.38,0.38-4.75,0.38-7.06,1c-1.63,0.44-3.19,1.13-4.81,1.56c-4,1-8.25,0.13-12.19-1.13c-3.94-1.31-7.75-3-11.81-3.75
			c-1-0.19-1.94-0.31-2.88-0.63c-1.88-0.69-3.31-2.06-4.69-3.44c-0.75-0.75-1.5-1.5-2.31-2.25c-1.5-1.44-2.94-2.94-4-4.69
			c-0.81-1.38-1.38-2.94-1.81-4.5c-0.81-2.81-1.31-5.81-0.81-8.69c0.25-1.31,0.69-2.63,1-3.94c0.31-1.38,0.44-2.75,0.63-4.13
			c0.69-4.88,2.06-9.63,4.06-14.06"/>
	</g>
	<g>
		<path class="st1" d="M360.26,135.87c0.06-1.44,0.19-2.94-0.12-4.38c-0.25-1.19-0.69-2.5-0.06-3.5c0.25-0.38,0.56-0.63,0.94-0.88
			c0.69-0.56,1.25-1.31,1.63-2.13c0.25-0.5,0.63-1.06,1.13-0.94c0.56,0.19,0.5,0.94,0.81,1.44c0.13,0.19,0.31,0.38,0.5,0.56
			c0.13,0.25,0.19,0.56,0.19,0.81c0.19,1.88,0.31,3.94-0.69,5.56c-0.56,0.94-1.5,1.69-1.88,2.81c0,0.06-0.06,0.19-0.13,0.25
			c-0.06,0.06-0.19,0.06-0.25,0.06c-0.75,0.06-1.5,0.13-2.31,0.19"/>
	</g>
	<g>
		<path class="st2" d="M274.93,150.99c-0.06-4.56,0.5-9.13,1.69-13.56c0.38-1.56,0.88-3.13,1.88-4.38c1-1.31,2.5-2.25,4-3
			c8.06-4.06,17.38-4.56,26.38-4.94c2.75-0.13,5.56-0.25,8.31,0.06c1.44,0.13,2.88,0.44,4.31,0.5c1.38,0.06,2.75-0.06,4.13-0.19
			c4.81-0.44,9.69-0.88,14-3c5.13-2.5,8.81-7,12.75-11.13c2.56-2.69,5.31-5.19,8.19-7.56c1-0.88,2.13-1.69,3.44-1.94
			c1.69-0.31,3.5,0.56,4.56,1.94c1.06,1.38,1.56,3.13,1.63,4.88c0.38,6.13-3.31,11.75-7.31,16.44c-0.81,1-1.69,2-2.06,3.19
			c-0.5,1.69-0.06,3.56-0.5,5.25c-0.38,1.56-1.5,2.88-2.63,4.13c-2.69,3-5.31,6.06-8.38,8.69c-1.13,1-2.31,1.94-3.19,3.19
			c-0.88,1.25-1.19,2.94-0.5,4.31c1.44,0.31,2.69-0.94,3.69-2c1-1.06,2.56-2.13,3.81-1.38c0.81,1.69-0.44,3.63-1.69,5
			c-4.13,4.63-9.31,8.31-14.38,11.94c-2.25,1.63-4.56,3.25-7,4.5c-8,4-17.5,3.88-26.19,1.63c-4.94-1.25-9.69-3.13-14.44-5.13
			c-3.81-1.63-7.69-3.38-10.75-6.25c-3-2.88-5.06-7.06-4.31-11.19"/>
	</g>
	<g>
		<path class="st1" d="M263.06,264.26c-2.56,0.63-5.06-1.81-5.56-4.44c-0.5-2.63,0.19-5.25,0.69-7.88
			c0.75-4.44,0.69-8.94,0.88-13.44c0.19-4.44,0.69-8.88,1.25-13.31c0.25-1.94,0.44-3.81,0.69-5.75c1.19-10.5,2.44-21,3.63-31.57
			c0.19-1.44,0.31-2.94,0.94-4.25c0.44-1,1.13-1.88,1.56-2.94c0.69-1.75,0.5-3.63,0.63-5.5c0.44-4.94,3.31-9.25,6.13-13.31
			c-0.06,0.5-0.13,1.06-0.19,1.56c1.63,2,5.25-0.75,7.25,0.88c1.56,1.25,0.56,3.94,1.63,5.69c0.44,0.81,1.31,1.31,2.13,1.75
			c2.19,1.25,4.31,2.5,6.5,3.75c1.94,1.13,4.19,2.25,6.31,1.5c1.81-0.63,3-2.5,4.88-2.94c0.94-0.19,1.94,0.06,2.88,0.25
			c6.81,1.44,13.94,1.38,20.69-0.25c1.25-0.31,2.56-0.69,3.69-1.31c1.19-0.69,2.13-1.63,3.13-2.5c2.81-2.44,6.19-4.25,9.75-5.31
			c1.44-0.44,3.06-0.75,4.5-0.25c2.06,0.69,3.38,3.25,2.69,5.31c-0.63,2.13-3.13,3.44-5.25,2.88c0,2.44-2.31,4.13-3.94,6
			c-2.31,2.69-3.38,6.69-2.13,10c0.75,2.06,2.19,3.69,3.25,5.63c3.5,6.75,0.81,15.13-3.31,21.5c-1.06,1.63-2.25,3.31-2.69,5.19
			c-1,3.94,1.25,7.88,3,11.56c1.69,3.69,2.81,8.44,0.13,11.5c-2.63,3-7.38,2.56-11.25,1.75c-2.81-0.56-5.56-1.19-8.31-1.88
			c-4.19-1-8.75-2.06-12.56-0.19c-1.25,0.63-2.44,1.56-3.81,1.94c-1.13,0.31-2.31,0.19-3.44,0.06c-2.88-0.25-5.81-0.5-8.56-1.5
			c-4.56-1.56-8.88-5-13.56-4.19c-2.56,0.44-4.75,2.13-6.75,3.69c-0.88,0.69-1.81,1.38-2.31,2.38c-0.69,1.19-0.75,2.56-0.81,3.94
			c-0.25,4.69-0.5,9.38-0.75,14.06c-1.19,0.13-2.38-0.5-3-1.56"/>
	</g>
	<path class="st0" d="M192.74,345.7c0.06-1.06,1.19-1.75,2.13-2.25c4.75-2.5,8.75-6.38,11.31-11.06c0.75,1.5,2.63,2.25,4.19,1.69
		c0.69-0.25,1.25-0.69,1.94-1c1.31-0.5,2.75-0.25,4.19-0.25c1.38,0,3-0.44,3.56-1.75c0.69-1.75-1.06-3.5-2.69-4.44
		c-1.63-0.94-3.63-2-3.81-3.88c-0.06-0.81,0.25-1.63,0.5-2.38c1.63-4.38,2.5-9.06,2.69-13.69c0.12-4.5-0.44-9-1-13.5
		c-0.63-4.88-1.19-9.75-1.81-14.56c-0.19-1.56-0.44-3.19-1.44-4.44c-1.13-1.31-2.94-1.81-4.25-2.88c-2.81-2.31-2.75-6.56-4.06-9.94
		c-0.63-1.63-1.63-3.13-2.38-4.69c-1.44-3.06-1.81-6.75-0.31-9.75c1.56-3,5.38-4.81,8.44-3.5c1.19-2,2.38-4,3.5-6.06
		c1.44,0.63,1.44,2.69,1.06,4.19c-0.44,1.5-1,3.25-0.06,4.56c1,1.38,3.25,1.31,4.19,2.75c0.88,1.31,0.31,3.56,1.69,4.31
		c1.56,0.88,3-1.25,4.56-2.13c1.44-0.81,3.31-0.56,4.81-1.25c4.06-1.81,3.38-8.56,7.13-10.88c0.75-0.44,1.69-0.69,2.38-1.25
		c1.69-1.25,1.94-3.69,2.25-5.75c0.31-2.06,1.5-4.5,3.63-4.63c0.63-0.06,1.25,0.13,1.81-0.06c0.94-0.31,1.44-1.38,1.75-2.31
		c1-2.94,2-5.88,3.06-8.81c-0.81-0.06-1.56,0.19-2.31,0.44c-10.19,3.56-18.44,12.13-21.75,22.38c-0.81,2.5-2.06,5.63-4.69,5.5
		c-1.63-0.06-2.88-1.56-3.44-3.13c-0.56-1.56-0.56-3.25-1-4.81c-0.69-2.5-2.56-4.75-5-5.63c-2.44-0.94-5.44-0.44-7.31,1.38
		c-0.88,0.88-1.5,2-2.06,3.06c-2,3.75-3.75,7.63-4.56,11.75c-1.75,9.25,1.81,18.63,4.06,27.75c1.5,6.06,2.5,12.25,2.94,18.5
		c0.13,1.56,0.19,3.25,1.06,4.63c0.44,0.69,1.06,1.31,1.56,1.94c2.38,2.88,2.94,7.06,1.38,10.44c-0.56,1.25-1.38,2.38-1.63,3.75
		c-0.38,2.19,1,4.38,0.75,6.63c-0.13,1.13-0.63,2.25-0.56,3.38s1.13,2.38,2.19,2c0,1.13-1.38,2-2.38,1.56
		c-1.75-0.5-1.69-3-1.19-4.81s0.81-4.19-0.88-4.94c-1-0.44-2.25,0.13-2.88,1s-0.81,2.06-0.88,3.13c-0.19,2.56,0.13,5.13-0.19,7.63
		c-0.31,2.5-1.63,5.13-3.88,6.19c-1.63-1.63-1.56-4.63,0.19-6.13c-1.88-1.06-4.19-1.38-6.25-0.81c-1,0.25-1.94,0.69-2.94,0.63
		c-2.31-0.13-3.69-2.75-3.81-5.06c-0.12-2.31,0.5-4.69,0-6.94c-0.38-1.81-1.44-3.38-1.88-5.19c-0.44-1.81,0.06-4.06,1.75-4.69
		c0.94-0.38,2.06-0.13,3-0.38c1.44-0.38,2.31-1.88,2.5-3.31c0.19-1.44-0.19-2.94-0.56-4.31c-1.44-5.5-2.81-11-4.25-16.44
		c-0.19-0.63-0.38-1.31-0.81-1.75c-1.13-1-3.06-0.06-3.63,1.38c-0.56,1.44-0.19,3-0.06,4.5c0.88,8.5-4.19,16.5-4.94,25
		c1.94-0.06,3.81-1.06,4.94-2.56c0.63,5.06,1.25,10.06,1.88,15.13c0.25,2.19,0.56,4.5,1.94,6.25c1.31,1.75,4,2.69,5.75,1.38
		c1.31,0.31,1.44,2.25,0.69,3.38c-0.75,1.13-2,1.81-2.88,2.81c-1.19,1.44-1.56,3.5-0.94,5.25c0.63,1.69,3.06,3,4.25,1.63"/>
	<g>
		<path class="st4" d="M259.31,229.44c0.63-1.75,2.38-2.88,2.94-4.63c0.19-0.69,0.25-1.38,0.25-2.06c0.06-2.56,0.12-5.13,0.19-7.69
			c0-0.44,0-0.94-0.13-1.31c-0.19-0.5-0.69-0.88-1.19-1.13c-1.06-0.5-2.31-0.63-3.44-0.31c-1.31,6.63-1.19,13.25-1.81,19.94
			c-0.69,6.81-1.31,13.69-2,20.5c-0.38,3.63-0.69,7.31-1.5,10.88c-0.63,2.69-1.5,5.31-2.13,8c-1.38,5.81-1.56,11.94-0.5,17.88
			l-0.06,0.81c0.81,5.44-0.63,10.88-2.06,16.19c-0.63,2.38-1.31,4.75-1.94,7.13c-1.44,5.25-2.88,10.56-4.88,15.63
			c-0.94,2.44-2,4.88-1.94,7.44c0.06,2.56,1.75,5.31,4.31,5.63c2.13,0.25,4.06-1.19,5.75-2.5c0.94-0.75,1.88-1.5,2.5-2.56
			c1-1.69,0.94-3.81,1-5.81c0.06-5.38,0.94-10.69,1.75-16c1.13-7.44,2.06-14.88,2.44-22.38c0.19-3.63,0.31-7.19,0.44-10.81
			c0.31-6.31,0.81-12.63,1.38-18.88c0.56-6.5,1.06-12.94,1.63-19.44c0.25-2.88,0.5-5.81,1.06-8.63c0.94-4.63,2.75-9.44,1.38-13.94
			c-0.12-0.44-0.31-0.88-0.69-1.06c-0.12-0.06-0.25-0.13-0.44-0.13c1.88-3.81,1.38-8.38,1.44-12.69c0.06-9.13,2.63-18,5.19-26.75
			c0.75-2.69,1.56-5.31,2.31-8c0.75-2.5,1.44-5,2.31-7.44c1-2.75,2.19-5.44,3.75-7.94h-0.19c-0.63-1.56-1.56-3-2.75-4.25
			c-1.44,2.31-2.44,4.88-2.88,7.56c-0.38,2.25-0.63,4.94-2.63,6c-1.31-2.63-1.38-5.69-0.94-8.56c0.44-2.88,1.44-5.63,2.25-8.44
			c0.19-0.69,0.38-1.44,0.25-2.13c-0.12-0.69-0.69-1.44-1.38-1.44c-1.31-0.13-1.81,1.63-1.94,2.88c-0.5,5.94-1,11.94-1.44,17.88
			c-2.69-6.25-1.25-14-5.19-19.5c-0.31-0.44-0.69-0.88-1.19-1c-0.5-0.12-1.19,0.13-1.31,0.63c-0.06,0.38,0.19,0.75,0.38,1.13
			c3.44,5.25,2.56,12.06,3.75,18.25c0.31,1.81,0.88,3.63,1,5.44c0.06,1.25,0,2.5-0.12,3.75c-0.69,8.19-1.38,16.38-2.94,24.38
			c-1.31,6.5-3.13,13.5-0.56,19.63c0.19,0.44,0.44,0.88,0.75,1.19c-0.88,0.56-1.63,1.44-2.06,2.38c-0.63,1.31-0.81,2.75-0.94,4.19"
			/>
	</g>
	<g>
		<path class="st1" d="M296.56,335.95c-0.81-5.44-0.88-11-0.12-16.44c0.19-1.44,0.44-2.94,1.06-4.25c0.81-1.69,2.13-3,3.44-4.31
			c1.38-1.38,3.19-2.81,4.94-2.06c0.63,2.25,1.25,4.5,1.94,6.69c0.19,0.75,0.5,1.56,1.13,2c0.94,0.56,2.13,0.13,2.94-0.56
			c0.88-0.69,1.56-1.5,2.56-1.88c2.06-0.69,4.44,1.06,6.5,0.38c1.75-0.56,2.5-2.63,2.69-4.5c0.19-1.81,0.06-3.81,0.94-5.44
			c0.38-0.69,0.94-1.31,1.19-2.13c0.31-0.94,0.19-1.88,0.19-2.88c0.06-1.5,0.5-3,0.94-4.44c0.31-1.06,0.81-2.19,1.81-2.56
			c1.31-0.44,2.56,0.75,3.44,1.75c0.63,0.75,1.25,1.44,1.69,2.31c0.94,2.06,0.5,4.44,0.13,6.69c-1.06,6.19-1.56,12.44-1.44,18.69
			c0,1.38,0.06,2.75-0.25,4.06c-0.31,1.38-0.94,2.63-1.06,4c-0.19,1.81,0.5,3.63,0.56,5.44c0.06,1.81-0.88,3.94-2.69,4.19
			c-2.06,0.25-3.38-2-5.06-3.13c-0.88-0.56-1.88-0.94-2.94-1.19c-3.94-1.13-8-1.81-12.13-2.06c-0.56-0.06-1.19-0.06-1.69,0.25
			s-0.75,0.94-1.19,1.31c-0.56,0.5-1.31,0.63-2.06,0.69c-2.75,0.25-5.5,0.13-8.13-0.44"/>
	</g>
	<g>
		<path class="st4" d="M239.49,342.58c-1.44,1.5-3.88,1.19-5.88,0.69c-1.31-0.31-2.63-0.63-3.88-0.94
			c-1.88-0.44-3.75-0.88-5.63-1.06c-1.5-0.13-3-0.06-4.5,0c-7.88,0.31-15.75,0.69-23.63,1c-3.38,0.13-6.69,0.31-10.06,0.44
			c-3.75,0.19-7.44,0.31-11.13,0.69c-0.5-8.75,3.06-17.38,2.94-26.19c0-0.44,0-0.94,0.19-1.38c0.19-0.44,0.56-0.75,0.88-1.06
			c0.69-0.63,1.44-1.25,2.13-1.94c0.25,7.88-0.63,15.88-2.56,23.5c-0.25,0.94-0.38,2.25,0.56,2.69c0.5,0.25,1.13,0.06,1.69-0.06
			c3.31-0.75,6.69,1.5,10.13,1.06c1.06-0.13,2.13-0.56,3.19-0.81c3.5-0.75,7.13,0.44,10.63-0.12c0.94-0.13,1.88-0.44,2.81-0.44
			c1.06,0,2.06,0.31,3.06,0.5c2.81,0.44,5.69-0.19,8.5-0.31c1.25-0.06,2.5,0.06,3.81,0.13c4.75,0.31,9.44,0.56,14.19,0.88
			c0.69,0.06,1.38,0.13,1.94,0.5s0.88,1.25,0.44,1.75"/>
	</g>
	<g>
		<path class="st0" d="M228.18,323.7c-1.31,1.75-0.75,4.25,0,6.25c0.63,1.75,1.38,3.5,1.69,5.31s0.19,3.81-0.81,5.38
			c2,0.56,4.06,1.13,6.13,1.06c2.06-0.06,4.25-0.88,5.56-2.44c-0.63-2.94-3.31-5.25-3.63-8.25c-0.19-1.81,0.44-3.56,1.13-5.25
			c0.69-1.88,1.44-3.75,2.13-5.63c0.31-0.75,1.06-1.69,1.75-1.25c0.13,1.94-0.25,3.88-1.06,5.63c-0.31,0.69-0.75,1.38-0.88,2.13
			c-0.13,0.75,0.19,1.69,0.94,1.94c1.38,0.12,2.69-0.81,3.38-1.94c0.75-1.19,1-2.56,1.31-3.88c0.69-3.38,1.38-6.81,2.06-10.19
			c0.31-1.63,0.63-3.19,0.81-4.88c0.19-2.06,0.13-4.38,1.5-5.88c0.44-0.44,0.94-0.81,1.25-1.38c0.31-0.69,0.25-1.44,0.19-2.19
			c-0.25-3.5,0.63-6.94,0.63-10.44c0.06-3.38-0.75-6.81-2.25-9.81c-0.13-0.25-0.31-0.56-0.63-0.5c-0.19,0-0.38,0.19-0.44,0.38
			c-0.69,1.13-0.63,2.56-0.5,3.88c0.31,5.88-0.19,11.75-1.44,17.5c-0.5,2.13-1.06,4.25-1.25,6.44c-0.13,1.5-0.06,3.06-0.44,4.5
			c-0.38,1.44-1.31,2.88-2.81,3.31c-0.5-1.06-1.06-2.19-0.88-3.31c0.06-0.56,0.31-1.06,0.5-1.56c0.5-1.38,0.63-2.88,0.75-4.38
			c0.56-6.06,1.25-12.06,2.19-18.06c0.25-1.81,0.56-3.75,1.44-5.38c1.06-2.13,3-3.75,3.75-6c0.44-1.31,0.44-2.81,0.88-4.13
			c0.56-1.81,1.81-3.25,2.5-5c0.69-1.75,0.69-4.06-0.81-5.13c-1.13-0.06-1.25,1.5-1.75,2.5c-0.88,1.75-3.44,1.69-5.31,1
			c-1.88-0.69-3.88-1.69-5.69-0.88c-1.31,0.56-2.06,2-3.25,2.75c-1.81,1.19-4.75,1.13-5.56,3.19c-0.38,0.94-0.13,2.13-0.44,3.13
			c-0.25,0.94-1,1.63-1.56,2.5c-0.5,0.81-0.81,1.94-0.25,2.75c0.31,0.38,0.81,0.63,1.13,1c0.31,0.38,0.31,1.13-0.19,1.25
			c-0.88-0.38-1.88-0.25-2.69,0.19c0.13,0.94,1.38,1.5,2.19,1c0.38,2.31,0.69,4.94-0.75,6.69c-0.56,0.69-1.38,1.5-0.88,2.25
			c0.5,0.81,2.25,0.56,2.31,1.5c0.06,0.75-0.94,0.94-1.5,1.38c-1.13,0.94-0.31,2.69,0,4.13c0.31,1.56-0.13,3.13-0.38,4.69
			c-0.63,3.19-0.69,6.44-0.81,9.69c-0.06,2.56-0.19,5.13-0.25,7.69c-0.06,1.69,0,3.63,1.38,4.69"/>
	</g>
	<g>
		<path class="st1" d="M244.62,271.57c-1,0-1.19-1.44-1-2.38c0.25-0.94,0.5-2.19-0.31-2.75l-0.5-0.63c-0.56,0-1.06,0.06-1.63,0.06
			c-0.5,0.81-1.06,1.69-1.25,2.69c-0.19,1,0,2.13,0.81,2.75c-0.94,1.06-2.5,1.25-3.94,1.69c-1.38,0.44-2.88,1.44-2.81,2.88
			c0.06,0.88,0.63,2-0.13,2.5c-0.5,0.31-1.19,0-1.75,0.13c-0.81,0.25-1,1.25-1.06,2.06c-0.06,1.06-0.13,2.25,0.31,3.25
			c0.31,0.81,0.94,1.5,1.25,2.38c0.5,1.44-0.06,3.25-1.31,4.13c0.19,0.5,0.69,0.88,1.19,1.06c-0.13,0.06-0.19,0.13-0.31,0.25
			c-0.44,0.38-0.63,1.13-0.31,1.56c0.13,0.25,0.38,0.38,0.44,0.63c0.06,0.44-0.5,0.75-0.75,1.13c-0.44,0.63,0,1.5,0.25,2.25
			c0.63,1.75,0.13,3.88-1.25,5.19c0.38,0.19,0.5,0.69,0.44,1.06c-0.06,0.38-0.31,0.75-0.44,1.19c-0.31,0.88-0.13,1.88,0.19,2.75
			s0.75,1.75,1.31,2.56c-2.5,0.38-4.56,2.81-4.44,5.38c0.06,1.31,0.63,2.75,0.13,4c-0.31,0.88-1.19,1.56-1.63,2.38
			c-0.5,0.81-0.38,2.19,0.56,2.44c0.44,0.13,0.81-0.06,1.25-0.19c1.88-0.75,3.75-1.44,5.56-2.19c0.19-0.06,0.31-0.12,0.44-0.25
			c0.06-0.13,0.06-0.31,0.06-0.5c0-1.44,1.56-2.88,0.75-4.06c-0.69-1-2.5-0.88-2.75-2c0.63-0.31,1.31-0.63,1.75-1.13
			c0.5-0.5,0.75-1.31,0.5-1.94c-0.25-0.75-1.13-1.19-1.25-2c-0.06-0.25,0-0.56,0.06-0.81c0.44-2.19,0.81-4.38,1.25-6.63
			c0.13-0.75,0.31-1.5,0.13-2.25c-0.13-0.5-0.31-0.94-0.38-1.44c0-0.38,0.13-0.75,0.19-1.13c0.38-1.31,0.81-2.63,1.19-3.88
			c0.31-0.94,0.63-1.94,1.31-2.69c0.56-0.56,1.25-0.88,1.88-1.31c0.81-0.63,1.44-1.56,1.69-2.63c0.31,0.13,0.63,0.25,0.94,0.19
			c0.94-0.13,1.44-1.13,1.75-2c0.63-1.63,1.25-3.25,1.88-4.88c0.25-0.69,0.5-1.38,0.56-2.06
			C245.56,276.01,243.81,273.7,244.62,271.57z"/>
	</g>
	<g>
		<path class="st1" d="M256.56,279.76c3.06,3.88,3.31,9.13,3.44,14.06c0.19,8.19,0.38,16.44,0.56,24.63c0,0.63,0,1.38-0.56,1.81
			c-0.63,0.5-1.56,0.06-2.38,0.06c-1.25,0-2.25,1.19-2.44,2.44c-0.13,1.25,0.38,2.5,1.13,3.5c1.31,1.75,3.38,2.94,5.5,3.25
			c0.81,0.13,1.69,0.13,2.38,0.63c0.94,0.69,1.19,2,2.06,2.63c0.63,0.44,1.44,0.5,2.25,0.5c3.5,0.13,7.06,0.25,10.56,0.38
			c1.5,0.06,3.06,0.13,4.5-0.38c1.44-0.5,2.75-1.69,2.88-3.19c0.25-2.25-1.94-4.25-1.56-6.5c0.12-0.81,0.56-1.5,1.06-2.19
			c1.69-2.56,3.31-5.06,5-7.63c0.31-0.5,0.69-1.06,0.88-1.63c0.25-0.88,0.19-1.81,0.06-2.69c-0.56-4.94-1.19-9.94-1.75-14.88
			c-0.12-1.25-0.38-2.63-1.44-3.25c-0.69-0.38-1.5-0.38-2.19-0.75c-0.94-0.5-1.31-1.63-1.56-2.63c-1.25-4.56-1.94-9.88-5.75-12.63
			c-1-0.69-2.19-1.25-2.75-2.31c-0.94-1.81,0.38-4.13-0.5-5.94c-0.38-0.75-1.06-1.31-1.63-1.94c-2.5-2.63-2.81-6.63-3-10.25
			c-0.12-2.94,0.25-6.69,3.06-7.5c0.69-0.19,1.44-0.19,2.06-0.5c1.94-0.94,1.63-4.25,3.5-5.31c1-0.56,2.38-0.25,3.25,0.5
			c0.94,0.75,1.5,1.75,2.06,2.81c1.88,3.38,3.69,6.69,5.56,10.06c1.06,1.88,2.13,3.81,3.88,5c2.19,1.5,5.5,2.25,5.81,4.81
			c3.81-0.75,6.88-3.44,9.75-6.06c3.44-3.19,6.94-6.31,10.38-9.5c1.13-1,2.25-2.06,2.94-3.38c0.44-0.75,0.69-1.69,1.44-2.19
			c0.56-0.31,1.19-0.38,1.81-0.44c1.44-0.06,3-0.13,4.25,0.63c2,1.31,2.19,4.13,2.13,6.5c-0.12,5.88-0.25,11.75-0.38,17.63
			c-0.06,1.5-0.06,3-0.31,4.44c-0.25,1.56-0.69,3.13-0.94,4.75c-0.38,2.5-0.25,5,0.44,7.44c0.31,1.13,0.88,2.31,2,2.56
			c0.88,0.19,1.69-0.38,2.31-0.94c3.56-3.31,3.94-8.81,4.06-13.69c0.25-10.69,0.5-21.38,0.75-32c-16.06,2.63-32.57,1.31-48.76-0.44
			c-2.5-0.25-5-0.56-7.5-0.31c-2.06,0.19-4.06,0.81-6.13,0.56c-1.69-0.19-3.38-0.94-5.06-1c-4.38-0.06-7.31,4.31-9.38,8.13
			c-2.88,5.31-5.81,10.81-5.94,16.81c-0.06,2.5,0.38,5.06,0.25,7.56c-0.12,2.63-0.88,5.25-2.13,7.56"/>
	</g>
	<g>
		<path class="st0" d="M305.81,238.38c0.69,1.19,0.12,2.69-0.56,3.88c-0.81,1.38-1.81,2.75-3.19,3.56c-0.44,0.25-0.94,0.5-1.31,0.81
			c-1.25,1.06-1.56,2.94-2.81,3.94c-0.38-0.38-0.19-1.13,0.25-1.5c0.44-0.38,0.94-0.63,1.31-1.06c0.81-1,0.25-2.5-0.5-3.63
			c-0.19-0.25-0.38-0.5-0.69-0.56c-0.19,0-0.38,0.06-0.56,0.19c-0.63,0.31-1.25,0.69-1.56,1.31c-0.19,0.44-0.19,1-0.38,1.44
			c-0.19,0.5-0.69,0.88-1.13,0.69c-0.19-0.13-0.31-0.31-0.44-0.5c-0.5-1-0.31-2.31,0.38-3.13c1.38-1.63,4-1.38,5.63-2.81
			c0.38-0.31,0.63-0.69,1-0.94c0.75-0.69,1.75-1.06,2.69-1.38c0.56-0.19,1.25-0.38,1.75-0.06"/>
	</g>
	<g>
		<path class="st0" d="M335.25,258.26c-0.31-0.44-0.25-1.06-0.25-1.56c0.13-1.75,0.25-3.5,0.31-5.19c0.06-1.44,0.19-2.88,0.5-4.25
			c0.19-0.81,0.38-1.56,0.5-2.38c0.06-0.94-0.06-1.88-0.19-2.81c-0.25-2.06-0.56-4.06-0.81-6.13c-0.19-1.25-0.63-2.81-1.88-2.94
			c-1.06-0.13-1.88,1-2,2.06c-0.13,1.06,0.19,2.13,0.19,3.19c0,0.5-0.06,1.06-0.5,1.44c-0.44,0.38-1.06,0.25-1.63,0.25
			c-1.25-0.06-2.5,0.31-3.75,0.19c-1.5-0.13-2.88-1-4.38-1c-1.5,0-3.13,1.69-2.19,2.88c0.31,0.44,0.88,0.63,1.25,0.94
			c0.81,0.63,1.06,1.88,0.63,2.81c-0.25,0.5-0.63,0.88-1,1.25c-2.81,2.75-5.88,5.31-9.13,7.56c-1.5,1.06-3.06,2.06-4.38,3.31
			c-1,1.06-1.88,2.25-2.94,3.25c-0.81,0.81-1.88,1.44-3,1.63c-0.31-0.56-0.56-1.19-0.88-1.75c-0.19-0.44-0.5-0.88-0.94-1.06
			c-0.5-0.13-1,0.13-1.5,0.25c-1.13,0.25-2.31-0.25-3.19-1.06c-0.81-0.81-1.38-1.88-1.94-2.88c-2.63-4.94-5.63-9.75-8.88-14.31
			c-0.69-1-1.63-2-2.81-2c-1.13,0-2.06,1-2.56,2c-0.56,1-0.88,2.19-1.69,3c-1.06,1.06-2.75,1.31-4.06,2.06
			c-1.75,1-2.94,2.94-3.31,4.94c-0.44,2-0.19,4.06,0.25,6.06c0.56,2.56,1.63,5.13,3.63,6.81c0.56,0.5,1.25,0.94,1.69,1.56
			c0.75,1.31,0.12,2.94,0.12,4.44c0,3.19,2.63,5.63,3.94,8.5c1.94,4.38,0.69,9.38,0.75,14.19c0.06,1.63,0.31,3.38,1.56,4.38
			c1.25,1,3.63,0.5,3.75-1.06c0.13-1.44-1.5-2.69-1.06-4c0.38-1.19,2.19-1.31,3.13-0.44c0.94,0.81,1.19,2.13,1.38,3.38
			c0.63,4.75,0.44,9.5,0.25,14.25c-0.12,2.63-0.25,5.5-1.63,7.69c-0.81-0.5-1.56-1.38-2.44-1.75c-0.75-0.38-1.63-0.38-2.25-0.88
			c-0.56-0.44-0.81-1.13-1-1.81c-1.06-3.31-1.63-6.69-1.75-10.13c-0.06-1.31,0-2.63-0.38-3.88c-0.38-1.19-1.06-2.25-1.63-3.38
			c-1.69-3.13-2.69-6.56-2.94-10.06l-0.06,0.44c-0.25-0.44-0.94-0.38-1.25,0c-0.31,0.38-0.44,0.88-0.5,1.38
			c-0.31,2.5-0.69,5.06-0.38,7.56c0.19,1.88,0.75,3.69,0.81,5.56c0.13,3.5-1.5,6.75-3,9.88c-0.5,1-1.06,2.06-1.94,2.81
			c-0.38,0.31-0.75,0.56-1.13,0.88c-0.88,0.88-0.94,2.5-0.19,3.44c0.81,1,2.38,1.19,3.44,0.5c0-1.88,2.63-2.25,3.94-3.56
			c1.13-1.06,1.25-2.81,1.25-4.38c0.06-2.19,0.12-4.44,0.19-6.63c0.56,2.19,1.19,4.38,1.75,6.63c0.31,1.13,0.63,2.31,0.25,3.44
			c-0.25,0.81-0.81,1.44-1.13,2.25c-0.31,0.75-0.31,1.81,0.31,2.31c0.75,0.56,1.88,0.13,2.81,0.31c1.19,0.25,1.88,1.38,2.88,2.06
			c1.94,1.38,5.06,0.25,5.88-1.94c1-0.25,1.94-1,2.56-1.94c1.63-2.5,1.5-5.69,1.38-8.63c-0.25-4.94-0.56-9.88-0.81-14.75
			c0-0.5-0.06-1-0.25-1.5c-0.69-1.5-2.75-1.63-4.25-2.38c-1.94-0.94-3.06-3.06-3.63-5.19c-0.63-2.06-0.81-4.31-1.75-6.25
			c-1-2.19-2.88-4-5.13-4.94c-0.44-0.19-0.88-0.38-1.13-0.75c-0.63-1,0.69-2,1.13-3.06c0.56-1.31-0.31-2.81-1.13-4
			c-1.5-2.25-2.81-4.63-3.31-7.25c-0.44-2.69,0.06-5.44,0.5-8.06c0.13-0.63,0.31-1.31,0.81-1.69c0.5-0.31,1.19-0.19,1.81-0.25
			c2.44-0.13,3.69-2.81,5-4.88c0.19-0.25,0.38-0.56,0.75-0.69c0.25-0.06,0.5,0,0.75,0.06c2.25,0.88,3,3.63,3.88,5.88
			c1.31,3.5,3.69,6.5,5.94,9.5c0.81,1,1.56,2,2.38,3c0.44,0.56,0.88,1.13,1.56,1.25c0.56,0.12,1.13-0.06,1.69,0
			c0.94,0.19,1.44,1.19,2,2c0.56,0.81,1.5,1.63,2.38,1.19c0.19-0.44,0.44-0.88,0.63-1.31l-0.38,0.44c-0.06-0.12-0.13-0.25-0.19-0.44
			c1.13-0.13,2.31-0.88,3.25-1.56c2.69-1.94,5.5-3.88,8.63-4.94c0.69-0.25,1.38-0.44,1.94-0.88c0.56-0.44,0.88-1.13,1.31-1.75
			c1.75-2.63,5-4,6.75-6.63c1-1.5,1.56-3.38,3.13-4.38c1.31-0.81,3.19-0.69,4.44,0.25c1.25,0.94,2,2.5,2,4.06
			c0.06,2.19-1.13,4.19-1.13,6.38c0,1.25,0.38,2.5,0.69,3.75c0.88,3.31,1.25,6.75,1.13,10.13c-0.06,2.13-0.38,4.31-1.13,6.31
			c-0.44,1.13-1,2.19-1.19,3.31c-0.25,1.19-0.06,2.5,0.81,3.31c1.38-2.25,2.38-4.75,2.88-7.31c0.25-1.31,0.38-2.63,0.5-3.94
			c0.38-3.88,0.81-7.75,1.19-11.63C336.32,258.88,335.5,258.76,335.25,258.26z"/>
	</g>
	<g>
		<path class="st4" d="M333.63,341.27c-0.19-0.69-1-0.88-1.63-0.94c-2.19-0.25-4.38-0.25-6.56,0c-2,0.19-4.13,0.56-5.88-0.44
			c-0.88-0.56-1.56-1.38-2.44-2c-0.81-0.63-2.06-1-2.94-0.44c-0.31,0.19-0.5,0.44-0.81,0.63c-0.56,0.31-1.25,0.31-1.88,0.25
			c-1.5-0.13-3-0.5-4.44-1.13c-0.81-0.31-1.56-0.75-2.44-0.81c-1.13-0.13-2.25,0.25-3.31,0.38c-1.75,0.19-3.5-0.31-5.25-0.75
			c-1.06-0.25-2.06-0.44-3.13-0.63c0-0.25,0-0.44,0.06-0.69c0.19-0.81,0.88-1.38,1.25-2.06c0.5-0.88,0.63-1.88,0.75-2.88
			c0.31-2.63,0.56-5.31,0.88-7.94c0.19-1.56,0.31-3.06,0.06-4.63c-0.12-0.63-0.31-1.25-0.44-1.88c-0.19-1.13-0.12-2.31,0-3.5
			c0.38-2.44,1.19-4.81,1.06-7.25c-0.06-1.25-0.38-2.44-0.25-3.69c0.06-0.81,0.38-1.63,0.56-2.44c0.38-1.69,0.44-3.38,0.5-5.13
			c0.06-1.94,0.12-3.88,0.19-5.81c0-0.81,0.06-1.69-0.25-2.5c-0.31-0.81-1-1.5-1.81-1.5c-1.06,0-1.88,1-2.06,2.06
			c-0.19,1.06,0.06,2.13,0.19,3.19c0.25,2.13-0.19,4.31,0,6.44c0.06,1.06,0.25,2.06,0.31,3.13c0.13,1.31,0,2.56-0.06,3.88
			c-0.19,3.56-0.44,7.06-0.63,10.63c-0.19,3.13-0.38,6.31-0.56,9.44c-0.06,1.25-0.13,2.5-0.5,3.69c-0.25,0.75-0.63,1.44-0.75,2.25
			c-0.12,0.63-0.12,1.19-0.12,1.81c0,1.69,0,3.44,0,5.13c-2.75-0.44-5.5-0.75-8.25-1.06c-3.25-0.38-6.5-0.69-9.75-0.44
			c-1.31,0.13-2.63,0.31-3.94,0.13c-1.31-0.19-2.56-0.75-3.88-1c-1.75-0.31-3.5-0.06-5.25,0.25c-2.19,0.31-4.31,0.69-6.5,1
			l-0.31,0.5c-0.38,0.44-0.13,1.19,0.38,1.5s1.13,0.38,1.69,0.38c3.69,0.13,7.44,0.06,11.13-0.19c1.75-0.13,3.63-0.25,5.19,0.5
			c0.56,0.25,1.13,0.63,1.69,0.88c1.25,0.56,2.69,0.44,4.13,0.31c5.19-0.38,10.44-0.13,15.38,1.31c0.94,0.25,1.88,0.63,2.88,0.81
			c1.63,0.31,3.31,0.31,5,0.25c3.13-0.06,6.31-0.13,9.38,0.5c5.06,1.06,10.06,4,15.13,2.88c1.75-0.38,3.44-1.25,5.19-1.13
			c0.69,0.06,1.31,0.25,2,0.06C333.13,342.52,333.75,341.89,333.63,341.27z"/>
	</g>
	<g>
		<path class="st0" d="M322.69,226.82c-0.81,1.19-1.5,2.44-2.13,3.69c-0.63,1.19-1.19,2.31-1.81,3.5c-0.38,0.69-0.69,1.38-0.81,2.13
			c-0.06,0.75,0.12,1.63,0.75,2.06c0.06,0.06,0.12,0.06,0.25,0.06c0.13,0,0.19-0.06,0.25-0.13c0.81-0.69,1.63-1.44,2.44-2.13
			c0.31-0.25,0.63-0.56,0.81-0.94c0.25-0.5,0.25-1.06,0.25-1.63c0-1.88,0.06-3.75,0.06-5.63c0.56,0.31,0.81,1,0.94,1.63
			c0.56,2.56,0.12,5.31-1.19,7.56c-0.19,0.38-0.44,0.75-0.81,1c-0.75,0.63-1.81,0.75-2.81,0.81c-0.69,0.06-1.5,0.06-2-0.44
			c-0.31-0.31-0.44-0.69-0.56-1.13c-0.19-0.81-0.31-1.69-0.38-2.56c0-0.31,0-0.63,0.06-0.88c0.12-0.38,0.38-0.75,0.63-1.06
			c0.75-1,1.31-2.13,1.75-3.31c0.5-1.44,0.75-3,1.38-4.38c0.44-0.94,1-1.75,1.56-2.56c0.5-0.75,1.25-1.63,2.13-1.38
			c0.56,0.13,0.94,0.69,1,1.25c0.06,0.56,0,1.13-0.13,1.69c-0.19,0.75-0.31,1.5-0.75,2.13c-0.38,0.63-1.06,1.19-1.81,1.19"/>
	</g>
	<g>
		<path class="st0" d="M346.32,191.12c-0.19,0.38-0.63,0.63-1,0.56c-1.63-4.44,1.13-9.69-0.81-14c-1.06,0.25-1.63,1.38-1.88,2.44
			c-0.25,1.06-0.31,2.19-1,3c-0.31,0.44-0.75,0.75-1.13,1.19c-2.44,2.5-1.5,7.38,1.69,8.81c0.63,0.31,1.38,0.5,1.81,1.06
			c0.31,0.44,0.44,0.94,0.5,1.44c0.44,3,0.38,6.06,0.38,9.13c0,2.38-0.06,4.88-1.31,6.94c-1.38,2.25-3.94,3.56-5.31,5.81
			c-1.38,2.31-1.19,5.19-1,7.88c0.13,1.31,0.25,2.75,0.94,3.88c0.75,1.13,2.31,1.81,3.44,1.19c0.69,3.75,0.31,7.63-1.06,11.19
			c-1.31-2.38-2.13-5-2.19-7.75c0-0.56,0-1.19-0.31-1.69c-0.31-0.56-0.88-0.94-1.31-1.31c-3.31-2.69-3.56-7.81-2.06-11.81
			c0.5-1.44,1.25-2.75,1.88-4.13c2.25-4.88,3.88-10.06,4.69-15.31c0.19-1,0.31-2.13-0.13-3.06c-0.5-1.19-1.69-1.94-2.5-2.88
			c-2.38-2.69-1.88-6.81-1.13-10.31c0.81-3.81,2.38-8.13,6.06-9.5c1.19-0.44,2.69-0.38,3.44,0.63c0.56,0.69,0.5,1.69,0.44,2.56
			c-0.31,4.94-0.63,9.88-0.94,14.81"/>
	</g>
	<g>
		<path class="st4" d="M350.32,161.93c-0.13,4.63-1.31,9.13-2.25,13.69c-1.56,7.69-2.5,15.56-3.38,23.38
			c-1.69,14.88-3.38,29.75-4.25,44.69c-0.38,7-0.63,13.94-0.81,20.94c-0.25,8.38-0.38,16.81,0.69,25.13
			c-0.38,6.88-2.56,13.69-3.13,20.56c-0.19,2-0.19,3.94-0.5,5.94c-0.25,1.56-0.63,3.13-0.88,4.75c-0.44,3.13-0.19,6.25-0.38,9.44
			c-0.25,4.69-1.38,9.31-1.94,14c-0.06,0.25-0.06,0.5,0.06,0.75c0.25,0.5,1,0.56,1.44,0.25c0.44-0.31,0.63-0.94,0.75-1.44
			c0.56-2.88-0.56-5.88,0.31-8.63c0.38-1.31,1.19-2.44,1.63-3.69c0.69-2.13,0.31-4.5,0.63-6.69c0.31-2.44,1.38-4.69,1.56-7.13
			c0.13-1.38,0-2.75,0.06-4.13c0.13-1.63,0.5-3.19,0.88-4.75c0.94-3.88,1.63-7.81,2.06-11.81c0.25-2.25,0.38-4.56-0.19-6.75
			c-0.06-0.31-0.19-0.56-0.25-0.88c0.56-1.63,0.69-3.5,0.75-5.25c0.56-17.56,0-35.13,1.19-52.69c1.25-19.06,4.44-37.88,6.81-56.82
			c0.63-5.19,1.25-10.38,1.19-15.63l0.19-2.63C350.63,157.18,350.38,159.81,350.32,161.93z"/>
	</g>
	<g>
		<path class="st0" d="M241.31,196c-0.56-0.31-1.13-0.63-1.69-1c-0.19-0.13-0.44-0.25-0.69-0.19c-0.31,0.06-0.5,0.44-0.75,0.63
			c-0.38,0.31-1,0.31-1.44,0.06c-0.44-0.25-0.81-0.69-1.13-1.06c-0.5-0.63-1-1.31-1.5-1.94c-0.06-0.06-0.12-0.19-0.12-0.25
			c-0.06-0.19,0.12-0.38,0.25-0.5c0.81-1,0.81-2.44,1.5-3.56c0.69-1.06,2-1.63,3.19-1.38c0.25,0.06,0.44,0.13,0.63,0.25
			c1,0.69,0.5,2.38,1.06,3.44c0.25,0.44,0.69,0.75,0.94,1.19c0.44,0.63,0.63,1.38,0.81,2.19c0.06,0.44,0.19,0.88,0.06,1.31
			s-0.5,0.81-0.94,0.81"/>
	</g>
	<g>
		<path class="st0" d="M235.93,201.31c-1.44,0.06-2.56,1.56-2.38,2.94c0.06,0.31,0.13,0.63,0.38,0.81c0.38,0.44,1.06,0.44,1.63,0.19
			c0.5-0.25,0.94-0.69,1.25-1.13c0.25-0.31,0.5-0.69,0.5-1.13c0-0.75-0.75-1.25-1.38-1.63"/>
	</g>
	<g>
		<path class="st0" d="M235.49,216.06c-0.69-0.19-1.5,0.13-1.94,0.75c-0.88,1.31,0.25,3.5-0.94,4.56c-0.31,0.31-0.75,0.44-1.13,0.69
			c-0.31,0.31-0.5,0.88-0.19,1.13c0.19,0.19,0.5,0.19,0.75,0.13c1.31-0.19,2.31-1.31,2.94-2.5c0.69-1.44,0.94-3.06,0.75-4.63"/>
	</g>
	<g>
		<path class="st0" d="M225.37,225.88c-0.56-0.25-1.13,0.38-1.25,1c-0.31,1.56,1.06,3.25,2.69,3.25c0.06-1.06,0.13-2.06,0.19-3.13
			c0-0.38,0.06-0.75-0.19-1.06c-0.19-0.31-0.75-0.44-0.94-0.13"/>
	</g>
	<g>
		<path class="st0" d="M251.74,213.81c-0.38-1.25-0.69-2.5-1.44-3.5c-0.75-1.06-1.94-1.81-3.25-1.69c-0.31,0-0.56,0.13-0.81,0
			c-0.38-0.13-0.56-0.5-0.63-0.88c-0.81-2.81,1.56-6.06,4.44-6.25c0.63-1.5,0.69-3.31,0.06-4.88c-0.69-1.81-2.25-3.38-2.31-5.31
			c0-0.81,0.25-1.56,0.5-2.38c0.44-1.19,0.81-2.38,1.25-3.56c0.38-1.19,0.81-2.44,1.75-3.25s2.5-1.06,3.38-0.13
			c1.5,1.56-0.5,4.63,0.94,6.19c0.56,0.56,1.44,0.75,2.06,1.31c1.06,1,0.75,2.94-0.38,3.94s-2.63,1.38-4.06,1.63
			c1.13,1.13,2.19,2.25,3.31,3.38c0.69,0.69,1.94,1.31,2.38,0.44c1.19,2.94-2.25,5.81-2.38,9c-0.06,1.06,0.31,2.06,0.44,3.13
			c0.31,2.38-0.5,4.75-1,7.13c-0.31,1.75-0.5,3.56-0.63,5.38c-0.25,3.25-0.5,6.63,0.38,9.81c0.31,1.13,0.75,2.25,0.44,3.38
			c-0.31,1.13-1.81,1.94-2.63,1.13c-0.75-0.75-0.31-2,0-3c0.88-2.88-0.19-6,0.06-9c0.25-3.06,1.75-6.38,0.31-9.13
			c-0.13-0.25-0.31-0.56-0.63-0.69c-0.5-0.19-1.06,0.06-1.44,0.38c-1.06,0.75-2.13,1.63-3,2.63c0.06-1.31,1-2.56,2.25-3"/>
	</g>
	<g>
		<path class="st2" d="M294.62,282.07c0.81-0.38,1.38-1.25,1.5-2.13c0.06-0.56-0.06-1.13-0.25-1.69c-0.5-2.06-1.06-4.13-1.56-6.19
			c-0.5-2-1-4-2.19-5.69c-0.25-0.38-0.5-0.69-0.75-1.13c-0.19-0.38-0.25-0.75-0.44-1.13c-0.25-0.44-0.56-0.88-0.94-1.25
			c-1.25-1.38-2.44-2.81-3.69-4.19c-0.19-0.25-0.44-0.44-0.69-0.63c-0.94-0.69-2.25-0.44-3.13,0.25c-0.88,0.69-1.31,1.81-1.56,2.94
			c-0.88,3.75,0.56,7.75,2.88,10.81c2.31,3.06,5.5,5.44,8.63,7.75c0.81,0.63,1.63,1.19,2.44,1.81"/>
	</g>
	<g>
		<path class="st0" d="M281.37,264.88c-0.44-2.19-0.25-4.56,0.63-6.63c2.38-0.25,3.75,2.75,6.06,3.38c-0.44-2.31-1.38-4.56-2.81-6.5
			c-1.44-2-3.44-3.69-5.81-4.25c-1.06-0.25-2.31-0.25-3.06,0.5c-0.81,0.81-0.75,2.13-0.31,3.13c0.44,1.06,1.13,1.94,1.56,2.94
			c1,2.31,0.56,4.94,0.88,7.44c0.38,3.13,1.81,6,3.56,8.63c1.69,2.63,3.69,5.06,5.94,7.25c1.06,1.06,2.19,2.13,2.81,3.5
			c0.5,1.19,0.56,2.5,0.56,3.75c0.12,4.25,0.25,8.44,0.38,12.69c0,0.56,0.13,1.31,0.63,1.56c0.5,0.25,1.19-0.06,1.44-0.56
			c0.31-0.5,0.31-1.13,0.31-1.69c0.06-3.81,0.06-7.63,0.13-11.5c0-1.31,0-2.69-0.44-4c-0.56-1.56-1.75-2.81-2.94-3.94
			c-2.56-2.56-5.13-5.19-7-8.31c-1.88-3.13-3-6.81-2.44-10.44"/>
	</g>
	<g>
		<path class="st4" d="M297.44,278.26c-0.88-0.13-1.44-1-1.75-1.81c-0.94-2.13-1.44-4.44-2.69-6.38c-0.56-0.88-1.25-1.63-1.75-2.5
			c-0.44-0.81-0.63-1.69-0.94-2.56c-1-3.44-2.69-6.63-4.88-9.44c-0.69-0.88-1.56-1.75-2.63-1.94c-1.81-0.19-3.19,1.81-3.19,3.63
			c0,1.81,1,3.44,1.75,5.13c1.88,4.31,2.38,9.38,5.63,12.75c1.88,1.94,4.5,3.13,6.31,5.13c0.56,0.63,1.06,1.31,1.88,1.56
			c0.25,0.06,0.5,0.13,0.69,0.25c0.69,0.5-0.06,1.69-0.94,1.63c-0.81-0.06-1.44-0.75-2-1.44c-1.63-1.88-3.56-3.44-5.75-4.69
			c-1.5-0.81-3.06-1.5-4.25-2.75c-2.13-2.25-2.19-5.69-3.44-8.44c-0.38-0.75-0.81-1.5-1.06-2.31c-0.25-0.69-0.38-1.5-0.44-2.19
			c-0.25-1.94-0.56-3.94-0.38-5.94c0.19-2,0.88-3.94,2.31-5.31c0.88-0.81,2.13-1.44,3.25-1c0.44,0.19,0.75,0.5,1.13,0.75
			c1.44,1.25,2.88,2.5,4,4.06c1.94,2.75,2.63,6.25,4.44,9.13c1.13,1.81,2.75,3.44,3.13,5.56c0.31,1.88-0.31,3.88,0.44,5.63
			c0.5,1.25,1.75,2.44,1.25,3.69"/>
	</g>
	<g>
		<path class="st0" d="M289.69,264.32c-0.25,0.88,0,1.75,0.25,2.63c0.25,1,0.56,2,0.81,3c0.06,0.25,0.12,0.5,0.31,0.75
			c0.38,0.5,1.06,0.56,1.63,0.63c0.19-0.88,0.31-1.75,0.25-2.63c-0.06-0.94-0.38-1.88-0.69-2.81c-0.12-0.38-0.25-0.75-0.5-1.13
			c-0.38-0.5-1.06-0.81-1.75-0.88c0.06,0.19-0.06,0.38-0.25,0.38"/>
	</g>
	<g>
		<path class="st0" d="M293.44,274.95c0.12,0.19-0.06,0.44-0.31,0.5c-0.19,0.06-0.5,0.06-0.63,0.25c-0.06,0.06-0.12,0.13-0.19,0.19
			c-0.25,0.5-0.25,1.19,0.06,1.69s0.94,0.81,1.5,0.75c0.13,0,0.25-0.06,0.38-0.13c0.06-0.06,0.12-0.25,0.12-0.38
			c0.06-0.44,0.13-0.88,0-1.25c-0.12-0.44-0.44-0.81-0.88-0.81"/>
	</g>
	<g>
		<path class="st2" d="M298.69,286.45c1.31-0.94,2.56-2,3.75-3.06c0.75-0.63,1.5-1.31,2.19-1.94c1-0.88,2-1.75,3-2.63
			c3.38-3,6.88-6.19,8.5-10.44c0.31-0.81,0.5-1.88-0.19-2.44c-0.25-0.19-0.5-0.31-0.81-0.38c-1.81-0.5-3.81-0.31-5.56,0.5
			c-2.25,1.06-3.88,3-5.38,4.88c-0.75,0.94-1.56,1.88-2.31,2.81c-0.5,0.63-1.06,1.31-1.44,2c-0.94,1.88-0.81,4.25-2.19,5.75
			c-0.25,0.25-0.56,0.5-0.69,0.88c-0.12,0.25-0.12,0.5-0.19,0.81c-0.06,1.13,0.19,2.25,0.69,3.25"/>
	</g>
	<g>
		<path class="st0" d="M296.75,277.45c-0.75-3.06,1.13-6.19,3.5-8.25c2.38-2.06,5.25-3.5,7.44-5.75c0.56-0.56,1.13-1.19,1.81-1.63
			c0.81-0.44,1.69-0.56,2.63-0.69c1.44-0.19,2.88-0.38,4.31-0.56c1.63-0.19,3.44-0.38,4.63,0.75c0.81,0.81,1.06,2.06,1,3.19
			c-0.19,2.19-1.44,4.19-3,5.75c-1.56,1.56-3.5,2.69-5.38,3.81c-1.88,1.13-3.75,2.25-5.63,3.31c1.13-3.06,4.5-4.63,6.69-7
			c1.31-1.38,2.25-3.56,1.19-5.13c-1-1.5-3.06-1.56-4.88-1.5c-0.69,0.06-1.44,0.12-2.06,0.44c-1.44,0.81-1.69,2.75-2.69,4.13
			c-1.25,1.81-3.75,2.5-5,4.31c-0.69,1-0.94,2.25-1.5,3.31c-0.63,1.06-1.81,1.94-2.94,1.5"/>
	</g>
	<g>
		<path class="st4" d="M297.31,287.45c1.56-0.19,3.06-1,4.06-2.25c0.44-0.56,0.81-1.25,1.38-1.69s1.19-0.63,1.88-0.88
			c4.63-1.94,7.13-7.31,11.69-9.5c1-0.5,2.13-0.81,3-1.44c0.69-0.44,1.25-1.06,1.81-1.63c1.69-1.75,3.44-3.75,3.31-6.19
			c-0.19-2.94-3.38-4.88-6.31-4.81c-2.94,0.06-5.56,1.63-8,3.25c-3.63,2.31-7.31,4.88-9.69,8.44c-1.06,1.56-1.81,3.31-2.56,5.06
			c-0.88,2-1.75,4-2.25,6.06c-0.12,0.44-0.19,0.88-0.06,1.25c0.12,0.38,0.56,0.75,0.94,0.63c0.19-0.06,0.38-0.25,0.5-0.38
			c1.06-1.31,1.25-3.06,1.88-4.63c0.5-1.25,1.25-2.31,2.06-3.38c2.44-3.44,4.94-6.94,8.25-9.56c0.94-0.75,2-1.44,3-2.13
			c2.13-1.38,4.5-2.63,7-2.44c0.44,0,0.88,0.12,1.31,0.31c0.63,0.38,1,1.13,1.13,1.81c0.5,2.63-1.69,5-3.94,6.38
			c-2.31,1.38-4.94,2.25-6.75,4.25c-1.56,1.75-2.38,4.25-4.44,5.38c-0.75,0.44-1.56,0.63-2.31,1c-2.13,1.19-3,3.81-5.13,5.06
			c-0.44,0.25-0.88,0.44-1.25,0.75c-0.31,0.31-0.5,0.94-0.25,1.31"/>
	</g>
	<path class="st4" d="M223.43,278.01c1.31,5.25,2.13,10.63,2.38,16.06c0.19,3.63,0.13,7.31,0.13,10.94
		c-0.06,4.38-0.13,8.75-0.88,13.06c-0.94,5.38-3,10.69-2.13,16.06c0.12,0.81,0.31,1.63,0.19,2.44s-0.56,1.56-0.88,2.31
		c-0.81,1.75-1.19,3.75-1.06,5.69c0,0.38,0.06,0.81,0.38,1.06c0.69,0.56,1.63-0.44,1.94-1.25c1.44-3.69,2.06-7.69,2.63-11.63
		c1.69-12.38,2.5-24.94,2.44-37.44c0-4.94-0.19-9.88-0.94-14.69c-0.13-0.69-0.25-1.38-0.69-1.94c-0.44-0.5-1.38-0.69-1.81-0.13"/>
	<g>
		<path class="st4" d="M259.93,145.99c-2.06-4.94-4.19-9.94-6.25-14.88c-0.5-1.13-0.94-2.31-1.13-3.5c-0.19-1.13-0.06-2.31-0.06-3.5
			c0.19-6.5-1.75-13.13-5.56-18.44s-9.44-9.31-15.69-11.06c-4.75-1.31-10-1.38-14.25-4c-2.31-1.44-4.19-3.56-5.94-5.69
			c-1.69-2-3.44-4.06-4.38-6.56c-0.19-0.56-0.44-1.25-1-1.44c-0.5-0.19-1.06,0.19-1.38,0.63c-0.63,0.94-0.5,2.25,0,3.25
			c0.5,1,1.31,1.88,2,2.75c1.56,1.94,2.75,4.19,4.5,6c2.69,2.75,6.5,4.19,10.31,5.13c3.75,0.94,7.69,1.44,11.31,2.81
			c4.81,1.81,9,5.06,12.31,9c3.63,4.25,6.31,9.56,6.56,15.13c0.13,2.5-0.25,5.06-0.19,7.56c0.19,6.31,3.13,12.13,6,17.75
			c0.38,0.69,0.81,1.44,1.56,1.63c0.75,0.19,1.63-0.75,1.13-1.31"/>
	</g>
	<g>
		<path class="st4" d="M203.8,78.55c-1,0.25-1.75-1.56-2.69-1.13c-0.5,0.25-0.5,0.94-0.5,1.5c0.75,9.69-2.63,19.19-4.25,28.75
			c-0.44,2.5-0.75,5.13-0.06,7.63c0.5,1.88,1.56,3.5,2.31,5.25c0.5,1.25,0.94,2.5,1.63,3.69c1,1.69,2.5,2.94,4.06,4.06
			c2.75,1.94,5.75,3.56,8.81,4.88c1.38,0.56,2.75,1.06,4.13,1.5c3.56,1.13,7.25,2.06,11,2.69c3.44,0.56,6.94,0.94,10.44,0.63
			c4.75-0.44,9.44-2.19,14.13-1.69c-0.88-1.19-1.25-2.69-1.06-4.06c-1.69-0.69-3.5,0.38-5.13,1.13c-3.69,1.69-7.94,1.69-12,1.69
			c-2.19,0-4.38,0-6.56,0c-1.69,0-3.44,0-5.06-0.5c-1.19-0.38-2.25-0.94-3.31-1.5c-2.31-1.25-4.63-2.5-6.94-3.81
			c-1.31-0.75-2.69-1.44-3.88-2.38c-2.63-2-4.63-4.69-6.56-7.38c-0.81-1.13-1.63-2.25-2.06-3.5c-0.38-1.06-0.44-2.19-0.5-3.31
			c-0.31-5.88,0.38-11.81,2-17.44c0.81-2.94,1.94-5.94,1.38-8.94c-0.19-0.88-0.5-1.69-0.44-2.56c0.06-0.88,0.63-1.81,1.5-1.81
			c0-0.94,0-1.88,0-2.88"/>
	</g>
	<g>
		<path class="st4" d="M207.68,95.43c-0.19,1.13-0.31,2.44,0.56,3.13c0.44,0.31,1.13,0.38,1.44,0c0.19-0.19,0.19-0.5,0.25-0.81
			c0-0.63-0.13-1.31-0.5-1.88c-0.44-0.5-1.13-0.81-1.75-0.5"/>
	</g>
	<g>
		<path class="st3" d="M279.5,190.56c-1.13-0.19-2.31,0.56-2.75,1.63c-0.25,0.69-0.25,1.56-0.75,2.19
			c-0.44,0.56-1.19,0.75-1.94,0.88c-0.69,0.13-1.44,0.31-1.94,0.81s-0.31,1.63,0.38,1.69c0.81,0.13,1.25-0.88,2-1.13
			c0.56-0.19,1.31,0.06,1.81-0.31c0.44-0.31,0.5-1.06,0.94-1.38c0.19-0.13,0.5-0.19,0.69-0.31c0.38-0.25,0.38-0.81,0.25-1.25
			c-0.12-0.44-0.31-0.88-0.19-1.31c0.06-0.44,0.63-0.81,1-0.56"/>
	</g>
	<g>
		<path class="st3" d="M277.43,180.31c-0.44,0.19-0.69,0.69-0.56,1.13c0.12,0.44,0.5,0.81,0.94,0.94c0.88,0.25,1.88-0.56,1.81-1.5
			c-0.5,0.13-1.06,0.19-1.56,0.31"/>
	</g>
	<g>
		<path class="st2" d="M294.75,184.06c-0.12,0.31-0.19,0.56-0.12,0.88c0.06,0.31,0.31,0.56,0.56,0.56c0.13,0,0.25-0.06,0.38-0.13
			c0.5-0.31,0.88-0.94,0.75-1.5c-0.13-0.56-0.88-1-1.38-0.75"/>
	</g>
	<g>
		<path class="st2" d="M300,183.87c-0.5-0.31-1,0.38-1.13,0.94s-0.5,1.31-1.06,1.13c-0.12-0.06-0.19-0.13-0.31-0.13
			c-0.38,0-0.38,0.5-0.31,0.88c0.75-0.13,1.56-0.31,2.19-0.81c0.56-0.5,0.81-1.5,0.25-2.06"/>
	</g>
	<g>
		<path class="st2" d="M277.25,201.31c-0.44-0.13-1,0.13-1.25,0.5c-0.25,0.44-0.19,1,0.13,1.38c0.44,0.5,1.25,0.56,1.75,0.12
			c0.5-0.44,0.56-1.25,0.19-1.75c-0.12,0.06-0.25,0.06-0.44,0.13"/>
	</g>
	<g>
		<path class="st0" d="M202.3,309.45c0.19,1.63,0.75,3.19,1.5,4.56c0.13,0.19,0.19,0.38,0.38,0.5c0.5,0.31,1.13-0.06,1.44-0.56
			c0.63-0.81,0.81-1.88,0.63-2.81c-0.06-0.5-0.31-0.94-0.44-1.44c-0.69-1.81-1-3.81-1.06-5.75c0-0.56,0-1.19-0.38-1.56
			c-0.19-0.19-0.5-0.31-0.75-0.44c-0.81-0.31-1.63-0.56-2.44-0.75c-0.12,0-0.25-0.06-0.31,0c-0.19,0.06-0.31,0.25-0.38,0.38
			c-0.63,1.5,0,3.25,0.63,4.75c0.44,1.06,0.88,2.19,1.31,3.25"/>
	</g>
	<g>
		<path class="st0" d="M195.11,301.14c0.56,3,1.38,5.88,2.5,8.75c-1.25-0.13-2.81,0-3.31,1.13c-0.44,0.94,0.13,2,0.13,3.06
			c0,1.19-0.81,2.38-0.44,3.5c0.13,0.44,0.5,0.81,0.63,1.25c0.25,0.69,0.06,1.63,0.63,2.13c0.56,0.5,1.63,0.19,1.75-0.56
			c0.5,0.19,0.75,0.75,0.94,1.25c0.81,1.75,2.5,3.06,4.38,3.44c0,0.88-0.94,1.5-1.81,1.63c-0.88,0.13-1.81,0-2.69,0.19
			c-0.5,0.06-1,0.31-1.5,0.19c-1-0.25-1.38-1.5-2.19-2.13c-0.5-0.44-1.19-0.63-1.63-1c-0.88-0.75-1-2.06-0.88-3.25
			c0.13-1.19,0.38-2.38,0.06-3.5c-0.06-0.25-0.19-0.56-0.06-0.81c0.06-0.13,0.19-0.25,0.38-0.31c0.94-0.75,1.06-2.06,1-3.19
			c-0.13-1.19-0.44-2.31-0.19-3.5c0.25-1.13,1.25-2.25,2.38-2.06c-0.44-1.63-0.81-3.31-1.06-5c-0.06-0.44-0.13-0.94,0.13-1.38
			c0.25-0.38,1-0.44,1.13,0"/>
	</g>
	<g>
		<path class="st5" d="M196.8,310.95c-0.63-0.13-1.19-0.25-1.81-0.38c-0.19-0.06-0.38-0.06-0.56,0c-0.19,0.06-0.31,0.25-0.44,0.44
			c-0.5,1,0.06,2.13,0.38,3.25c0.44,1.56,0.25,3.13,0.19,4.75c0,0.44,0,0.88,0.19,1.25c0.19,0.38,0.56,0.75,0.94,0.75
			c0.69,0,1.13-0.81,1.25-1.5c0.63-2.75,0.44-5.69-0.56-8.38"/>
	</g>
	<g>
		<path class="st1" d="M354.94,71.05c-2.69-7.38-9.44-13.06-17.13-14.44c-2.56-0.44-5.19-0.44-7.81-0.44c-9.94,0-19.88,0-29.82,0
			c-2.06,0-4.13,0-6.19-0.25c-1.56-0.19-3.13-0.56-4.75-0.81c-3.19-0.5-6.44-0.38-9.69-0.25c-6.81,0.31-13.56,0.56-20.38,0.88
			c-2.81,0.13-5.88,0.31-8.06,2.19l-0.25-0.5c-4.75,0.63-9.5,1.25-14.31,1.88c-1.69,0.19-3.38,0.44-5.06,0.25
			c-1.63-0.19-3.25-0.81-4.88-1.19c-2.19-0.5-4.44-0.69-6.69-0.81c-2.31-0.13-4.63-0.19-7-0.25c-1.44,0-3,0-4.13,0.88
			c-0.75,0.56-1.25,1.5-1.75,2.31c-1,1.94-2.06,4.06-1.56,6.19c0.56,2.19,2.75,3.88,2.88,6.13c2.31,0.25,4,2.25,5.06,4.31
			c1.06,2.06,1.69,4.31,3,6.25c1.81,2.63,4.75,4.19,7.63,5.63c3.25,1.69,6.44,3.38,9.69,5.06c1.19,0.63,2.38,1.25,3.63,1.69
			c4.06,1.5,8.56,1.19,12.63,2.75c1.13,0.44,2.31,1,3,2c0.63,0.81,0.88,1.88,1.13,2.88c0.5,2.13,1.06,4.19,1.06,6.38
			c-0.06,4.63-2.63,9.13-2.06,13.75c0.31,2.38,1.44,4.56,1.5,6.94c0.06,1.25-0.19,2.56,0.13,3.81c0.63,2.38,3.31,3.88,3.75,6.38
			c0.19,1.06,0.19,2.63,1.31,2.75c0.75,0.13,1.31-0.69,1.38-1.38c0.06-0.75-0.31-1.44-0.63-2.06c-3.44-7-3.44-15.5-0.06-22.57
			c0.25-0.5,0.56-1.06,1.13-1.19c0.81-0.19,1.44,0.69,1.56,1.5c0.13,0.81-0.06,1.63,0.13,2.44c0.25,0.75,1.19,1.44,1.81,1
			c0.25-0.19,0.38-0.44,0.5-0.75c1.25-2.81,2.56-5.69,3.81-8.5c-3.25-3.69-3.31-9.75-0.06-13.5c3.5-4,9,0.5,9.56,4.75
			c0.06,0.69,0.12,1.38,0.38,2.06c0.56,1.5,2.19,2.56,2.44,4.13c0.19,1.44-0.81,2.75-1,4.19c-0.38,2.25,1.25,4.38,2.88,5.94
			s3.56,3.19,4.13,5.38c1,0.63,2.31,0.19,3.31-0.44s1.94-1.5,3.06-1.69c1.19-0.25,2.63,0.63,2.44,1.81
			c2.06,0.94,4.75-1.25,4.31-3.44c2.25-1.56,5.19-0.38,7.81,0.19c9.06,2,18.75-3.5,27.69-0.94c1.38,0.38,2.75,1,4.19,0.94
			c3.06-0.06,5.44-3.56,4.5-6.44c-0.19-0.56-0.44-1.06-0.56-1.63c-0.31-2.5,3.06-3.75,4-6c0.38-0.94,0.38-1.94,0.31-2.94
			c-0.19-3.13-0.63-6.38,0.25-9.44c0.25-0.88,0.63-1.75,0.63-2.69c0-0.75-0.25-1.44-0.44-2.13c-1.44-4.88-1.44-11.06,2.75-13.94
			c1.19-0.81,2.81-1.5,3.13-2.94C355.38,72.36,355.13,71.67,354.94,71.05z"/>
	</g>
	<g>
		<path class="st0" d="M211.68,57.61c-1.81-0.38-4-0.56-5.19,0.88c-0.5,0.63-0.69,1.38-0.81,2.13c-0.63,2.75-1.25,5.81,0.19,8.25
			c1.31,2.19,4.06,3.31,5.06,5.63c0.31,0.69,0.44,1.38,0.81,2c0.44,0.63,1.13,1.06,1.63,1.63c0.75,0.94,0.94,2.25,1.38,3.38
			c0.94,2.38,3,4.06,5.06,5.5c2.63,1.88,5.44,3.56,8.31,5.06c2.63,1.38,5.31,2.63,8,3.81c2.5,1.13,5.06,2.31,7.81,2.81
			c2.63,0.5,5.5,0.44,7.75,1.94c0.44,0.31,0.88,0.63,1.44,0.69c1.38,0.13,1.81-1.81,1.56-3.19c-0.44-2.44-1.75-4.69-3.56-6.38
			c-0.38-0.31-0.75-0.63-1.19-0.69c-1.38-0.19-2.06,1.5-3.06,2.44c-1.44,1.5-3.81,1.44-5.88,1.25c-2.44-0.19-5-0.44-7.19-1.5
			c-1.44-0.75-2.75-1.81-4-2.81c-2.13-1.75-4.19-3.56-6.31-5.31c-2.56-2.19-5.19-4.38-7.06-7.19c-1.94-2.88-3.13-6.44-5.88-8.56
			c-0.5-0.38-1.06-0.75-1.5-1.19c-0.44-0.44-0.75-1-1-1.56c-0.5-1.19-0.81-2.63-0.38-3.81c0.44-1.19,1.81-2.19,3.06-1.81
			c-0.31-1.06-0.63-2.19-0.94-3.25L211.68,57.61z"/>
	</g>
	<g>
		<path class="st0" d="M264.93,118.12c-0.38-1.88-1.38-3.63-2.81-4.88c-2.06,1.56-2.69,4.38-2.69,6.94s0.5,5.19,0.06,7.69
			c-0.44,2.56-1.81,5.06-1.44,7.63c0.25,1.63,1.19,3.13,1.81,4.63c0.63,1.56,0.94,3.44-0.06,4.75c1.81-2.38,2.19-5.75,1-8.44
			c-0.31-0.75-0.81-1.44-1-2.25c-0.25-1-0.12-2.06,0-3.06c0.63-4.63,1.25-9.31,1.88-13.94c2,1.06,3.06,3.56,2.5,5.75
			c1.19-0.31,1.88-1.75,1.44-2.88L264.93,118.12z"/>
	</g>
	<g>
		<path class="st0" d="M268.62,110.61c-1.94-3.25-2.5-7.38-1.44-11.06c0.25-0.88,0.56-1.69,1.19-2.31c1.13-1.13,3.06-1.56,3.38-3.13
			c0.13-0.75-0.25-1.5-0.12-2.25c0.12-1.63,2.06-2.44,3.63-2.81c0.88-0.19,1.81-0.38,2.69-0.13c0.88,0.25,1.69,1,1.69,1.88
			c0,1.06-1,1.88-1.81,2.56s-1.56,1.88-1,2.81c0.31,0.5,0.94,0.69,1.44,1c0.81,0.5,1.38,1.25,1.94,2.06c1.94,2.63,4,5.63,3.75,8.88
			c-0.13,2.06-1.19,4.25-0.19,6.06c0.88,1.56,2.94,2.06,4.06,3.44c0.75,0.88,1.13,2.13,2.13,2.56c2,0.94,4.25-2.06,6.31-1.25
			c0.69,0.25,1.13,0.81,1.69,1.19c1,0.69,2.44,0.69,3.44,0.06c0.69-0.44,1.19-1.06,1.81-1.5c2.25-1.56,5.25-0.38,7.94,0.31
			c5.19,1.38,10.63,0.63,16,0.31c2.56-0.13,5.13-0.19,7.69-0.06c0.38,0,0.75,0.06,1,0.31c0.56,0.5,0.25,1.5-0.44,1.88
			c-0.69,0.38-1.44,0.25-2.19,0.13c-4.38-0.63-8.81-0.56-13.19,0.13c-1.5,0.25-3,0.56-4.56,0.5c-2.38-0.13-4.63-1.13-6.94-1.63
			c-2.31-0.56-5-0.56-6.75,1.06c-0.81,0.75-1.31,1.75-2.06,2.5c-0.75,0.81-1.81,1.44-2.88,1.13c-0.44-0.94-0.94-1.94-1.38-2.88
			c-0.69-0.5-1.69,0.06-2.13,0.81c-0.44,0.75-0.56,1.63-1.06,2.31c-0.94,1.19-2.75,1.25-4.06,0.56s-2.25-1.94-3.13-3.13
			c-0.69-0.94-1.38-1.88-2-2.81c-1.56-2.19-3.19-4.56-3.13-7.19c0.06-1.44,0.56-2.75,0.63-4.19c0.06-1.44-0.56-3.06-1.94-3.44
			c-0.56-0.19-1.19-0.06-1.75-0.31c-0.94-0.38-1.38-1.75-0.75-2.56c0.25-0.31,0.56-0.56,0.81-0.88c0.94-1.25-0.19-2.94-1.19-4.06
			c-0.5-0.5-1.13-1.13-1.81-0.88c-0.56,0.19-0.75,0.81-1.06,1.31c-0.75,1.38-2.13,2.38-3.69,2.56c-1.5,1.56-0.81,4.13-0.13,6.19
			c0.69,2.06,1.25,4.75-0.5,6.06L268.62,110.61z"/>
	</g>
	<g>
		<path class="st0" d="M344.32,115.87c-0.06,0.31-0.13,0.63-0.19,0.94c-1.81-0.25-2.25-2.81-1.44-4.38
			c0.81-1.56,2.38-2.75,3.25-4.31c0.75-1.31,0.94-2.88,1.19-4.44c0.31-2.25,0.63-4.56,0.81-6.81c0.38-4.56,0.38-9.25-1.25-13.5
			c-0.38-1-0.81-2-0.81-3.06c0.06-1.44,0.94-2.63,1.94-3.69c1.06-1.06,2.19-2.06,3.06-3.31c0.88-1.25,1.44-2.81,1-4.25
			c-1.13-3.88-7.56-3.75-8.81-7.56c-0.25-0.75-0.25-1.56-0.69-2.19c-0.69-1-2.13-1.13-3.38-1.13c-11.38,0-22.75-0.81-34-2.38
			c-1.94-0.25-3.81-0.56-5.75-0.38c-2,0.19-4,0.81-6.06,0.75c-0.25-0.75,0.5-1.44,1.19-1.56c0.75-0.13,1.5,0.13,2.25,0.31
			c2.38,0.63,4.88,0.5,7.31,0.44c7.25-0.25,14.56,0.19,21.81,1.06c3,0.38,6,0.81,9,0.38c1.19-0.19,2.38-0.5,3.63-0.5
			c1.38,0.06,2.69,0.63,3.94,1.31c2.5,1.31,4.88,3.06,6.44,5.44c0.38,0.56,0.69,1.13,1.13,1.63c0.44,0.5,1,0.81,1.5,1.25
			c2.13,1.56,4.13,4.13,3.25,6.63c-0.69,2-2.81,3.06-3.94,4.88c-1.81,3-0.13,6.75,0.63,10.13c1.63,7-0.69,14.25-2.94,21.06
			c-0.19,0.63-0.44,1.25-0.81,1.81c-0.44,0.56-1,1-1.5,1.5c-1.13,1.25-1.44,3.06-0.88,4.63L344.32,115.87z"/>
	</g>
	<g>
		<path class="st4" d="M278.94,143.74c-1.06-0.56-0.88-2.25,0.06-3c0.94-0.69,2.25-0.63,3.44-0.38c3.69,0.94,6.63,3.63,9.56,6
			c0.38,0.31,0.81,0.63,1.31,0.75c1.5,0.25,2.44-1.44,3-2.81c0.63-1.38,2.06-2.88,3.31-2.06c0,0.81,0.06,1.63,0.06,2.44
			c0.69,0.06,1.44,0.19,2.13,0.25c0.13,1.13,0.31,2.25,0.44,3.44c0.06,0.31,0.06,0.63,0.31,0.88c0.19,0.25,0.5,0.38,0.81,0.44
			c6.56,2.19,13.63,3.69,20.44,2.44c4.06-0.75,7.88-2.44,11.69-4.06c1.94-0.88,4-1.81,5.13-3.56c0.5,0.25,1.06,0.44,1.56,0.69
			c-4.63,6-12.38,8.63-19.88,9.75c-2,0.31-4,0.5-6,0.5c-8.38,0.06-16.44-3.06-24.19-6.13c-2.25-0.88-4.25-1.94-6.31-3.31
			c-1.44-1-3.06-2.44-4.81-1.56c-2.63,1.31-4.63,7.75-5.94,10.19"/>
	</g>
	<g>
		<path class="st4" d="M273.93,152.31c-2-6.75,1.38-14.31,6.75-18.88s12.44-6.69,19.38-7.88c4.38-0.75,8.81-1.19,13.25-1.38
			c3.19-0.13,6.38-0.06,9.56,0c3.75,0.06,7.56,0.19,11.25-0.69c7.31-1.69,13.31-7.06,18.06-12.88c4.75-5.81,8.63-12.38,13.81-17.88
			c0.5-0.5,1-1.06,1.75-1.25c0.69-0.19,1.56,0.19,1.69,0.88c-3.63,4.56-5.5,10.44-9.88,14.25c-2.31,2-5.31,3.38-7.13,5.81
			c-0.81,1.06-1.38,2.38-2.06,3.56c-2.88,5.06-8.06,8.69-13.75,9.69c-4.19,0.75-8.44,0.06-12.63-0.25
			c-14.38-1.13-29.5,1.56-41.19,10.06c-1.56,1.13-3.06,2.38-4.13,4c-1,1.63-1.5,3.75-0.81,5.5c0.25,0.69,0.63,1.31,0.75,2
			c0.06,0.81-0.31,1.63-0.75,2.38c-0.94,1.69-1.81,3.38-2.75,5.13"/>
	</g>
	<g>
		<path class="st4" d="M309.88,139.49c-0.63-0.06-1.19,0.25-1.56,0.75c-0.38,0.5-0.63,1.06-0.81,1.63c-0.25,0.75-0.5,1.44-0.81,2.19
			c-0.12,0.38-0.31,0.81-0.25,1.19c0.06,0.88,0.75,1.56,1.5,2.13c1.13,0.81,2.38,1.44,3.56,2.06c0.19,0.06,0.38,0.19,0.56,0.19
			c0.19,0,0.38-0.06,0.5-0.19c0.88-0.56,1.38-1.56,1.63-2.56c0.19-1,0.12-2.06,0.06-3.06c-0.06-0.56-0.06-1.13-0.44-1.56
			c-0.31-0.44-0.88-0.63-1.38-0.88c-1.06-0.5-1.94-1.25-2.63-2.25"/>
	</g>
	<g>
		<path class="st4" d="M309.19,129.55c-0.56,0.44-1.06,0.88-1.5,1.38c-0.31,0.38-0.69,0.75-0.81,1.25c-0.25,0.81,0,1.69,0.31,2.5
			c0.25,0.63,0.5,1.31,1.06,1.63c0.81,0.44,1.88-0.13,2.44-0.94c0.56-0.75,0.75-1.75,1.25-2.56c0.06-0.13,0.19-0.25,0.13-0.44
			c0-0.13-0.06-0.25-0.19-0.38c-0.69-1-1.63-2.06-2.81-1.88"/>
	</g>
	<g>
		<path class="st4" d="M346.76,139.06c0.81-0.81,2.13-1.25,2.63-2.31c0.19-0.44,0.19-0.88,0.31-1.31c0.38-1.94,1.81-3.56,3.69-4.13
			c-0.25,0.81-0.5,1.56-0.75,2.38c-0.38,1.25-0.75,2.5-1.5,3.5c-1.13,1.5-3.06,2.31-4.94,2.06"/>
	</g>
	<g>
		<path class="st4" d="M276.06,152.37c-0.69,2.69,0.38,5.56,2.25,7.56c1.88,2.06,4.38,3.38,6.88,4.5
			c6.06,2.69,12.44,4.44,18.81,6.25c1.56,0.44,3.13,0.88,4.75,1.06c2,0.25,4.06,0.06,6.06-0.06c5.06-0.38,10.25-0.75,15.13-2.25
			c7.06-2.19,13.31-6.56,18.31-12c5-5.44,8.88-11.88,12.06-18.5c0.56-1.19,1.13-2.38,1.38-3.63c0.38-1.69,0.31-3.38,0.69-5.06
			c0.38-1.63,1.25-3.06,1.69-4.69c0.5-1.94,0.31-3.94,0.25-5.94c-0.31-5.44-0.31-10.88,0.06-16.25c0.06-1.25,0.31-2.75,1.44-3.31
			c2,11.94,1.56,24.32-1.31,36.13c-1,4.06-2.31,8.19-4.56,11.69c-1.44,2.19-3.19,4.13-4.94,6.06c-2.31,2.5-4.63,5.06-7.44,6.94
			c-2.19,1.44-4.56,2.5-6.75,4c-1.69,1.13-3.19,2.5-4.81,3.75c-11.13,8.63-26.75,10.25-40.07,5.81c-1.75-0.56-3.44-1.25-4.88-2.31
			c-1.75-1.25-3.13-3.06-5-4.13c-1.31-0.75-2.88-1.13-4.25-1.81c-3.56-1.88-5.31-5.88-6.81-9.63"/>
	</g>
	<g>
		<path class="st1" d="M360.82,132.8c-1.88,1.94-3.69,3.88-5.56,5.75c-1.31,1.31-2.69,2.75-4.56,3.06
			c-0.81,0.13-1.63,0.06-2.38,0.25c-1.56,0.44-2.56,1.94-3.5,3.25c-2.56,3.31-6.06,5.88-10,7.31c-2.44,0.88-5.06,1.31-7.19,2.75
			c-0.63,0.44-1.25,0.88-1.88,1.19c-0.69,0.31-1.5,0.44-2.25,0.5c-10.31,1.25-20.94-1-29.88-6.25c-2.31-1.38-4.69-3-7.38-3.06
			c-0.5,1.81,0.75,3.69,2.38,4.63s3.56,1.19,5.38,1.63c2.06,0.56,4.06,1.44,5.88,2.63c0.75,0.5,1.5,1.06,2.31,1.44
			c1,0.38,2.13,0.44,3.19,0.44c3.13,0,6.25-0.19,9.31,0.44c1.44,0.25,2.81,0.69,4.25,0.81c2.94,0.25,5.75-0.88,8.5-2
			c4.06-1.63,8.13-3.31,12.19-4.94c-0.25,1.25-1.56,2-2.75,2.56c-3.94,1.88-7.88,3.69-11.81,5.56c-1.06,0.5-2.06,1-2.88,1.81
			c2.5,0.88,5.31,0.63,7.63-0.63c1.81-1,3.19-2.5,4.88-3.69c3.63-2.63,8.75-3.94,10.38-8.13c0.25-0.69,0.44-1.5,0.94-2.06
			c0.5-0.56,1.5-0.81,2-0.19c0.19,0.19,0.25,0.44,0.31,0.69c0.31,1.38-0.13,2.88-1.13,3.88c-1.06,1.13-2.94,1.94-2.75,3.5
			c1.5,0.75,3.31-0.25,4.5-1.5c1.13-1.25,2.06-2.81,3.56-3.56c0.81-0.38,1.75-0.56,2.5-1c2.44-1.5,2.06-5.19,3.5-7.63
			c0.56-0.88,1.31-1.63,1.94-2.5c1.5-2.06,1.88-4.88,1-7.25"/>
	</g>
	<g>
		<path class="st5" d="M361.76,127.05c-0.06-0.81,0.94-1.56,0.63-2.25c-0.25-0.5-0.88-0.56-1.44-0.56c-0.13,0-0.25,0-0.38,0.06
			c-0.19,0.13-0.25,0.38-0.31,0.56c-0.25,0.81-0.38,1.69-0.88,2.44c-0.38,0.56-0.94,0.94-1.38,1.44c-0.44,0.5-0.81,1.13-0.75,1.81
			c0,0.13,0.06,0.25,0.12,0.38c0.13,0.13,0.25,0.19,0.44,0.25c0.38,0.13,0.81,0.31,1.19,0.44c-0.19-0.81,0.38-1.69,1.19-1.88
			c0.31-0.06,0.69-0.06,0.88-0.31c0.13-0.12,0.13-0.31,0.13-0.44c0.06-0.63,0.12-1.25,0.06-1.81"/>
	</g>
	<g>
		<path class="st0" d="M259.56,153.56c-0.31-2.94-3.25-5.06-3.44-8c-0.06-0.69,0.06-1.44-0.06-2.13c-0.12-0.5-0.44-1-0.69-1.44
			c-0.75-1.19-1.5-2.38-2.19-3.56c-0.19-0.25-0.31-0.56-0.56-0.75c-0.25-0.19-0.63-0.31-0.94-0.44c-1.75-0.44-3.63-0.38-5.44,0
			c-1.75,0.38-3.44,0.94-5.13,1.31c-2.31,0.5-4.75,0.56-7.13,0.5c-2.13-0.06-4.25-0.25-6.31-0.88c-1.19-0.38-2.38-0.81-3.63-0.81
			c-1.25,0-2.56,0.69-2.88,1.88c-0.31,1.38,0.88,2.69,2.13,3.38c1.25,0.69,2.69,1,3.75,2c0.31,0.31,0.63,0.75,1,1
			c1.38,0.88,3.13-0.13,4.75-0.31c1.13-0.12,2.25,0.19,3.31-0.06c0.75-0.13,1.5-0.56,2.19-0.94c1.31-0.75,2.69-1.56,4-2.31
			c0.38-0.19,0.81-0.44,1.19-0.25c0.19,0.06,0.38,0.25,0.5,0.44c1.06,1.19,1.69,2.75,2.81,3.81c1.69,1.63,4.06,2.19,6,3.44
			c1.94,1.31,3.44,3.44,5.75,3.88c0.38,0.06,0.81,0,0.94-0.31"/>
	</g>
	<g>
		<path class="st5" d="M257.56,149.81c-0.06-1.31-0.56-2.5-1.06-3.69c-0.94-2-2.06-3.94-3.31-5.69c-0.75-1.06-1.69-2.13-2.94-2.5
			c-1.38-0.44-2.88,0.06-4.25,0.44c-6,1.69-12.5,1.69-18.5,0c-1.31-0.38-2.56-0.81-3.94-0.94c-0.25,0-0.56-0.06-0.75,0.13
			c-0.25,0.19-0.38,0.5-0.44,0.81c-0.19,0.75-0.38,1.5-0.5,2.25c-0.06,0.31-0.06,0.63,0.06,0.88c0.12,0.31,0.44,0.44,0.69,0.63
			c2.13,1.19,4.19,2.38,6.31,3.63c0.38,0.25,0.81,0.44,1.25,0.5c0.81,0.06,1.56-0.44,2.31-0.75c1.5-0.56,3.13-0.19,4.69-0.5
			c1.88-0.38,3.38-1.63,5.13-2.5c2.06-1,4.38-1.5,6.63-1.25c0.38,0.06,0.75,0.06,1.06,0.31c0.69,0.44,0.88,1.38,1.13,2.19
			c0.63,2.13,2.38,3.88,4.5,4.5c0.75,0.25,1.69,0.5,1.75,1.31"/>
	</g>
	<g>
		<path class="st0" d="M224.68,115.49c-0.19-0.88-0.38-1.75-0.5-2.63c-0.06-0.19-0.06-0.38,0-0.56c0.13-0.5,0.88-0.5,1.31-0.31
			c1.25,0.56,1.88,1.81,2.75,2.88c2.06,2.63,5.31,4,8.44,5.25c1.06,0.44,2.13,0.88,3.25,0.69c-0.19-1.31-1.13-2.31-2.19-3.06
			c-1.06-0.75-2.31-1.19-3.38-1.94c-1.38-1-2.44-2.31-3.63-3.5c-2.44-2.44-5.38-4.25-8.31-6c-0.94-0.56-1.94-1.13-3-0.88
			c-1.63,0.31-2.31,2.44-1.75,4c0.56,1.56,1.94,2.63,3.19,3.63c1.19,0.94,2.44,1.88,3.63,2.81"/>
	</g>
	<g>
		<path class="st0" d="M205.61,82.61c-1,0.94-1.63,2.25-1.69,3.63c0,0.44,0,0.94,0.25,1.31c0.31,0.56,0.81,0.88,1.25,1.31
			c0.75,0.81,1.06,1.88,1.56,2.88c0.5,1,1.25,1.94,2.38,2.06c0.94,0.06,1.88-0.5,2.75-0.25c0.94,0.25,1.44,1.25,2.13,1.88
			c1.31,1.25,3.31,1.38,5.13,1.44c1.31,0.06,2.69,0.06,4,0.13c0.75,0,1.56,0.06,2.25,0.38c0.5,0.25,0.94,0.63,1.38,1.06
			c1.06,1,2.13,2,3.25,3c0.63,0.63,1.31,1.19,2.13,1.56c1.13,0.56,2.44,0.56,3.69,0.63c0.25,0,0.56,0,0.81-0.13
			c0.19-0.06,0.31-0.25,0.44-0.44c0.44-0.56,0.69-1.19,0.75-1.88c1.5,2,2.44,4.44,2.75,6.88c-1.19,0.44-2.06,1.75-2,3
			c0.13,1.94,1.94,3.31,3.63,4.31c1.63,1,3.31,2.06,4.94,3.06c0.13,0.06,0.31,0.19,0.5,0.19c0.31,0,0.5-0.25,0.63-0.5
			c0.63-1.06,0.75-2.5,0.31-3.69c-0.31-0.81-0.88-1.5-1.13-2.31c-0.25-0.75-0.25-1.56-0.5-2.31c-0.44-1.25-1.63-2.13-2.5-3.06
			c-1.75-1.94-2.75-4.56-4.81-6.19c-1.81-1.44-4.13-1.88-6.31-2.44c-4.69-1.25-9.06-3.25-13.5-5.25c-1.5-0.69-3.06-1.38-4.44-2.31
			s-2.63-2.13-3.81-3.31c-1.44-1.13-2.75-2.38-4-3.63c-0.5-0.5-1.06-1-1.75-1.13"/>
	</g>
	<g>
		<path class="st1" d="M211.18,89.8c0.31,0.88-0.63,1.69-1.5,2.19c-0.88,0.5-1.81,1.31-1.44,2.19c0.19,0.5,0.75,0.75,1.25,0.88
			c2.88,0.88,6.06,0.25,9,0.88c1.31,0.31,2.63,0.88,3.94,1c1.06,0.13,2.13,0,3.13,0.44c0.69,0.31,1.19,0.81,1.69,1.38
			c1.13,1.13,2.19,2.19,3.31,3.31c0.5,0.5,1,1,1.63,1.25c1.5,0.69,3.31,0,4.56-1.06c0.25-0.19,0.63-0.44,0.94-0.25
			c0.06,0.06,0.13,0.19,0.19,0.25c0.75,1.44,1.25,3.19,0.63,4.69c-0.5,1.19-1.63,2.25-1.38,3.56c0.19,0.75,0.81,1.31,0.94,2.06
			c0.06,0.38,0.06,0.81,0.25,1.13c0.13,0.25,0.38,0.38,0.56,0.56c0.81,0.63,1.69,1.25,2.5,1.81c0.94,0.69,1.88,1.38,2.94,1.81
			c0.94,0.38,1.94,0.56,2.69,1.25c1.38,1.19,1.06,3.75-0.56,4.56c-0.13,0.06-0.31,0.13-0.5,0.13c-0.25,0-0.44-0.19-0.56-0.31
			c-1.44-1.13-3.13-2.06-4.81-2.69c-1-0.38-2.06-0.69-2.75-1.44c-0.44-0.44-0.69-1-1-1.44c-0.44-0.69-1.06-1.25-1.63-1.75
			c-3.63-2.88-8.31-4.44-10.81-8.19c-0.19-0.31-0.38-0.63-0.69-0.75c-0.31-0.13-0.69-0.13-1.06-0.13c-1.56,0-3.19-1.25-4.5-0.5
			c-0.25,0.13-0.44,0.31-0.69,0.38c-0.75,0.25-1.5-0.44-2.06-1.06c-1.88-2.25-3.81-4.56-5.25-7.19c-0.63-1.13-1.19-2.31-2.06-3.19
			c-0.31-0.31-0.63-0.56-0.81-0.94c-0.63-1-0.13-2.44,0.75-3.19c0.88-0.81,2.06-1.13,3.25-1.44"/>
	</g>
	<g>
		<path class="st6" d="M223.37,95.68c1.13,0.44,2.31,0.81,3.44,1.25c0.38,0.13,0.81,0.31,1.06,0.63c0.25,0.31,0.31,0.69,0.5,1.06
			c0.63,1.5,2.44,2.13,3.38,3.44c0.31,0.44,0.56,0.94,1,1.25c0.5,0.31,1.19,0.25,1.81,0.19c0.5-0.06,1-0.13,1.5-0.19
			c0.13,0,0.25,0,0.31-0.13c0.13-0.06,0.13-0.19,0.19-0.31c0.25-0.88,0.5-1.75,0.75-2.63c0.06-0.13,0.06-0.31,0.06-0.44
			c-0.06-0.19-0.13-0.31-0.25-0.44c-1.31-1.44-3.19-2.25-5.06-2.31c-0.81,0-1.63,0.06-2.44-0.13c-0.94-0.25-1.75-0.88-2.75-1
			c-1.06-0.06-2.31,0.5-3.06-0.25"/>
	</g>
	<g>
		<path class="st6" d="M246.31,108.3c0.5,0.56-0.13,1.56-0.81,1.69c-0.75,0.19-1.5-0.19-2.19-0.56c-1.06-0.56-2.06-1.06-3.13-1.63
			c-0.38,0.94-0.13,2.06,0.56,2.81c0.81,0.81,2,1,3.06,1.38c1.06,0.38,2.19,1.19,2.13,2.31c0,0.19-0.06,0.44,0,0.63
			s0.25,0.31,0.44,0.44c0.81,0.44,2,0.25,2.56-0.5c1.25,0.56,1.81,2,1.88,3.38c0.06,1.38-0.25,2.69-0.06,4.06
			c0.06,0.75,0.31,1.5,0.25,2.25c0,0.75-0.31,1.56-1,1.88c-0.94,0.44-2.13-0.31-2.5-1.31c-0.31-1-0.06-2.13,0.19-3.13
			c0.25-0.81,0.44-1.94-0.31-2.38c-0.25-0.13-0.5-0.19-0.75-0.25c-2.81-0.69-4.06-4.44-6.88-5c-0.44-0.06-0.94-0.06-1.31-0.25
			c-0.69-0.31-1-1-1.31-1.69c-0.44-1.06-0.88-2.13-0.88-3.25c0-1.13,0.56-2.31,1.63-2.81c1.06-0.44,2.38-0.06,3.44-0.5
			c1.75,0.81,3.44,1.69,5.19,2.5"/>
	</g>
	<g>
		<path class="st4" d="M200.86,84.67c0.88-1.75,1.13-3.81,0.56-5.69c-0.19-0.63-0.38-1.38,0.06-1.81c0.31-0.25,0.75-0.25,1.13-0.13
			c0.38,0.13,0.63,0.44,0.94,0.69c0.63-0.94,0.13-2.13-0.13-3.25c-0.31-1.31-0.38-2.63-0.38-4c-0.06-1.75-0.06-3.5-0.13-5.25
			c0-0.19,0-0.38,0.06-0.5c0.25-0.44,0.94-0.25,1.19,0.19c0.25,0.44,0.13,1,0.13,1.44c-0.06,1.38,0.44,2.69,1.31,3.75
			c0.31,0.31,0.63,0.63,0.81,1c0.38,0.69,0.38,1.5,0.44,2.31c0.06,1.81,0.25,3.63,0.63,5.44c0.06,0.38,0.19,0.69,0.31,1
			c0.19,0.31,0.38,0.63,0.56,0.94c0.69,0.94,1.19,2.06,1.5,3.19c0.13,0.44,0.25,0.88,0.56,1.19c0.31,0.31,0.81,0.38,1.19,0.56
			c0.44,0.25,0.75,0.75,1.06,1.19c1.13,1.56,2.81,2.75,4.69,3.31c0.44,0.13,0.94,0.25,1.31,0.56c0.38,0.31,0.63,0.88,0.38,1.25
			c-0.19,0.31-0.56,0.44-0.88,0.56c-1.13,0.38-2.38,0.69-3.44,0.19c-0.56-0.31-0.94-0.75-1.31-1.25c-1.56-2-3.19-3.94-4.75-5.94
			c-0.31-0.38-0.63-0.81-0.75-1.31c-0.13-0.38-0.06-0.81-0.25-1.13c-0.38-0.81-1.63-0.88-2.06-1.63c-0.63,0.31-1.06,0.94-1.44,1.5
			c-0.38,0.63-0.75,1.25-1.38,1.56c-0.63,0.31-1.56,0.25-1.88-0.38"/>
	</g>
	<g>
		<path class="st4" d="M351.26,111.74c1.63-6.69,3-13.38,4.25-20.19c1.06-6.06,2-12.06,2.94-18.13c0.25-1.63,0.5-3.25,0.75-4.94
			c0.63-4.13,1.13-8.25,1.19-12.44c0-0.19,0-0.44-0.13-0.56c-0.19-0.31-0.63-0.38-1-0.38c-5.81-0.25-11.63-0.44-17.38-0.38
			c-2.63,0.06-5.19,0.13-7.75-0.19c-2.19-0.25-4.38-0.75-6.5-1.19c-7.44-1.5-15.06-2.19-22.63-1.94c-1.25,0.06-2.5,0.06-3.63-0.44
			c6.38-1.88,13.13-0.94,19.69-0.19c14.06,1.5,28.32,1.75,42.44,0.75c0.63,1.13,0.56,2.44,0.44,3.75
			c-0.5,5.31-1.44,10.56-2.75,15.75c-0.5,2.06-1.13,4.13-1.31,6.19c-0.19,1.81,0,3.56-0.19,5.38c-0.25,2.75-1.13,5.44-1.88,8.13
			c-1.13,4.13-1.94,8.38-2.31,12.63c-0.31,3.38-0.69,7.31-3.56,9.06"/>
	</g>
	<g>
		<path class="st4" d="M183.55,59.42c0.44-0.75,1.5-0.81,2.38-0.81c6.81,0.06,13.56-0.31,20.31-1.06c2-0.25,3.94-0.5,5.94-0.56
			c7.88-0.38,15.75,1.94,23.63,1.19c4.38-0.44,8.63-1.75,13-2.06c3.75-0.25,7.5,0.31,11.25,0.5c4.56,0.25,9.13,0,13.63-0.75
			c1.69-0.25,3.38-0.63,5.06-0.5c1.5,0.13,3,0.56,4.5,0.88c4.25,0.69,8.56-0.44,12.69-1.63c2.88-0.81,5.75-1.63,8.69-2.44
			c-4.06-1.13-8.31-1.5-12.56-1.06c-3.06,0.38-6.06,1.13-9.13,1.63c-13.31,2.13-27-0.94-40.38,0.75c-3.06,0.38-6.19,1-9.25,0.69
			c-2.75-0.31-5.5-1.38-8.25-0.88c-1.13,0.19-2.13,0.63-3.19,0.94c-1.88,0.5-3.81,0.56-5.75,0.63c-2,0.06-3.94,0.06-5.94,0.13
			c-5.5,0.06-11,0.19-16.5,0.13c-1.19,0-2.38-0.06-3.38-0.56c-0.75-0.31-1.38-0.88-2.06-1.19c-1.81-0.88-4.31-0.38-5.44,1.31
			c-1.13,1.69-0.44,4.38,1.44,5.13"/>
	</g>
	<g>
		<path class="st4" d="M185.67,116.43c-0.5-4.19-0.5-8.44,0.06-12.63c0.19-1.5,0.5-3,0.5-4.5c0.06-1.56-0.19-3.19-0.31-4.75
			c-0.25-3-0.13-6,0.38-9c0.19-1.19,0.44-2.44,0.56-3.63c0.13-1.5-0.06-2.94-0.19-4.44c-0.13-0.88-0.19-1.81-0.31-2.69
			c-0.19-1.88-0.38-3.75-0.88-5.63c-0.56-2.25-1.44-4.56-1.13-6.88c0.06-0.38,0.13-0.81,0-1.19c-0.31-0.63-1.25-0.75-1.81-0.31
			c-0.56,0.44-0.81,1.19-0.88,1.88c-0.38,2.81,0.75,5.63,1.25,8.44c0.5,2.75,0.31,5.5,0.25,8.25c-0.13,5.13-0.06,10.25,0.06,15.38
			c0,1.44,0.06,2.81,0.06,4.25c0.13,5.44,0.19,10.88,0.31,16.31c0,1,0.06,2.13,0.75,2.94c0.69-0.5,1.13-1.31,1.19-2.13"/>
	</g>
	<g>
		<path class="st4" d="M185.3,121.3c0-0.88,0-1.69,0-2.56c0-0.38-0.06-0.81-0.38-1c-0.5-0.44-1.31,0.13-1.56,0.75
			c-0.69,1.63,0.13,3.44,0.44,5.19c0.38,1.81,0.13,3.75,0.31,5.56c0.13,0.94,0.31,1.88,0.31,2.88c0,0.94-0.19,1.88-0.31,2.75
			c-0.44,3.06-0.44,6.19-0.5,9.25c0,3.31,0,6.69-0.06,10c0,0.19,0,0.31,0.13,0.44c0.19,0.31,0.69,0.19,1-0.06
			c1.25-1,1.38-2.81,1.31-4.44c0-2.63-0.06-5.31-0.06-7.94c0-2.94-0.06-5.88,0.06-8.81c0.06-1.13,0.13-2.19,0.06-3.31
			c-0.06-0.81-0.25-1.63-0.31-2.44c-0.19-1.38-0.19-2.75,0.06-4.06c0.13-0.75,0.19-1.88-0.56-2"/>
	</g>
	<g>
		<path class="st4" d="M184.74,156.37c-0.13,1.63-0.5,3.19-1.06,4.75c-0.13,0.44-0.31,0.88-0.69,1.13c-0.25,0.19-0.5,0.31-0.69,0.5
			c-0.25,0.31-0.25,0.75-0.25,1.13c0.06,1.81,0.44,3.56,0.56,5.31c0.31,4.19-0.81,8.31-0.63,12.5c0.06,1,0.19,2,0.13,3
			c-0.06,1.31-0.44,2.56-0.75,3.75c-1.5,5.94-1.63,12.31-0.31,18.31c0.94,0.19,1.81-0.5,2.25-1.38c0.38-0.88,0.38-1.81,0.38-2.81
			c-0.06-3.31-0.06-6.63-0.06-9.94c0-1.5,0.06-3.06,0.44-4.56c0.44-1.56,1.31-3.06,1.56-4.69c0.19-1.19,0.06-2.44-0.06-3.69
			c-0.38-3.94-0.63-8,0.44-11.75c0.25-0.88,0.56-1.75,0.38-2.63c-0.13-0.56-0.38-1.06-0.56-1.63c-0.25-0.75-0.25-1.5-0.13-2.25
			c0.19-0.88,0.69-1.69,0.94-2.56c0.31-1.13,0.19-2.31-0.38-3.38c-0.13-0.25-0.25-0.5-0.5-0.56c-0.38-0.13-0.81,0.13-0.94,0.5
			c-0.19,0.38-0.13,0.81-0.06,1.19"/>
	</g>
	<g>
		<path class="st4" d="M181.49,206.88c0.19,2.81,0.31,5.69-0.31,8.44c-0.31,1.31-0.81,2.63-1.13,3.94c-2.13,7.81,0,16.06,0.63,24.13
			c0.25,3.06,0.25,6.13,0.25,9.19c0,3.44,0,6.94-0.56,10.31c-0.31,1.75-0.69,3.63-0.06,5.25c0.19,0.56,0.56,1.06,0.69,1.63
			c0.5,1.81-0.94,3.63-0.94,5.5c0.75,0.81,2.19,0.5,2.88-0.31c0.69-0.81,0.88-2,0.94-3.06c0.06-1.19,0-2.31,0-3.5
			c-0.38-11.75-0.69-23.5-1.06-35.25c-0.06-1.63-0.12-3.25-0.38-4.81c-0.13-0.81-0.38-1.69-0.31-2.5c0-1.06,0.44-2.13,0.56-3.19
			c0.19-1.63-0.19-3.25,0-4.88c0.13-1,0.44-2,0.63-3c0.5-2.63,0.06-5.31-0.38-7.94c0-0.13-0.06-0.31-0.13-0.38
			c-0.38-0.38-0.81,0.56-1.38,0.5"/>
	</g>
	<g>
		<path class="st4" d="M180.17,275.57c0.63,2.31,0.81,4.69,0.44,7.06c-0.13,1-0.38,2-0.31,3.06c0.06,1.06,0.44,2.06,0.38,3.13
			c-0.06,0.56-0.25,1.06-0.38,1.63c-0.25,1.06-0.13,2.19-0.13,3.31c0.13,4.63-0.69,9.25-2.44,13.56c-0.25,0.63-0.56,1.31-0.44,2.06
			c0.13,0.75,0.69,1.38,1.38,1.25c0.44-0.06,0.75-0.38,1-0.69c1.5-1.88,2-4.38,2.06-6.81c0.06-2.44-0.25-4.81-0.13-7.19
			c0.19-3.44,1.31-6.75,1.06-10.19c-0.13-1.56-0.44-3.25,0.25-4.69"/>
	</g>
	<g>
		<path class="st4" d="M183.42,275.26c-0.31,1-0.06,2.13,0.13,3.19c0.19,1.06,0.31,2.19-0.19,3.19c-0.31,0.56-0.81,1.06-0.75,1.69"
			/>
	</g>
	<g>
		<path class="st4" d="M266.31,148.81c0-1.56,0.06-3.19-0.56-4.56c-0.38-0.94-1-1.69-1.44-2.63c-0.31-0.69-0.5-1.44-0.63-2.19
			c-0.94-5.06-0.75-10.31,0.56-15.31c1.63-6.06,4.88-11.56,7.38-17.38c0.63-1.44,1.19-2.88,1.13-4.44c-0.06-1.69-0.88-3.31-0.88-5
			c0-0.19,0-0.44,0.13-0.56c0.31-0.44,1.06-0.06,1.38,0.38c0.81,1.06,1.19,2.44,1.13,3.75c0,0.25-0.06,0.56,0.06,0.81
			c0.19,0.38,0.75,0.44,1.13,0.25c0.38-0.19,0.69-0.5,0.94-0.88c0.31,0.63,0.31,1.44-0.06,2.06c-0.19,0.25-0.38,0.5-0.5,0.81
			c-0.19,0.44-0.06,0.94,0.06,1.44c0.5,1.81,1.19,3.56,2,5.19c0.44,0.81,0.88,1.63,1,2.5c0.13,1.06-0.31,2.19,0.06,3.19
			c0.12,0.31,0.38,0.63,0.44,1c0.13,0.44,0,0.94-0.06,1.44c-2.25,9.69-7.38,18.5-10.5,27.94c-0.12-1.5-1.94,3.06-1.63,1.56
			c-1.38,0-0.38-4.56-0.56-3.19c-0.19,1.38,0.06,2.81-0.38,4.13"/>
	</g>
	<g>
		<path class="st2" d="M266.18,145.43c-0.13,0.31,0.19,0.63,0.5,0.63s0.63-0.19,0.81-0.44c2.56-2.38,3.13-6.06,3.94-9.44
			c0.88-3.81,2.13-7.56,3.88-11.06c0.88-1.81,1.94-3.63,1.94-5.63c0-1-0.25-2-0.25-3c0-0.81,0.19-1.69,0.19-2.5
			c0.12-2.25-0.88-4.56-2.56-6.06c-0.25-0.19-0.5-0.44-0.81-0.38c-0.44,0-0.75,0.5-0.94,0.88c-2.13,4.19-4.25,8.38-5.81,12.81
			c-0.44,1.31-0.88,2.63-1.63,3.81c-0.38,0.63-0.88,1.19-1.13,1.88c-0.31,0.75-0.25,1.63-0.25,2.44c0.19,5.38,0.81,10.75,1.88,16"/>
	</g>
	<g>
		<path class="st0" d="M269.37,117.12c0.5,1.25,0.69,2.63,0.56,4c-0.06,0.63-0.19,1.25-0.5,1.81c-0.25,0.44-0.63,0.81-0.94,1.25
			c-1.25,1.75-1.31,4.13-2.31,6.06c-0.38,0.75-0.81,1.38-1.06,2.19c-0.38,1.31,0.06,2.81-0.56,4c-0.44-1.81-0.63-3.69-0.69-5.56
			c0-0.75,0-1.56,0.38-2.19c0.25-0.38,0.63-0.69,0.88-1.06c1.25-1.5,1.38-3.63,1.75-5.56c0.38-1.69,1-3.31,1.88-4.81"/>
	</g>
	<g>
		<path class="st7" d="M377.13,211.69c-0.06-0.88,1.06-0.63,1.56-0.75c7.94-1.44,15.81-2.75,23.94-2.88
			c3.56-0.75,7.19,4.19,2.44,5.31c-9.75-0.13-20-0.5-29.07,3.56c5.25,2.44,11.81,3.69,17.31,5.63c1.13,0.06,2.25,0.06,3.31,0.75
			c1.88,0.5,4.38-0.31,4.81,2.44c-1.19,6.44-23.32,3.81-27.19,10.13c8.75,4,19.19,5.88,28.94,7.25c4.94,3.38,1.5,6.06-3.31,4.88
			c-9.56-1.19-18.56-4.88-27.63-7.88c-4.88-0.63-5.31-5.75-1.94-8.69c0.94-1,2.38-0.94,3.06-2.25c0.44-0.44,2-0.31,2.75-0.75
			c23.88-4.44-3.13-3.63-8.75-11.63C369.76,213.5,373.26,212.56,377.13,211.69z"/>
		<path class="st7" d="M380.51,285.57c0-0.06,0.06-0.19,0.06-0.25c29.63,4.44,30.19,41.25-2.56,36.94
			C352.76,316.76,358.88,281.76,380.51,285.57z M372.2,314.26c-0.19,0-0.38,0-0.56,0c0,0.06,0.06,0.19,0.06,0.25
			C371.82,314.45,372.01,314.33,372.2,314.26c3.31,3.19,8.19,2.75,12.44,3.81c0-0.06,0-0.19,0-0.25c-0.25,0-0.5,0.06-0.81,0.06
			c16.5-1.13,20.13-17.56,4.44-24.38C372.13,283.26,356.82,302.2,372.2,314.26z"/>
		<path class="st7" d="M378.32,247.07c0,0.06,0-0.19,0-0.5c22.25-1.06,41.57,27.63,13.56,36.75c-15.81,5.38-35.07-11.63-25.07-27.44
			C369.07,251.44,373.2,247.13,378.32,247.07z M373.07,274.76c4.06,2,7.94,4.5,12.88,4.44c3.25-0.31,7.06-0.63,9.75-2.69
			c3.69-0.56,3.31-5.06,5.63-7.13c1.31-11.88-14.94-19-24.88-16.38C367.13,256.51,366.88,268.38,373.07,274.76z"/>
		<path class="st7" d="M403.82,125.62c-8.13-1.38-16.38-1.69-24.57-2.25c-4.63-0.13-5.06-5.31,0.06-4.94c9.81-0.69,19.31,4,29,1.81
			c5.94-2,6.5,4.31,2.31,7.13c-7.31,6.56-18.06,7.63-25.75,13.31c4.94,2.75,11,3.75,16.56,3.44c3.81,0.38,8.63-1.56,11.81,0.5
			c2.38-0.5,1.81,3.75,0.19,4.19c-13.06,0.25-26.69-0.5-38.75-6C372.32,136.12,400.14,130.49,403.82,125.62z"/>
		<path class="st7" d="M377.13,110.24c6.5,0.06,13,0.5,19.19-1.75c1.88-3.56-0.25-9.25,0.5-13.44c-1.19-6.88-13.56-5.56-17.31-11.38
			c-5.06-10.25,19.38,4.69,22.82,5.94c23.38,10,21.63,17.88-2.56,23.44C394.82,113.24,373.51,120.37,377.13,110.24z M400.7,99.93
			c-0.25,7.69-1.06,9.75,7.38,6.31c11.38-4.44,1.13-6.25-4.13-9.56C400.64,94.11,400.89,97.11,400.7,99.93z"/>
		<path class="st7" d="M387.63,326.83c12.13,0.44,12.88,4.63,7,14.31c-3.38,8.06-11.88,9.75-19.69,8.25
			c-6.75-1.75-11.63-7.94-12.75-14.75c-2.5-6.13-6.06-14.44,4.63-10.31C373.82,325.7,380.7,325.45,387.63,326.83
			c-0.13,0-0.25-0.06-0.38-0.06v0.06C387.32,326.83,387.51,326.83,387.63,326.83z M390.07,340.95c0.31-2.88,5.5-7.69-0.25-8
			c-4.13-0.56-8.25-1.19-12.38-1.81c-2.13-0.13-12.13-3.88-11.69-0.56c1.44,7.13,4.81,15.25,13.5,14.5c0.5,0.06,1.13-0.5,1.44,0.38
			C384.13,344.89,387.63,343.77,390.07,340.95L390.07,340.95L390.07,340.95z M370.63,342.64c0.06,0,0.12-0.06,0.06-0.13
			c-0.06,0-0.06,0.06-0.13,0.06C370.57,342.64,370.57,342.64,370.63,342.64z"/>
		<path class="st7" d="M380.45,60.48c0.25-1.81,1.19-4.88,3.44-4.13c5.06,1.25,10.44,1.94,15.63,1.88
			c5.25,1.06,21.88-1.44,19.38,7.44c-2.63,6.63-6.25,15.13-14.38,15.75c-5.44,0.63-11.63,0.81-15.5-3.81
			C383.7,73.42,383.63,65.98,380.45,60.48z M400.32,77.11c6.81,0.31,11.56-4.31,13.19-10.56c0.5-1.13,0-1.75-1.19-1.81
			c-3.5,0.75-27.25-5.25-25.5-0.94C388.51,70.67,392.26,77.74,400.32,77.11z"/>
		<path class="st7" d="M399.7,182c-5.63-1.38-8.75,15.13-11.44,19.25c-2.25,6.31-12.5,8.31-14.19,0.44c0.06,0,0.12,0,0.19,0
			c-3.63-6.56-5.56-21.06,1.63-26.07c4.38,3.31-1.19,7.13-0.13,11.38c0.31,4.56-0.44,16.94,7,14.31c5-5.63,5.06-14.06,9.06-20.31
			c10.88-14.44,18.75,11.19,14.38,19.81c-0.69,4.06-9.25,2.44-6.75-0.13C406.26,196.69,402.64,187.5,399.7,182L399.7,182z
			 M372.95,184.31l0.06-0.06h-0.06V184.31z"/>
		<path class="st7" d="M405.2,174.68c1.88-3.81,2.44-7.63,1.81-11.75c-0.13-5.44-6.75-3.88-10.44-5c-2.06,0.06-6.63-3.75-6.25,0.31
			c0.25,4,0.63,8.25-3.06,10.81c-0.06,0.06-0.69-0.25-0.69-0.44c-1.75-4.06,1.88-11.19-2.44-13.44c-14.75-4.69,4,17.94-10,18.88
			c3.25-23.69-10.69-28.13,21.75-21c2.75,1.19,16.19-0.06,16,3.25C409.14,161.81,415.76,177.5,405.2,174.68z"/>
	</g>
	<g>
		<path class="st4" d="M221.24,276.7c-0.5,0.19-1.06-0.31-1.13-0.88c-0.06-0.56,0.13-1.06,0.38-1.56c0.13-0.25,0.25-0.5,0.44-0.69
			c0.31-0.19,0.69-0.19,1-0.31c1.06-0.38,1-1.88,1.25-2.94c0.06-0.25,0.19-0.56,0.25-0.81c0.06-0.5-0.13-1-0.31-1.5
			c-0.88-2.44-1.5-4.94-2-7.44c-0.19-0.94-0.31-1.88-0.81-2.63c-0.31-0.5-0.75-0.94-1.13-1.38c-1.75-2.25-1.75-5.63-3.88-7.56
			c-0.69-0.63-1.5-1.06-2.38-1.38c-0.5-0.19-1.06-0.38-1.56-0.31c-0.88,0.13-1.44,1-1.63,1.81c-0.19,0.88,0,1.75,0.19,2.56
			c0.56,2.44,1.06,4.88,1.63,7.31c0.38,1.81,0.81,3.69,1.81,5.31c0.5,0.88,1.19,1.63,1.81,2.38c0.25,0.31,0.56,0.63,0.69,1.06
			c0.31,1-0.63,2.19-1.69,2.13c-0.19-2.06-1.38-3.94-3-5.13c-0.31-0.19-0.63-0.38-0.81-0.69c-0.19-0.25-0.25-0.56-0.31-0.88
			c-0.13-0.63-0.25-1.19-0.31-1.81c-0.06-1.06,0.13-2.19,0.13-3.25c0-1.81-0.63-3.63-1.06-5.38c-0.44-1.75-0.69-3.69-0.06-5.44
			c0.63-1.75,2.31-3.19,4.19-2.94c1.31,0.19,2.31,1.13,3.25,2.06c0.63,0.63,1.31,1.25,1.94,1.88c0.88,0.88,1.81,1.81,2.38,2.88
			c0.94,1.88,0.75,4.13,1.44,6.06c0.19,0.56,0.44,1.13,0.69,1.75c1.06,2.56,1.81,5.25,2.13,8c0.19,1.38,0.38,2.94,1.56,3.69
			c0.31,0.19,0.69,0.31,1,0.5c0.63,0.5,0.88,1.31,1,2.13c0.06,0.44,0.19,0.88,0.06,1.31c-0.19,0.69-0.81,1.31-0.75,2.06
			c0.13,1,1.63,1.63,1.25,2.56c-0.25,0.56-1,0.56-1.56,0.31s-1-0.69-1.56-0.81c-0.31-0.06-0.69-0.06-1-0.19
			c-0.56-0.25-0.88-0.88-1.44-1.13c-0.38-0.13-0.81-0.06-1.19-0.13c-0.38-0.06-0.88-0.19-1-0.56"/>
	</g>
	<g>
		<path class="st6" d="M210.68,248.94c-0.25-0.5,0.13-1.19,0.69-1.44c0.5-0.25,1.13-0.19,1.75-0.13c0.38,0.31,0.25,0.94,0,1.38
			c-0.25,0.44-0.5,0.88-0.44,1.38c0.06,0.25,0.25,0.5,0.44,0.69c1.25,1.38,2.63,2.81,3.25,4.56c0.75,2.13,0.38,4.5,1.13,6.56
			c0.44,1.13,1.19,2.19,1.25,3.38c0,0.31,0,0.63,0.12,0.94c0.31,1,1.75,1,2.63,1.63c0.81,0.5,1.19,1.56,1.13,2.5
			c0,0.94-0.38,1.88-0.75,2.81c-0.06,0.19-0.13,0.38-0.25,0.5c-0.25,0.25-0.69,0.31-1.06,0.31c-0.88,0-1.75,0-2.63-0.19
			c-0.88-0.25-1.69-0.75-2.06-1.56c-0.19-0.44-0.31-0.94-0.5-1.38c-0.44-0.81-1.38-1.38-1.25-2.31c0.06-0.56,0.5-1,0.69-1.5
			c0.38-1-0.25-2.06-1-2.81s-1.69-1.31-2.25-2.19c-1-1.75-0.19-4-0.75-5.94c-0.25-0.88-0.75-1.63-0.81-2.5
			c-0.13-1.38,0.94-2.69,0.63-4"/>
	</g>
	<g>
		<path class="st6" d="M230.24,263.63c1.69-0.38,2.44-2.38,3.75-3.5c0.56-0.44,1.19-0.75,1.75-1.19c3.94-2.5,5.69-7.38,9.13-10.56
			c0.5-0.5,1.06-0.94,1.75-1.06c0.25-0.06,0.5-0.06,0.75-0.13c0.31-0.13,0.56-0.31,0.75-0.56c0.5-0.44,1-0.94,1.5-1.38
			c0.5-0.5,1-1,1.19-1.63c0.19-0.69-0.19-1.5-0.88-1.63c-0.25,0-0.5,0.06-0.75,0.13c-1.81,0.56-3.56,1.06-5.38,1.63
			c0-0.69,0.38-1.38,0.94-1.81c-0.56-0.19-1.25,0.06-1.69,0.5c-0.44,0.44-0.69,1.06-0.94,1.63c-0.63,1.38-1.38,2.69-2.5,3.75
			c-0.81,0.75-1.88,1.31-2.56,2.19c-0.63,0.75-0.94,1.69-1.31,2.56c-0.81,1.75-1.88,3.25-3,4.81c-0.5,0.69-1,1.44-1.75,1.94
			c-0.75,0.56-1.75,0.75-2.44,1.44c-0.88,0.81-1.06,2.06-1.25,3.19c1,0.25,2.06,0.19,3.06-0.19"/>
	</g>
	<g>
		<path class="st4" d="M225.62,266.57c1.44-1.56,2.69-3.31,3.69-5.19c1.19-2.31,2.06-4.81,3.63-6.81c0.63-0.81,1.38-1.5,1.94-2.31
			c0.63-0.81,1.13-1.81,1.69-2.69c1.06-1.69,2.44-3.13,3.94-4.38c0.56-0.44,1.13-0.88,1.56-1.44c0.44-0.5,0.81-1.13,1.25-1.69
			c1.25-1.88,3-3.44,4.94-4.63c1-0.56,2.19-1.06,3.25-0.56c1.13,0.5,1.5,1.94,1.44,3.13c-0.06,2.5-1.19,4.81-2.44,6.94
			c-1.31,2.38-2.81,4.69-4.88,6.44c-0.63,0.56-1.31,1.06-1.88,1.69c-0.75,0.88-1.25,2-1.75,3.06c-0.44,1.06-0.88,2.06-1.38,3.13
			c-0.13,0.31-0.31,0.69-0.63,0.88c-0.25,0.19-0.63,0.25-0.94,0.31c-2.19,0.63-3.31,3.06-5.31,4.13c-0.63,0.31-1.38,0.56-2,0.25
			s-1-1.19-0.5-1.69c0.19-0.19,0.44-0.31,0.69-0.44c0.81-0.44,1.31-1.19,1.88-1.88c1-1.13,2.31-1.88,3.44-2.94
			c2.88-2.69,4.13-7,7.38-9.25c0.63-0.44,1.31-0.75,1.88-1.25c1-0.75,1.75-1.75,2.38-2.81c1.19-1.94,2.06-4,2.69-6.19
			c0-0.13,0.06-0.25,0-0.31c-0.06-0.19-0.25-0.25-0.38-0.31c-1-0.44-2.19-0.81-3.25-0.5c-1.06,0.38-1.75,1.38-2.38,2.25
			c-1.94,2.81-4.25,5.38-6.75,7.69c-1.06,1-2.19,2-2.63,3.38c-0.13,0.44-0.19,0.88-0.38,1.31c-0.19,0.44-0.56,0.81-0.88,1.13
			c-0.81,0.81-1.63,1.56-2.38,2.44c-1.19,1.44-2,3.06-2.81,4.75c-0.56,1.13-1.13,2.31-1.69,3.44c-0.31,0.63-0.63,1.31-1.19,1.75
			c-0.56,0.44-1.38,0.63-1.94,0.19c-0.69-0.5-0.63-1.63,0.06-2.06"/>
	</g>
	<g>
		<path class="st4" d="M211.8,102.18c0.13,1.44,1.31,2.5,2.31,3.63c2.69,3.06,4.13,7.56,7.81,9.25c0.88,0.38,1.81,0.56,2.69,0.94
			c2.31,0.88,4.25,2.63,6.5,3.63c1.88,0.88,4,1.25,6,2c2.56,0.94,4.94,2.44,6.88,4.44c0.56,0.56,1.06,1.13,1.81,1.44
			c0.75,0.31,1.69,0,1.94-0.69c0.25-0.75-0.38-1.5-0.94-2c-2-1.75-4.38-3-6.94-3.75c-1.69-0.5-3.5-0.75-5.19-1.38
			c-1.63-0.56-3.13-1.5-4.63-2.38c-2.38-1.44-4.75-2.88-7.06-4.31c-0.88-0.5-1.75-1.06-2.5-1.75c-0.75-0.69-1.38-1.56-1.94-2.38
			c-1.56-2.06-3.31-4.06-5.13-5.88c-0.5-0.5-1.25-1.06-1.94-0.75"/>
	</g>
</g>
</svg>
