<?xml version="1.0" encoding="utf-8"?>
<!-- Generator: Adobe Illustrator 28.3.0, SVG Export Plug-In . SVG Version: 6.00 Build 0)  -->
<svg version="1.1" id="Layer_1" xmlns="http://www.w3.org/2000/svg" xmlns:xlink="http://www.w3.org/1999/xlink" x="0px" y="0px"
	 viewBox="0 0 600 400" style="enable-background:new 0 0 600 400;" xml:space="preserve">
<style type="text/css">
	.st0{fill:#1B2938;}
</style>
<g>
	<path class="st0" d="M359.78,197.88v-22.52c0-1.85,0.25-3.63,1.24-5.24c1.37-2.19,3.23-3.66,5.77-4.19c3.2-0.68,5.85,0.34,8.11,2.6
		c0.62,0.62,0.61,0.63,1.39,0.25c2.12-1.04,4.32-1.89,6.62-2.34c3.27-0.64,6.54-0.93,9.9-0.52c5.24,0.63,9.94,2.55,14.18,5.65
		c4.64,3.4,8.04,7.83,10.24,13.21c0.69,1.68,1.2,3.42,1.57,5.2c0.45,2.13,0.6,4.32,0.6,6.5l0.02,24.22c0,1.68,0.04,3.35,0.09,5.02
		c0.05,1.65,0.61,3.15,1.49,4.53c1.26,1.97,2.83,3.68,4.54,5.23c2.83,2.58,6.02,4.59,9.6,5.9c1.38,0.5,2.8,0.84,4.22,1.21l5.2,1.3
		c2.43,0.66,3.99,2.4,4.69,4.71c1.11,3.7,0.65,7.16-2.33,9.93c-1.55,1.43-3.39,2.15-5.46,2.15c-1.7,0-3.39-0.12-5.09-0.38
		c-5.48-0.85-10.36-3.18-15.05-6.01c-3.99-2.41-7.61-5.31-10.89-8.64c-2.53-2.57-4.3-5.66-5.85-8.9c-0.85-1.78-1.58-3.6-2.01-5.54
		c-0.45-2.01-0.68-4.07-0.69-6.13l-0.03-27.9l-0.01-1.52c-0.01-3.01-1.15-5.57-3.04-7.82c-1.48-1.77-3.36-2.97-5.51-3.75
		c-1.29-0.46-2.63-0.6-3.99-0.54c-5.42,0.23-9.05,3.1-11.21,8.02c-0.5,1.13-0.76,2.38-0.76,3.65l-0.02,25.21
		c-0.01,0.89-0.13,1.78-0.25,2.66c-0.25,1.86-1.19,3.36-2.49,4.63c-1.2,1.18-2.64,1.89-4.3,2.28c-4.15,0.96-8.33-1.61-9.84-5.3
		c-0.54-1.32-0.66-2.71-0.67-4.12l-0.01-20.81L359.78,197.88L359.78,197.88z M195.58,168.95l0.04-1.22l0-17.4
		c0-1.79,0.36-3.5,1.29-5.04c1.13-1.85,2.73-3.11,4.76-3.78c0.8-0.26,1.57-0.53,2.46-0.56c1.72-0.05,3.23,0.57,4.66,1.36
		c2.06,1.14,3.41,2.93,4.01,5.22c0.27,1.03,0.35,2.12,0.35,3.19l0.01,35.88l-0.04,12.11c-0.04,2.48-0.32,4.94-0.92,7.35
		c-1.04,4.13-2.82,7.9-5.41,11.27c-3.14,4.08-6.93,7.38-11.53,9.67c-2.03,1.01-4.14,1.78-6.35,2.29c-2.91,0.66-5.85,1.06-8.82,0.88
		c-1.52-0.09-3.04-0.27-4.54-0.53c-3.54-0.61-6.84-1.85-9.93-3.68c-3.16-1.86-5.88-4.26-8.28-7.05c-2.11-2.45-3.82-5.15-5.08-8.14
		c-0.9-2.14-1.59-4.35-1.98-6.66c-0.53-3.21-0.57-6.43-0.33-9.65c0.46-6.15,2.74-11.58,6.48-16.37c3.39-4.32,7.52-7.71,12.57-9.88
		c2.08-0.89,4.25-1.54,6.48-1.93c2.41-0.43,4.83-0.72,7.28-0.56c2.05,0.13,4.09,0.38,6.1,0.86c2.06,0.5,4.06,1.18,5.96,2.1
		C195.02,168.79,195.24,168.84,195.58,168.95z M181.4,212.38c7.7,0.2,14.22-6.71,14.25-14.35c0.03-7.72-6.53-14.54-14.21-14.53
		c-7.63,0.01-14.19,6.38-14.23,14.4C167.17,205.83,173.62,212.51,181.4,212.38z M288.33,197.95l-0.01-23.59
		c-0.02-3.47,2.48-6.87,5.43-7.99c3.61-1.37,6.8-0.62,9.56,2.1c0.7,0.69,0.68,0.69,1.55,0.26c2.36-1.15,4.82-2.01,7.42-2.46
		c1.95-0.33,3.89-0.6,5.87-0.6c1.8,0.01,3.57,0.28,5.33,0.59c3.37,0.6,6.49,1.85,9.41,3.6c6.45,3.88,10.98,9.39,13.4,16.62
		c0.52,1.57,0.95,3.2,1.2,4.83c0.27,1.74,0.37,3.51,0.38,5.26l0.02,24.04c0,1.61-0.23,3.15-0.94,4.6c-1.14,2.32-2.94,3.9-5.37,4.61
		c-4.39,1.27-8.79-0.9-10.63-5.25c-0.49-1.17-0.57-2.43-0.57-3.69l-0.01-23.68c-0.01-1.22-0.03-2.46-0.26-3.66
		c-0.33-1.77-1.1-3.39-2.15-4.86c-1.89-2.63-4.45-4.21-7.52-4.97c-0.82-0.21-1.7-0.18-2.55-0.19c-5.35-0.04-9.77,3.67-11.42,8.22
		c-0.51,1.41-0.76,2.89-0.76,4.38v25.03c-0.01,3.82-1.76,6.57-5.1,8.2c-1.63,0.8-3.37,1.03-5.23,0.64
		c-3.15-0.66-5.27-2.49-6.52-5.43c-0.38-0.87-0.57-1.8-0.57-2.78L288.33,197.95L288.33,197.95z M245.41,188.49l-0.02,13.37
		c-0.04,2.24-0.37,4.46-0.59,6.69c-0.1,1.07-0.26,2.13-0.41,3.19c-0.1,0.68-0.21,1.35-0.38,2.02c-0.55,2.18-1.04,4.39-1.9,6.49
		c-2.27,5.57-4.9,10.93-8.55,15.71c-4.01,5.27-8.56,10.04-13.93,13.9c-4.1,2.96-8.47,5.49-13.04,7.66c-2.61,1.24-5.3,2.25-8.09,2.95
		c-1.54,0.39-3.13,0.61-4.72,0.39c-1.87-0.27-3.46-1.16-4.73-2.58c-2.07-2.31-2.88-4.99-2.24-8.11c0.43-2.11,1.42-3.83,3.12-5.14
		c0.96-0.74,2.08-1.13,3.22-1.38c2.77-0.61,5.4-1.62,7.94-2.87c6.15-3.02,11.41-7.2,15.85-12.48c2.3-2.74,4.46-5.56,6.21-8.69
		c1.29-2.29,2.23-4.73,2.91-7.27c0.43-1.61,0.87-3.22,1.23-4.85c0.23-1.04,0.35-2.12,0.46-3.18c0.69-7.31,0.2-14.64,0.33-21.96
		c0.05-2.66,0.01-5.32,0.01-7.99c0-3.46,2.29-6.68,5.36-7.97c4.74-2,9.83,0.63,11.46,5.05c0.34,0.93,0.61,1.87,0.55,2.88
		c-0.01,0.12,0,0.24,0,0.36v13.82C245.42,188.49,245.41,188.49,245.41,188.49L245.41,188.49z M431.39,197.92v-22.7
		c0-1.82,0.32-3.57,1.27-5.14c1.32-2.16,3.17-3.5,5.62-4.13c3.95-1.02,8.33,1.4,9.89,5.18c0.52,1.28,0.77,2.62,0.77,4.01v16.78
		l-0.01,28.89c-0.01,2.4-0.65,4.59-2.29,6.41c-1.11,1.25-2.44,2.2-4.02,2.62c-1.32,0.36-2.66,0.5-4.08,0.19
		c-3.39-0.74-5.59-2.8-6.68-6.06c-0.36-1.05-0.44-2.23-0.45-3.36L431.39,197.92L431.39,197.92z M275.59,198.01l-0.01,23.42
		c-0.01,3.34-1.56,5.84-4.31,7.53c-1.86,1.14-3.88,1.53-6.08,1.04c-3.26-0.71-5.36-2.69-6.54-5.76c-0.32-0.82-0.46-1.71-0.46-2.63
		l0.01-47.29c0-3.49,2.36-6.72,5.46-7.98c4.72-1.91,9.73,0.71,11.38,5.1c0.33,0.89,0.56,1.8,0.56,2.78L275.59,198.01L275.59,198.01z
		 M449.74,151.05c0.27,4.36-2.93,8.2-6.62,9.35c-3.25,1.02-6.28,0.45-8.98-1.69c-1.73-1.37-2.86-3.17-3.39-5.32
		c-0.2-0.83-0.28-1.72-0.24-2.58c0.17-4.11,2.13-7.07,5.79-8.79c1.48-0.7,3.08-1.32,4.76-0.96c1.6,0.35,3.17,0.85,4.55,1.83
		c2.11,1.49,3.41,3.52,4.02,6.01C449.77,149.6,449.7,150.34,449.74,151.05L449.74,151.05z"/>
</g>
</svg>
