<svg xmlns="http://www.w3.org/2000/svg" xmlns:xlink="http://www.w3.org/1999/xlink" x="0px" y="0px"
	 viewBox="0 0 600 400" style="enable-background:new 0 0 600 400;" xml:space="preserve">
<style type="text/css">
	.st0{fill:#CB2026;}
	.st1{fill:#FFFFFF;}
	.st2{fill:#C42126;}
</style>
<g>
	<path class="st0" d="M520.04,256.91h-440v-84.72h440V256.91z M82.78,254.18h434.53v-79.25H82.78V254.18z"/>
	<rect x="95.07" y="146.23" class="st1" width="409.94" height="81.99"/>
	<path class="st0" d="M506.38,229.59H93.71v-84.72h412.67V229.59z M96.44,226.85h407.2V147.6H96.44V226.85z"/>
	<g>
		<g>
			<path class="st2" d="M154.92,188.32l-5.74,3.55c0.55,1.37,0.55,2.73,0.27,3.83c-0.55,1.64-1.64,3.01-3.28,4.1l-2.73,1.64
				l-9.29-14.21l2.73-1.64c0.27,0,0.27-0.27,0.55-0.27l-3.01-4.92c-0.27,0.27-0.55,0.27-0.82,0.55l-8.47,5.47l15.58,24.05
				l10.93-7.11l0.27-0.27c2.73-1.64,4.37-3.83,4.92-6.01c0.55-1.64,0.55-3.28,0.27-5.47c0-1.37-0.55-2.73-1.09-4.1
				c-0.27,0-0.27,0.27-0.55,0.27L154.92,188.32z"/>
		</g>
		<g>
			<path class="st2" d="M160.66,176.84c-0.27-1.91-1.09-4.1-2.73-6.56c-0.82-1.37-1.91-2.73-3.01-3.55
				c-1.09-1.37-2.19-2.19-3.28-2.73s-2.19-1.09-3.28-1.09c-0.55-0.27-1.37-0.27-2.19-0.27s-1.64,0-2.46,0.27
				c-0.82,0.27-1.91,0.55-3.01,0.82c-1.09,0.55-2.19,1.09-3.55,1.91l-8.47,5.47l5.74,9.02c0.82-0.55,1.91-1.09,2.73-1.37
				c1.09-0.55,1.91-0.82,3.01-0.82c0.55,0,1.09-0.27,1.64-0.27l-3.83-5.47l2.73-1.64c0.82-0.55,1.91-1.09,3.01-1.09
				c1.09-0.27,2.46,0,3.83,0.82c1.37,0.55,2.73,1.91,3.83,3.83c1.91,2.73,2.46,4.92,1.91,6.83c-0.27,0.55-0.55,1.37-1.09,1.91
				c0.82,0.82,1.37,1.64,2.19,2.73c0.55,0.82,1.09,1.91,1.37,2.73c2.46-1.64,3.83-3.55,4.37-5.74
				C160.66,180.39,160.94,178.75,160.66,176.84z"/>
		</g>
		<g>
			<path class="st2" d="M149.46,191.87c-0.27-0.82-0.82-1.91-1.64-3.01c-1.37-1.91-2.46-3.28-3.83-3.83
				c-1.37-0.55-2.46-0.82-3.83-0.82c-0.82,0.27-1.64,0.55-2.46,0.82l6.56,10.11L149.46,191.87z"/>
		</g>
	</g>
	<g>
		<g>
			<g>
				<path class="st2" d="M197.83,186.95c0,1.37-0.27,2.73-0.82,3.83s-1.09,2.19-1.91,3.01c-0.82,0.82-1.91,1.64-3.01,2.19
					c-1.09,0.55-2.46,0.82-3.83,0.82h-8.2v-19.68h8.2c1.37,0,2.73,0.27,3.83,0.82s2.19,1.37,3.01,2.19
					c0.82,0.82,1.37,1.91,1.91,3.01C197.83,184.22,197.83,185.59,197.83,186.95z M194.01,186.95c0-0.82,0-1.91-0.55-2.73
					c-0.27-0.82-0.82-1.64-1.37-2.19s-1.37-1.09-2.19-1.37c-0.82-0.27-1.64-0.55-2.73-0.55h-3.28v13.39h3.28
					c1.09,0,1.91-0.27,2.73-0.55c0.82-0.27,1.37-0.82,1.91-1.37s1.09-1.37,1.37-2.19C194.01,188.59,194.01,187.77,194.01,186.95z"/>
			</g>
			<g>
				<path class="st2" d="M221.06,186.95c0,1.37-0.27,2.73-0.82,4.1c-0.55,1.37-1.37,2.46-2.19,3.28c-0.82,0.82-2.19,1.64-3.28,2.19
					c-1.37,0.55-2.73,0.82-4.1,0.82s-2.73-0.27-4.1-0.82c-1.37-0.55-2.46-1.37-3.28-2.19c-0.82-0.82-1.64-1.91-2.19-3.28
					c-0.55-1.37-0.82-2.46-0.82-4.1c0-1.37,0.27-2.73,0.82-4.1c0.55-1.37,1.37-2.46,2.19-3.28c0.82-0.82,2.19-1.64,3.28-2.19
					c1.37-0.55,2.73-0.82,4.1-0.82s2.73,0.27,4.1,0.82c1.37,0.55,2.46,1.37,3.28,2.19c0.82,0.82,1.64,1.91,2.19,3.28
					C220.79,184.22,221.06,185.59,221.06,186.95z M217.23,186.95c0-0.82-0.27-1.64-0.55-2.46c-0.27-0.82-0.82-1.37-1.37-2.19
					c-0.55-0.55-1.37-1.09-2.19-1.37c-0.82-0.55-1.64-0.55-2.46-0.55s-1.91,0.27-2.73,0.55c-0.82,0.27-1.64,0.82-2.19,1.37
					s-1.09,1.37-1.37,2.19c-0.27,0.82-0.55,1.64-0.55,2.46c0,0.82,0.27,1.64,0.55,2.46c0.27,0.82,0.82,1.64,1.37,2.19
					s1.37,1.09,2.19,1.37c0.82,0.27,1.64,0.55,2.73,0.55c0.82,0,1.64-0.27,2.46-0.55c0.82-0.27,1.64-0.82,2.19-1.37
					s1.09-1.37,1.37-2.19C216.96,188.59,217.23,187.77,217.23,186.95z"/>
			</g>
			<g>
				<path class="st2" d="M241.28,177.11v10.66c0,1.37-0.27,2.46-0.55,3.55c-0.27,1.09-1.09,2.19-1.64,3.01
					c-0.82,0.82-1.64,1.64-2.73,1.91c-1.09,0.55-2.19,0.82-3.83,0.82c-1.37,0-2.46-0.27-3.55-0.82c-1.09-0.55-1.91-1.09-2.73-1.91
					c-0.82-0.82-1.37-1.91-1.64-3.01c-0.55-1.09-0.55-2.46-0.55-3.55v-10.93h3.55v10.93c0,0.82,0,1.37,0.27,2.19
					c0.27,0.55,0.55,1.37,0.82,1.64c0.55,0.55,0.82,0.82,1.64,1.09c0.55,0.27,1.37,0.55,2.19,0.55s1.64,0,2.19-0.27
					c0.55-0.27,1.09-0.55,1.64-1.09c0.27-0.55,0.82-1.09,0.82-1.64c0.27-0.55,0.27-1.37,0.27-2.19v-10.93H241.28z"/>
			</g>
			<g>
				<path class="st2" d="M258.78,191.05c0,0.82-0.27,1.64-0.55,2.19c-0.27,0.82-0.82,1.37-1.37,1.91s-1.09,0.82-1.91,1.09
					c-0.82,0.55-1.64,0.55-2.46,0.55h-7.93v-19.68h7.11c0.82,0,1.64,0,2.46,0.27c0.82,0.27,1.37,0.55,1.91,1.09
					c0.55,0.55,1.09,1.09,1.37,1.91c0.27,0.82,0.55,1.37,0.55,2.46c0,0.82-0.27,1.37-0.55,2.19c-0.27,0.82-0.82,1.37-1.37,1.64
					c0.55,0.27,0.82,0.55,1.09,0.82c0.27,0.27,0.55,0.82,0.82,1.09c0.27,0.27,0.55,0.82,0.55,1.37
					C258.5,190.23,258.78,190.78,258.78,191.05z M253.86,182.85c0-0.55,0-0.82-0.27-1.37c-0.27-0.27-0.55-0.55-0.82-0.82
					c0-0.27-0.55-0.27-0.82-0.55c-0.27,0-0.82-0.27-1.37-0.27h-2.19v5.47c0.55,0,0.82,0,1.09,0s0.82,0,1.09,0
					c0.55,0,0.82,0,1.37-0.27c0.27,0,0.82-0.27,1.09-0.55c0.27-0.27,0.55-0.55,0.82-0.82C253.86,183.67,253.86,183.13,253.86,182.85
					z M254.68,191.05c0-0.55,0-0.82-0.27-1.09c-0.27-0.27-0.27-0.55-0.55-0.82c-0.27-0.27-0.55-0.55-0.82-0.55s-0.82-0.27-1.09-0.27
					c-0.55,0-1.09,0-1.64,0s-1.09,0-1.64,0v5.47h2.73c0.55,0,0.82,0,1.37-0.27c0.55,0,0.82-0.27,1.09-0.55
					c0.27-0.27,0.55-0.55,0.82-0.82C254.68,191.87,254.68,191.32,254.68,191.05z"/>
			</g>
			<g>
				<path class="st2" d="M274.63,196.79h-13.39v-19.68h3.83v16.12h9.57V196.79z"/>
			</g>
			<g>
				<path class="st2" d="M289.93,196.79h-13.12v-19.68h13.12v3.28h-9.29v4.65h9.29v3.01h-9.29v5.47h9.29V196.79z"/>
			</g>
		</g>
		<g>
			<g>
				<path class="st2" d="M316.99,190.78c0,0.82-0.27,1.37-0.55,2.19c-0.27,0.55-0.82,1.37-1.37,1.64c-0.55,0.55-1.37,0.82-1.91,1.09
					c-0.82,0.27-1.64,0.55-2.73,0.55c-0.82,0-1.64,0-2.19-0.27c-0.55,0-1.37-0.27-1.91-0.55c-0.55-0.27-1.09-0.55-1.64-0.82
					c-0.55-0.27-1.09-0.82-1.64-1.09l2.73-2.73c0.82,0.55,1.64,1.09,2.19,1.37c0.82,0.27,1.64,0.27,2.46,0.27
					c0.27,0,0.82,0,1.09-0.27c0.27,0,0.55-0.27,0.82-0.55c0.27-0.27,0.55-0.27,0.55-0.55c0.27-0.27,0.27-0.55,0.27-0.82
					c0-0.27,0-0.55-0.27-0.82c0-0.27-0.27-0.55-0.55-0.82c-0.27-0.27-0.82-0.55-1.37-0.82c-0.55-0.27-1.09-0.55-1.91-0.82
					c-0.82-0.27-1.37-0.55-2.19-0.82c-0.55-0.27-1.37-0.82-1.64-1.09c-0.55-0.55-0.82-1.09-1.09-1.64
					c-0.27-0.55-0.55-1.37-0.55-2.19c0-0.82,0.27-1.64,0.55-2.19c0.27-0.82,0.82-1.37,1.37-1.91c0.55-0.55,1.37-0.82,1.91-1.09
					c0.82-0.27,1.64-0.55,2.46-0.55c1.64,0,2.73,0.27,3.83,0.55c1.09,0.27,1.91,1.09,2.73,1.64l-2.73,2.73
					c-0.55-0.55-1.09-0.82-1.64-1.09c-0.55-0.27-1.37-0.27-2.19-0.27c-0.27,0-0.82,0-1.09,0.27c-0.27,0-0.55,0.27-0.82,0.55
					c-0.27,0.27-0.55,0.55-0.55,0.55c-0.27,0.27-0.27,0.55-0.27,0.82c0,0.27,0,0.55,0.27,0.82c0,0.27,0.27,0.55,0.55,0.82
					c0.27,0.27,0.82,0.55,1.37,0.82c0.55,0.27,1.09,0.55,1.91,0.82c1.09,0.27,1.91,0.82,2.46,1.09c0.82,0.55,1.37,0.82,1.64,1.37
					c0.55,0.55,0.82,1.09,1.09,1.64C316.71,189.41,316.99,189.96,316.99,190.78z"/>
			</g>
			<g>
				<path class="st2" d="M333.11,179.85h-5.47v16.4h-3.83v-16.4h-5.47v-3.28h14.76V179.85z"/>
			</g>
			<g>
				<path class="st2" d="M354.7,186.13c0,1.37-0.27,2.73-0.82,4.1c-0.55,1.37-1.37,2.46-2.19,3.28c-0.82,0.82-2.19,1.64-3.28,2.19
					c-1.37,0.55-2.73,0.82-4.1,0.82c-1.37,0-2.73-0.27-4.1-0.82s-2.46-1.37-3.28-2.19c-0.82-0.82-1.64-1.91-2.19-3.28
					c-0.55-1.37-0.82-2.46-0.82-4.1c0-1.37,0.27-2.73,0.82-4.1c0.55-1.37,1.37-2.46,2.19-3.28s2.19-1.64,3.28-2.19
					c1.37-0.55,2.73-0.82,4.1-0.82c1.37,0,2.73,0.27,4.1,0.82s2.46,1.37,3.28,2.19s1.64,1.91,2.19,3.28
					C354.43,183.4,354.7,184.77,354.7,186.13z M350.87,186.13c0-0.82-0.27-1.64-0.55-2.46c-0.27-0.82-0.82-1.37-1.37-2.19
					c-0.55-0.55-1.37-1.09-2.19-1.37c-0.82-0.27-1.64-0.55-2.46-0.55s-1.91,0.27-2.46,0.55c-0.82,0.27-1.64,0.82-2.19,1.37
					c-0.55,0.55-1.09,1.37-1.37,2.19c-0.27,0.82-0.55,1.64-0.55,2.46c0,0.82,0.27,1.64,0.55,2.46c0.27,0.82,0.82,1.64,1.37,2.19
					c0.55,0.55,1.37,1.09,2.19,1.37c0.82,0.27,1.64,0.55,2.46,0.55s1.64-0.27,2.46-0.55c0.82-0.27,1.64-0.82,2.19-1.37
					c0.55-0.55,1.09-1.37,1.37-2.19C350.6,187.77,350.87,186.95,350.87,186.13z"/>
			</g>
			<g>
				<path class="st2" d="M374.1,195.97h-3.83l-9.02-13.94v13.94h-3.83v-19.68h4.37l8.47,12.84v-12.84h3.83
					C374.1,176.29,374.1,195.97,374.1,195.97z"/>
			</g>
			<g>
				<path class="st2" d="M390.78,195.97h-12.84v-19.68h13.12v3.28h-9.29v4.65h9.02v3.01h-9.02v5.47h9.29v3.28H390.78z"/>
			</g>
		</g>
		<g>
			<g>
				<path class="st2" d="M417.01,190.78c0,0.82-0.27,1.37-0.55,2.19c-0.27,0.55-0.82,1.37-1.37,1.64c-0.55,0.55-1.37,0.82-1.91,1.09
					c-0.82,0.27-1.64,0.55-2.73,0.55c-0.82,0-1.64,0-2.19-0.27c-0.55,0-1.37-0.27-1.91-0.55c-0.55-0.27-1.09-0.55-1.64-0.82
					c-0.55-0.27-1.09-0.82-1.64-1.09l2.73-2.73c0.82,0.55,1.64,1.09,2.19,1.37c0.82,0.27,1.64,0.27,2.46,0.27
					c0.27,0,0.82,0,1.09-0.27c0.27,0,0.55-0.27,0.82-0.55c0.27-0.27,0.55-0.27,0.55-0.55c0.27-0.27,0.27-0.55,0.27-0.82
					c0-0.27,0-0.55-0.27-0.82c0-0.27-0.27-0.55-0.55-0.82c-0.27-0.27-0.82-0.55-1.37-0.82c-0.55-0.27-1.09-0.55-1.91-0.82
					c-0.82-0.27-1.37-0.55-2.19-0.82c-0.55-0.27-1.37-0.82-1.64-1.09c-0.55-0.55-0.82-1.09-1.09-1.64
					c-0.27-0.55-0.55-1.37-0.55-2.19c0-0.82,0.27-1.64,0.55-2.19c0.27-0.82,0.82-1.37,1.37-1.91s1.37-0.82,1.91-1.09
					c0.82-0.27,1.64-0.55,2.46-0.55c1.64,0,2.73,0.27,3.83,0.55c1.09,0.27,1.91,1.09,2.73,1.64l-2.73,2.73
					c-0.55-0.55-1.09-0.82-1.64-1.09c-0.55-0.27-1.37-0.27-2.19-0.27c-0.27,0-0.82,0-1.09,0.27c-0.27,0-0.55,0.27-0.82,0.55
					c-0.27,0.27-0.55,0.55-0.55,0.55c-0.27,0.27-0.27,0.55-0.27,0.82c0,0.27,0,0.55,0.27,0.82c0,0.27,0.27,0.55,0.55,0.82
					c0.27,0.27,0.82,0.55,1.37,0.82c0.55,0.27,1.09,0.55,1.91,0.82c1.09,0.27,1.91,0.82,2.46,1.09c0.82,0.55,1.37,0.82,1.64,1.37
					c0.55,0.55,0.82,1.09,1.09,1.64C417.01,189.41,417.01,189.96,417.01,190.78z"/>
			</g>
			<g>
				<path class="st2" d="M433.14,179.85h-5.47v16.4h-3.83v-16.4h-5.47v-3.28h14.76V179.85z"/>
			</g>
			<g>
				<path class="st2" d="M448.71,195.97H435.6v-19.68h13.12v3.28h-9.29v4.65h9.02v3.01h-9.02v5.47h9.29V195.97z"/>
			</g>
			<g>
				<path class="st2" d="M464.84,195.97h-13.12v-19.68h13.12v3.28h-9.29v4.65h9.02v3.01h-9.02v5.47h9.29V195.97z"/>
			</g>
			<g>
				<path class="st2" d="M480.96,195.97h-13.39v-19.68h3.83v16.12h9.57V195.97z"/>
			</g>
		</g>
	</g>
</g>
</svg>
