<svg xmlns="http://www.w3.org/2000/svg" xmlns:xlink="http://www.w3.org/1999/xlink" x="0px" y="0px" viewBox="0 0 600 400" style="enable-background:new 0 0 600 400;" xml:space="preserve">
<style type="text/css">
	.st0{fill:#010101;}
</style>
<g>
	<polygon class="st0" points="229.98,240.85 240.82,240.85 240.82,238.79 233.59,238.79 233.59,234.14 239.27,234.14 239.27,232.34 
		233.59,232.34 233.59,228.21 240.82,228.21 240.82,226.14 229.98,226.14 	"/>
	<rect x="244.17" y="233.63" class="st0" width="7.74" height="2.06"/>
	<polygon class="st0" points="258.36,226.14 254.75,226.14 254.75,240.85 265.33,240.85 265.33,238.79 258.36,238.79 	"/>
	<rect x="270.49" y="226.14" class="st0" width="3.61" height="14.71"/>
	<path class="st0" d="M295.53,233.37c0-4.39-3.35-7.48-8-7.48c-4.65,0-8,3.1-8,7.48s3.35,7.48,8,7.48c0.77,0,1.29,0,2.06-0.26
		l2.32,1.81h3.35l-3.35-2.58C293.98,238.79,295.53,236.21,295.53,233.37z M284.17,236.98l2.84,2.06c-2.06-0.26-4.13-2.06-4.13-5.68
		c0-3.87,2.32-5.68,4.39-5.68c2.06,0,4.39,1.81,4.39,5.68c0,2.32-0.77,4.13-2.32,4.9l-2.06-1.55h-3.1V236.98z"/>
	<path class="st0" d="M310.49,234.66c0,2.06-0.52,4.39-3.35,4.39c-1.29,0-3.1-0.52-3.1-4.13v-8.77h-3.35v8.52
		c0,4.13,2.32,6.45,6.19,6.45c3.61,0,5.68-2.32,5.68-6.71v-8.26h-2.06C310.49,226.14,310.49,234.66,310.49,234.66z"/>
	<rect x="318.49" y="226.14" class="st0" width="3.61" height="14.71"/>
	<path class="st0" d="M333.98,226.14h-5.42v14.71h5.42c2.58,0,4.65-0.77,5.94-2.32c1.29-1.29,2.06-3.1,2.06-5.16
		C341.98,229.76,339.14,226.14,333.98,226.14z M332.17,228.21h1.55c3.1,0,4.65,2.84,4.65,5.42c0,1.55-0.52,2.84-1.29,3.87
		c-0.77,1.03-2.06,1.55-3.61,1.55h-1.29V228.21z"/>
	<path class="st0" d="M353.07,231.82c-1.55-0.77-3.35-1.55-3.35-2.58c0-0.77,0.77-1.03,1.29-1.29c1.55-0.52,3.87,0,4.65,1.29
		l0.52,0.52l1.55-1.29l-0.26-0.52c-1.81-2.32-5.16-2.58-7.74-1.81c-2.06,0.77-3.35,2.06-3.35,3.87c0,2.58,2.58,3.87,4.9,4.9
		c1.55,0.77,3.1,1.55,3.1,2.58c0,0.77-0.77,1.03-1.29,1.29c-1.55,0.52-4.39,0-5.42-1.29l-0.52-0.52l-1.29,1.55l0.26,0.52
		c1.29,1.55,3.35,2.32,5.42,2.32c1.03,0,2.06-0.26,2.84-0.52c2.06-0.77,3.35-2.06,3.35-3.87
		C357.72,233.89,355.14,232.85,353.07,231.82z"/>
	<path class="st0" d="M269.2,175.05c-1.03-2.84-2.84-5.16-4.9-7.23s-4.65-3.87-7.23-4.9c-2.84-1.29-5.68-1.81-9.03-1.81
		s-6.19,0.52-9.03,1.81c-2.84,1.03-5.16,2.84-7.48,4.9c-2.06,2.06-3.87,4.65-4.9,7.23c-1.29,2.84-1.81,5.94-1.81,9.03
		s0.52,6.19,1.81,9.03c1.29,2.58,2.84,5.16,4.9,7.48c2.06,2.06,4.65,3.87,7.48,4.9c2.84,1.29,5.94,1.81,9.03,1.81
		s6.19-0.52,9.03-1.81c2.84-1.29,5.16-2.84,7.23-4.9s3.87-4.65,4.9-7.48c1.29-2.84,1.81-5.68,1.81-9.03
		C271.01,180.72,270.49,177.63,269.2,175.05z M263.27,174.01c0.52,2.32,0.77,4.65,0.77,7.23s-0.77,5.16-1.81,8l0,0
		c-1.03,2.58-2.32,5.16-3.87,6.97c-1.55,2.06-3.61,3.61-5.42,4.9c-2.06,1.29-4.13,2.06-6.19,2.32c-2.06,0.26-4.13,0-6.19-0.77
		c-1.81-0.77-3.61-1.81-4.9-3.61c-1.29-1.55-2.32-3.61-3.1-5.94c-0.77-2.32-1.03-4.65-0.77-7.23s0.77-5.16,1.81-8
		c1.03-2.58,2.32-5.16,4.13-6.97c1.55-2.06,3.61-3.61,5.42-4.9c2.06-1.29,4.13-2.06,6.19-2.32c0.52,0,1.29-0.26,1.81-0.26
		c1.55,0,2.84,0.26,4.13,0.77c1.81,0.77,3.61,1.81,4.9,3.61C261.72,169.89,262.75,171.95,263.27,174.01z"/>
	<path class="st0" d="M306.36,190.53c1.29-1.03,2.32-2.32,3.35-3.61c1.03-1.29,1.55-2.84,2.32-4.39c0.52-1.55,0.77-3.35,0.77-4.9
		c0-2.32-0.52-4.39-1.29-6.45c-0.77-2.06-2.06-3.87-3.61-5.42c-1.55-1.55-3.35-2.58-5.42-3.61c-2.06-0.77-4.13-1.29-6.45-1.29
		h-19.61v46.19h7.74v-10.06c0-0.52,0.26-1.03,0.52-1.55c0.52-0.52,0.77-0.52,1.55-0.52h0.52c2.06,0,4.13,0.26,6.19,0.77
		c1.55,0.26,3.35,0.77,5.16,1.55c1.81,0.77,3.1,1.81,4.13,3.1c1.29,1.81,2.32,3.87,2.84,6.19v0.52h7.74l-0.26-0.77
		c-0.52-2.84-1.81-5.16-3.61-7.48c-1.81-2.06-4.13-3.61-6.45-4.65c-0.77-0.26-1.03-0.52-1.03-0.52s0.26-0.26,1.03-0.52
		C303.78,192.34,305.07,191.56,306.36,190.53z M283.91,165.5c0-0.52,0.26-1.03,0.52-1.55c0.52-0.52,0.77-0.52,1.55-0.52h1.55
		c0.52,0,1.29,0,2.32,0s2.32,0.26,3.61,0.52c1.29,0.26,2.58,0.77,4.13,1.29c1.29,0.52,2.58,1.29,3.61,2.32
		c1.03,1.03,2.06,2.32,2.84,3.87c0.77,1.55,1.03,3.61,1.03,5.94c0,2.58-0.52,4.65-1.03,6.19c-0.77,1.55-1.81,3.1-2.84,4.13
		c-1.29,1.03-2.58,1.81-3.87,2.58c-1.55,0.52-2.84,1.03-4.13,1.29c-1.29,0.26-2.58,0.52-3.61,0.52s-1.81,0-2.32,0h-1.03
		c-0.52,0-1.03-0.26-1.55-0.52c-0.52-0.52-0.52-0.77-0.52-1.55V165.5H283.91z"/>
	<rect x="320.56" y="160.85" class="st0" width="7.74" height="46.19"/>
	<path class="st0" d="M359.78,182.01h8.77c0.52,0,1.03,0.26,1.29,0.52c0.26,0.26,0.52,0.77,0.52,1.29v12.13c0,0.26,0,0.77-0.26,1.03
		c-1.55,2.32-3.1,4.13-5.16,5.42c-2.06,1.29-4.13,2.06-6.71,2.06c-2.06,0-4.13-0.52-5.94-1.55s-3.61-2.58-4.9-4.39
		s-2.58-4.13-3.35-6.45c-0.77-2.58-1.29-5.16-1.29-8s0.52-5.42,1.29-8s1.81-4.65,3.35-6.45c1.29-1.81,3.1-3.35,4.9-4.39
		c3.35-2.06,7.74-2.06,11.1-0.52c1.55,0.77,3.1,1.81,4.39,3.35l0.52,0.52l3.35-3.35l-0.52-0.52c-1.03-0.77-2.32-1.55-3.61-2.06
		c-2.84-1.29-5.68-1.81-9.03-1.81c-3.35,0-6.19,0.52-9.03,1.81c-2.84,1.03-5.16,2.84-7.48,4.9c-2.06,2.06-3.87,4.65-4.9,7.23
		c-1.29,2.84-1.81,5.94-1.81,9.03c0,3.1,0.52,6.19,1.81,9.03c1.29,2.84,2.84,5.16,4.9,7.48c2.06,2.06,4.65,3.87,7.48,4.9
		c5.68,2.32,12.13,2.32,18.06,0l0.77-0.26c0.52-0.26,1.03-0.26,1.55,0c0.52,0.26,0.77,0.77,0.77,1.29v0.52h4.39v-27.35h-14.97v2.58
		H359.78z"/>
	<rect x="384.56" y="160.85" class="st0" width="7.74" height="46.19"/>
	<path class="st0" d="M433.85,191.82c0,0.52,0,0.77-0.26,1.03c-0.26,0.26-0.52,0.52-1.03,0.77c-0.26,0-0.77,0.26-1.03,0
		c-0.52,0-0.77-0.26-1.03-0.77l-22.71-32l-0.26-0.26h-5.42v46.19h2.58v-30.97c0-0.52,0-0.77,0.26-1.03
		c0.26-0.26,0.52-0.52,1.03-0.77c0.26,0,0.77-0.26,1.03,0c0.52,0,0.77,0.26,1.03,0.77l22.97,32.26h5.42v-46.19h-2.58L433.85,191.82
		L433.85,191.82z"/>
	<path class="st0" d="M466.11,160.85h-4.9l-19.87,46.19h2.84l0.26-0.26c0.52-0.26,1.29-1.03,2.06-1.81
		c1.03-0.77,2.06-1.55,3.35-2.58c1.29-0.77,2.84-1.81,4.39-2.58c1.55-0.77,3.1-1.55,4.65-2.32c2.06-0.77,4.39-1.55,6.45-1.81
		c2.06-0.52,3.87-0.77,5.68-0.77c0.52,0,0.77,0,1.03,0.26c0.26,0.26,0.52,0.52,0.77,1.03l4.65,10.84h8.52l-19.61-45.68
		L466.11,160.85z M450.11,198.79c-0.52,0-0.77-0.26-1.03-0.52c-0.26-0.26-0.52-0.52-0.52-1.03c0-0.26,0-0.77,0.26-1.29l10.32-24
		c0.26-0.26,0.52-0.77,0.77-0.77c0.26-0.26,0.77-0.26,1.03-0.26c0.26,0,0.77,0,1.03,0.26c0.26,0.26,0.52,0.52,0.77,0.77l8,18.84
		c0.26,0.26,0.26,0.77,0,1.03s-0.52,0.52-1.03,0.52v0.52l-0.26-0.52c-1.55,0.26-3.35,0.52-5.16,0.77c-2.06,0.52-4.13,1.03-6.45,1.81
		c-1.03,0.52-2.32,1.03-3.35,1.55c-1.03,0.52-2.06,1.03-3.1,1.81C450.88,198.79,450.62,198.79,450.11,198.79z"/>
	<path class="st0" d="M500.17,204.47c-0.52,0-1.03-0.26-1.29-0.52c-0.26-0.26-0.52-0.77-0.52-1.29v-41.81h-7.74v46.19h30.19v-2.58
		C520.82,204.47,500.17,204.47,500.17,204.47z"/>
	<path class="st0" d="M145.85,135.3c-17.55,0-33.81,6.71-46.19,19.1c-12.13,12.13-18.84,28.65-18.84,45.94s6.71,33.81,19.1,46.19
		c12.39,12.39,28.65,19.1,46.19,19.1s33.81-6.71,46.19-19.1c25.55-25.55,25.55-66.84,0-92.39
		C179.66,142.01,163.4,135.3,145.85,135.3z M170.36,250.92c-9.81-0.77-15.23-3.35-20.9-5.94c-6.97-3.1-13.94-6.45-28.9-6.45
		c-7.23,0-13.16,1.29-18.58,4.13c-3.1-2.84-5.68-6.19-7.74-9.55c1.55-1.81,4.13-3.87,11.1-5.16c4.65-0.77,9.55-1.03,15.23-1.03
		c13.94,0,20.65,3.1,27.61,6.19s14.45,6.45,28.9,6.45c6.45,0,12.13-0.52,17.29-1.55c-1.55,2.06-3.35,3.87-5.16,5.68
		c-1.29,1.29-2.58,2.32-3.87,3.61c-2.06,1.29-8,4.39-14.71,3.87L170.36,250.92z M177.07,236.72c-13.94,0-20.65-3.1-27.61-6.19
		s-14.45-6.45-28.9-6.45c-7.23,0-13.42,0.52-19.1,1.81l0,0h-0.26c-3.61,0.77-6.45,1.55-9.55,2.58H91.4
		c-12.13-23.74-7.74-52.13,11.1-71.23c11.87-11.61,27.1-17.81,43.35-17.81s31.74,6.45,43.35,17.81
		c19.1,19.1,23.23,48.77,10.32,72.52c-1.55,1.55-5.68,5.16-13.94,6.45C183.01,236.72,180.17,236.72,177.07,236.72z M114.11,241.89
		c2.06-0.26,4.13-0.52,6.45-0.52c14.19,0,20.65,3.1,27.61,6.19c6.71,3.1,13.42,6.19,27.1,6.45c-8.77,4.9-19.1,7.48-29.42,7.48
		c-14.97,0-29.16-5.42-40.26-15.23C106.88,244.72,108.95,242.92,114.11,241.89z"/>
	<path class="st0" d="M185.59,174.01c-0.26,0.26-0.26,0.52,0,1.03s1.03,1.81,1.55,3.61c0.52,2.32-0.52,4.9-0.52,5.16l-16.26,33.03
		c-0.26,0.77-0.52,1.03-1.03,1.29c-1.03,0.52-1.81,0.52-2.84,0c-0.52-0.26-0.77-0.52-1.03-1.29l-9.55-19.1
		c0.26-0.77,0.77-1.55,1.03-2.32c1.55-3.35,2.32-7.23,2.32-11.1s-0.77-7.74-2.32-11.1c-1.29-3.35-3.35-6.45-6.19-9.03
		c-2.58-2.58-5.68-4.65-9.03-6.19c-3.35-1.55-7.23-2.32-11.1-2.32h-19.87v57.29h19.87c3.87,0,7.48-0.77,11.1-2.32
		c2.32-1.03,4.65-2.32,6.71-3.87l0.52-0.26l-3.1-5.94l-0.52,1.03c-0.26,0.52-0.52,0.77-0.77,1.29c-1.81,2.32-3.87,4.13-6.19,5.42
		c-2.32,1.29-4.9,2.06-7.48,2.06h-8.26c-0.77,0-1.29-0.26-1.81-0.77s-0.77-1.03-0.77-1.81v-46.45c0-0.77,0.26-1.29,0.77-1.81
		s1.03-0.77,1.81-0.77h8c2.58,0,5.16,0.77,7.48,2.06c2.32,1.29,4.39,3.1,6.19,5.42s3.1,5.16,4.13,8.26
		c1.03,3.1,1.55,6.45,1.55,10.06c0,0.52,0,1.03,0,1.55l-6.71-12.65H133.2l28.65,56.77h5.16l27.87-56.77h-8.52
		C186.11,173.5,185.85,173.5,185.59,174.01z"/>
</g>
</svg>
