<svg xmlns="http://www.w3.org/2000/svg" xmlns:xlink="http://www.w3.org/1999/xlink" x="0px" y="0px" viewBox="0 0 600 400" style="enable-background:new 0 0 600 400;" xml:space="preserve">
<style type="text/css">
	.st0{fill:#5D2F8F;}
	.st1{fill:#FFFFFF;}
</style>
<g>
	<g>
		<path class="st0" d="M297.72,174.55c-1.94,0-3.49,0.77-4.65,2.13c-1.16,1.36-1.74,3.29-1.74,5.81s0.58,4.65,1.55,5.81
			c1.16,1.36,2.71,1.94,4.84,1.94c0.97,0,1.74,0,2.52-0.19c0.77-0.19,1.74-0.39,2.52-0.77v2.9c-1.74,0.58-3.49,0.97-5.62,0.97
			c-3.1,0-5.42-0.97-7.17-2.71c-1.74-1.94-2.52-4.65-2.52-8.13c0-2.13,0.39-4.07,1.16-5.81c0.77-1.74,1.94-2.9,3.49-3.87
			c1.55-0.97,3.29-1.36,5.42-1.36c2.13,0,4.07,0.39,6,1.36l-1.16,2.9c-0.77-0.39-1.55-0.58-2.32-0.97
			C299.46,174.75,298.69,174.55,297.72,174.55z"/>
		<path class="st0" d="M326.19,182.49c0,3.49-0.77,6.2-2.52,7.94c-1.74,1.94-4.07,2.9-7.36,2.9c-3.1,0-5.62-0.97-7.36-2.9
			c-1.74-1.94-2.52-4.65-2.52-8.13s0.77-6.2,2.52-7.94c1.74-1.94,4.26-2.71,7.36-2.71s5.62,0.97,7.36,2.9
			C325.41,176.29,326.19,179.01,326.19,182.49z M310.11,182.49c0,2.52,0.58,4.65,1.55,6c0.97,1.36,2.52,1.94,4.65,1.94
			s3.68-0.58,4.65-1.94c0.97-1.36,1.55-3.29,1.55-6c0-2.52-0.58-4.65-1.55-5.81c-0.97-1.36-2.52-1.94-4.65-1.94
			s-3.68,0.58-4.65,1.94C310.69,177.84,310.11,179.78,310.11,182.49z"/>
		<path class="st0" d="M348.46,192.95h-4.26l-10.46-16.85h0v0.97c0.19,1.74,0.19,3.49,0.19,4.84v11.04h-3.1v-21.11h4.26l10.26,16.85
			l0,0c0-0.19,0-0.97-0.19-2.32c0-1.36,0-2.52,0-3.29v-11.04h3.1L348.46,192.95L348.46,192.95z"/>
		<path class="st0" d="M366.27,187.33c0,1.94-0.77,3.29-2.13,4.45s-3.29,1.55-5.62,1.55c-2.32,0-4.26-0.39-5.81-1.16v-3.29
			c0.97,0.39,1.94,0.77,3.1,1.16c1.16,0.19,2.13,0.39,3.1,0.39c1.36,0,2.32-0.19,3.1-0.77c0.58-0.58,0.97-1.16,0.97-2.13
			c0-0.77-0.39-1.55-0.97-1.94c-0.58-0.58-1.74-1.16-3.68-1.94c-1.94-0.77-3.29-1.74-4.07-2.71s-1.16-2.13-1.16-3.68
			c0-1.74,0.58-3.1,1.94-4.26c1.16-0.97,2.9-1.55,5.04-1.55c1.94,0,4.07,0.39,6,1.36l-1.16,2.9c-1.94-0.77-3.49-1.16-5.04-1.16
			c-1.16,0-1.94,0.19-2.52,0.77s-0.77,1.16-0.77,1.94c0,0.58,0.19,0.97,0.39,1.36c0.19,0.39,0.58,0.77,1.16,1.16
			c0.58,0.39,1.55,0.77,2.9,1.36c1.55,0.58,2.71,1.16,3.49,1.74c0.77,0.58,1.16,1.16,1.55,1.94
			C366.08,185.4,366.27,186.36,366.27,187.33z"/>
		<path class="st0" d="M386.8,171.84v13.75c0,1.55-0.39,2.9-0.97,4.07c-0.58,1.16-1.55,2.13-2.9,2.71s-2.71,0.97-4.45,0.97
			c-2.71,0-4.65-0.77-6.2-2.13c-1.55-1.36-2.13-3.29-2.13-5.81v-13.56h3.49v13.36c0,1.74,0.39,3.1,1.16,3.87
			c0.77,0.77,2.13,1.16,3.68,1.16c3.29,0,4.84-1.74,4.84-5.23v-13.36L386.8,171.84L386.8,171.84z"/>
		<path class="st0" d="M392.23,192.95v-21.11h3.49v18.2h8.91v2.9H392.23z"/>
		<path class="st0" d="M415.66,192.95h-3.49v-18.2h-6.2v-2.9h15.88v2.9h-6.2V192.95z"/>
		<path class="st0" d="M424.95,192.95v-21.11h3.49v21.11H424.95z"/>
		<path class="st0" d="M451.68,192.95h-4.26l-10.46-16.85h-0.19v0.97c0.19,1.74,0.19,3.49,0.19,4.84v11.04h-3.1v-21.11h4.26
			l10.46,16.85l0,0c0-0.19,0-0.97-0.19-2.32c0-1.36,0-2.52,0-3.29v-11.04h3.1L451.68,192.95L451.68,192.95z"/>
		<path class="st0" d="M465.82,181.52h7.75v10.65c-1.36,0.39-2.52,0.77-3.68,0.97c-1.16,0.19-2.52,0.19-3.87,0.19
			c-3.29,0-5.62-0.97-7.36-2.9s-2.52-4.65-2.52-7.94c0-3.49,0.97-6,2.9-7.94s4.65-2.9,8.13-2.9c2.13,0,4.26,0.39,6.2,1.36l-1.16,2.9
			c-1.74-0.77-3.49-1.16-5.23-1.16c-2.32,0-4.07,0.77-5.42,2.13c-1.36,1.36-1.94,3.29-1.94,5.81c0,2.52,0.58,4.65,1.74,5.81
			c1.16,1.36,2.9,1.94,5.04,1.94c1.16,0,2.32-0.19,3.68-0.39v-5.42h-4.45v-3.1H465.82z"/>
		<g>
			<path class="st0" d="M287.65,223.94c0-1.36,0.39-2.32,0.97-3.29c0.58-0.97,1.74-1.94,3.29-2.71c-0.97-1.16-1.55-1.94-1.94-2.71
				c-0.39-0.77-0.58-1.55-0.58-2.32c0-1.55,0.58-2.71,1.55-3.49c0.97-0.77,2.52-1.36,4.26-1.36c1.74,0,3.1,0.39,4.07,1.16
				c0.97,0.77,1.55,1.94,1.55,3.29c0,1.16-0.39,2.13-0.97,2.9c-0.58,0.97-1.74,1.74-3.29,2.71l5.04,4.84
				c0.77-0.97,1.36-2.52,1.94-4.45h3.49c-0.58,2.71-1.74,5.04-3.29,6.78l4.26,4.26h-4.45l-2.13-2.13c-0.97,0.77-1.94,1.36-3.1,1.74
				c-1.16,0.39-2.32,0.58-3.68,0.58c-2.13,0-3.87-0.58-5.23-1.55C288.42,227.03,287.65,225.68,287.65,223.94z M295.01,226.84
				c1.74,0,3.29-0.58,4.45-1.55l-5.62-5.42c-0.97,0.58-1.74,1.36-2.13,1.94c-0.39,0.58-0.58,1.16-0.58,1.94
				c0,0.97,0.39,1.74,0.97,2.32C292.88,226.45,293.85,226.84,295.01,226.84z M292.88,212.9c0,0.58,0.19,1.16,0.39,1.74
				c0.39,0.58,0.77,1.16,1.36,1.74c1.16-0.58,1.94-1.16,2.32-1.74c0.39-0.58,0.58-1.16,0.58-1.74c0-0.58-0.19-1.16-0.58-1.55
				c-0.39-0.39-0.97-0.58-1.74-0.58c-0.77,0-1.36,0.19-1.74,0.58C293.07,211.73,292.88,212.32,292.88,212.9z"/>
			<path class="st0" d="M322.12,221.03v8.52h-3.49v-21.3h6c2.71,0,4.65,0.58,6,1.55s1.94,2.52,1.94,4.65c0,2.71-1.36,4.45-4.07,5.62
				l6,9.3h-3.87l-5.04-8.52h-3.49V221.03z M322.12,218.13h2.32c1.55,0,2.71-0.39,3.49-0.97c0.77-0.58,1.16-1.55,1.16-2.71
				s-0.39-2.13-1.16-2.52c-0.77-0.58-1.94-0.77-3.49-0.77h-2.32V218.13L322.12,218.13z"/>
			<path class="st0" d="M349.62,229.55h-12.01v-21.3h12.01v2.9h-8.52v5.81h7.94v2.9h-7.94v6.58h8.52V229.55z"/>
			<path class="st0" d="M363.18,210.96c-1.94,0-3.49,0.77-4.65,2.13s-1.74,3.29-1.74,5.81s0.58,4.65,1.55,5.81
				c0.97,1.16,2.71,1.94,4.84,1.94c0.97,0,1.74,0,2.52-0.19c0.77-0.19,1.74-0.39,2.52-0.77v2.9c-1.74,0.58-3.49,0.97-5.62,0.97
				c-3.1,0-5.42-0.97-7.17-2.9c-1.74-1.94-2.52-4.65-2.52-8.13c0-2.13,0.39-4.07,1.16-5.81c0.77-1.74,1.94-2.9,3.49-3.87
				c1.55-0.97,3.29-1.36,5.42-1.36c2.13,0,4.07,0.39,6,1.36l-1.16,2.9c-0.77-0.39-1.55-0.58-2.32-0.97
				C364.92,211.15,363.95,210.96,363.18,210.96z"/>
			<path class="st0" d="M376.35,221.03v8.52h-3.49v-21.3h6c2.71,0,4.65,0.58,6,1.55c1.36,0.97,1.94,2.52,1.94,4.65
				c0,2.71-1.36,4.45-4.07,5.62l6,9.3h-3.87l-5.04-8.52h-3.49V221.03z M376.35,218.13h2.32c1.55,0,2.71-0.39,3.49-0.97
				c0.77-0.58,1.16-1.55,1.16-2.71s-0.39-2.13-1.16-2.52c-0.77-0.58-1.94-0.77-3.49-0.77h-2.32V218.13L376.35,218.13z"/>
			<path class="st0" d="M408.3,208.25V222c0,1.55-0.39,2.9-0.97,4.07c-0.58,1.16-1.55,2.13-2.9,2.71c-1.36,0.58-2.71,0.97-4.45,0.97
				c-2.71,0-4.65-0.77-6.2-2.13c-1.55-1.36-2.13-3.29-2.13-5.81v-13.56h3.49v13.36c0,1.74,0.39,3.1,1.16,3.87
				c0.77,0.77,2.13,1.16,3.68,1.16c3.29,0,4.84-1.74,4.84-5.04v-13.36C405.01,208.25,408.3,208.25,408.3,208.25z"/>
			<path class="st0" d="M413.72,229.55v-21.3h3.49v21.11h-3.49V229.55z"/>
			<path class="st0" d="M430.18,229.55h-3.49v-18.2h-6.2v-2.9h15.88v2.9h-6.2V229.55L430.18,229.55z"/>
			<path class="st0" d="M448.77,229.55l-6.2-17.62h-0.19c0.19,2.71,0.19,5.04,0.19,7.36v10.26h-3.1v-21.3h4.84l5.81,16.85l0,0
				l6-16.85h4.84v21.11h-3.29V218.9c0-0.97,0-2.32,0-4.07c0-1.74,0-2.71,0.19-3.1h-0.19l-6.39,17.62L448.77,229.55L448.77,229.55z"
				/>
			<path class="st0" d="M478.79,229.55h-12.01v-21.3h12.01v2.9h-8.52v5.81h7.94v2.9h-7.94v6.58h8.52V229.55z"/>
			<path class="st0" d="M501.06,229.55h-4.26l-10.46-16.85h-0.19v0.97c0.19,1.74,0.19,3.49,0.19,4.84v11.04h-3.1v-21.3h4.26
				l10.46,16.65l0,0c0-0.19,0-0.97-0.19-2.32c0-1.36,0-2.52,0-3.29v-11.04h3.1L501.06,229.55L501.06,229.55z"/>
			<path class="st0" d="M513.85,229.55h-3.49v-18.2h-6.2v-2.9h15.88v2.9h-6.2V229.55z"/>
		</g>
	</g>
	<g>
		<path class="st0" d="M246.79,200.89c0,45.9-37.38,83.08-83.47,83.08s-83.27-37.18-83.27-83.08s37.38-83.08,83.27-83.08
			S246.79,154.99,246.79,200.89z"/>
		<g>
			<path class="st1" d="M141.05,203.02c0,0-0.19,0.39-0.39,0.97c-0.19,0.58-0.77,1.36-1.36,2.32c-0.58,0.97-1.55,1.94-2.52,3.1
				c-0.97,1.16-2.32,2.13-3.87,3.29c-1.55,0.97-3.49,1.94-5.62,2.9c-2.13,0.77-4.65,1.55-7.55,1.94c-1.94,0.39-3.87,0.39-6,0.39
				c-1.74,0-3.49-0.19-5.23-0.39c-1.74-0.19-3.49-0.58-5.04-1.16c-1.55-0.58-3.1-1.16-4.45-1.94c-1.55-0.77-2.71-1.74-3.87-2.71
				c-0.97-1.16-1.74-2.32-2.52-3.68c-0.58-1.36-0.97-2.9-0.97-4.65c0-3.1,0.77-5.62,2.52-7.94c1.74-2.13,4.26-3.87,7.55-5.23
				c-1.16-1.16-2.13-2.32-2.71-3.68s-0.97-2.71-0.97-4.07c0-1.74,0.39-3.49,1.16-5.04c0.77-1.55,1.94-2.9,3.49-3.87
				c1.55-1.16,3.1-1.94,5.23-2.52c1.94-0.58,4.26-0.97,6.58-0.97s4.45,0.19,6.39,0.77c1.74,0.39,3.29,0.97,4.65,1.74
				c1.36,0.77,2.32,1.36,3.1,2.32c0.77,0.77,1.55,1.55,1.94,2.32c0.58,0.77,0.77,1.36,0.97,1.74c0.19,0.58,0.39,0.77,0.39,0.77
				s0,0.19,0,0.39c0,0.19-0.19,0.58-0.39,0.77c-0.19,0.19-0.58,0.39-0.77,0.39s-0.39,0-0.58-0.19c-0.19-0.19-0.39-0.39-0.39-0.58
				c0,0,0-0.19-0.19-0.58c-0.19-0.39-0.39-0.97-0.97-1.55c-0.39-0.58-0.97-1.16-1.74-1.94c-0.77-0.58-1.55-1.36-2.71-1.74
				c-1.16-0.58-2.52-0.97-4.07-1.36c-1.55-0.39-3.49-0.58-5.42-0.58c-2.32,0-4.45,0.39-6.2,0.97c-1.74,0.58-3.29,1.36-4.45,2.32
				s-1.94,2.13-2.52,3.29s-0.77,2.32-0.77,3.49c0,1.36,0.39,2.71,0.97,3.87s1.55,2.32,2.9,3.1c1.16-0.19,2.13-0.58,3.29-0.77
				s2.13-0.39,3.1-0.39c0.97,0,1.74-0.19,2.52-0.19c0.77,0,1.36,0,1.94,0c0.97,0,1.74,0,2.52,0.19c0.77,0.19,1.36,0.39,1.94,0.58
				c0.58,0.19,0.97,0.58,1.36,0.97c0.39,0.39,0.39,0.77,0.39,1.36c0,0.58-0.19,0.97-0.39,1.36c-0.39,0.39-0.77,0.77-1.36,0.97
				c-0.58,0.39-1.16,0.58-1.94,0.58c-0.77,0.19-1.55,0.19-2.52,0.19c-0.97,0-1.94,0-3.1-0.19c-0.97-0.19-1.94-0.39-2.9-0.58
				c-0.97-0.19-1.94-0.58-2.71-0.77c-0.97-0.39-1.74-0.77-2.52-1.16c-3.29,0.97-5.81,2.52-7.55,4.26c-1.74,1.94-2.52,4.26-2.52,6.97
				c0,1.55,0.19,2.9,0.77,4.07c0.58,1.16,1.36,2.32,2.13,3.1c0.97,0.97,2.13,1.74,3.29,2.32c1.16,0.58,2.52,1.16,4.07,1.55
				c1.36,0.39,2.9,0.77,4.45,0.97c1.55,0.19,3.1,0.39,4.65,0.39c0.97,0,1.94,0,2.9-0.19c0.97,0,1.94-0.19,2.71-0.39
				c2.71-0.39,4.84-0.97,6.97-1.74c1.94-0.77,3.68-1.74,5.23-2.52c1.36-0.97,2.71-1.94,3.68-2.9c0.97-0.97,1.74-1.94,2.32-2.71
				c0.58-0.77,0.97-1.55,1.16-1.94c0.19-0.58,0.39-0.77,0.39-0.77c0-0.19,0.19-0.39,0.39-0.58c0.19-0.19,0.39-0.19,0.58-0.19
				c0.39,0,0.58,0.19,0.77,0.39s0.39,0.58,0.39,0.77C141.24,202.83,141.05,202.83,141.05,203.02z M119.55,191.4
				c0-0.19-0.19-0.39-0.39-0.39c-0.19-0.19-0.58-0.19-0.97-0.39c-0.39,0-0.97-0.19-1.55-0.19s-1.16,0-1.74,0
				c-1.16,0-2.32,0-3.49,0.19c-1.16,0-2.32,0.19-3.68,0.58c1.16,0.39,2.32,0.77,3.68,0.97c1.36,0.19,2.9,0.39,4.26,0.39
				s2.32-0.19,2.9-0.39C119.16,191.79,119.55,191.59,119.55,191.4z"/>
			<path class="st1" d="M156.35,207.28c0.97,4.84,2.52,7.17,4.45,7.17c0.77,0,1.55-0.19,2.13-0.77c0.77-0.58,1.36-1.16,1.94-1.94
				c0.58-0.77,1.16-1.55,1.55-2.52s0.77-1.74,1.16-2.32c0.19-0.58,0.58-0.77,1.16-0.77c0.39,0,0.58,0.19,0.77,0.39
				s0.39,0.58,0.39,0.77s0,0.39,0,0.39c-0.19,0.39-0.39,0.77-0.58,1.36c-0.19,0.58-0.58,1.16-0.97,1.94
				c-0.39,0.58-0.77,1.36-1.36,2.13c-0.58,0.77-0.97,1.36-1.74,1.94c-0.58,0.58-1.16,0.97-1.94,1.36c-0.58,0.39-1.36,0.58-2.13,0.58
				c-1.36,0-2.52-0.39-3.68-1.36c-0.97-0.97-1.94-2.52-2.52-4.84c-0.97,2.13-1.94,3.68-3.1,4.65c-0.97,0.97-2.13,1.36-3.29,1.36
				c-0.58,0-1.16-0.19-1.74-0.39s-1.16-0.58-1.55-0.97c-0.39-0.39-0.77-0.97-0.97-1.74c-0.19-0.77-0.39-1.55-0.39-2.71
				c0-1.36,0.19-2.71,0.77-3.87c0.58-1.16,1.16-2.32,1.94-3.1s1.74-1.55,2.71-1.94s1.94-0.77,2.9-0.77c0.39,0,0.58,0.19,0.77,0.39
				c0.19,0.19,0.39,0.58,0.39,0.77c0,0.39,0,0.58-0.19,0.77s-0.39,0.39-0.77,0.39c-0.58,0-1.36,0.19-1.94,0.58
				c-0.77,0.39-1.36,0.77-1.94,1.36c-0.58,0.58-1.16,1.36-1.55,2.32s-0.58,1.94-0.58,3.29c0,0.97,0.19,1.94,0.58,2.52
				c0.39,0.58,0.97,0.77,1.94,0.77c0.39,0,0.77,0,0.97-0.19c0.39-0.19,0.77-0.58,1.16-0.97c0.39-0.58,0.97-1.16,1.36-2.13
				c0.58-0.97,1.16-2.13,1.74-3.68c-0.39-1.74-0.58-3.87-0.97-6.39c-0.39-2.32-0.39-5.04-0.39-7.94c0-1.36,0-2.71,0.19-4.07
				c0-1.36,0.19-2.71,0.39-4.07c0.19-1.36,0.39-2.52,0.77-3.87c0.39-1.16,0.77-2.32,1.16-3.1c0.39-0.97,0.97-1.55,1.55-2.13
				c0.58-0.58,1.36-0.77,2.13-0.77c0.77,0,1.36,0.19,1.74,0.58c0.39,0.39,0.77,0.97,1.16,1.55c0.39,0.58,0.58,1.55,0.58,2.32
				c0.19,0.97,0.19,1.94,0.19,3.1c0,2.32-0.19,4.84-0.58,7.17c-0.39,2.32-0.97,4.65-1.55,6.97c-0.58,2.13-1.36,4.26-1.94,6
				C157.51,204.18,156.93,205.92,156.35,207.28z M160.02,182.1c0-0.58,0-1.16,0-1.74s-0.19-1.16-0.19-1.74
				c-0.19-0.58-0.19-0.97-0.39-1.36c-0.19-0.39-0.39-0.58-0.77-0.58c-0.58,0-0.97,0.39-1.55,1.36c-0.39,0.97-0.77,2.13-1.16,3.68
				c-0.39,1.55-0.58,3.1-0.77,5.04s-0.39,3.68-0.39,5.62c0,1.74,0,3.68,0.19,5.42c0.19,1.74,0.39,3.49,0.58,4.84
				c0.58-1.55,1.16-3.29,1.74-4.84c0.58-1.74,0.97-3.49,1.36-5.23c0.39-1.74,0.77-3.49,0.97-5.42
				C159.83,185.78,160.02,183.85,160.02,182.1z"/>
			<path class="st1" d="M191.79,207.47c0,0.19-0.19,0.58-0.58,0.97c-0.19,0.58-0.58,1.16-0.97,1.74c-0.39,0.77-0.97,1.36-1.36,2.13
				c-0.58,0.77-1.16,1.36-1.74,2.13c-0.58,0.58-1.36,1.16-2.13,1.55c-0.77,0.39-1.55,0.58-2.52,0.58c-1.16,0-2.13-0.39-3.1-1.16
				c-0.77-0.77-1.36-1.74-1.74-2.9c-0.77,1.16-1.55,2.13-2.52,2.9c-0.97,0.77-1.94,0.97-2.9,0.97c-0.77,0-1.55-0.19-2.13-0.39
				c-0.58-0.19-1.16-0.58-1.55-1.16c-0.39-0.58-0.77-1.16-0.97-1.74c-0.19-0.77-0.39-1.36-0.39-2.32c0-1.55,0.19-3.1,0.77-4.26
				c0.58-1.16,1.16-2.32,2.13-3.1c0.77-0.77,1.74-1.36,2.9-1.94c0.97-0.39,1.94-0.58,2.9-0.58c0.58,0,1.16,0,1.74,0.19
				c0.58,0.19,0.97,0.39,1.36,0.58c0.39,0.19,0.77,0.39,0.97,0.58s0.39,0.19,0.39,0.39c0.19,0.19,0.39,0.58,0.39,0.77
				c0,0.39-0.19,0.58-0.39,0.77c-0.19,0.19-0.58,0.39-0.77,0.39c-0.39,0-0.58-0.19-0.77-0.39l-0.19-0.19
				c-0.19-0.19-0.39-0.19-0.58-0.39c-0.19-0.19-0.58-0.19-0.97-0.39c-0.39,0-0.77-0.19-1.16-0.19c-0.58,0-1.36,0.19-2.13,0.39
				c-0.77,0.39-1.36,0.77-1.94,1.36c-0.58,0.58-1.16,1.36-1.55,2.32s-0.58,1.94-0.58,3.29c0,0.39,0,0.77,0.19,1.16
				c0,0.39,0.19,0.77,0.39,1.16c0.19,0.39,0.58,0.58,0.77,0.77c0.39,0.19,0.77,0.39,1.36,0.39c0.39,0,0.77-0.19,1.36-0.39
				c0.58-0.19,0.97-0.58,1.36-1.16c0.39-0.58,0.77-1.16,1.16-1.94c0.39-0.77,0.58-1.74,0.77-2.71c0-0.39,0.19-0.58,0.39-0.77
				s0.58-0.39,0.77-0.39c0.19,0,0.58,0.19,0.77,0.39c0.19,0.19,0.39,0.58,0.39,0.77c0,0.39,0,0.97,0.19,1.74
				c0.19,0.77,0.19,1.36,0.39,2.13s0.58,1.36,0.97,1.74c0.39,0.58,0.97,0.77,1.74,0.77c0.58,0,0.97-0.19,1.55-0.39
				c0.58-0.19,0.97-0.58,1.36-1.16c0.39-0.39,0.97-0.97,1.36-1.55c0.39-0.58,0.77-1.16,1.16-1.74c0.39-0.58,0.58-1.16,0.97-1.74
				c0.19-0.58,0.58-0.97,0.77-1.36c0.19-0.19,0.19-0.39,0.39-0.58c0.19-0.19,0.39-0.19,0.58-0.19c0.39,0,0.58,0.19,0.77,0.39
				c0.19,0.19,0.39,0.58,0.39,0.77C191.79,207.28,191.79,207.47,191.79,207.47z"/>
			<path class="st1" d="M202.24,206.51c-0.39,1.36-0.77,2.71-1.36,4.07c-0.58,1.16-1.16,2.32-1.94,3.29
				c-0.58,0.97-1.36,1.74-1.94,2.13c-0.58,0.58-1.16,0.77-1.74,0.77c-0.58,0-1.16-0.19-1.74-0.77c-0.58-0.58-1.36-1.36-1.94-2.32
				c-0.58-0.97-1.16-2.13-1.55-3.49c-0.39-1.36-0.58-2.71-0.58-4.26c0-1.36,0.19-2.32,0.39-3.1s0.39-1.16,0.39-1.16
				c0.19-0.19,0.19-0.39,0.39-0.39c0.19-0.19,0.39-0.19,0.58-0.19c0.39,0,0.58,0.19,0.77,0.39c0.19,0.19,0.39,0.58,0.39,0.77
				s0,0.39-0.19,0.58c0,0-0.19,0.39-0.19,0.77c-0.19,0.58-0.19,1.36-0.19,2.32c0,1.16,0.19,2.32,0.39,3.49
				c0.19,0.97,0.58,1.94,0.97,2.71c0.39,0.77,0.77,1.36,1.16,1.74c0.39,0.39,0.77,0.58,0.97,0.58c0.19,0,0.39-0.19,0.77-0.39
				c0.39-0.39,0.58-0.77,0.97-1.36c0.39-0.58,0.77-1.16,1.16-1.94c0.39-0.77,0.77-1.55,0.97-2.52c0.39-0.97,0.58-1.74,0.77-2.71
				c0.19-0.97,0.39-1.94,0.39-2.9c0-0.19,0-0.39,0-0.58c0-0.19,0-0.39,0-0.58c0-0.39,0.19-0.58,0.39-0.97
				c0.19-0.19,0.58-0.39,0.77-0.39c0.19,0,0.58,0,0.77,0.19c0.19,0.19,0.39,0.39,0.39,0.77c0,0,0,0.19,0.19,0.58
				c0,0.39,0.19,0.77,0.39,1.36c0.19,0.58,0.39,1.16,0.77,1.74c0.39,0.58,0.58,1.16,1.16,1.74c0.39,0.58,0.97,0.97,1.55,1.36
				s1.16,0.58,1.94,0.58c0.39,0,0.77,0,0.97-0.19c0.39-0.19,0.58-0.39,0.77-0.58c0.19-0.19,0.39-0.39,0.39-0.58
				c0-0.19,0.19-0.39,0.19-0.39c0-0.19,0.19-0.39,0.39-0.58c0.19-0.19,0.39-0.19,0.58-0.19c0.39,0,0.58,0.19,0.77,0.39
				c0.19,0.19,0.39,0.58,0.39,0.77s0,0.19,0,0.39c-0.19,0.39-0.39,0.58-0.58,0.97c-0.19,0.39-0.58,0.77-0.97,0.97
				c-0.39,0.39-0.77,0.58-1.36,0.77c-0.58,0.19-1.16,0.39-1.74,0.39c-0.77,0-1.36-0.19-1.94-0.39c-0.58-0.19-1.16-0.58-1.74-0.97
				c-0.58-0.39-0.97-0.77-1.36-1.36C202.82,207.47,202.44,206.89,202.24,206.51z"/>
			<path class="st1" d="M234.78,207.47c0,0.19-0.19,0.58-0.58,0.97c-0.19,0.58-0.58,1.16-0.97,1.74c-0.39,0.77-0.97,1.36-1.36,2.13
				c-0.58,0.77-1.16,1.36-1.74,2.13c-0.58,0.58-1.36,1.16-2.13,1.55c-0.77,0.39-1.55,0.58-2.52,0.58c-1.16,0-2.13-0.39-3.1-1.16
				c-0.77-0.77-1.36-1.74-1.74-2.9c-0.77,1.16-1.55,2.13-2.52,2.9c-0.97,0.77-1.94,0.97-2.9,0.97c-0.77,0-1.55-0.19-2.13-0.39
				c-0.58-0.19-1.16-0.58-1.55-1.16c-0.39-0.58-0.77-1.16-0.97-1.74c-0.19-0.77-0.39-1.36-0.39-2.32c0-1.55,0.19-3.1,0.77-4.26
				c0.58-1.16,1.16-2.32,2.13-3.1c0.77-0.77,1.74-1.36,2.9-1.94c0.97-0.39,1.94-0.58,2.9-0.58c0.58,0,1.16,0,1.74,0.19
				c0.58,0.19,0.97,0.39,1.36,0.58c0.39,0.19,0.77,0.39,0.97,0.58c0.19,0.19,0.39,0.19,0.39,0.39c0.19,0.19,0.39,0.58,0.39,0.77
				c0,0.39-0.19,0.58-0.39,0.77c-0.19,0.19-0.58,0.39-0.77,0.39c-0.39,0-0.58-0.19-0.77-0.39l-0.19-0.19c0,0-0.39-0.19-0.58-0.39
				c-0.19-0.19-0.58-0.19-0.97-0.39c-0.39,0-0.77-0.19-1.16-0.19c-0.58,0-1.36,0.19-2.13,0.39c-0.77,0.39-1.36,0.77-1.94,1.36
				c-0.58,0.58-1.16,1.36-1.55,2.32s-0.58,1.94-0.58,3.29c0,0.39,0,0.77,0.19,1.16c0,0.39,0.19,0.77,0.39,1.16
				c0.19,0.39,0.58,0.58,0.77,0.77c0.39,0.19,0.77,0.39,1.36,0.39c0.39,0,0.77-0.19,1.36-0.39c0.58-0.19,0.97-0.58,1.36-1.16
				c0.39-0.58,0.77-1.16,1.16-1.94c0.39-0.77,0.58-1.74,0.77-2.71c0-0.39,0.19-0.58,0.39-0.77s0.58-0.39,0.77-0.39
				c0.39,0,0.58,0.19,0.77,0.39c0.19,0.19,0.39,0.58,0.39,0.77c0,0.39,0,0.97,0.19,1.74c0,0.77,0.19,1.36,0.39,2.13
				c0.19,0.77,0.58,1.36,0.97,1.74c0.39,0.58,0.97,0.77,1.74,0.77c0.58,0,0.97-0.19,1.55-0.39c0.39-0.19,0.97-0.58,1.36-1.16
				c0.39-0.39,0.97-0.97,1.36-1.55s0.77-1.16,1.16-1.74c0.39-0.58,0.58-1.16,0.97-1.74c0.19-0.58,0.58-0.97,0.77-1.36
				c0.19-0.19,0.19-0.39,0.39-0.58c0.19-0.19,0.39-0.19,0.58-0.19c0.39,0,0.58,0.19,0.77,0.39c0.19,0.19,0.39,0.58,0.39,0.77
				C234.97,207.28,234.97,207.47,234.78,207.47z"/>
		</g>
	</g>
</g>
</svg>
