<svg version="1.1" id="Layer_1" xmlns="http://www.w3.org/2000/svg" xmlns:xlink="http://www.w3.org/1999/xlink" x="0px" y="0px"
	 viewBox="0 0 600 400" style="enable-background:new 0 0 600 400;" xml:space="preserve">
<style type="text/css">
	.st0{fill:#A47F3E;}
</style>
<path class="st0" d="M146.72,235.37v7.71l-0.14,5.74v1.74c-14.57-0.66-27.32-0.85-38.27-0.57h-6.96c-0.99,0-1.5-0.23-1.5-0.64
	c0-0.42,0.12-0.49,0.37-0.54c0.24-0.05,1.1-0.14,2.52-0.24c2.59-0.16,4-0.9,4.23-2.23c0.11-0.8,0.16-1.6,0.16-2.4v-42.12v-5.46
	c0.03-0.71-0.28-1.39-0.84-1.83c-0.96-0.43-2.01-0.6-3.06-0.5c-1.7,0-2.56-0.24-2.56-0.73c0-0.56,0.75-0.84,2.28-0.84h6.31
	c10.16-0.23,18.46-0.28,24.91-0.16h5.62c1.22,0,2.7,0,4.47-0.26l0.75,9.05l0.4,5.32c0.06,0.39-0.2,0.75-0.59,0.82
	c-0.08,0.01-0.15,0.01-0.23,0c-0.56,0-0.92-0.71-1.08-2.16c-0.23-3.32-1.91-6.38-4.61-8.33c-2.57-1.74-6.38-2.61-11.41-2.61
	l-7.97,0.24v24.39c6.09,0.07,9.93-0.36,11.52-1.29c1.58-0.9,2.64-3.27,3.2-7.1c0.28-2.04,0.7-3.06,1.25-3.06
	c0.56,0,0.75,0.5,0.75,1.5l-0.26,6.14v4.23c0,4.77,0.05,8.36,0.16,10.79c0.03,0.42,0.03,0.84,0,1.25c0,0.66-0.24,0.99-0.75,0.99
	c-0.5,0-0.85-0.12-0.85-0.37c-0.24-0.88-0.41-1.79-0.5-2.7c-0.56-3.93-1.32-6.38-2.28-7.34c-0.96-0.96-3.2-1.46-6.7-1.46h-5.71
	v27.83h5.31c6.09-0.1,9.79-0.24,11.12-0.42c1.72-0.2,3.37-0.8,4.82-1.74c1.24-0.93,2.23-2.15,2.87-3.57
	c0.79-2.26,1.37-4.59,1.74-6.96c0.17-0.84,0.45-1.25,0.83-1.25C146.44,234.12,146.72,234.54,146.72,235.37z M203.48,236.03
	l-0.09,2.66c-0.19,1.95-0.27,3.92-0.24,5.88l0.09,5.9c-7.06-0.28-19.82-0.42-38.27-0.42h-3.48c-2.42,0-3.64-0.23-3.64-0.7
	c0-0.47,0.38-0.71,1.17-0.71c2.75,0,4.52-0.43,5.22-1.17c0.5-0.43,0.75-1.74,0.75-3.97V198.6c0.12-1.18-0.05-2.38-0.5-3.48
	c-0.77-0.89-1.93-1.32-3.1-1.17h-2.07c-0.61,0-0.92-0.21-0.92-0.63c0-0.42,0.4-0.63,1.17-0.63h23.24c0.56,0,0.83,0.23,0.83,0.68
	c0,0.49-0.71,0.75-2.16,0.75c-2.03,0-3.23,0.24-3.6,0.73c-0.54,2.14-0.72,4.36-0.54,6.56v19.76c0,4.04,0.11,13.08,0.33,27.14
	l3.57,0.09c4.01,0.11,8.03-0.11,12-0.66c3.12-0.45,5.79-2.46,7.1-5.32c0.85-2.24,1.44-4.58,1.74-6.96c0.17-0.89,0.42-1.32,0.75-1.32
	C203.15,234.14,203.48,234.81,203.48,236.03z M260.07,235.37v7.71l-0.12,5.74c-0.12,1.17,0,1.74,0,1.74
	c-14.55-0.66-27.31-0.85-38.27-0.57h-6.96c-0.99,0-1.48-0.23-1.48-0.64c0-0.42,0.12-0.49,0.37-0.54c0.24-0.05,1.1-0.14,2.52-0.24
	c2.59-0.16,4-0.9,4.23-2.23c0.11-0.8,0.16-1.6,0.16-2.4v-42.12v-5.46c0.03-0.7-0.27-1.38-0.82-1.83c-0.96-0.42-2.01-0.6-3.06-0.5
	c-1.74,0-2.57-0.24-2.57-0.73c0-0.49,0.77-0.84,2.28-0.84h6.33c10.15-0.23,18.45-0.28,24.89-0.16h5.64c1.2,0,2.7,0,4.45-0.26
	l0.75,9.05c0.28,2.89,0.42,4.66,0.42,5.32c0.05,0.4-0.23,0.77-0.63,0.82c-0.07,0.01-0.14,0.01-0.21,0c-0.54,0-0.9-0.71-1.08-2.16
	c-0.22-3.33-1.91-6.38-4.61-8.33c-2.56-1.74-6.37-2.61-11.39-2.61l-7.97,0.24v24.39c6.09,0,9.93-0.37,11.5-1.29s2.66-3.27,3.2-7.1
	c0.28-2.04,0.7-3.06,1.25-3.06s0.75,0.5,0.75,1.5l-0.24,6.14l-0.09,4.23c0,4.77,0.06,8.36,0.17,10.79
	c-0.01,0.42-0.05,0.84-0.12,1.25c0,0.66-0.24,0.99-0.75,0.99c-0.3,0.04-0.6-0.1-0.75-0.37c-0.23-0.88-0.4-1.79-0.49-2.7
	c-0.56-3.93-1.32-6.38-2.3-7.34c-0.97-0.96-3.2-1.46-6.68-1.46h-5.62v27.83h5.22c6.09-0.1,9.79-0.24,11.12-0.42
	c1.72-0.21,3.37-0.8,4.82-1.74c1.24-0.93,2.22-2.15,2.85-3.57c0.79-2.26,1.37-4.59,1.74-6.96c0.16-0.84,0.44-1.25,0.83-1.25
	C259.79,234.12,260.07,234.54,260.07,235.37z M388.71,249.57c0.04,0.39-0.24,0.74-0.63,0.78c-1.06,0.12-2.12,0.16-3.18,0.12h-3.72
	l-8.44-0.16h-4.8l-5.62,0.16c-1.5,0-2.23-0.28-2.23-0.83c0-0.56,1.57-0.85,4.71-0.9c0.59,0.02,1.17-0.04,1.74-0.17
	c0.87-0.1,1.32-0.43,1.32-0.99c-0.24-1.18-0.57-2.35-0.99-3.48l-1.74-5.39l-2.16-6.73h-7.93h-7.38c-0.49,1.11-1.43,3.6-2.8,7.46
	l-1.74,5.39c-0.24,0.64-0.38,1.32-0.42,2c0,0.94,0.58,1.52,1.74,1.74c0.28,0,1.62,0.16,4.05,0.33c0.77,0,1.17,0.3,1.17,0.71
	c0,0.42-0.5,0.7-1.5,0.7h-14.73c-0.77,0-1.15-0.28-1.15-0.83c0-0.33,0.85-0.54,2.56-0.66c1.51,0.13,3.02-0.31,4.23-1.24
	c1.27-2.19,2.27-4.53,2.97-6.96c1.04-2.77,2.56-6.87,4.56-12.28l10-27.64l2.07-5.72c0.61-1.88,1.08-2.82,1.41-2.82
	c0.33,0,0.94,1.27,1.74,3.81c1.16,3.27,6.01,16.16,14.56,38.67l3.31,8.8c0.45,1.8,1.43,3.42,2.82,4.64c1.64,0.59,3.4,0.79,5.13,0.59
	C388.38,248.82,388.71,249.06,388.71,249.57L388.71,249.57z M362.43,230.13c0-0.16-0.24-0.7-0.57-1.58
	c-2.23-6.4-3.83-10.91-4.82-13.52l-1.11-3.17l-0.56-1.48c-0.99,2.38-2.19,5.67-3.62,9.88c-1.6,4.64-2.76,7.93-3.48,9.86
	C348.27,230.13,362.43,230.13,362.43,230.13z M445.07,208.23c0,0.43-0.19,0.66-0.59,0.66c-0.4,0-1.15-1.08-1.65-3.2
	c-0.99-4.21-2.36-7.08-4.12-8.61c-1.76-1.53-4.58-2.3-8.44-2.3h-3.88v50.45c0,1.37,0.45,2.26,1.17,2.64
	c1.9,0.62,3.87,0.95,5.86,0.99c0.61,0,0.9,0.31,0.9,0.75c0,0.43-0.43,0.83-1.32,0.83h-1.24h-2.07l-8.52-0.26l-14.06,0.42
	c-0.77,0-1.17-0.23-1.17-0.66c0-0.43,0.12-0.54,0.33-0.59c0.91-0.1,1.82-0.15,2.73-0.16c3.04-0.12,4.66-0.83,4.89-2.17
	c0.1-0.71,0.16-6.34,0.16-16.89v-35.35h-2.14c-4.42,0-7.64,0.8-9.64,2.44c-2,1.64-3.32,4.42-3.95,8.61
	c-0.38,2.44-0.89,3.64-1.5,3.64c-0.61,0-0.75-0.33-0.75-0.99c0-0.66,0.12-1.97,0.35-4.56c0.44-5.43,0.71-9.14,0.82-11.13h7.29
	l5.74,0.12c3.68,0.08,8.35,0.12,14.02,0.12h8.44h6.78l4.14-0.12c0.15,3.58,0.56,8.15,1.24,13.71L445.07,208.23L445.07,208.23z
	 M499.85,235.37l-0.09,7.71l-0.12,5.74c-0.12,1.17,0,1.74,0,1.74c-14.57-0.66-27.32-0.85-38.27-0.57h-6.96
	c-0.99,0-1.48-0.23-1.48-0.64c0-0.42,0.12-0.49,0.37-0.54c0.24-0.05,1.1-0.14,2.52-0.24c2.59-0.16,4-0.9,4.23-2.23
	c0.11-0.8,0.16-1.6,0.16-2.4v-42.12l-0.09-5.46c0.03-0.7-0.27-1.38-0.82-1.83c-0.96-0.42-2.01-0.6-3.06-0.5
	c-1.74,0-2.57-0.24-2.57-0.73c0-0.49,0.77-0.84,2.28-0.84h6.33c10.15-0.23,18.45-0.28,24.89-0.16h5.72c1.2,0,2.7,0,4.47-0.26
	l0.73,9.05c0.28,2.89,0.42,4.66,0.42,5.32c0.05,0.4-0.23,0.77-0.63,0.82c-0.07,0.01-0.14,0.01-0.21,0c-0.54,0-0.9-0.71-1.08-2.16
	c-0.22-3.32-1.9-6.37-4.59-8.33c-2.57-1.74-6.38-2.61-11.41-2.61l-7.97,0.24v24.39c6.09,0.07,9.93-0.36,11.52-1.29
	c1.57-0.9,2.64-3.27,3.2-7.1c0.26-2.04,0.68-3.06,1.24-3.06c0.56,0,0.75,0.5,0.75,1.5l-0.24,6.14l-0.09,4.23
	c0,4.77,0.06,8.36,0.17,10.79c0.06,0.41,0.09,0.83,0.09,1.25c0,0.66-0.26,0.99-0.75,0.99c-0.31,0.04-0.61-0.1-0.77-0.37
	c-0.22-0.89-0.39-1.79-0.49-2.7c-0.56-3.93-1.32-6.38-2.3-7.34c-0.97-0.96-3.2-1.46-6.68-1.46h-5.65v27.83h5.31
	c6.09-0.1,9.79-0.24,11.12-0.42c1.72-0.2,3.37-0.8,4.82-1.74c1.24-0.93,2.22-2.15,2.85-3.57c0.79-2.26,1.37-4.59,1.74-6.96
	c0.17-0.84,0.45-1.25,0.83-1.25C499.63,234.12,499.85,234.54,499.85,235.37L499.85,235.37z M313.42,171.89l6.37-0.23l-17.73,44.34
	c-1.84-5.13-3.79-10.79-5.85-16.98l-1.5-4.61c0-0.99,1.74-1.51,4.94-1.57c2.04,0,3.04-0.31,3.04-0.78c0-0.47-0.56-0.78-1.74-0.78
	h-25.05c-2.09,0-3.11,0.24-3.11,0.73c0,0.49,0.33,0.75,1.03,0.75h2.87c2.26-0.15,4.28,1.42,4.68,3.65
	c1.45,4.48,2.89,8.54,4.33,12.18c2.67,6.73,4.63,11.8,5.9,15.22c2.93,7.77,5.25,14,6.96,18.7c1.16,3,2.11,5.7,2.85,8.09
	c0.35,1.04,0.78,1.57,1.3,1.57c0.31,0,0.8-0.92,1.46-2.75l0,0l28.04-72.56l3.86,3.72v-32.88L313.42,171.89z"/>
</svg>
