<svg xmlns="http://www.w3.org/2000/svg" xmlns:xlink="http://www.w3.org/1999/xlink" x="0px" y="0px" viewBox="0 0 600 400" style="enable-background:new 0 0 600 400;" xml:space="preserve">
<style type="text/css">
	.st0{fill:#0E100F;}
	.st1{fill:url(#SVGID_1_);}
</style>
<g>
	<g>
		<path class="st0" d="M249.46,233.69c0-1.91-3.19-3.48-7.22-3.56c-3.3-40.73-34.54-73.29-73.33-75.53
			c4.47-1.25,7.66-4.36,7.66-8.03c0-4.73-5.32-8.58-11.92-8.58c-6.56,0-11.92,3.85-11.92,8.58c0,3.67,3.19,6.78,7.66,8.03
			c-38.79,2.24-70.06,34.79-73.33,75.53c-3.96,0.15-7.08,2.05-7.08,3.96c0,1.83,2.97,3.01,6.82,3.15l0,0h141.59
			c-14.56,9.94-42.24,16.68-73.99,16.68c-22.4,0-42.75-3.34-57.93-8.8c12.47,10.05,36.55,16.87,64.2,16.87
			c29.26,0,46.82-4.73,70.54-18.77c2.27-1.36,7.92-6.01,11.44-6.01c0,0,0,0,0-0.04C246.45,237.03,249.46,235.53,249.46,233.69z
			 M160.04,146.95c0-1.47,2.05-2.68,4.62-2.68c2.53,0,4.62,1.21,4.62,2.68c0,1.47-2.05,2.68-4.62,2.68
			C162.13,149.62,160.04,148.41,160.04,146.95z M93.93,229.33c0-37.54,32.26-67.68,70.72-67.68s69.26,30.14,69.26,67.68H93.93z"/>
		
			<linearGradient id="SVGID_1_" gradientUnits="userSpaceOnUse" x1="-121.7519" y1="367.0004" x2="3.715" y2="369.4848" gradientTransform="matrix(1 0 0 -1 219 616.5)">
			<stop  offset="0.1" style="stop-color:#2A5C60"/>
			<stop  offset="0.5" style="stop-color:#8D563A"/>
			<stop  offset="0.998" style="stop-color:#0E100F"/>
		</linearGradient>
		<path class="st1" d="M96.46,245.13c12.47,10.05,36.55,16.87,64.2,16.87c29.26,0,46.82-4.73,70.54-18.77
			c2.27-1.36,7.92-6.01,11.44-6.01c-0.11-1.58-9.53-2.64-9.13-4.22c-12.25,12.21-43.04,20.9-79.12,20.9
			C131.99,253.93,111.6,250.6,96.46,245.13z"/>
		<path class="st0" d="M103.1,221.74c1.58-12.54,7.11-28.6,24.42-40.26c0.04,0,0.07,0,0.04,0.04c-6.6,8.14-16.24,21.15-19.4,38.53
			c-0.11,0.55-0.48,1.03-0.99,1.25c-1.03,0.44-2.31,0.88-3.19,1.17C103.5,222.62,103.02,222.22,103.1,221.74z"/>
	</g>
	<g>
		<path class="st0" d="M277.14,205.46c0,3.37,1.61,5.21,4.22,5.68v1.61h-17.67v-1.61c2.6-0.48,4.22-2.24,4.22-5.68v-34.54
			c0-3.45-1.61-5.21-4.22-5.68v-1.61h17.67v1.61c-2.6,0.48-4.22,2.24-4.22,5.68V205.46z"/>
		<path class="st0" d="M287.41,163.63h15.47l26.69,32.63v-23.65c0-4.51-1.8-6.89-4.69-7.37v-1.61h15.07v1.61
			c-2.97,0.48-4.69,2.93-4.69,7.37v40.37h-4.62l-32.89-40.04v30.76c0,4.51,1.72,6.97,4.69,7.44v1.61h-15.07v-1.61
			c2.9-0.48,4.69-2.9,4.69-7.44v-32.78c0-3.45-1.8-5.21-4.69-5.68v-1.61H287.41z"/>
		<path class="st0" d="M359.52,205.46c0,3.3,2.05,5.13,5.28,5.68v1.61h-18.74v-1.61c2.6-0.48,4.22-2.24,4.22-5.68v-34.54
			c0-3.45-1.61-5.21-4.22-5.68v-1.61h36.04l1.61,11.22h-2.93c-0.92-4.36-3.59-7.08-7.15-7.08h-14.12v18.04h8.14
			c3.08,0,5.21-1.98,5.83-5.13h2.53v14.34h-2.53c-0.62-3.15-2.75-5.06-5.83-5.06h-8.14V205.46z"/>
		<path class="st0" d="M430.03,194.43c0,11.81-7.74,19.1-20.02,19.1c-12.21,0-19.95-7.3-19.95-19.1v-24.01
			c0-3.15-1.61-4.77-4.22-5.21v-1.61h17.75v1.61c-2.68,0.48-4.22,2.09-4.22,5.21v24.34c0,7.99,4.91,12.98,12.72,12.98
			c7.85,0,12.76-4.99,12.76-12.98V172.1c0-4.14-1.61-6.45-4.22-6.89v-1.61h13.57v1.61c-2.6,0.48-4.22,2.75-4.22,6.89v22.33H430.03z"
			/>
		<path class="st0" d="M444.4,200.33c2.05,5.5,5.61,8.95,11.73,8.95c5.06,0,9.79-2.49,9.79-6.82c0-4.44-1.14-6.38-8.69-9.46
			c-10.85-4.44-15-8.8-15-15.88c0-7.99,5.54-15.07,16.43-15.07c5.39,0,9.24,0.04,13.27,2.71l0.22,10.23c0,0-0.7-0.04-1.43-0.04
			c-4.33-5.46-5.9-8.4-11.95-8.1c-4.4,0.22-8.21,2.86-8.21,6.93c0,4.36,1.98,6.93,9.53,9.57c10.67,3.63,14.56,7.15,14.81,16.02
			c0.26,8.51-5.87,14.74-17.86,14.74c-6.09,0-10.67-0.51-14.19-2.68l-0.51-11.15C442.31,200.29,443.52,200.33,444.4,200.33z"/>
		<path class="st0" d="M509.92,208.62c3.59,0,6.16-2.75,7.15-7.08H520l-1.61,11.22h-37.07v-1.61c2.6-0.48,4.22-2.24,4.22-5.68
			v-34.54c0-3.45-1.61-5.21-4.22-5.68v-1.61h36.3l1.61,11.22h-2.93c-0.92-4.36-3.59-7.08-7.15-7.08h-14.34v18.04h8.14
			c3.08,0,5.21-1.98,5.83-5.13h2.53v14.34h-2.53c-0.62-3.15-2.75-5.06-5.83-5.06h-8.14v18.66H509.92z"/>
	</g>
	<g>
		<path class="st0" d="M291.07,251.29h-4.14l-4.4-5.9h-5.76v5.9h-3.56v-19.1h10.05c0.92,0,1.8,0.18,2.6,0.51
			c0.81,0.33,1.5,0.81,2.13,1.43c0.59,0.59,1.06,1.32,1.43,2.09c0.37,0.81,0.55,1.65,0.55,2.57c0,1.32-0.37,2.49-1.06,3.56
			c-0.7,1.06-1.61,1.83-2.75,2.38L291.07,251.29z M283.12,242.02c0.44,0,0.88-0.07,1.28-0.26c0.4-0.15,0.73-0.4,1.03-0.7
			s0.55-0.62,0.7-1.03c0.18-0.4,0.26-0.81,0.26-1.25s-0.07-0.84-0.26-1.25s-0.4-0.73-0.7-1.03c-0.29-0.29-0.66-0.51-1.03-0.7
			c-0.4-0.18-0.81-0.26-1.28-0.26h-6.42v6.42h6.42V242.02z"/>
		<path class="st0" d="M300.16,235.45v4.62h9.83v3.3h-9.83v4.58h11.88v3.3h-15.4v-19.1h15.4v3.3H300.16z"/>
		<path class="st0" d="M333.79,249.13c-0.92,0.88-1.98,1.54-3.15,2.02c-1.17,0.48-2.42,0.7-3.67,0.7c-1.39,0-2.68-0.26-3.92-0.81
			c-1.25-0.55-2.27-1.25-3.19-2.16s-1.65-1.98-2.16-3.23c-0.51-1.21-0.81-2.53-0.81-3.92s0.26-2.68,0.81-3.92
			c0.51-1.21,1.25-2.27,2.16-3.19c0.92-0.92,1.98-1.65,3.19-2.16s2.53-0.81,3.92-0.81c1.28,0,2.49,0.22,3.67,0.66
			c1.17,0.44,2.24,1.1,3.15,1.98l-2.42,2.6c-0.59-0.55-1.28-0.99-2.05-1.28s-1.58-0.44-2.38-0.44c-0.88,0-1.72,0.18-2.53,0.51
			c-0.81,0.33-1.5,0.81-2.09,1.39c-0.59,0.59-1.06,1.28-1.39,2.09c-0.33,0.81-0.51,1.65-0.51,2.57c0,0.88,0.18,1.72,0.51,2.53
			c0.33,0.81,0.81,1.5,1.39,2.09c0.59,0.59,1.28,1.06,2.09,1.39s1.65,0.51,2.53,0.51c0.84,0,1.65-0.15,2.42-0.44
			c0.77-0.29,1.47-0.73,2.05-1.28L333.79,249.13z"/>
		<path class="st0" d="M357.73,251.29h-4.14l-4.4-5.9h-5.76v5.9h-3.52v-19.1h10.05c0.92,0,1.8,0.18,2.6,0.51s1.5,0.81,2.13,1.43
			c0.59,0.59,1.06,1.32,1.43,2.09c0.37,0.81,0.55,1.65,0.55,2.57c0,1.32-0.37,2.49-1.06,3.56s-1.61,1.83-2.75,2.38L357.73,251.29z
			 M349.81,242.02c0.44,0,0.88-0.07,1.28-0.26c0.4-0.15,0.73-0.4,1.03-0.7s0.55-0.62,0.7-1.03c0.18-0.4,0.26-0.81,0.26-1.25
			s-0.07-0.84-0.26-1.25s-0.4-0.73-0.7-1.03c-0.29-0.29-0.66-0.51-1.03-0.7c-0.4-0.18-0.81-0.26-1.28-0.26h-6.42v6.42h6.42V242.02z"
			/>
		<path class="st0" d="M380.68,232.19v10.71c0,1.21-0.22,2.38-0.7,3.48c-0.48,1.1-1.1,2.05-1.94,2.86
			c-0.81,0.81-1.76,1.43-2.86,1.91c-1.1,0.48-2.24,0.7-3.48,0.7c-1.25,0-2.42-0.22-3.48-0.7c-1.1-0.48-2.02-1.1-2.86-1.91
			c-0.81-0.81-1.47-1.76-1.94-2.86c-0.48-1.1-0.7-2.24-0.7-3.48v-10.71h3.52v10.71c0,0.73,0.15,1.47,0.44,2.09
			c0.29,0.66,0.66,1.25,1.17,1.72c0.48,0.48,1.06,0.88,1.72,1.17c0.66,0.29,1.36,0.44,2.13,0.44s1.47-0.15,2.13-0.44
			s1.25-0.66,1.72-1.17c0.48-0.48,0.88-1.06,1.17-1.72c0.29-0.66,0.44-1.36,0.44-2.09v-10.71H380.68z"/>
		<path class="st0" d="M387.9,251.29v-19.1h3.52v19.1H387.9z"/>
		<path class="st0" d="M414.37,232.19v3.3h-6.71v15.84h-3.48v-15.84h-6.71v-3.3H414.37z"/>
		<path class="st0" d="M441.06,251.29h-3.48v-12.54l-5.9,8.25h-2.05l-5.9-8.25v12.54h-3.52v-19.1h2.75l7.7,10.78l7.7-10.78h2.75
			v19.1H441.06z"/>
		<path class="st0" d="M452.03,235.45v4.62h9.83v3.3h-9.83v4.58h11.88v3.3h-15.4v-19.1h15.4v3.3H452.03z"/>
		<path class="st0" d="M487.85,251.29h-2.57l-11.29-13.13v13.13h-3.52v-19.1h2.57l11.29,13.09v-13.09h3.52V251.29z"/>
		<path class="st0" d="M510.5,232.19v3.3h-6.71v15.84h-3.48v-15.84h-6.71v-3.3H510.5z"/>
	</g>
</g>
</svg>
