<svg xmlns="http://www.w3.org/2000/svg" xmlns:xlink="http://www.w3.org/1999/xlink" x="0px" y="0px"
	 viewBox="0 0 600 400" style="enable-background:new 0 0 600 400;" xml:space="preserve">
<style type="text/css">
	.st0{fill:#46545E;}
	.st1{fill:#BEAC97;}
</style>
<g>
	<path class="st0" d="M80,241.45l11.26-11.35c6.95,10.12,16.1,15.14,25.08,15.14c15.75,0,23.14-7.83,23.14-26.75v-64.42H90.12
		v-15.58h67.94v81.58c0,22.7-10.47,41.45-41.18,41.45C103.41,261.42,88.98,255.44,80,241.45"/>
	<polygon class="st0" points="176.45,138.4 254.06,138.4 254.06,154.33 195.37,154.33 195.37,189.18 245,189.18 245,205.1 
		195.37,205.1 195.37,245.58 255.91,245.58 255.91,261.42 176.45,261.42 	"/>
	<polygon class="st1" points="440.89,245.58 470.98,245.58 470.98,154.59 440.89,154.59 440.89,138.66 520,138.66 520,154.59 
		489.9,154.59 489.9,245.58 520,245.58 520,261.42 440.89,261.42 	"/>
	<path class="st0" d="M323.14,244.44c0,0,3.87-3.17,7.48-6.16v-10.56h-1.32c-3.17-7.39-1.06-18.57-1.06-18.57l2.38,0.09v-4.84
		l-7.13,0.35l-0.62,2.38l-0.7-2.02l-8.45,2.2l-0.44,2.38l-0.7-1.85l-0.7,0.35v53.15h18.74v-14.7l-8.89,4.22
		C321.21,247.52,323.14,244.44,323.14,244.44z"/>
	<path class="st0" d="M330.62,154.42h4.75c0.53-1.94,1.41-4.49,2.9-4.66c1.85-0.26,2.99,2.29,3.7,4.66h4.58v-15.84h-74.18v15.84
		h39.51v43.38l18.74-14.26V154.42z"/>
	<path class="st1" d="M363.54,210.3l-0.44-2.38l-8.45-2.29l-0.7,1.94l-0.62-2.38l-6.86-0.44v4.75l2.11-0.09
		c0,0,2.11,10.74-1.06,18.13h-0.97v11.53c3.34,2.9,6.78,5.72,6.78,5.72s1.94,3.08,1.41,6.42l-8.1-4.22v14.61h18.74v-52.54
		l-0.97-0.53L363.54,210.3z"/>
	<polygon class="st1" points="423.29,154.42 423.29,138.49 346.46,138.49 346.46,138.49 346.46,154.42 346.46,183.98 377.97,208.45 
		414.49,208.45 414.49,192.52 365.3,192.52 365.3,154.42 	"/>
</g>
</svg>
