<svg xmlns="http://www.w3.org/2000/svg" xmlns:xlink="http://www.w3.org/1999/xlink" x="0px" y="0px" viewBox="0 0 600 400" style="enable-background:new 0 0 600 400;" xml:space="preserve">
<style type="text/css">
	.st0{fill:#253974;}
</style>
<g>
	<path class="st0" d="M129.75,171.59v9.8c7.08,3.18,12.01,10.3,11.98,18.56c-0.03,8.71-5.55,16.11-13.27,18.95
		c-0.48,0.18-0.97,0.34-1.48,0.48v-1.89v-46.82h-2.3h-7.83h-2.76h-3.66c-3.58,0-6.48,2.91-6.48,6.5v40.32v1.61
		c-0.43-0.14-0.84-0.31-1.25-0.47c-7.37-3.03-12.57-10.28-12.57-18.74H80c0,15.1,11.36,27.55,26,29.27
		c0.74,0.09,1.48,0.15,2.24,0.18c3.29-0.32,5.86-3.09,5.86-6.47v-0.58v-2.47v-37.27v-4.5h2.76h0.01v41.58v2.66v0.58
		c0,3.38,2.57,6.16,5.86,6.47c0.75-0.03,1.5-0.1,2.24-0.18c14.64-1.72,26-14.17,26-29.27C150.94,186.48,142,175.17,129.75,171.59z"
		/>
	<g>
		<path class="st0" d="M184.1,209.01c-0.43,0.98-1.01,1.8-1.76,2.46c-0.75,0.66-1.61,1.17-2.59,1.52c-0.98,0.35-2.03,0.53-3.14,0.53
			c-1.25,0-2.34-0.18-3.26-0.55c-0.92-0.36-1.8-0.97-2.64-1.81l2.46-2.42c0.43,0.43,0.89,0.78,1.38,1.06
			c0.49,0.27,1.18,0.41,2.06,0.41c1.36,0,2.44-0.41,3.22-1.23c0.79-0.82,1.18-2.03,1.18-3.62v-16.35h3.72v16.63
			C184.73,206.91,184.52,208.03,184.1,209.01z"/>
		<path class="st0" d="M203.73,204.65c0,1.48-0.13,2.77-0.41,3.87c-0.27,1.1-0.82,2.09-1.64,2.95c-0.57,0.59-1.28,1.08-2.13,1.47
			c-0.85,0.39-1.87,0.58-3.05,0.58c-1.18,0-2.2-0.19-3.03-0.58c-0.84-0.39-1.55-0.88-2.12-1.47c-0.82-0.86-1.36-1.85-1.63-2.95
			c-0.27-1.1-0.41-2.4-0.41-3.87c0-1.46,0.14-2.74,0.41-3.84c0.27-1.1,0.82-2.09,1.63-2.95c0.57-0.59,1.27-1.08,2.12-1.47
			c0.84-0.39,1.85-0.58,3.03-0.58c1.18,0,2.2,0.19,3.05,0.58c0.85,0.39,1.56,0.88,2.13,1.47c0.82,0.87,1.36,1.85,1.64,2.95
			C203.6,201.91,203.73,203.19,203.73,204.65z M200.25,204.65c0-0.96-0.07-1.86-0.21-2.7c-0.14-0.84-0.47-1.52-0.99-2.05
			c-0.66-0.66-1.51-0.99-2.56-0.99c-1.02,0-1.87,0.33-2.52,0.99c-0.52,0.52-0.85,1.21-0.99,2.05c-0.13,0.84-0.21,1.74-0.21,2.7
			c0,0.95,0.07,1.85,0.21,2.69c0.14,0.84,0.47,1.52,0.99,2.05c0.68,0.68,1.52,1.02,2.52,1.02c1.02,0,1.88-0.34,2.56-1.02
			c0.52-0.52,0.85-1.21,0.99-2.05C200.19,206.5,200.25,205.6,200.25,204.65z"/>
		<path class="st0" d="M218.74,213.31V202.7c0-1.32-0.34-2.28-1.01-2.89c-0.67-0.6-1.5-0.9-2.47-0.9s-1.81,0.31-2.49,0.92
			c-0.69,0.62-1.03,1.57-1.03,2.87v10.61h-3.48v-24.3h3.48v8.74c0.59-0.66,1.27-1.15,2.03-1.47c0.76-0.32,1.58-0.48,2.44-0.48
			c0.95,0,1.81,0.15,2.56,0.46c0.75,0.31,1.38,0.74,1.89,1.29c0.51,0.56,0.89,1.23,1.16,2.01c0.26,0.78,0.39,1.64,0.39,2.58v11.16
			L218.74,213.31L218.74,213.31z"/>
		<path class="st0" d="M237.95,213.31v-10.55c0-1.34-0.33-2.32-1-2.94c-0.67-0.61-1.5-0.92-2.47-0.92c-0.98,0-1.82,0.31-2.52,0.94
			c-0.71,0.63-1.06,1.6-1.06,2.92v10.55h-3.48v-17.3h3.41v1.74c0.59-0.66,1.29-1.15,2.1-1.47c0.81-0.32,1.64-0.48,2.51-0.48
			c0.89,0,1.69,0.14,2.4,0.41c0.71,0.27,1.33,0.66,1.86,1.16c0.66,0.66,1.11,1.4,1.36,2.2c0.25,0.81,0.38,1.7,0.38,2.68v11.06
			L237.95,213.31L237.95,213.31z"/>
		<path class="st0" d="M274.42,200.99c0,0.89-0.01,1.79-0.02,2.7c-0.01,0.91-0.08,1.8-0.22,2.66c-0.14,0.87-0.38,1.7-0.72,2.49
			s-0.85,1.52-1.5,2.18c-0.78,0.77-1.7,1.35-2.77,1.73c-1.07,0.38-2.25,0.56-3.52,0.56h-8.54v-24.3h8.54c1.28,0,2.45,0.19,3.52,0.57
			c1.07,0.38,1.99,0.95,2.77,1.72c0.66,0.66,1.16,1.37,1.5,2.13c0.34,0.76,0.58,1.56,0.72,2.39c0.14,0.83,0.21,1.68,0.22,2.54
			C274.42,199.23,274.42,200.1,274.42,200.99z M270.7,200.99c0-1.68-0.06-3.1-0.17-4.25c-0.12-1.15-0.49-2.07-1.12-2.78
			c-1-1.09-2.37-1.64-4.11-1.64h-4.45V210h4.45c1.75,0,3.12-0.54,4.11-1.64c0.63-0.71,1.01-1.69,1.12-2.95
			C270.65,204.15,270.7,202.67,270.7,200.99z"/>
		<path class="st0" d="M281.86,205.67c0,1.51,0.38,2.7,1.13,3.57c0.74,0.87,1.84,1.31,3.27,1.31c0.98,0,1.77-0.14,2.37-0.43
			c0.6-0.28,1.21-0.74,1.82-1.35l2.22,2.08c-0.46,0.45-0.91,0.84-1.35,1.17c-0.44,0.32-0.92,0.6-1.43,0.83
			c-0.51,0.22-1.07,0.39-1.67,0.5c-0.6,0.11-1.28,0.17-2.03,0.17c-1.09,0-2.11-0.15-3.05-0.46c-0.95-0.31-1.77-0.81-2.47-1.5
			c-0.7-0.69-1.26-1.61-1.67-2.75c-0.41-1.14-0.62-2.53-0.62-4.16c0-2.82,0.67-5,2.01-6.54c1.34-1.54,3.13-2.3,5.36-2.3
			c1.16,0,2.19,0.21,3.1,0.61c0.91,0.41,1.68,0.98,2.3,1.71c0.62,0.73,1.1,1.6,1.43,2.63c0.33,1.02,0.5,2.15,0.5,3.38v1.54
			L281.86,205.67L281.86,205.67z M289.64,203.24c-0.02-0.52-0.06-0.95-0.12-1.28c-0.06-0.33-0.17-0.69-0.36-1.07
			c-0.27-0.66-0.7-1.19-1.3-1.59c-0.59-0.4-1.29-0.6-2.11-0.6s-1.53,0.2-2.13,0.6c-0.6,0.4-1.04,0.93-1.31,1.59
			c-0.18,0.39-0.3,0.75-0.34,1.07c-0.05,0.33-0.08,0.75-0.11,1.28L289.64,203.24z"/>
		<path class="st0" d="M310.27,208.02c0,0.91-0.18,1.71-0.54,2.39c-0.36,0.68-0.86,1.26-1.5,1.72c-0.64,0.47-1.4,0.82-2.28,1.04
			c-0.88,0.22-1.84,0.34-2.86,0.34c-1.41,0-2.72-0.17-3.93-0.49c-1.21-0.33-2.32-1-3.34-2l2.29-2.28c0.7,0.73,1.49,1.21,2.37,1.45
			c0.88,0.24,1.75,0.36,2.61,0.36c1.07,0,1.97-0.19,2.69-0.58c0.73-0.39,1.09-0.99,1.09-1.81c0-0.59-0.17-1.06-0.53-1.41
			c-0.35-0.35-0.95-0.57-1.79-0.63l-2.76-0.24c-1.64-0.13-2.9-0.58-3.78-1.35c-0.89-0.76-1.33-1.9-1.33-3.43
			c0-0.84,0.17-1.59,0.52-2.25c0.34-0.66,0.8-1.21,1.4-1.66c0.59-0.44,1.28-0.78,2.06-1.02c0.78-0.24,1.63-0.36,2.54-0.36
			c1.3,0,2.49,0.15,3.58,0.44c1.09,0.3,2.03,0.8,2.83,1.5l-2.18,2.22c-0.55-0.45-1.19-0.78-1.93-0.97
			c-0.74-0.19-1.52-0.29-2.34-0.29c-1.05,0-1.83,0.21-2.36,0.61c-0.52,0.41-0.79,0.94-0.79,1.6c0,0.52,0.17,0.96,0.5,1.31
			c0.33,0.35,0.96,0.58,1.89,0.67l2.73,0.24c1.64,0.13,2.9,0.6,3.8,1.38C309.82,205.31,310.27,206.47,310.27,208.02z"/>
		<path class="st0" d="M335.41,213.31v-10.55c0-1.34-0.34-2.32-1.01-2.94c-0.67-0.61-1.49-0.92-2.47-0.92
			c-0.48,0-0.94,0.07-1.36,0.22c-0.43,0.15-0.82,0.38-1.15,0.69c-0.33,0.31-0.59,0.69-0.79,1.16c-0.19,0.47-0.29,1.01-0.29,1.62
			v10.72h-3.48v-10.55c0-1.34-0.34-2.32-1.01-2.94c-0.67-0.61-1.49-0.92-2.47-0.92s-1.82,0.31-2.53,0.94
			c-0.7,0.63-1.06,1.6-1.06,2.92v10.55h-3.47v-17.3h3.41v1.74c0.59-0.64,1.29-1.12,2.1-1.45c0.81-0.33,1.64-0.49,2.51-0.49
			c2.18,0,3.82,0.84,4.91,2.52c1.39-1.68,3.19-2.52,5.43-2.52c0.88,0,1.7,0.14,2.45,0.41c0.75,0.27,1.39,0.66,1.91,1.16
			c0.66,0.66,1.13,1.4,1.42,2.2c0.28,0.81,0.43,1.7,0.43,2.68v11.06L335.41,213.31L335.41,213.31z"/>
		<path class="st0" d="M357.68,204.65c0,1.48-0.14,2.77-0.41,3.87c-0.27,1.1-0.82,2.09-1.64,2.95c-0.57,0.59-1.28,1.08-2.13,1.47
			c-0.85,0.39-1.87,0.58-3.05,0.58s-2.2-0.19-3.04-0.58c-0.84-0.39-1.54-0.88-2.11-1.47c-0.82-0.86-1.36-1.85-1.64-2.95
			c-0.28-1.1-0.41-2.4-0.41-3.87c0-1.46,0.13-2.74,0.41-3.84c0.27-1.1,0.82-2.09,1.64-2.95c0.57-0.59,1.27-1.08,2.11-1.47
			c0.84-0.39,1.86-0.58,3.04-0.58s2.2,0.19,3.05,0.58c0.85,0.39,1.56,0.88,2.13,1.47c0.82,0.87,1.36,1.85,1.64,2.95
			C357.55,201.91,357.68,203.19,357.68,204.65z M354.21,204.65c0-0.96-0.07-1.86-0.21-2.7c-0.13-0.84-0.47-1.52-0.99-2.05
			c-0.66-0.66-1.51-0.99-2.56-0.99c-1.02,0-1.86,0.33-2.52,0.99c-0.52,0.52-0.85,1.21-0.99,2.05c-0.14,0.84-0.21,1.74-0.21,2.7
			c0,0.95,0.07,1.85,0.21,2.69c0.13,0.84,0.46,1.52,0.99,2.05c0.69,0.68,1.52,1.02,2.52,1.02c1.02,0,1.88-0.34,2.56-1.02
			c0.52-0.52,0.85-1.21,0.99-2.05C354.14,206.5,354.21,205.6,354.21,204.65z"/>
		<path class="st0" d="M372.77,213.31v-10.55c0-1.34-0.34-2.32-1.01-2.94c-0.67-0.61-1.49-0.92-2.48-0.92
			c-0.97,0-1.82,0.31-2.52,0.94c-0.71,0.63-1.06,1.6-1.06,2.92v10.55h-3.48v-17.3h3.41v1.74c0.6-0.66,1.29-1.15,2.1-1.47
			c0.8-0.32,1.65-0.48,2.51-0.48c0.89,0,1.69,0.14,2.41,0.41c0.71,0.27,1.33,0.66,1.86,1.16c0.65,0.66,1.11,1.4,1.36,2.2
			c0.25,0.81,0.38,1.7,0.38,2.68v11.06L372.77,213.31L372.77,213.31z"/>
		<path class="st0" d="M391.35,213.31v-1.84c-0.66,0.8-1.35,1.34-2.06,1.62c-0.72,0.29-1.55,0.43-2.51,0.43
			c-0.87,0-1.67-0.14-2.41-0.41c-0.74-0.27-1.35-0.65-1.82-1.13c-0.43-0.43-0.78-0.93-1.04-1.5c-0.26-0.57-0.45-1.18-0.6-1.82
			c-0.13-0.65-0.22-1.31-0.26-2c-0.03-0.68-0.05-1.35-0.05-2.01c0-0.66,0.02-1.33,0.05-2.02c0.04-0.68,0.12-1.34,0.26-1.98
			c0.14-0.64,0.34-1.24,0.6-1.81c0.26-0.57,0.61-1.07,1.04-1.5c0.48-0.48,1.08-0.85,1.81-1.13c0.73-0.27,1.52-0.41,2.39-0.41
			c0.93,0,1.77,0.14,2.49,0.41c0.73,0.27,1.41,0.79,2.05,1.54v-8.74h3.48v24.3L391.35,213.31L391.35,213.31z M391.28,204.65
			c0-0.78-0.04-1.51-0.12-2.2c-0.08-0.7-0.24-1.31-0.49-1.83c-0.25-0.52-0.61-0.94-1.1-1.25c-0.48-0.31-1.1-0.46-1.87-0.46
			c-0.8,0-1.42,0.15-1.89,0.46c-0.47,0.31-0.83,0.72-1.09,1.25c-0.26,0.52-0.43,1.13-0.52,1.83c-0.08,0.69-0.12,1.43-0.12,2.2
			c0,0.77,0.04,1.51,0.12,2.2c0.08,0.69,0.26,1.31,0.52,1.84c0.26,0.53,0.62,0.96,1.09,1.26c0.47,0.31,1.09,0.46,1.89,0.46
			c0.78,0,1.4-0.15,1.87-0.46c0.48-0.3,0.84-0.73,1.1-1.26c0.25-0.54,0.41-1.15,0.49-1.84
			C391.25,206.15,391.28,205.42,391.28,204.65z"/>
		<path class="st0" d="M410.64,213.31v-24.3h3.71V210h11.7v3.31H410.64z"/>
		<path class="st0" d="M429.53,192.59v-3.68h3.69v3.69L429.53,192.59L429.53,192.59z M429.64,213.31v-17.3h3.47v17.3H429.64z"/>
		<path class="st0" d="M459.55,213.31v-10.55c0-1.34-0.34-2.32-1-2.94c-0.67-0.61-1.5-0.92-2.48-0.92c-0.48,0-0.93,0.07-1.36,0.22
			c-0.43,0.15-0.81,0.38-1.14,0.69c-0.33,0.31-0.59,0.69-0.78,1.16c-0.19,0.47-0.29,1.01-0.29,1.62v10.72h-3.48v-10.55
			c0-1.34-0.33-2.32-1.01-2.94c-0.67-0.61-1.49-0.92-2.47-0.92c-0.98,0-1.82,0.31-2.53,0.94c-0.71,0.63-1.06,1.6-1.06,2.92v10.55
			h-3.47v-17.3h3.41v1.74c0.59-0.64,1.28-1.12,2.1-1.45c0.8-0.33,1.64-0.49,2.5-0.49c2.18,0,3.82,0.84,4.92,2.52
			c1.38-1.68,3.19-2.52,5.42-2.52c0.89,0,1.71,0.14,2.46,0.41c0.75,0.27,1.39,0.66,1.91,1.16c0.66,0.66,1.13,1.4,1.42,2.2
			c0.28,0.81,0.43,1.7,0.43,2.68v11.06L459.55,213.31L459.55,213.31z"/>
		<path class="st0" d="M468.12,192.59v-3.68h3.68v3.69L468.12,192.59L468.12,192.59z M468.22,213.31v-17.3h3.47v17.3H468.22z"/>
		<path class="st0" d="M482.2,213.31c-0.82,0-1.52-0.13-2.11-0.41c-0.59-0.27-1.08-0.63-1.47-1.08c-0.38-0.44-0.68-0.96-0.87-1.53
			c-0.19-0.58-0.29-1.18-0.29-1.79v-9.52h-1.98v-2.66h1.98v-5.26h3.48v5.26h3.34v2.66h-3.34v9.35c0,0.64,0.15,1.13,0.46,1.49
			c0.31,0.35,0.79,0.53,1.45,0.53h1.44v2.97H482.2z"/>
		<path class="st0" d="M491.04,205.67c0,1.51,0.38,2.7,1.12,3.57c0.75,0.87,1.84,1.31,3.27,1.31c0.98,0,1.77-0.14,2.37-0.43
			c0.6-0.28,1.21-0.74,1.82-1.35l2.22,2.08c-0.45,0.45-0.91,0.84-1.35,1.17c-0.45,0.32-0.92,0.6-1.43,0.83
			c-0.52,0.22-1.07,0.39-1.67,0.5c-0.6,0.11-1.28,0.17-2.03,0.17c-1.09,0-2.11-0.15-3.05-0.46c-0.94-0.31-1.77-0.81-2.47-1.5
			c-0.7-0.69-1.26-1.61-1.67-2.75c-0.41-1.14-0.62-2.53-0.62-4.16c0-2.82,0.67-5,2.01-6.54c1.35-1.54,3.13-2.3,5.36-2.3
			c1.16,0,2.19,0.21,3.1,0.61c0.91,0.41,1.68,0.98,2.3,1.71c0.62,0.73,1.1,1.6,1.43,2.63s0.5,2.15,0.5,3.38v1.54L491.04,205.67
			L491.04,205.67z M498.82,203.24c-0.02-0.52-0.06-0.95-0.12-1.28c-0.06-0.33-0.18-0.69-0.36-1.07c-0.28-0.66-0.71-1.19-1.3-1.59
			c-0.59-0.4-1.3-0.6-2.11-0.6c-0.82,0-1.53,0.2-2.14,0.6c-0.6,0.4-1.04,0.93-1.31,1.59c-0.18,0.39-0.3,0.75-0.34,1.07
			c-0.04,0.33-0.08,0.75-0.1,1.28L498.82,203.24z"/>
		<path class="st0" d="M516.59,213.31v-1.84c-0.66,0.8-1.35,1.34-2.07,1.62c-0.71,0.29-1.55,0.43-2.5,0.43
			c-0.86,0-1.67-0.14-2.4-0.41c-0.74-0.27-1.35-0.65-1.82-1.13c-0.43-0.43-0.78-0.93-1.04-1.5c-0.26-0.57-0.46-1.18-0.6-1.82
			c-0.14-0.65-0.22-1.31-0.26-2c-0.03-0.68-0.05-1.35-0.05-2.01c0-0.66,0.02-1.33,0.05-2.02c0.04-0.68,0.12-1.34,0.26-1.98
			c0.13-0.64,0.34-1.24,0.6-1.81c0.26-0.57,0.61-1.07,1.04-1.5c0.48-0.48,1.08-0.85,1.81-1.13c0.73-0.27,1.52-0.41,2.39-0.41
			c0.93,0,1.76,0.14,2.49,0.41c0.73,0.27,1.41,0.79,2.05,1.54v-8.74H520v24.3L516.59,213.31L516.59,213.31z M516.52,204.65
			c0-0.78-0.04-1.51-0.12-2.2c-0.08-0.7-0.24-1.31-0.49-1.83c-0.25-0.52-0.61-0.94-1.09-1.25c-0.48-0.31-1.11-0.46-1.88-0.46
			c-0.8,0-1.43,0.15-1.89,0.46c-0.47,0.31-0.83,0.72-1.09,1.25c-0.27,0.52-0.44,1.13-0.52,1.83c-0.08,0.69-0.12,1.43-0.12,2.2
			c0,0.77,0.04,1.51,0.12,2.2c0.08,0.69,0.25,1.31,0.52,1.84c0.25,0.53,0.62,0.96,1.09,1.26c0.46,0.31,1.09,0.46,1.89,0.46
			c0.77,0,1.4-0.15,1.88-0.46c0.48-0.3,0.84-0.73,1.09-1.26c0.25-0.54,0.42-1.15,0.49-1.84
			C516.48,206.15,516.52,205.42,516.52,204.65z"/>
	</g>
</g>
</svg>
