<svg xmlns="http://www.w3.org/2000/svg" xmlns:xlink="http://www.w3.org/1999/xlink" x="0px" y="0px" viewBox="0 0 600 400" style="enable-background:new 0 0 600 400;" xml:space="preserve">
<style type="text/css">
	.st0{fill:#010101;}
	.st1{fill:#FFFFFF;}
</style>
<g>
	<rect class="st0" width="600" height="400"/>
</g>
<g>
	<path class="st1" d="M140,124.71h19.55v19.41l17.28-19.55h22.95l-21.81,22.66l24.08,37.26h-23.51l-14.31-23.8l-4.67,4.82v18.98H140
		v-59.92V124.71z M203.89,123.15h17.28v12.32h-17.28V123.15z M220.18,175.85l-2.83,8.5h3.82v-43.2h-17.28v42.5l16.29-7.65
		C220.18,175.99,220.18,175.85,220.18,175.85z M229.53,169.19c0,9.21,1.13,13.46,7.37,14.87l15.58-5.67l-2.13,6.23l4.53-0.14v-12.32
		h-2.69c-4.82,0-5.38-1.42-5.38-5.38v-15.86h8.36V141h-8.36v-13.46h-17V141h-6.38v9.92h6.09V169.19z M267.21,181.8l13.46-5.67
		l-2.83,9.21c7.11,1.37,14.48,0.06,20.68-3.68c4.71-3.18,7.69-8.35,8.07-14.02h-17.42c-0.57,3.4-2.27,6.52-6.66,6.52
		c-5.1,0-7.65-4.25-7.65-10.91c0-5.1,1.13-11.9,7.65-11.9c1.64-0.1,3.24,0.52,4.39,1.7c1.13,1.28,1.84,2.83,1.84,4.53h17.57
		c-1.42-12.75-12.18-17.85-23.8-17.85c-14.45,0-24.93,8.5-24.93,23.37C257.57,171.74,261.4,177.97,267.21,181.8z M310.13,124.71
		h17.28v21.81c2.96-4.34,7.92-6.9,13.17-6.8c11.47,0,17,6.8,17,18.7v26.06h-17.42V161.4c0-4.25-1.13-8.22-6.09-8.22
		c-5.24,0-6.66,3.4-6.66,8.92v22.24h-17.28v-59.78C310.13,124.57,310.13,124.71,310.13,124.71z M377.27,166.64
		c0,4.69,3.8,8.5,8.5,8.5c0,0,0,0,0,0c2.69,0,5.24-1.42,6.38-3.82h16.57c-2.97,10.77-14.02,14.31-24.08,14.31
		c-13.88,0-24.79-7.93-24.79-22.52c0-14.17,10.77-23.37,24.65-23.37c16.15,0,25.92,11.05,25.5,26.91H377.27L377.27,166.64z
		 M392.86,157.86c0-4.25-3.4-7.51-7.65-7.51c-5.1,0-7.93,2.83-7.93,7.51H392.86z M412.55,141h15.72v6.8
		c3.97-5.24,8.22-8.07,14.73-8.07c11.47,0,17,6.8,17,18.7v26.06h-17.42v-22.95c0-4.25-1.13-8.22-5.95-8.22c-5.38,0-6.8,3.4-6.8,8.92
		v22.24h-17.28L412.55,141L412.55,141z"/>
	<g>
		<path class="st1" d="M339.59,235.06l-9.92,4.67c0,0-4.25-3.26,0.43-13.46c4.25-9.77,15.58-7.65,15.58-7.65L339.59,235.06
			L339.59,235.06z M326.84,270.19h-9.49c0,0,5.67-7.37,12.75-9.49l-3.4,9.49H326.84L326.84,270.19z M290.16,235.06l-9.92,4.67
			c0,0-4.96-1.42-0.28-11.62c4.39-9.63,16.29-9.49,16.29-9.49L290.16,235.06z M406.88,242.43c-1.7,0.71-7.08,2.41-9.49-8.07
			c-2.41-10.48,5.67-17,9.92-17s5.95,2.55,6.09,4.96c0.14,2.41,1.56,3.82,3.26,3.82c1.7,0,3.54-0.57,3.54-4.39
			c0-7.37-6.09-10.34-12.04-10.34c-25.78,0-26.91,24.79-26.91,24.79l-3.26,0.99l8.07-26.06h-16.15l-8.07,24.51l-8.22,3.4l9.63-27.91
			h-20.54c0,0-24.79-1.13-31.16,24.08l-6.38,3.26l9.07-27.48l-21.11,0.57c-26.77,0.99-31.59,24.93-31.59,24.93l-2.55,1.42
			l18.42-58.08l-31.59,12.75l3.4-10.91l-37.54,13.88l5.1-15.72l-18.7,8.78l-10.62,33.43l-20.96,9.92v7.08l18.7-8.92l-7.37,22.81
			h15.58l15.3-47.74l19.83-7.51l-16.72,53.69h15.58l15.86-50.29l13.46-5.81l-17.71,56.1h6.66l15.44-7.51c0,0-0.43,9.21,5.67,8.92
			c6.09-0.28,21.53-8.92,21.53-8.92l-2.83,8.5h7.08l18.7-9.92c0,0-0.99,9.92,4.96,9.92s20.12-7.65,20.12-7.65l-3.4,7.51
			c0,0-22.81,6.94-30.74,24.65h38.53l9.92-28.9l8.64-3.26l-1.28,3.54c-2.55,7.51,5.38,3.82,5.38,3.82l18.98-8.92
			c1.84,10.62,7.08,11.76,11.19,11.33c1.84-0.28,3.68-0.71,5.38-1.42l27.62-13.88v-6.38C426.57,232.79,408.72,241.72,406.88,242.43"
			/>
		<circle class="st1" cx="378.67" cy="200.25" r="6.55"/>
	</g>
</g>
</svg>
