<svg xmlns="http://www.w3.org/2000/svg" xmlns:xlink="http://www.w3.org/1999/xlink" x="0px" y="0px"
	 viewBox="0 0 600 400" style="enable-background:new 0 0 600 400;" xml:space="preserve">
<style type="text/css">
	.st0{fill:#DBC27D;}
	.st1{fill:#39393B;}
	.st2{fill:none;}
	.st3{fill:#010101;}
</style>
<g>
	<path class="st0" d="M207.54,271.71c-58.51-10.47-93.3-24.94-136.72,2.46c36.03-28.94,72.67-32.64,136.41-20.32
		s73.59,16.63,109.93,12.32C273.13,276.64,266.36,282.49,207.54,271.71z"/>
	<path class="st0" d="M207.54,271.71c-58.51-10.47-93.3-24.94-136.72,2.46c36.03-28.94,72.67-32.64,136.41-20.32
		s73.59,16.63,109.93,12.32C273.13,276.64,266.36,282.49,207.54,271.71z"/>
	<path class="st1" d="M73.29,275.71c48.34-32.64,105.31-1.23,164.12,3.39C177.98,281.87,131.18,252.62,73.29,275.71z"/>
	<path class="st1" d="M183.83,244.92v-15.7c0-6.77,9.85-13.24,9.85-13.24s9.85,7.39,9.85,13.24v19.09
		c13.24,2.46,24.02,4.93,33.56,6.77V144.23v-2.16h-8.62v2.16h-4.31v-2.16h-8.62v2.16h-4.31v-2.16h-8.62v2.16h-4.31v-2.16h-8.62v2.16
		h-4.31v-2.16h-8.62v2.16h-4.31v-2.16h-8.62v2.16h-4.31v-2.16h-8.62v2.16v97.61C160.74,242.15,171.82,243.07,183.83,244.92z
		 M209.08,163.94c0-3.7,5.54-7.08,5.54-7.08s5.54,4,5.54,7.08v13.86h-10.78v-13.86H209.08z M209.08,195.04
		c0-3.7,5.54-7.08,5.54-7.08s5.54,4,5.54,7.08v13.86h-10.78v-13.86H209.08z M167.2,163.94c0-3.7,5.54-7.08,5.54-7.08
		s5.54,4,5.54,7.08v13.86h-10.78v-13.86H167.2z M167.2,195.04c0-3.7,5.54-7.08,5.54-7.08s5.54,4,5.54,7.08v13.86h-10.78v-13.86
		H167.2z"/>
	<path class="st1" d="M281.75,261.86V124.22v-4.93h-8.01v4.93h-4v-4.93h-6.16v4.93h-4.31v-4.93h-6.16v4.93h-4v-4.93h-5.54v7.39
		V255.7C259.89,259.09,270.97,261.24,281.75,261.86z M258.35,162.09h8.62v19.09h-8.62V162.09z"/>
	<g>
		<rect x="124.09" y="162.09" class="st2" width="8.62" height="19.09"/>
		<path class="st1" d="M144.42,241.84c0-15.7,0-114.86,0-114.86v-7.39h-5.85v4.93h-4v-4.93h-6.16v4.93h-4.31v-4.93h-6.16v4.93h-4
			v-4.93h-8.01v4.93v123.17C117.94,244.31,130.56,241.54,144.42,241.84z M129.64,181.18h-8.62v-19.09h8.62V181.18z"/>
	</g>
</g>
<g>
	<path class="st3" d="M362.36,185.05l-0.5,7.05h-18.53v-1.19c0.27-0.02,0.65-0.06,1.16-0.12s0.86-0.13,1.06-0.22
		c0.33-0.14,0.58-0.36,0.73-0.63c0.15-0.28,0.22-0.63,0.22-1.07V171.9c0-0.38-0.06-0.71-0.19-1c-0.13-0.29-0.38-0.52-0.76-0.7
		c-0.26-0.13-0.62-0.26-1.08-0.39s-0.84-0.2-1.14-0.23v-1.19h10.01v1.19c-0.31,0.01-0.72,0.07-1.21,0.17
		c-0.5,0.1-0.85,0.19-1.08,0.27c-0.38,0.13-0.64,0.36-0.78,0.68c-0.14,0.32-0.21,0.67-0.21,1.04v15.92c0,0.73,0.04,1.31,0.11,1.71
		c0.07,0.41,0.24,0.72,0.51,0.94c0.26,0.2,0.64,0.33,1.14,0.39c0.51,0.06,1.22,0.09,2.13,0.09c0.41,0,0.84-0.01,1.29-0.03
		c0.45-0.02,0.87-0.07,1.27-0.13c0.39-0.07,0.75-0.16,1.08-0.28c0.33-0.12,0.57-0.26,0.73-0.44c0.46-0.51,0.99-1.29,1.6-2.33
		c0.61-1.04,1.03-1.88,1.26-2.53H362.36z"/>
	<path class="st3" d="M371.27,192.1h-8.03v-1.1c0.26-0.02,0.53-0.05,0.82-0.08c0.29-0.03,0.53-0.07,0.72-0.13
		c0.31-0.1,0.55-0.28,0.7-0.53c0.16-0.25,0.23-0.58,0.23-0.98V170.2c0-0.4-0.09-0.78-0.26-1.13s-0.4-0.63-0.68-0.83
		c-0.2-0.13-0.57-0.26-1.1-0.37c-0.53-0.11-0.96-0.18-1.29-0.2v-1.07l6.2-0.37l0.23,0.25v22.6c0,0.39,0.07,0.71,0.22,0.96
		s0.38,0.44,0.7,0.58c0.24,0.11,0.49,0.2,0.73,0.25c0.24,0.06,0.51,0.09,0.81,0.12V192.1z"/>
	<path class="st3" d="M388.94,191.79c-0.52,0.19-0.98,0.34-1.38,0.46s-0.84,0.18-1.34,0.18c-0.87,0-1.56-0.2-2.08-0.61
		c-0.52-0.41-0.85-1-0.99-1.78h-0.1c-0.72,0.8-1.5,1.41-2.33,1.84c-0.83,0.42-1.83,0.63-3,0.63c-1.24,0-2.25-0.38-3.05-1.14
		c-0.8-0.76-1.2-1.75-1.2-2.97c0-0.63,0.09-1.2,0.27-1.7c0.18-0.5,0.45-0.95,0.8-1.35c0.28-0.33,0.65-0.63,1.1-0.89
		c0.46-0.26,0.89-0.47,1.29-0.63c0.5-0.19,1.52-0.54,3.05-1.05s2.56-0.91,3.1-1.2v-1.65c0-0.14-0.03-0.42-0.09-0.84
		c-0.06-0.41-0.19-0.8-0.39-1.17c-0.22-0.41-0.54-0.77-0.94-1.08c-0.41-0.31-0.98-0.46-1.73-0.46c-0.51,0-0.99,0.09-1.43,0.26
		c-0.44,0.17-0.75,0.35-0.93,0.54c0,0.22,0.05,0.55,0.16,0.99c0.11,0.43,0.16,0.83,0.16,1.2c0,0.39-0.17,0.75-0.53,1.07
		c-0.35,0.32-0.84,0.48-1.46,0.48c-0.56,0-0.97-0.2-1.23-0.59c-0.26-0.4-0.39-0.84-0.39-1.33c0-0.51,0.18-1,0.54-1.47
		c0.36-0.47,0.83-0.89,1.41-1.25c0.5-0.31,1.11-0.58,1.82-0.79s1.41-0.33,2.09-0.33c0.94,0,1.75,0.06,2.45,0.19
		c0.7,0.13,1.33,0.4,1.9,0.83c0.57,0.41,1,0.97,1.29,1.68c0.29,0.71,0.44,1.62,0.44,2.73c0,1.59-0.02,3-0.05,4.23
		s-0.05,2.58-0.05,4.03c0,0.43,0.08,0.78,0.23,1.04c0.15,0.26,0.38,0.47,0.69,0.65c0.17,0.1,0.43,0.16,0.79,0.17
		c0.36,0.01,0.73,0.02,1.11,0.02V191.79z M383.11,182.97c-0.95,0.28-1.78,0.55-2.49,0.82c-0.71,0.27-1.38,0.6-1.99,1
		c-0.56,0.38-1,0.83-1.32,1.35c-0.32,0.52-0.48,1.14-0.48,1.85c0,0.93,0.24,1.61,0.73,2.04c0.48,0.44,1.1,0.65,1.85,0.65
		c0.79,0,1.49-0.19,2.09-0.58c0.6-0.38,1.11-0.84,1.52-1.36L383.11,182.97z"/>
	<path class="st3" d="M408.77,192.1h-8.05v-1.1c0.26-0.02,0.54-0.04,0.84-0.07c0.31-0.02,0.56-0.07,0.76-0.13
		c0.31-0.1,0.54-0.28,0.69-0.53s0.23-0.58,0.23-0.98v-8.47c0-1.17-0.28-2.07-0.83-2.71s-1.23-0.95-2.02-0.95
		c-0.59,0-1.13,0.09-1.62,0.28c-0.49,0.18-0.93,0.41-1.31,0.68c-0.37,0.26-0.66,0.53-0.88,0.83s-0.38,0.53-0.48,0.71v9.47
		c0,0.38,0.08,0.69,0.23,0.94c0.16,0.25,0.39,0.43,0.7,0.57c0.23,0.11,0.49,0.2,0.76,0.25c0.27,0.06,0.55,0.09,0.84,0.12v1.1h-8.07
		v-1.1c0.26-0.02,0.52-0.04,0.79-0.07c0.27-0.02,0.51-0.07,0.71-0.13c0.31-0.1,0.54-0.27,0.69-0.53s0.23-0.58,0.23-0.98v-10.16
		c0-0.38-0.08-0.73-0.24-1.04c-0.16-0.32-0.39-0.58-0.68-0.78c-0.21-0.13-0.46-0.23-0.75-0.29c-0.29-0.06-0.6-0.1-0.94-0.12v-1.1
		l5.48-0.37l0.23,0.23v2.32h0.08c0.27-0.27,0.6-0.59,1-0.96c0.4-0.37,0.78-0.68,1.14-0.91c0.41-0.27,0.9-0.49,1.47-0.67
		c0.57-0.18,1.21-0.27,1.92-0.27c1.58,0,2.75,0.49,3.52,1.48c0.76,0.99,1.14,2.3,1.14,3.93v8.57c0,0.39,0.07,0.7,0.2,0.94
		s0.36,0.43,0.68,0.56c0.27,0.11,0.5,0.19,0.69,0.23c0.19,0.04,0.46,0.08,0.81,0.1V192.1z"/>
	<path class="st3" d="M421.66,184.03c0.46,0.4,0.81,0.86,1.05,1.39c0.25,0.52,0.37,1.16,0.37,1.92c0,1.53-0.57,2.77-1.71,3.74
		s-2.62,1.45-4.44,1.45c-0.96,0-1.84-0.17-2.65-0.52s-1.38-0.66-1.73-0.95l-0.33,1.09h-1.25l-0.17-5.73h1.15
		c0.09,0.44,0.28,0.94,0.57,1.53c0.29,0.58,0.64,1.11,1.05,1.58c0.43,0.49,0.96,0.91,1.56,1.24c0.61,0.33,1.29,0.5,2.05,0.5
		c1.07,0,1.89-0.24,2.47-0.73s0.87-1.19,0.87-2.09c0-0.47-0.09-0.87-0.28-1.21c-0.18-0.34-0.45-0.64-0.81-0.89
		c-0.37-0.26-0.82-0.49-1.35-0.69c-0.54-0.21-1.13-0.41-1.79-0.61c-0.52-0.16-1.1-0.37-1.75-0.64c-0.64-0.27-1.19-0.59-1.65-0.96
		c-0.49-0.39-0.89-0.87-1.2-1.44c-0.31-0.57-0.47-1.24-0.47-2c0-1.35,0.5-2.49,1.5-3.42c1-0.94,2.34-1.4,4.03-1.4
		c0.65,0,1.31,0.08,1.98,0.25s1.22,0.37,1.65,0.6l0.38-0.87h1.2l0.25,5.3h-1.15c-0.23-1.19-0.74-2.15-1.51-2.89
		c-0.77-0.74-1.72-1.12-2.83-1.12c-0.91,0-1.63,0.23-2.15,0.69c-0.52,0.46-0.79,1.01-0.79,1.67c0,0.5,0.09,0.92,0.26,1.25
		c0.17,0.33,0.43,0.62,0.78,0.85c0.33,0.22,0.75,0.43,1.26,0.63c0.51,0.19,1.13,0.42,1.88,0.66c0.74,0.23,1.43,0.51,2.08,0.82
		C420.7,183.3,421.24,183.65,421.66,184.03z"/>
	<path class="st3" d="M435.75,191.38c-0.72,0.3-1.41,0.55-2.05,0.76c-0.65,0.21-1.44,0.31-2.37,0.31c-1.38,0-2.35-0.35-2.92-1.04
		s-0.84-1.68-0.84-2.95v-11.16h-2.97v-1.6h3.04v-5.13h3.04v5.13h4.73v1.6h-4.69v9.2c0,0.69,0.03,1.27,0.08,1.73
		c0.05,0.46,0.17,0.87,0.36,1.21c0.18,0.32,0.45,0.57,0.8,0.74s0.83,0.25,1.44,0.25c0.28,0,0.69-0.02,1.23-0.08s0.92-0.11,1.14-0.19
		V191.38z"/>
	<path class="st3" d="M452.02,188.22c-0.69,1.31-1.61,2.36-2.77,3.14c-1.16,0.78-2.49,1.17-3.99,1.17c-1.33,0-2.49-0.23-3.48-0.7
		c-1-0.47-1.82-1.1-2.46-1.9c-0.65-0.8-1.13-1.74-1.45-2.81s-0.48-2.2-0.48-3.39c0-1.07,0.17-2.12,0.51-3.15
		c0.34-1.03,0.84-1.96,1.5-2.78c0.63-0.79,1.42-1.43,2.36-1.91c0.94-0.48,2-0.73,3.17-0.73c1.2,0,2.23,0.19,3.09,0.57
		c0.86,0.38,1.55,0.9,2.09,1.55c0.51,0.62,0.89,1.36,1.14,2.2c0.25,0.85,0.38,1.77,0.38,2.76v1.1h-10.91c0,1.08,0.1,2.07,0.31,2.95
		c0.21,0.88,0.53,1.66,0.98,2.33c0.43,0.65,1,1.16,1.7,1.53c0.7,0.37,1.54,0.56,2.5,0.56c0.99,0,1.85-0.23,2.56-0.7
		c0.72-0.46,1.41-1.3,2.08-2.51L452.02,188.22z M448.33,181.94c0-0.62-0.05-1.29-0.16-2c-0.11-0.71-0.28-1.3-0.51-1.78
		c-0.26-0.51-0.61-0.93-1.05-1.25c-0.45-0.32-1.02-0.48-1.72-0.48c-1.17,0-2.14,0.49-2.92,1.46c-0.77,0.97-1.19,2.32-1.26,4.06
		H448.33z"/>
	<path class="st3" d="M466.18,168.24c0,0.5-0.13,0.92-0.4,1.27c-0.27,0.35-0.67,0.52-1.22,0.52c-0.35,0-0.65-0.07-0.91-0.22
		c-0.26-0.14-0.5-0.34-0.73-0.58c-0.22-0.25-0.43-0.52-0.62-0.84c-0.19-0.31-0.35-0.56-0.48-0.75c-0.75,0.03-1.32,0.55-1.73,1.56
		s-0.61,2.61-0.61,4.81v1.68h4.24v1.6h-4.24v11.83c0,0.39,0.08,0.71,0.23,0.95c0.15,0.25,0.39,0.43,0.71,0.55
		c0.27,0.1,0.62,0.18,1.07,0.24c0.45,0.06,0.83,0.1,1.15,0.13v1.1h-8.69v-1.1c0.26-0.02,0.52-0.04,0.79-0.07
		c0.27-0.02,0.51-0.07,0.71-0.13c0.31-0.1,0.54-0.28,0.69-0.53s0.23-0.58,0.23-0.98v-11.99h-3.26v-1.6h3.26v-1.05
		c0-2.5,0.65-4.53,1.95-6.08c1.3-1.55,2.92-2.33,4.87-2.33c0.99,0,1.74,0.19,2.24,0.58C465.93,167.21,466.18,167.68,466.18,168.24z"
		/>
	<path class="st3" d="M477.31,168.24c0,0.5-0.13,0.92-0.4,1.27c-0.27,0.35-0.67,0.52-1.22,0.52c-0.35,0-0.65-0.07-0.91-0.22
		c-0.26-0.14-0.5-0.34-0.73-0.58c-0.22-0.25-0.43-0.52-0.62-0.84c-0.19-0.31-0.35-0.56-0.48-0.75c-0.75,0.03-1.32,0.55-1.73,1.56
		s-0.61,2.61-0.61,4.81v1.68h4.24v1.6h-4.24v11.83c0,0.39,0.08,0.71,0.23,0.95c0.15,0.25,0.39,0.43,0.71,0.55
		c0.27,0.1,0.62,0.18,1.07,0.24c0.45,0.06,0.83,0.1,1.15,0.13v1.1h-8.69v-1.1c0.26-0.02,0.52-0.04,0.79-0.07
		c0.27-0.02,0.51-0.07,0.71-0.13c0.31-0.1,0.54-0.28,0.69-0.53s0.23-0.58,0.23-0.98v-11.99h-3.26v-1.6h3.26v-1.05
		c0-2.5,0.65-4.53,1.95-6.08c1.3-1.55,2.92-2.33,4.87-2.33c0.99,0,1.74,0.19,2.24,0.58C477.06,167.21,477.31,167.68,477.31,168.24z"
		/>
	<path class="st3" d="M491.77,191.79c-0.52,0.19-0.98,0.34-1.38,0.46s-0.84,0.18-1.34,0.18c-0.87,0-1.56-0.2-2.08-0.61
		c-0.52-0.41-0.85-1-0.99-1.78h-0.1c-0.72,0.8-1.5,1.41-2.33,1.84c-0.83,0.42-1.83,0.63-3,0.63c-1.24,0-2.25-0.38-3.05-1.14
		c-0.8-0.76-1.2-1.75-1.2-2.97c0-0.63,0.09-1.2,0.27-1.7c0.18-0.5,0.45-0.95,0.8-1.35c0.28-0.33,0.65-0.63,1.1-0.89
		c0.46-0.26,0.89-0.47,1.29-0.63c0.5-0.19,1.52-0.54,3.05-1.05s2.56-0.91,3.1-1.2v-1.65c0-0.14-0.03-0.42-0.09-0.84
		c-0.06-0.41-0.19-0.8-0.39-1.17c-0.22-0.41-0.54-0.77-0.94-1.08c-0.41-0.31-0.98-0.46-1.73-0.46c-0.51,0-0.99,0.09-1.43,0.26
		c-0.44,0.17-0.75,0.35-0.93,0.54c0,0.22,0.05,0.55,0.16,0.99c0.11,0.43,0.16,0.83,0.16,1.2c0,0.39-0.17,0.75-0.53,1.07
		c-0.35,0.32-0.84,0.48-1.46,0.48c-0.56,0-0.97-0.2-1.23-0.59c-0.26-0.4-0.39-0.84-0.39-1.33c0-0.51,0.18-1,0.54-1.47
		c0.36-0.47,0.83-0.89,1.41-1.25c0.5-0.31,1.11-0.58,1.82-0.79s1.41-0.33,2.09-0.33c0.94,0,1.75,0.06,2.45,0.19
		c0.7,0.13,1.33,0.4,1.9,0.83c0.57,0.41,1,0.97,1.29,1.68c0.29,0.71,0.44,1.62,0.44,2.73c0,1.59-0.02,3-0.05,4.23
		s-0.05,2.58-0.05,4.03c0,0.43,0.08,0.78,0.23,1.04c0.15,0.26,0.38,0.47,0.69,0.65c0.17,0.1,0.43,0.16,0.79,0.17
		c0.36,0.01,0.73,0.02,1.11,0.02V191.79z M485.94,182.97c-0.95,0.28-1.78,0.55-2.49,0.82c-0.71,0.27-1.38,0.6-1.99,1
		c-0.56,0.38-1,0.83-1.32,1.35c-0.32,0.52-0.48,1.14-0.48,1.85c0,0.93,0.24,1.61,0.73,2.04c0.48,0.44,1.1,0.65,1.85,0.65
		c0.79,0,1.49-0.19,2.09-0.58c0.6-0.38,1.11-0.84,1.52-1.36L485.94,182.97z"/>
	<path class="st3" d="M511.6,192.1h-8.05v-1.1c0.26-0.02,0.54-0.04,0.84-0.07c0.31-0.02,0.56-0.07,0.76-0.13
		c0.31-0.1,0.54-0.28,0.69-0.53s0.23-0.58,0.23-0.98v-8.47c0-1.17-0.28-2.07-0.83-2.71s-1.23-0.95-2.02-0.95
		c-0.59,0-1.13,0.09-1.62,0.28c-0.49,0.18-0.93,0.41-1.31,0.68c-0.37,0.26-0.66,0.53-0.88,0.83s-0.38,0.53-0.48,0.71v9.47
		c0,0.38,0.08,0.69,0.23,0.94c0.16,0.25,0.39,0.43,0.7,0.57c0.23,0.11,0.49,0.2,0.76,0.25c0.27,0.06,0.55,0.09,0.84,0.12v1.1h-8.07
		v-1.1c0.26-0.02,0.52-0.04,0.79-0.07c0.27-0.02,0.51-0.07,0.71-0.13c0.31-0.1,0.54-0.27,0.69-0.53s0.23-0.58,0.23-0.98v-10.16
		c0-0.38-0.08-0.73-0.24-1.04c-0.16-0.32-0.39-0.58-0.68-0.78c-0.21-0.13-0.46-0.23-0.75-0.29c-0.29-0.06-0.6-0.1-0.94-0.12v-1.1
		l5.48-0.37l0.23,0.23v2.32h0.08c0.27-0.27,0.6-0.59,1-0.96c0.4-0.37,0.78-0.68,1.14-0.91c0.41-0.27,0.9-0.49,1.47-0.67
		c0.57-0.18,1.21-0.27,1.92-0.27c1.58,0,2.75,0.49,3.52,1.48c0.76,0.99,1.14,2.3,1.14,3.93v8.57c0,0.39,0.07,0.7,0.2,0.94
		s0.36,0.43,0.68,0.56c0.27,0.11,0.5,0.19,0.69,0.23c0.19,0.04,0.46,0.08,0.81,0.1V192.1z"/>
	<path class="st3" d="M353.77,233.72c-1.41,0-2.77-0.28-4.06-0.84c-1.3-0.56-2.45-1.36-3.45-2.41c-0.99-1.05-1.78-2.33-2.37-3.84
		c-0.59-1.51-0.88-3.21-0.88-5.11s0.29-3.61,0.87-5.16c0.58-1.54,1.38-2.87,2.4-3.99c1.01-1.1,2.21-1.96,3.59-2.56
		s2.85-0.9,4.42-0.9c1.17,0,2.22,0.14,3.17,0.43c0.95,0.29,1.85,0.7,2.7,1.22l0.68-1.13h1.34l0.15,8.45h-1.37
		c-0.18-0.82-0.45-1.72-0.8-2.68c-0.36-0.96-0.77-1.78-1.25-2.45c-0.53-0.76-1.17-1.35-1.9-1.78c-0.73-0.43-1.57-0.64-2.52-0.64
		c-1.08,0-2.08,0.24-3.01,0.72c-0.93,0.48-1.73,1.19-2.41,2.12c-0.65,0.9-1.15,2.05-1.52,3.44c-0.37,1.39-0.55,2.95-0.55,4.66
		c0,1.52,0.19,2.91,0.58,4.17c0.38,1.26,0.93,2.38,1.64,3.33c0.71,0.95,1.55,1.69,2.53,2.22c0.97,0.54,2.06,0.8,3.26,0.8
		c0.9,0,1.73-0.14,2.49-0.43s1.41-0.66,1.97-1.13c0.56-0.49,1.05-1.05,1.47-1.67c0.42-0.62,0.77-1.3,1.03-2.04l1.25,0.6
		c-0.96,2.35-2.23,4.03-3.81,5.04S355.95,233.72,353.77,233.72z"/>
	<path class="st3" d="M380.47,232.85c-0.52,0.19-0.98,0.34-1.38,0.46s-0.84,0.17-1.34,0.17c-0.87,0-1.56-0.2-2.08-0.61
		c-0.52-0.41-0.85-1-0.99-1.78h-0.1c-0.72,0.8-1.5,1.42-2.33,1.84c-0.83,0.42-1.83,0.63-3,0.63c-1.24,0-2.25-0.38-3.05-1.14
		c-0.8-0.76-1.2-1.75-1.2-2.97c0-0.63,0.09-1.2,0.27-1.7c0.18-0.5,0.45-0.95,0.8-1.35c0.28-0.33,0.65-0.63,1.1-0.89
		c0.46-0.26,0.89-0.47,1.29-0.63c0.5-0.19,1.52-0.54,3.05-1.05c1.53-0.51,2.56-0.91,3.1-1.2v-1.65c0-0.14-0.03-0.42-0.09-0.83
		c-0.06-0.41-0.19-0.8-0.39-1.17c-0.22-0.41-0.54-0.77-0.94-1.08c-0.41-0.31-0.98-0.46-1.73-0.46c-0.51,0-0.99,0.09-1.43,0.26
		c-0.44,0.17-0.75,0.35-0.93,0.54c0,0.22,0.05,0.55,0.16,0.99c0.11,0.43,0.16,0.84,0.16,1.2c0,0.39-0.17,0.75-0.53,1.07
		c-0.35,0.32-0.84,0.49-1.46,0.49c-0.56,0-0.97-0.2-1.23-0.59c-0.26-0.4-0.39-0.84-0.39-1.33c0-0.51,0.18-1,0.54-1.47
		c0.36-0.47,0.83-0.88,1.41-1.25c0.5-0.31,1.11-0.58,1.82-0.79s1.41-0.33,2.09-0.33c0.94,0,1.75,0.06,2.45,0.19
		c0.7,0.13,1.33,0.4,1.9,0.83c0.57,0.41,1,0.97,1.29,1.68c0.29,0.71,0.44,1.62,0.44,2.73c0,1.59-0.02,3-0.05,4.24
		s-0.05,2.58-0.05,4.03c0,0.43,0.08,0.78,0.23,1.04c0.15,0.26,0.38,0.47,0.69,0.65c0.17,0.1,0.43,0.16,0.79,0.17
		c0.36,0.01,0.73,0.02,1.11,0.02V232.85z M374.64,224.03c-0.95,0.28-1.78,0.55-2.49,0.82c-0.71,0.27-1.38,0.6-1.99,1
		c-0.56,0.38-1,0.83-1.32,1.35c-0.32,0.52-0.48,1.13-0.48,1.85c0,0.93,0.24,1.61,0.73,2.04c0.48,0.44,1.1,0.65,1.85,0.65
		c0.79,0,1.49-0.19,2.09-0.58s1.11-0.84,1.52-1.36L374.64,224.03z"/>
	<path class="st3" d="M392.98,225.08c0.46,0.4,0.81,0.86,1.05,1.39s0.37,1.16,0.37,1.92c0,1.53-0.57,2.77-1.71,3.74
		s-2.62,1.45-4.44,1.45c-0.96,0-1.84-0.17-2.65-0.52s-1.38-0.66-1.73-0.95l-0.33,1.09h-1.25l-0.17-5.73h1.15
		c0.09,0.44,0.28,0.95,0.57,1.53c0.29,0.58,0.64,1.11,1.05,1.58c0.43,0.49,0.96,0.91,1.56,1.24c0.61,0.34,1.29,0.5,2.05,0.5
		c1.07,0,1.89-0.24,2.47-0.73s0.87-1.18,0.87-2.09c0-0.47-0.09-0.87-0.28-1.21s-0.45-0.64-0.81-0.89c-0.37-0.26-0.82-0.49-1.35-0.69
		c-0.54-0.21-1.13-0.41-1.79-0.61c-0.52-0.16-1.1-0.37-1.75-0.64c-0.64-0.27-1.19-0.59-1.65-0.96c-0.49-0.39-0.89-0.87-1.2-1.44
		c-0.31-0.57-0.47-1.24-0.47-2c0-1.35,0.5-2.49,1.5-3.42s2.34-1.4,4.03-1.4c0.65,0,1.31,0.08,1.98,0.25s1.22,0.37,1.65,0.6
		l0.38-0.87h1.2l0.25,5.29h-1.15c-0.23-1.18-0.74-2.15-1.51-2.89c-0.77-0.74-1.72-1.12-2.83-1.12c-0.91,0-1.63,0.23-2.15,0.69
		c-0.52,0.46-0.79,1.01-0.79,1.67c0,0.5,0.09,0.92,0.26,1.25c0.17,0.33,0.43,0.62,0.78,0.85c0.33,0.22,0.75,0.43,1.26,0.63
		c0.51,0.2,1.13,0.42,1.88,0.66c0.74,0.23,1.43,0.51,2.08,0.82C392.02,224.36,392.56,224.7,392.98,225.08z"/>
	<path class="st3" d="M407.07,232.43c-0.72,0.3-1.41,0.55-2.05,0.76c-0.65,0.21-1.44,0.31-2.37,0.31c-1.38,0-2.35-0.35-2.92-1.04
		c-0.56-0.7-0.84-1.68-0.84-2.95v-11.16h-2.97v-1.6h3.04v-5.13h3.04v5.13h4.73v1.6h-4.69v9.2c0,0.69,0.03,1.27,0.08,1.73
		c0.05,0.46,0.17,0.87,0.36,1.21c0.18,0.32,0.45,0.57,0.8,0.74c0.36,0.17,0.83,0.25,1.44,0.25c0.28,0,0.69-0.03,1.23-0.08
		s0.92-0.11,1.14-0.19V232.43z"/>
	<path class="st3" d="M416.42,233.15h-8.03v-1.1c0.26-0.02,0.53-0.05,0.82-0.08c0.29-0.03,0.53-0.07,0.72-0.12
		c0.31-0.1,0.55-0.28,0.7-0.53c0.16-0.25,0.23-0.58,0.23-0.98v-19.09c0-0.4-0.09-0.78-0.26-1.13c-0.17-0.35-0.4-0.63-0.68-0.83
		c-0.2-0.13-0.57-0.26-1.1-0.37c-0.53-0.11-0.96-0.18-1.29-0.2v-1.07l6.2-0.37l0.23,0.25v22.6c0,0.39,0.07,0.71,0.22,0.96
		s0.38,0.44,0.7,0.58c0.24,0.11,0.49,0.2,0.73,0.25c0.24,0.06,0.51,0.09,0.81,0.12V233.15z"/>
	<path class="st3" d="M433.12,229.27c-0.69,1.31-1.61,2.36-2.77,3.14c-1.16,0.78-2.49,1.17-3.99,1.17c-1.33,0-2.49-0.23-3.48-0.7
		c-1-0.47-1.82-1.1-2.46-1.9c-0.65-0.8-1.13-1.74-1.45-2.81s-0.48-2.2-0.48-3.39c0-1.07,0.17-2.12,0.51-3.15
		c0.34-1.03,0.84-1.96,1.5-2.78c0.63-0.79,1.42-1.43,2.36-1.91c0.94-0.48,2-0.73,3.17-0.73c1.2,0,2.23,0.19,3.09,0.57
		c0.86,0.38,1.55,0.9,2.09,1.55c0.51,0.62,0.89,1.36,1.14,2.21c0.25,0.85,0.38,1.77,0.38,2.76v1.1h-10.91c0,1.08,0.1,2.07,0.31,2.95
		c0.21,0.88,0.53,1.66,0.98,2.33c0.43,0.65,1,1.16,1.7,1.53c0.7,0.38,1.54,0.56,2.5,0.56c0.99,0,1.85-0.23,2.56-0.7
		c0.72-0.46,1.41-1.3,2.08-2.51L433.12,229.27z M429.43,222.99c0-0.62-0.05-1.29-0.16-2c-0.11-0.71-0.28-1.3-0.51-1.78
		c-0.26-0.51-0.61-0.93-1.05-1.25s-1.02-0.48-1.72-0.48c-1.17,0-2.14,0.49-2.92,1.46c-0.77,0.97-1.19,2.32-1.26,4.05H429.43z"/>
</g>
</svg>
