<svg xmlns="http://www.w3.org/2000/svg" xmlns:xlink="http://www.w3.org/1999/xlink" x="0px" y="0px"
	 viewBox="0 0 600 400" style="enable-background:new 0 0 600 400;" xml:space="preserve">
<style type="text/css">
	.st0{fill:#222222;}
	.st1{fill:#E33339;}
	.st2{fill:#989898;}
</style>
<rect class="st0" width="600" height="400"/>
<g>
	<g>
		<g>
			<path class="st1" d="M133.5,214.51H99.83c-10.93,0-19.83-8.9-19.83-19.83v-48.64c0-0.62,0.5-1.12,1.12-1.12
				c0.62,0,1.12,0.5,1.12,1.12v48.64c0,9.7,7.89,17.59,17.59,17.59h33.67c0.62,0,1.12,0.5,1.12,1.12
				C134.63,214.01,134.12,214.51,133.5,214.51z"/>
		</g>
		<g>
			<path class="st1" d="M133.5,210.77H99.83c-8.87,0-16.09-7.22-16.09-16.09v-48.64c0-0.62,0.5-1.12,1.12-1.12s1.12,0.5,1.12,1.12
				v48.64c0,7.63,6.21,13.84,13.84,13.84h33.67c0.62,0,1.12,0.5,1.12,1.12C134.63,210.26,134.12,210.77,133.5,210.77z"/>
		</g>
		<g>
			<path class="st1" d="M133.5,207.03H99.83c-6.81,0-12.35-5.54-12.35-12.35v-48.64c0-0.62,0.5-1.12,1.12-1.12
				c0.62,0,1.12,0.5,1.12,1.12v48.64c0,5.57,4.53,10.1,10.1,10.1h33.67c0.62,0,1.12,0.5,1.12,1.12
				C134.63,206.52,134.12,207.03,133.5,207.03z"/>
		</g>
		<g>
			<path class="st1" d="M133.5,203.28H99.83c-4.74,0-8.61-3.86-8.61-8.61v-48.64c0-0.62,0.5-1.12,1.12-1.12s1.12,0.5,1.12,1.12
				v48.64c0,3.51,2.85,6.36,6.36,6.36h33.67c0.62,0,1.12,0.5,1.12,1.12S134.12,203.28,133.5,203.28z"/>
		</g>
	</g>
	<g>
		<g>
			<path class="st1" d="M380.44,214.51h-26.19c-10.93,0-19.83-8.9-19.83-19.83v-48.64c0-0.62,0.5-1.12,1.12-1.12s1.12,0.5,1.12,1.12
				v48.64c0,9.7,7.89,17.59,17.59,17.59h26.19c0.62,0,1.12,0.5,1.12,1.12C381.56,214.01,381.06,214.51,380.44,214.51z"/>
		</g>
		<g>
			<path class="st1" d="M380.44,210.77h-26.19c-8.87,0-16.09-7.22-16.09-16.09v-48.64c0-0.62,0.5-1.12,1.12-1.12s1.12,0.5,1.12,1.12
				v48.64c0,7.63,6.21,13.84,13.84,13.84h26.19c0.62,0,1.12,0.5,1.12,1.12C381.56,210.26,381.06,210.77,380.44,210.77z"/>
		</g>
		<g>
			<path class="st1" d="M380.44,207.03h-26.19c-6.81,0-12.35-5.54-12.35-12.35v-48.64c0-0.62,0.5-1.12,1.12-1.12
				c0.62,0,1.12,0.5,1.12,1.12v48.64c0,5.57,4.53,10.1,10.1,10.1h26.19c0.62,0,1.12,0.5,1.12,1.12
				C381.56,206.52,381.06,207.03,380.44,207.03z"/>
		</g>
		<g>
			<path class="st1" d="M380.44,203.28h-26.19c-4.74,0-8.61-3.86-8.61-8.61v-48.64c0-0.62,0.5-1.12,1.12-1.12s1.12,0.5,1.12,1.12
				v48.64c0,3.51,2.85,6.36,6.36,6.36h26.19c0.62,0,1.12,0.5,1.12,1.12S381.06,203.28,380.44,203.28z"/>
		</g>
	</g>
	<g>
		<g>
			<path class="st1" d="M448.54,214.51h-33.67c-10.93,0-19.83-8.9-19.83-19.83v-48.64c0-0.62,0.5-1.12,1.12-1.12s1.12,0.5,1.12,1.12
				v48.64c0,9.7,7.89,17.59,17.59,17.59h33.67c0.62,0,1.12,0.5,1.12,1.12C449.66,214.01,449.16,214.51,448.54,214.51z"/>
		</g>
		<g>
			<path class="st1" d="M448.54,210.77h-33.67c-8.87,0-16.09-7.22-16.09-16.09v-44.9c0-0.62,0.5-1.12,1.12-1.12s1.12,0.5,1.12,1.12
				v44.9c0,7.63,6.21,13.84,13.84,13.84h33.67c0.62,0,1.12,0.5,1.12,1.12C449.66,210.26,449.16,210.77,448.54,210.77z"/>
		</g>
		<g>
			<path class="st1" d="M448.54,207.03h-33.67c-6.81,0-12.35-5.54-12.35-12.35v-41.16c0-0.62,0.5-1.12,1.12-1.12s1.12,0.5,1.12,1.12
				v41.16c0,5.57,4.53,10.1,10.1,10.1h33.67c0.62,0,1.12,0.5,1.12,1.12C449.66,206.52,449.16,207.03,448.54,207.03z"/>
		</g>
		<g>
			<path class="st1" d="M448.54,203.28h-33.67c-4.74,0-8.61-3.86-8.61-8.61v-37.41c0-0.62,0.5-1.12,1.12-1.12s1.12,0.5,1.12,1.12
				v37.41c0,3.51,2.85,6.36,6.36,6.36h33.67c0.62,0,1.12,0.5,1.12,1.12S449.16,203.28,448.54,203.28z"/>
		</g>
		<g>
			<path class="st1" d="M435.07,184.58h-26.19c-0.62,0-1.12-0.5-1.12-1.12c0-0.62,0.5-1.12,1.12-1.12h26.19
				c0.62,0,1.12,0.5,1.12,1.12C436.19,184.07,435.69,184.58,435.07,184.58z"/>
		</g>
		<g>
			<path class="st1" d="M435.07,180.84h-26.19c-0.62,0-1.12-0.5-1.12-1.12c0-0.62,0.5-1.12,1.12-1.12h26.19
				c0.62,0,1.12,0.5,1.12,1.12C436.19,180.33,435.69,180.84,435.07,180.84z"/>
		</g>
		<g>
			<path class="st1" d="M435.07,177.09h-26.19c-0.62,0-1.12-0.5-1.12-1.12s0.5-1.12,1.12-1.12h26.19c0.62,0,1.12,0.5,1.12,1.12
				S435.69,177.09,435.07,177.09z"/>
		</g>
		<g>
			<path class="st1" d="M435.07,173.35h-26.19c-0.62,0-1.12-0.5-1.12-1.12c0-0.62,0.5-1.12,1.12-1.12h26.19
				c0.62,0,1.12,0.5,1.12,1.12C436.19,172.85,435.69,173.35,435.07,173.35z"/>
		</g>
		<g>
			<path class="st1" d="M448.54,158.39h-39.66c-0.62,0-1.12-0.5-1.12-1.12c0-0.62,0.5-1.12,1.12-1.12h39.66
				c0.62,0,1.12,0.5,1.12,1.12C449.66,157.88,449.16,158.39,448.54,158.39z"/>
		</g>
		<g>
			<path class="st1" d="M448.54,154.64h-39.66c-0.62,0-1.12-0.5-1.12-1.12c0-0.62,0.5-1.12,1.12-1.12h39.66
				c0.62,0,1.12,0.5,1.12,1.12C449.66,154.14,449.16,154.64,448.54,154.64z"/>
		</g>
		<g>
			<path class="st1" d="M448.54,150.9h-39.66c-0.62,0-1.12-0.5-1.12-1.12s0.5-1.12,1.12-1.12h39.66c0.62,0,1.12,0.5,1.12,1.12
				S449.16,150.9,448.54,150.9z"/>
		</g>
		<g>
			<path class="st1" d="M448.54,147.16h-39.66c-0.62,0-1.12-0.5-1.12-1.12c0-0.62,0.5-1.12,1.12-1.12h39.66
				c0.62,0,1.12,0.5,1.12,1.12C449.66,146.66,449.16,147.16,448.54,147.16z"/>
		</g>
		<g>
			<path class="st1" d="M448.54,158.39h-40.41c-0.62,0-1.12-0.5-1.12-1.12c0-0.62,0.5-1.12,1.12-1.12h40.41
				c0.62,0,1.12,0.5,1.12,1.12C449.66,157.88,449.16,158.39,448.54,158.39z"/>
		</g>
		<g>
			<path class="st1" d="M448.54,154.64h-44.9c-0.62,0-1.12-0.5-1.12-1.12c0-0.62,0.5-1.12,1.12-1.12h44.9c0.62,0,1.12,0.5,1.12,1.12
				C449.66,154.14,449.16,154.64,448.54,154.64z"/>
		</g>
		<g>
			<path class="st1" d="M448.54,150.9h-47.89c-0.62,0-1.12-0.5-1.12-1.12s0.5-1.12,1.12-1.12h47.89c0.62,0,1.12,0.5,1.12,1.12
				S449.16,150.9,448.54,150.9z"/>
		</g>
		<g>
			<path class="st1" d="M448.54,147.16h-52.38c-0.62,0-1.12-0.5-1.12-1.12c0-0.62,0.5-1.12,1.12-1.12h52.38
				c0.62,0,1.12,0.5,1.12,1.12C449.66,146.66,449.16,147.16,448.54,147.16z"/>
		</g>
	</g>
	<g>
		<g>
			<path class="st1" d="M500.17,214.51H466.5c-0.62,0-1.12-0.5-1.12-1.12c0-0.62,0.5-1.12,1.12-1.12h33.67
				c9.7,0,17.59-7.89,17.59-17.59v-48.64c0-0.62,0.5-1.12,1.12-1.12s1.12,0.5,1.12,1.12v48.64
				C520,205.61,511.1,214.51,500.17,214.51z"/>
		</g>
		<g>
			<path class="st1" d="M500.17,210.77H466.5c-0.62,0-1.12-0.5-1.12-1.12c0-0.62,0.5-1.12,1.12-1.12h33.67
				c7.63,0,13.84-6.21,13.84-13.84v-48.64c0-0.62,0.5-1.12,1.12-1.12s1.12,0.5,1.12,1.12v48.64
				C516.26,203.55,509.04,210.77,500.17,210.77z"/>
		</g>
		<g>
			<path class="st1" d="M500.17,207.03H466.5c-0.62,0-1.12-0.5-1.12-1.12c0-0.62,0.5-1.12,1.12-1.12h33.67
				c5.57,0,10.1-4.53,10.1-10.1v-48.64c0-0.62,0.5-1.12,1.12-1.12c0.62,0,1.12,0.5,1.12,1.12v48.64
				C512.52,201.49,506.98,207.03,500.17,207.03z"/>
		</g>
		<g>
			<path class="st1" d="M500.17,203.28H466.5c-0.62,0-1.12-0.5-1.12-1.12s0.5-1.12,1.12-1.12h33.67c3.51,0,6.36-2.85,6.36-6.36
				v-48.64c0-0.62,0.5-1.12,1.12-1.12c0.62,0,1.12,0.5,1.12,1.12v48.64C508.78,199.42,504.91,203.28,500.17,203.28z"/>
		</g>
	</g>
	<g>
		<g>
			<path class="st1" d="M507.65,192.06h-14.97c-10.93,0-19.83-8.9-19.83-19.83v-26.19c0-0.62,0.5-1.12,1.12-1.12s1.12,0.5,1.12,1.12
				v26.19c0,9.7,7.89,17.59,17.59,17.59h14.97c0.62,0,1.12,0.5,1.12,1.12S508.27,192.06,507.65,192.06z"/>
		</g>
		<g>
			<path class="st1" d="M507.65,188.32h-14.97c-8.87,0-16.09-7.22-16.09-16.09v-26.19c0-0.62,0.5-1.12,1.12-1.12
				c0.62,0,1.12,0.5,1.12,1.12v26.19c0,7.63,6.21,13.84,13.84,13.84h14.97c0.62,0,1.12,0.5,1.12,1.12S508.27,188.32,507.65,188.32z"
				/>
		</g>
		<g>
			<path class="st1" d="M507.65,184.58h-14.97c-6.81,0-12.35-5.54-12.35-12.35v-26.19c0-0.62,0.5-1.12,1.12-1.12s1.12,0.5,1.12,1.12
				v26.19c0,5.57,4.53,10.1,10.1,10.1h14.97c0.62,0,1.12,0.5,1.12,1.12C508.78,184.07,508.27,184.58,507.65,184.58z"/>
		</g>
		<g>
			<path class="st1" d="M507.65,180.84h-14.97c-4.74,0-8.61-3.86-8.61-8.61v-26.19c0-0.62,0.5-1.12,1.12-1.12s1.12,0.5,1.12,1.12
				v26.19c0,3.51,2.85,6.36,6.36,6.36h14.97c0.62,0,1.12,0.5,1.12,1.12C508.78,180.33,508.27,180.84,507.65,180.84z"/>
		</g>
	</g>
	<g>
		<g>
			<path class="st1" d="M172.79,203.28c-10.93,0-19.83-8.9-19.83-19.83v-37.41c0-0.62,0.5-1.12,1.12-1.12s1.12,0.5,1.12,1.12v37.41
				c0,9.7,7.89,17.59,17.59,17.59c9.7,0,17.59-7.89,17.59-17.59v-37.41c0-0.62,0.5-1.12,1.12-1.12s1.12,0.5,1.12,1.12v37.41
				C192.62,194.39,183.72,203.28,172.79,203.28z"/>
		</g>
		<g>
			<path class="st1" d="M172.79,207.03c-13,0-23.57-10.57-23.57-23.57v-37.41c0-0.62,0.5-1.12,1.12-1.12s1.12,0.5,1.12,1.12v37.41
				c0,11.76,9.57,21.33,21.33,21.33c11.76,0,21.33-9.57,21.33-21.33v-37.41c0-0.62,0.5-1.12,1.12-1.12s1.12,0.5,1.12,1.12v37.41
				C196.36,196.45,185.79,207.03,172.79,207.03z"/>
		</g>
		<g>
			<path class="st1" d="M172.79,210.77c-15.06,0-27.31-12.25-27.31-27.31v-37.41c0-0.62,0.5-1.12,1.12-1.12
				c0.62,0,1.12,0.5,1.12,1.12v37.41c0,13.82,11.25,25.07,25.07,25.07c13.82,0,25.07-11.25,25.07-25.07v-37.41
				c0-0.62,0.5-1.12,1.12-1.12c0.62,0,1.12,0.5,1.12,1.12v37.41C200.1,198.51,187.85,210.77,172.79,210.77z"/>
		</g>
		<g>
			<path class="st1" d="M172.79,214.51c-17.12,0-31.05-13.93-31.05-31.05v-37.41c0-0.62,0.5-1.12,1.12-1.12
				c0.62,0,1.12,0.5,1.12,1.12v37.41c0,15.89,12.92,28.81,28.81,28.81s28.81-12.92,28.81-28.81v-37.41c0-0.62,0.5-1.12,1.12-1.12
				c0.62,0,1.12,0.5,1.12,1.12v37.41C203.84,200.58,189.91,214.51,172.79,214.51z"/>
		</g>
	</g>
	<g>
		<g>
			<path class="st1" d="M268.57,177.09c-0.62,0-1.12-0.5-1.12-1.12c0-9.7-7.89-17.59-17.59-17.59s-17.59,7.89-17.59,17.59
				c0,0.62-0.5,1.12-1.12,1.12s-1.12-0.5-1.12-1.12c0-10.93,8.9-19.83,19.83-19.83c10.93,0,19.83,8.9,19.83,19.83
				C269.69,176.59,269.19,177.09,268.57,177.09z"/>
		</g>
		<g>
			<path class="st1" d="M268.57,214.51c-0.62,0-1.12-0.5-1.12-1.12v-37.41c0-9.7-7.89-17.59-17.59-17.59s-17.59,7.89-17.59,17.59
				v37.41c0,0.62-0.5,1.12-1.12,1.12s-1.12-0.5-1.12-1.12v-37.41c0-10.93,8.9-19.83,19.83-19.83c10.93,0,19.83,8.9,19.83,19.83
				v37.41C269.69,214.01,269.19,214.51,268.57,214.51z"/>
		</g>
		<g>
			<path class="st1" d="M272.31,214.51c-0.62,0-1.12-0.5-1.12-1.12v-37.41c0-11.76-9.57-21.33-21.33-21.33
				c-11.76,0-21.33,9.57-21.33,21.33v37.41c0,0.62-0.5,1.12-1.12,1.12c-0.62,0-1.12-0.5-1.12-1.12v-37.41
				c0-13,10.57-23.57,23.57-23.57c13,0,23.57,10.57,23.57,23.57v37.41C273.44,214.01,272.93,214.51,272.31,214.51z"/>
		</g>
		<g>
			<path class="st1" d="M276.05,214.51c-0.62,0-1.12-0.5-1.12-1.12v-37.41c0-13.82-11.25-25.07-25.07-25.07
				c-13.82,0-25.07,11.25-25.07,25.07v37.41c0,0.62-0.5,1.12-1.12,1.12c-0.62,0-1.12-0.5-1.12-1.12v-37.41
				c0-15.06,12.25-27.31,27.31-27.31c15.06,0,27.31,12.25,27.31,27.31v37.41C277.18,214.01,276.67,214.51,276.05,214.51z"/>
		</g>
		<g>
			<path class="st1" d="M279.8,214.51c-0.62,0-1.12-0.5-1.12-1.12v-37.41c0-15.89-12.92-28.81-28.81-28.81s-28.81,12.92-28.81,28.81
				v37.41c0,0.62-0.5,1.12-1.12,1.12c-0.62,0-1.12-0.5-1.12-1.12v-37.41c0-17.12,13.93-31.05,31.05-31.05s31.05,13.93,31.05,31.05
				v37.41C280.92,214.01,280.42,214.51,279.8,214.51z"/>
		</g>
	</g>
	<g>
		<g>
			<path class="st1" d="M305.99,177.09c-0.62,0-1.12-0.5-1.12-1.12c0-9.7-7.89-17.59-17.59-17.59c-0.62,0-1.12-0.5-1.12-1.12
				c0-0.62,0.5-1.12,1.12-1.12c10.93,0,19.83,8.9,19.83,19.83C307.11,176.59,306.61,177.09,305.99,177.09z"/>
		</g>
		<g>
			<path class="st1" d="M305.99,214.51c-0.62,0-1.12-0.5-1.12-1.12v-37.41c0-9.7-7.89-17.59-17.59-17.59
				c-3.77,0-7.37,1.18-10.4,3.41c-0.5,0.37-1.2,0.26-1.57-0.24c-0.37-0.5-0.26-1.2,0.24-1.57c3.42-2.51,7.48-3.84,11.73-3.84
				c10.93,0,19.83,8.9,19.83,19.83v37.41C307.11,214.01,306.61,214.51,305.99,214.51z"/>
		</g>
		<g>
			<path class="st1" d="M309.73,214.51c-0.62,0-1.12-0.5-1.12-1.12v-37.41c0-11.76-9.57-21.33-21.33-21.33
				c-4.7,0-9.16,1.5-12.89,4.34c-0.49,0.37-1.2,0.28-1.57-0.21c-0.37-0.49-0.28-1.2,0.21-1.57c4.13-3.14,9.05-4.79,14.25-4.79
				c13,0,23.57,10.57,23.57,23.57v37.41C310.85,214.01,310.35,214.51,309.73,214.51z"/>
		</g>
		<g>
			<path class="st1" d="M313.47,214.51c-0.62,0-1.12-0.5-1.12-1.12v-37.41c0-13.82-11.25-25.07-25.07-25.07
				c-5.57,0-10.84,1.79-15.25,5.17c-0.49,0.38-1.2,0.28-1.57-0.21c-0.38-0.49-0.28-1.2,0.21-1.57c4.8-3.69,10.55-5.64,16.62-5.64
				c15.06,0,27.31,12.25,27.31,27.31v37.41C314.59,214.01,314.09,214.51,313.47,214.51z"/>
		</g>
		<g>
			<path class="st1" d="M317.21,214.51c-0.62,0-1.12-0.5-1.12-1.12v-37.41c0-15.89-12.92-28.81-28.81-28.81
				c-6.62,0-12.84,2.18-17.99,6.31c-0.48,0.39-1.19,0.31-1.58-0.17c-0.39-0.48-0.31-1.19,0.17-1.58c5.48-4.38,12.36-6.8,19.39-6.8
				c17.12,0,31.05,13.93,31.05,31.05v37.41C318.33,214.01,317.83,214.51,317.21,214.51z"/>
		</g>
	</g>
	<g>
		<g>
			<path class="st2" d="M167.56,242.43v3.58h7.6v2.56h-7.6v3.56h9.18v2.56h-11.91v-14.79h11.91v2.54H167.56z"/>
		</g>
		<g>
			<path class="st2" d="M206.38,254.68h-1.99l-8.74-10.16v10.16h-2.73v-14.79h1.99l8.74,10.13v-10.13h2.73V254.68z"/>
		</g>
		<g>
			<path class="st2" d="M237.02,246.41c0.03,0.16,0.04,0.3,0.04,0.43c0,0.13,0,0.28,0,0.43c0,1.07-0.18,2.08-0.53,3.04
				c-0.35,0.95-0.85,1.78-1.49,2.49c-0.64,0.71-1.42,1.26-2.33,1.67c-0.91,0.41-1.92,0.61-3.04,0.61c-1.07,0-2.08-0.2-3.03-0.61
				c-0.95-0.41-1.77-0.97-2.48-1.68c-0.71-0.71-1.26-1.54-1.67-2.49c-0.41-0.94-0.61-1.95-0.61-3.03c0-1.07,0.2-2.08,0.61-3.03
				c0.41-0.94,0.97-1.77,1.67-2.48c0.71-0.71,1.53-1.26,2.48-1.67c0.94-0.41,1.95-0.61,3.03-0.61c1.26,0,2.44,0.28,3.54,0.85
				c1.11,0.56,2.03,1.35,2.76,2.35l-2.24,1.57c-0.48-0.64-1.08-1.14-1.79-1.5c-0.71-0.37-1.47-0.55-2.27-0.55
				c-0.69,0-1.35,0.13-1.97,0.4c-0.62,0.27-1.16,0.63-1.61,1.09c-0.45,0.46-0.81,0.99-1.08,1.61c-0.27,0.61-0.4,1.27-0.4,1.98
				c0,0.69,0.13,1.35,0.4,1.97c0.27,0.62,0.63,1.16,1.08,1.62c0.45,0.46,0.99,0.82,1.61,1.09c0.62,0.27,1.28,0.4,1.97,0.4
				c0.62,0,1.17-0.09,1.66-0.27c0.49-0.18,0.91-0.43,1.28-0.73c0.37-0.3,0.67-0.66,0.92-1.07c0.25-0.41,0.43-0.84,0.56-1.29h-3.91
				v-2.58H237.02z"/>
		</g>
		<g>
			<path class="st2" d="M252.8,254.68v-14.79h2.73v14.79H252.8z"/>
		</g>
		<g>
			<path class="st2" d="M285.79,254.68h-1.99l-8.74-10.16v10.16h-2.73v-14.79h1.99l8.74,10.13v-10.13h2.73V254.68z"/>
		</g>
		<g>
			<path class="st2" d="M305.36,242.43v3.58h7.6v2.56h-7.6v3.56h9.18v2.56h-11.91v-14.79h11.91v2.54H305.36z"/>
		</g>
		<g>
			<path class="st2" d="M333.71,242.43v3.58h7.6v2.56h-7.6v3.56h9.18v2.56h-11.91v-14.79h11.91v2.54H333.71z"/>
		</g>
		<g>
			<path class="st2" d="M372.96,254.68h-3.22l-3.41-4.57h-4.46v4.57h-2.73v-14.79h7.77c0.72,0,1.39,0.13,2.02,0.4
				c0.63,0.27,1.18,0.64,1.64,1.1c0.47,0.47,0.84,1.01,1.11,1.63c0.28,0.62,0.41,1.28,0.41,1.99c0,1.02-0.27,1.93-0.81,2.75
				c-0.54,0.82-1.25,1.43-2.13,1.84L372.96,254.68z M366.83,247.49c0.35,0,0.68-0.06,0.98-0.19c0.3-0.13,0.57-0.3,0.8-0.53
				c0.23-0.23,0.42-0.49,0.55-0.79c0.13-0.3,0.2-0.62,0.2-0.96c0-0.34-0.07-0.66-0.2-0.96c-0.13-0.3-0.32-0.57-0.55-0.79
				c-0.23-0.23-0.5-0.41-0.8-0.54c-0.3-0.13-0.63-0.2-0.98-0.2h-4.95v4.97H366.83z"/>
		</g>
		<g>
			<path class="st2" d="M388.34,254.68v-14.79h2.73v14.79H388.34z"/>
		</g>
		<g>
			<path class="st2" d="M421.33,254.68h-1.99l-8.74-10.16v10.16h-2.73v-14.79h1.99l8.74,10.13v-10.13h2.73V254.68z"/>
		</g>
		<g>
			<path class="st2" d="M451.97,246.41c0.03,0.16,0.04,0.3,0.04,0.43c0,0.13,0,0.28,0,0.43c0,1.07-0.18,2.08-0.53,3.04
				c-0.35,0.95-0.85,1.78-1.49,2.49c-0.64,0.71-1.42,1.26-2.33,1.67c-0.91,0.41-1.92,0.61-3.04,0.61c-1.07,0-2.08-0.2-3.03-0.61
				c-0.95-0.41-1.77-0.97-2.48-1.68c-0.71-0.71-1.26-1.54-1.67-2.49c-0.41-0.94-0.61-1.95-0.61-3.03c0-1.07,0.2-2.08,0.61-3.03
				c0.41-0.94,0.97-1.77,1.67-2.48c0.71-0.71,1.53-1.26,2.48-1.67c0.94-0.41,1.95-0.61,3.03-0.61c1.26,0,2.44,0.28,3.54,0.85
				c1.11,0.56,2.03,1.35,2.76,2.35l-2.24,1.57c-0.48-0.64-1.08-1.14-1.79-1.5c-0.71-0.37-1.47-0.55-2.27-0.55
				c-0.69,0-1.35,0.13-1.97,0.4c-0.62,0.27-1.16,0.63-1.61,1.09c-0.45,0.46-0.81,0.99-1.08,1.61c-0.27,0.61-0.4,1.27-0.4,1.98
				c0,0.69,0.13,1.35,0.4,1.97c0.27,0.62,0.63,1.16,1.08,1.62c0.45,0.46,0.99,0.82,1.61,1.09c0.62,0.27,1.28,0.4,1.97,0.4
				c0.62,0,1.17-0.09,1.66-0.27c0.49-0.18,0.91-0.43,1.28-0.73c0.37-0.3,0.67-0.66,0.92-1.07c0.25-0.41,0.43-0.84,0.56-1.29h-3.91
				v-2.58H451.97z"/>
		</g>
	</g>
</g>
</svg>
