<?xml version="1.0" encoding="utf-8"?>
<!-- Generator: Adobe Illustrator 28.3.0, SVG Export Plug-In . SVG Version: 6.00 Build 0)  -->
<svg version="1.1" id="Layer_1" xmlns="http://www.w3.org/2000/svg" xmlns:xlink="http://www.w3.org/1999/xlink" x="0px" y="0px"
	 viewBox="0 0 600 400" style="enable-background:new 0 0 600 400;" xml:space="preserve">
<style type="text/css">
	.st0{fill:#010101;}
	.st1{fill:#FFFFFF;}
</style>
<g>
	<rect class="st0" width="600" height="400"/>
</g>
<g>
	<path class="st1" d="M100,154.63c0-1.37,1.09-2.57,2.63-2.57h33.03c16.86,0,30.69,13.66,30.69,30.29
		c0,17.03-13.83,30.86-30.57,30.86h-14.34v32.17c0,1.37-1.26,2.57-2.63,2.57h-16.17c-1.49,0-2.63-1.26-2.63-2.57V154.63z
		 M134.4,193.14c5.89,0,10.8-4.63,10.8-10.8c0-5.71-4.91-10.11-10.8-10.11h-13.03v20.97h13.03V193.14z"/>
	<path class="st1" d="M170.74,154.63c0-1.37,1.26-2.57,2.57-2.57h16.4c1.37,0,2.57,1.26,2.57,2.57v90.74c0,1.37-1.2,2.57-2.57,2.57
		h-16.4c-1.37,0-2.57-1.26-2.57-2.57V154.63z"/>
	<path class="st1" d="M286.8,152.06c2.06,0,3.09,1.77,2.29,3.49l-42.46,90.91c-0.4,0.8-1.26,1.49-2.29,1.49h-1.37
		c-1.09,0-1.94-0.69-2.29-1.49l-42.11-90.91c-0.8-1.77,0.29-3.49,2.29-3.49H286.8L286.8,152.06z"/>
	<path class="st1" d="M329.03,152.06c26.63,0,47.94,21.43,47.94,48.06s-21.31,47.83-47.94,47.83s-47.83-21.2-47.83-47.83
		C281.2,173.49,302.34,152.06,329.03,152.06z"/>
	<path class="st1" d="M395.31,172.29h-19.6c-1.49,0-2.57-1.26-2.57-2.57v-15.03c0-1.37,1.09-2.57,2.57-2.57h60.86
		c1.49,0,2.57,1.26,2.57,2.57v14.91c0,1.37-1.09,2.57-2.57,2.57h-19.6v73.14c0,1.37-1.26,2.57-2.57,2.57H398
		c-1.37,0-2.57-1.26-2.57-2.57L395.31,172.29L395.31,172.29z"/>
	<path class="st1" d="M443.31,154.69c0-1.37,1.09-2.57,2.57-2.57h16.29c1.37,0,2.57,1.26,2.57,2.57v73.14h32.63
		c1.49,0,2.57,1.26,2.57,2.57v14.91c0,1.37-1.09,2.57-2.57,2.57h-51.54c-1.49,0-2.57-1.26-2.57-2.57v-90.63H443.31z"/>
	<g>
		<g>
			<path class="st1" d="M491.43,169.31c-4.74,0-8.57-3.83-8.57-8.57c0-4.74,3.83-8.57,8.57-8.57c4.74,0,8.57,3.83,8.57,8.57
				C500,165.43,496.17,169.31,491.43,169.31z M491.43,153.89c-3.77,0-6.86,3.09-6.86,6.86c0,3.77,3.09,6.86,6.86,6.86
				c3.77,0,6.86-3.09,6.86-6.86C498.29,156.97,495.2,153.89,491.43,153.89z"/>
		</g>
		<g>
			<path class="st1" d="M490.97,160c0.46,0,0.8-0.11,1.03-0.29c0.23-0.17,0.34-0.46,0.34-0.91c0-0.4-0.11-0.69-0.34-0.86
				c-0.23-0.17-0.57-0.29-1.03-0.29H490v2.29h0.97 M489.94,161.6v3.37h-2.34V156h3.54c1.2,0,2.06,0.23,2.57,0.63
				c0.57,0.4,0.8,1.03,0.8,1.89c0,0.57-0.11,1.09-0.4,1.49c-0.29,0.4-0.74,0.69-1.31,0.86c0.34,0.06,0.63,0.23,0.86,0.51
				c0.23,0.29,0.51,0.63,0.74,1.14l1.26,2.57h-2.46l-1.09-2.23c-0.23-0.46-0.46-0.74-0.69-0.91c-0.23-0.17-0.51-0.23-0.91-0.23
				h-0.57"/>
		</g>
	</g>
</g>
</svg>
