<svg xmlns="http://www.w3.org/2000/svg" xmlns:xlink="http://www.w3.org/1999/xlink" x="0px" y="0px" viewBox="0 0 600 400" style="enable-background:new 0 0 600 400;" xml:space="preserve">
<style type="text/css">
	.st0{fill:#1B2938;}
	.st1{fill:#FFFFFF;}
	.st2{fill-rule:evenodd;clip-rule:evenodd;fill:url(#SVGID_1_);}
	.st3{fill-rule:evenodd;clip-rule:evenodd;fill:url(#SVGID_00000061462578013109890400000006999946878549818550_);}
	.st4{fill-rule:evenodd;clip-rule:evenodd;fill:url(#SVGID_00000053547279410151668420000008285282797860009895_);}
	.st5{fill-rule:evenodd;clip-rule:evenodd;fill:url(#SVGID_00000089560906983800416770000002065712301107330727_);}
</style>
<g>
	<rect class="st0" width="600" height="400"/>
</g>
<g>
	<path class="st1" d="M107.4,222.84c13.79,0,23.47-7.33,23.47-19.65v-0.22c0-10.93-7.11-15.91-20.97-19.29
		c-12.69-3.01-15.69-5.28-15.69-10.34v-0.22c0-4.33,3.96-7.77,10.71-7.77c6.01,0,11.88,2.35,17.82,6.75l6.16-8.73
		c-6.67-5.28-14.23-8.21-23.83-8.21c-13.05,0-22.44,7.77-22.44,19.07v0.22c0,12.1,7.85,16.28,21.85,19.65
		c12.25,2.79,14.89,5.28,14.89,9.97v0.22c0,4.91-4.47,8.29-11.66,8.29c-8.07,0-14.45-3.08-20.75-8.58l-6.89,8.29
		C87.89,219.32,97.42,222.84,107.4,222.84z"/>
	<polygon class="st1" points="159.17,221.89 170.83,221.89 170.83,166.82 191.58,166.82 191.58,156.11 138.34,156.11 138.34,166.82 
		159.17,166.82 	"/>
	<path class="st1" d="M241.89,196.96c9.09-2.64,15.55-9.09,15.55-19.95v-0.22c0-5.72-1.98-10.63-5.43-14.23
		c-4.25-4.11-10.71-6.6-18.92-6.6h-29.26v65.78h11.51v-22.81h14.45l16.13,22.95h13.71L241.89,196.96z M215.34,188.67V166.6h16.79
		c8.51,0,13.57,3.89,13.57,10.93v0.15c0,6.67-5.28,11-13.49,11H215.34z"/>
	<path class="st1" d="M265.94,221.89h11.81c9.61-22.66,11.51-27.35,22.22-52.43c12.1,28.01,10.71,24.93,22.22,52.43h12.17
		l-28.82-66.29h-10.71L265.94,221.89z"/>
	<g>
		
			<linearGradient id="SVGID_1_" gradientUnits="userSpaceOnUse" x1="82.1777" y1="408.5442" x2="79.5202" y2="408.5442" gradientTransform="matrix(1 0 0 -1 219 616.5)">
			<stop  offset="0" style="stop-color:#5FCAE6"/>
			<stop  offset="1" style="stop-color:#326E94"/>
		</linearGradient>
		<polygon class="st2" points="299.97,186.91 300.56,197.47 301.14,207.96 300.56,218.52 299.97,229 299.38,218.52 298.8,207.96 
			299.38,197.47 		"/>
	</g>
	<g>
		
			<linearGradient id="SVGID_00000168835912076794472630000004519337822216525756_" gradientUnits="userSpaceOnUse" x1="86.5777" y1="408.5075" x2="83.9202" y2="408.5075" gradientTransform="matrix(1 0 0 -1 219 616.5)">
			<stop  offset="0" style="stop-color:#5FCAE6"/>
			<stop  offset="1" style="stop-color:#326E94"/>
		</linearGradient>
		
			<polygon style="fill-rule:evenodd;clip-rule:evenodd;fill:url(#SVGID_00000168835912076794472630000004519337822216525756_);" points="
			304.37,195.12 304.96,201.5 305.54,207.96 304.96,214.41 304.37,220.86 303.78,214.41 303.2,207.96 303.78,201.5 		"/>
	</g>
	<g>
		
			<linearGradient id="SVGID_00000078033462764329948340000001642234300411893892_" gradientUnits="userSpaceOnUse" x1="77.7777" y1="408.5075" x2="75.1202" y2="408.5075" gradientTransform="matrix(1 0 0 -1 219 616.5)">
			<stop  offset="0" style="stop-color:#5FCAE6"/>
			<stop  offset="1" style="stop-color:#326E94"/>
		</linearGradient>
		
			<polygon style="fill-rule:evenodd;clip-rule:evenodd;fill:url(#SVGID_00000078033462764329948340000001642234300411893892_);" points="
			295.57,195.12 296.16,201.5 296.74,207.96 296.16,214.41 295.57,220.86 294.98,214.41 294.4,207.96 294.98,201.5 		"/>
	</g>
	<polygon class="st1" points="353.36,221.89 364.94,221.89 364.94,166.82 385.77,166.82 385.77,156.11 332.53,156.11 332.53,166.82 
		353.36,166.82 	"/>
	<path class="st1" d="M496.58,222.84c13.79,0,23.47-7.33,23.47-19.65v-0.22c0-10.93-7.11-15.91-20.97-19.29
		c-12.69-3.01-15.69-5.28-15.69-10.34v-0.22c0-4.33,3.96-7.77,10.71-7.77c6.01,0,11.88,2.35,17.82,6.75l6.16-8.73
		c-6.67-5.35-14.23-8.29-23.83-8.29c-13.05,0-22.44,7.77-22.44,19.07v0.22c0,12.1,7.85,16.28,21.85,19.65
		c12.17,2.79,14.81,5.35,14.81,10.05v0.22c0,4.91-4.47,8.29-11.66,8.29c-8.07,0-14.45-3.08-20.75-8.58l-6.97,8.29
		C477.07,219.32,486.6,222.84,496.58,222.84z"/>
	
		<linearGradient id="SVGID_00000116932358566761256830000004607429684889818040_" gradientUnits="userSpaceOnUse" x1="232.0243" y1="453.3394" x2="178.5519" y2="399.867" gradientTransform="matrix(1 0 0 -1 219 616.5)">
		<stop  offset="0.0969" style="stop-color:#5FCAE6"/>
		<stop  offset="1" style="stop-color:#326E94"/>
	</linearGradient>
	<path style="fill-rule:evenodd;clip-rule:evenodd;fill:url(#SVGID_00000116932358566761256830000004607429684889818040_);" d="
		M429.55,197.84l-14.74,12.25l-0.88-11.73l-10.34-2.49l13.49-11.81l28.31-12.83L429.55,197.84z M424.86,226.73
		c20.61,0,37.33-16.72,37.33-37.4s-16.72-37.4-37.33-37.4s-37.33,16.72-37.33,37.4c0,5.35,1.1,10.49,3.15,15.11l20.39-3.23
		l-6.67,19.43C410.26,224.53,417.3,226.73,424.86,226.73z"/>
</g>
</svg>
