<svg xmlns="http://www.w3.org/2000/svg" xmlns:xlink="http://www.w3.org/1999/xlink" x="0px" y="0px" viewBox="0 0 600 400" style="enable-background:new 0 0 600 400;" xml:space="preserve">
<style type="text/css">
	.st0{fill:#0D4B34;}
	.st1{fill:#FFFFFF;}
</style>
<rect class="st0" width="600" height="400"/>
<g>
	<g>
		<polygon class="st1" points="60.25,185.31 60,190.08 68.79,190.08 68.79,215.44 73.56,215.44 73.56,190.08 82.34,190.08 
			82.34,185.31 		"/>
		<path class="st1" d="M106.19,188.58c-1-1.26-2.26-2.26-4.02-3.01c-1.51-0.5-3.26-0.75-5.52-0.75c-2.01,0-4.02,0.25-5.52,0.75
			c-1.51,0.5-3.01,1.51-4.02,2.76c-1,1.26-1.76,3.01-2.26,4.77c-0.5,1.76-0.5,4.27-0.5,6.78c0,2.51,0.25,5.02,0.75,6.78
			c0.5,2.01,1.26,3.51,2.01,5.02c1,1.26,2.26,2.26,4.02,3.01c1.51,0.5,3.26,0.75,5.52,0.75s4.02-0.25,5.52-0.75
			c1.51-0.5,3.01-1.51,4.02-3.01c1-1.26,1.76-3.01,2.01-4.77c0.5-1.76,0.5-4.27,0.5-6.78c0-2.51-0.25-5.02-0.5-6.78
			C107.95,191.59,107.2,189.83,106.19,188.58z M93.14,210.67c-0.75-0.25-1.51-0.75-2.01-1.51c-0.5-0.75-1-1.76-1.26-3.26
			c-0.25-1.51-0.5-3.26-0.5-5.52s0.25-4.02,0.5-5.52c0.25-1.26,0.75-2.51,1.26-3.26c0.5-0.75,1.26-1.26,2.01-1.51
			c1-0.25,2.26-0.5,3.51-0.5c1.51,0,2.51,0.25,3.51,0.5c0.75,0.25,1.51,0.75,2.01,1.51c0.5,0.75,1,1.76,1.26,3.26
			c0.25,1.51,0.5,3.26,0.5,5.52s-0.25,4.02-0.5,5.52c-0.25,1.26-0.75,2.51-1.26,3.26c-0.5,0.75-1.26,1.26-2.01,1.51
			C98.41,211.42,95.15,211.42,93.14,210.67z"/>
		<polygon class="st1" points="133.05,205.9 119.25,185.31 114.98,185.31 114.98,215.44 119.75,215.44 119.75,194.1 133.81,215.44 
			137.32,215.44 137.32,185.31 132.8,185.31 		"/>
		<polygon class="st1" points="154.64,198.87 154.39,199.62 146.86,185.31 141.34,185.31 151.88,204.64 151.88,215.44 
			156.65,215.44 156.65,204.64 167.2,185.31 161.92,185.31 		"/>
		<polygon class="st1" points="188.28,185.31 188.03,190.08 196.82,190.08 196.82,215.44 201.59,215.44 201.59,190.08 
			210.13,190.08 210.13,185.31 		"/>
		<polygon class="st1" points="231.97,197.36 219.16,197.36 219.16,185.31 214.64,185.31 214.64,215.44 219.16,215.44 
			219.16,201.88 231.97,201.88 231.97,215.44 236.74,215.44 236.74,185.31 231.97,185.31 		"/>
		<path class="st1" d="M264.6,188.58c-1-1.26-2.26-2.26-4.02-3.01c-1.51-0.5-3.26-0.75-5.52-0.75c-2.01,0-4.02,0.25-5.52,0.75
			c-1.51,0.5-3.01,1.51-4.02,2.76c-1,1.26-1.76,3.01-2.01,4.77c-0.5,1.76-0.5,4.27-0.5,6.78c0,2.51,0.25,5.02,0.75,6.78
			c0.5,2.01,1.26,3.51,2.01,5.02c1,1.26,2.26,2.26,4.02,3.01c1.51,0.5,3.26,0.75,5.52,0.75c2.26,0,4.02-0.25,5.52-0.75
			c1.51-0.5,3.01-1.51,4.02-3.01c1-1.26,1.76-3.01,2.01-5.02c0.5-1.76,0.5-4.27,0.5-6.78c0-2.51-0.25-5.02-0.5-6.78
			C266.11,191.59,265.36,189.83,264.6,188.58z M251.55,210.67c-0.75-0.25-1.51-0.75-2.01-1.51c-0.5-0.75-1-1.76-1.26-3.26
			s-0.5-3.26-0.5-5.52s0.25-4.02,0.5-5.52c0.25-1.26,0.75-2.51,1.26-3.26c0.5-0.75,1.26-1.26,2.01-1.51c1-0.25,2.26-0.5,3.51-0.5
			c1.51,0,2.51,0.25,3.51,0.5c0.75,0.25,1.51,0.75,2.01,1.51c0.5,0.75,1,1.76,1.26,3.26c0.25,1.51,0.5,3.26,0.5,5.52
			s-0.25,4.02-0.5,5.52c-0.25,1.26-0.75,2.51-1.26,3.26c-0.5,0.75-1.26,1.26-2.01,1.51C256.82,211.42,253.56,211.42,251.55,210.67z"
			/>
		<polygon class="st1" points="287.2,207.66 287.2,207.66 278.16,185.31 273.39,185.31 273.39,215.44 277.91,215.44 277.91,196.61 
			285.44,215.44 288.95,215.44 296.74,196.36 296.74,215.44 301.26,215.44 301.26,185.31 296.49,185.31 		"/>
		<path class="st1" d="M318.83,185.31h-10.04v29.87h4.77v-11.3h5.27c3.51,0,6.03-0.75,7.78-2.26c1.76-1.51,2.51-4.02,2.51-7.03
			c0-3.26-0.75-5.52-2.51-7.03C324.85,186.07,322.34,185.31,318.83,185.31z M324.1,194.6c0,1,0,2.01-0.25,2.51
			c-0.25,0.5-0.5,1-1,1.51c-0.5,0.25-1,0.5-1.51,0.75c-0.75,0.25-1.51,0.25-2.51,0.25h-5.27v-9.79h5.27c2.01,0,3.26,0.25,4.27,1
			C323.85,191.59,324.1,192.85,324.1,194.6z"/>
		<path class="st1" d="M347.45,199.37c-1-0.5-2.26-1.26-3.77-1.51c-1.26-0.25-2.26-0.75-3.26-1.26c-1-0.5-1.76-1-2.26-1.51
			c-0.5-0.5-0.75-1-0.75-2.01c0-0.5,0-1,0.25-1.51c0.25-0.5,0.5-0.75,0.75-1c0.5-0.25,1-0.75,1.51-0.75c1.51-0.5,3.77-0.5,5.77,0
			c1,0.25,2.01,0.5,3.01,1l1.26,0.5l1-4.52l-0.75-0.5c-1-0.5-2.26-1-3.51-1.26c-2.76-0.5-6.03-0.5-8.28,0.25
			c-1.26,0.5-2.26,1-3.01,1.76c-0.75,0.75-1.51,1.76-1.76,2.76c-0.5,1-0.5,2.26-0.5,3.26c0,1.76,0.5,3.26,1.26,4.27
			c0.75,1,1.76,1.76,3.01,2.51c1,0.5,2.26,1,3.51,1.51c1.26,0.25,2.26,0.75,3.26,1.26c1,0.5,1.76,1,2.26,1.51
			c0.5,0.5,0.75,1.26,0.75,2.01c0,1.51-0.5,2.51-1.26,3.26c-1,0.75-2.26,1.26-4.27,1.26c-1.26,0-2.51-0.25-3.77-0.5
			c-1-0.25-2.01-0.75-3.01-1.51l-1.51-1l-1,4.77l0.75,0.5c1.26,0.75,2.51,1.26,3.77,1.76c1.51,0.5,3.01,0.75,4.77,0.75
			c3.26,0,5.77-0.75,7.53-2.51c1.76-1.76,2.51-4.02,2.51-6.78c0-1.76-0.5-3.26-1.26-4.52C349.71,200.88,348.7,200.13,347.45,199.37z
			"/>
		<path class="st1" d="M377.32,188.58c-1-1.26-2.26-2.26-4.02-2.76c-1.51-0.5-3.26-0.75-5.52-0.75c-2.01,0-4.02,0.25-5.52,0.75
			c-1.51,0.5-3.01,1.51-4.02,2.76s-1.76,3.01-2.01,4.77c-0.5,2.01-0.5,4.27-0.5,6.78c0,2.51,0.25,5.02,0.75,6.78
			c0.5,2.01,1.26,3.51,2.01,5.02c1,1.26,2.26,2.26,4.02,3.01c1.51,0.5,3.26,0.75,5.52,0.75s4.02-0.25,5.52-0.75
			c1.51-0.5,3.01-1.51,4.02-3.01c1-1.26,1.76-3.01,2.01-5.02c0.5-2.01,0.5-4.27,0.5-6.78c0-2.51-0.25-5.02-0.5-6.78
			C379.08,191.59,378.33,189.83,377.32,188.58z M364.27,210.67c-0.75-0.25-1.51-0.75-2.01-1.51c-0.5-0.75-1-1.76-1.26-3.26
			s-0.5-3.26-0.5-5.52s0.25-4.02,0.5-5.52c0.25-1.26,0.75-2.51,1.26-3.26c0.5-0.75,1.26-1.26,2.01-1.51c1-0.25,2.26-0.5,3.51-0.5
			c1.51,0,2.51,0.25,3.51,0.5c0.75,0.25,1.51,0.75,2.01,1.51c0.5,0.75,1,1.76,1.26,3.26c0.25,1.51,0.5,3.26,0.5,5.52
			s-0.25,4.02-0.5,5.52c-0.25,1.26-0.75,2.51-1.26,3.26c-0.5,0.75-1.26,1.26-2.01,1.51C369.54,211.42,366.28,211.42,364.27,210.67z"
			/>
		<polygon class="st1" points="403.93,185.31 403.93,205.9 390.38,185.31 386.11,185.31 386.11,215.44 390.63,215.44 390.63,194.1 
			404.94,215.44 408.45,215.44 408.45,185.31 		"/>
	</g>
	<g>
		<path class="st1" d="M441.34,195.1c0.75-1,1.26-2.51,1.26-4.27c0-2.01-0.5-3.51-1.76-4.77c-1-1-2.76-1.51-5.02-1.51h-7.28v21.84
			h3.01v-9.29h4.02l5.27,9.29h3.51l-5.77-9.79C439.83,196.36,440.84,195.86,441.34,195.1z M431.8,187.32h4.27
			c1.26,0,2.26,0.25,2.76,0.75c0.5,0.5,0.75,1.51,0.75,2.76s-0.25,2.26-0.75,2.76c-0.5,0.5-1.51,0.75-3.01,0.75h-4.27v-7.03H431.8z"
			/>
		<path class="st1" d="M456.9,184.56l-8.28,21.84h3.26l2.01-5.52h9.29l2.01,5.52h3.26l-8.28-21.84H456.9z M461.92,198.37h-7.28
			l3.51-9.29l0.25-0.5L461.92,198.37z"/>
		<path class="st1" d="M484.77,203.14c-0.5,0.25-1.26,0.5-2.01,0.75c-0.75,0.25-1.51,0.25-2.26,0.25c-1,0-2.01-0.25-3.01-0.5
			c-0.75-0.25-1.51-0.75-2.01-1.26c-0.5-0.75-1-1.51-1.26-2.51c-0.25-1-0.5-2.51-0.5-4.27c0-1.51,0.25-3.01,0.5-4.02
			c0.25-1,0.75-1.76,1.26-2.51c0.5-0.5,1.26-1,2.01-1.26c0.75-0.25,1.76-0.5,3.01-0.5c0.75,0,1.51,0,2.26,0.25
			c0.75,0.25,1.51,0.5,2.01,0.75l0.75,0.25l0.25-3.01l-0.5-0.25c-0.25-0.25-0.75-0.25-1-0.5c-0.5,0-0.75-0.25-1.26-0.25
			c-0.5,0-1-0.25-1.26-0.25c-0.5,0-1,0-1.51,0c-1.51,0-3.01,0.25-4.02,0.75c-1.26,0.5-2.26,1.26-3.01,2.01
			c-0.75,1-1.26,2.01-1.76,3.51c-0.25,1.26-0.5,3.01-0.5,4.77c0,2.01,0.25,3.77,0.5,5.02c0.25,1.51,1,2.76,1.76,3.51
			c0.75,1,1.76,1.76,3.01,2.26c1.26,0.5,2.51,0.75,4.02,0.75c1,0,2.01-0.25,3.01-0.5c1-0.25,1.76-0.5,2.26-1l0.25-0.25l-0.5-2.76
			L484.77,203.14z"/>
		<rect x="491.55" y="184.56" class="st1" width="3.01" height="21.84"/>
		<polygon class="st1" points="515.4,200.63 515.4,200.88 504.85,184.56 502.09,184.56 502.09,206.65 504.85,206.65 504.85,190.33 
			504.85,189.83 515.9,206.65 518.16,206.65 518.16,184.56 515.4,184.56 		"/>
		<path class="st1" d="M537.24,194.6v9.04c-1,0.5-2.26,0.5-3.77,0.5c-1.26,0-2.26-0.25-3.01-0.5c-0.75-0.25-1.51-0.75-2.01-1.26
			c-0.5-0.75-1-1.51-1.26-2.51c-0.25-1-0.5-2.51-0.5-4.02c0-1.76,0.25-3.01,0.5-4.27c0.25-1,0.75-2.01,1.26-2.51
			c0.5-0.5,1.26-1,2.01-1.26c0.75-0.25,1.76-0.5,3.01-0.5c1,0,1.76,0,2.51,0.25c0.75,0.25,1.51,0.5,2.26,0.75l0.75,0.25l0.5-2.76
			l-0.5-0.25c-0.75-0.25-1.51-0.5-2.51-0.75c-1-0.25-2.01-0.25-3.01-0.25c-1.51,0-3.01,0.25-4.27,0.5c-1.26,0.5-2.26,1-3.01,2.01
			c-0.75,1-1.51,2.26-1.76,3.51c-0.25,1.51-0.5,3.01-0.5,5.02s0.25,3.51,0.5,5.02c0.5,1.51,1,2.51,1.76,3.51
			c0.75,1,1.76,1.51,3.01,2.01s2.51,0.75,4.27,0.75c1.26,0,2.26,0,3.26-0.25c1-0.25,2.01-0.5,2.76-1l0.25-0.25v-11.05h-2.51V194.6z"
			/>
	</g>
	<rect x="429.29" y="212.93" class="st1" width="110.71" height="2.26"/>
</g>
</svg>
