<svg xmlns="http://www.w3.org/2000/svg" xmlns:xlink="http://www.w3.org/1999/xlink" x="0px" y="0px" viewBox="0 0 600 400" style="enable-background:new 0 0 600 400;" xml:space="preserve">
<style type="text/css">
	.st0{fill:#014B2D;}
	.st1{fill:#4B9443;}
	.st2{fill:#C9D32C;}
	.st3{fill:#013F2A;}
</style>
<g>
	<g>
		<path class="st0" d="M52.33,181.73c13.84-10,73.65-31.34,83.65-21.54c12.11,11.73,3.27,39.04-0.96,58.26
			c12.31-28.07,18.84-65.19,8.65-73.65c-10.19-8.46-90.38,12.88-92.11,26.92C50.41,180.19,52.33,181.73,52.33,181.73z"/>
		<path class="st1" d="M131.17,251.73c-15.77-6.54-65.76-45.57-62.88-59.23c3.46-16.54,31.15-23.65,49.61-30.19
			c-30.38,4.61-64.99,18.84-66.92,32.11c-1.92,13.27,59.42,69.22,72.11,63.26C130.78,254.03,131.17,251.73,131.17,251.73z"/>
		<path class="st2" d="M152.13,149.43c2.12,16.92-7.31,79.61-20.58,83.84c-16.15,5-35.96-15.58-50.76-28.46
			c19.04,24.23,48.46,47.3,60.96,42.5c12.31-4.81,31.15-85.76,19.61-93.84C154.44,148.66,152.13,149.43,152.13,149.43z"/>
	</g>
	<g>
		<g>
			<path class="st3" d="M244.43,173.46H232.7l-5-20.19l-5,20.19h-11.73l-9.42-27.69h7.69l6.73,20.58h1.35l5.58-20.58h9.23
				l5.77,20.58h1.35l6.73-20.58h8.08L244.43,173.46z"/>
			<path class="st3" d="M273.08,175l-1.73-3.46H257.5l-1.73,3.46h-7.31l11.15-20.96h10L280.58,175H273.08z M265,159.04h-1.35
				l-4.04,7.88h9.42L265,159.04z"/>
			<path class="st3" d="M306.54,173.66c-1.54,1.73-4.81,1.54-6.92,1.54c-1.73,0-3.27,0-5,0c-2.69,0-5.96,0-8.65-0.58
				c-0.96-0.19-1.92-0.58-2.69-1.35c-1.15-0.96-1.15-2.31-1.15-3.85c0-0.58,0-1.15,0-1.54h6.15c0,0.38,0,0.96,0.19,1.35
				c0,0.19,0.19,0.38,0.38,0.58c0.58,0.38,2.31,0.38,3.08,0.38c0.96,0,1.73,0,2.69,0c1.15,0,2.31,0,3.46,0c0.77,0,2.69,0,3.27-0.58
				c0.19-0.38,0.19-0.77,0.19-1.15c0-1.54-1.35-1.54-2.5-1.54c-3.46,0-6.73-0.19-10.19-0.38c-1.92,0-4.23-0.19-5.58-1.54
				c-1.15-1.15-1.15-3.08-1.15-4.61c0-3.65,0.96-6.15,5-6.54c2.69-0.19,5.58-0.19,8.27-0.19c2.69,0,5.38,0,8.08,0.58
				c2.88,0.77,3.46,2.69,3.46,5.38v0.96h-5.96v-0.19c0-0.58,0-0.96-0.58-1.35s-1.92-0.38-2.69-0.38h-5.38c-0.58,0-2.5,0-3.08,0.38
				c-0.38,0.19-0.58,0.77-0.58,1.35c0,0.38,0,0.96,0.38,1.15c0.19,0.19,0.58,0.19,0.77,0.19c0.77,0.19,1.54,0.19,2.12,0.19
				c1.35,0,2.88,0.19,4.23,0.19c2.5,0,5.96,0,8.27,0.58c0.77,0.19,1.35,0.58,1.92,1.15c1.35,1.15,1.35,3.27,1.35,4.81
				C307.88,170.39,307.69,172.31,306.54,173.66z"/>
			<path class="st3" d="M326.34,159.43V175h-6.73v-15.58h-9.42v-5.38h25.38v5.38H326.34z"/>
			<path class="st3" d="M338.84,175v-20.96h23.27v5h-16.92v3.08h16.15v4.61h-16.15v3.46h17.11V175H338.84z"/>
		</g>
		<g>
			<path class="st3" d="M236.93,216.73v-10.19h-19.61v10.19h-9.04v-28.27h9.04v10.19h19.42v-10.19h9.04v28.27H236.93z"/>
			<path class="st3" d="M273.46,216.73l-1.73-3.46h-13.84l-1.73,3.46h-7.31L260,195.77h10l10.96,20.96H273.46z M265.39,200.77h-1.35
				l-4.04,7.88h9.42L265.39,200.77z"/>
			<path class="st3" d="M300.77,216.73l-11.15-15.58h-0.77l0.19,15.58h-6.54v-20.96h11.15l10.96,15.58h0.58L305,195.77h6.54v20.96
				H300.77z"/>
			<path class="st3" d="M343.46,210c-0.19,1.73-0.58,3.65-1.92,5c-2.12,1.92-7.31,1.73-10,1.73h-15.77v-20.96h15.77
				c1.15,0,2.31,0,3.65,0c3.27,0,6.73,0.38,7.88,3.85c0.58,1.92,0.58,4.23,0.58,6.15C343.65,207.31,343.65,208.65,343.46,210z
				 M331.34,200.96h-9.23v10.38h8.85c0.77,0,1.54,0,2.31,0c0.96,0,2.31,0,3.08-0.58c0.96-0.77,0.96-3.27,0.96-4.42
				C337.3,200.96,336.34,200.96,331.34,200.96z"/>
			<path class="st3" d="M347.11,216.73v-20.96h6.73v15.58h15v5.38H347.11z"/>
			<path class="st3" d="M370.38,216.73v-20.96h6.73v20.96L370.38,216.73z"/>
			<path class="st3" d="M398.26,216.73l-11.15-15.58h-0.77l0.19,15.58h-6.54v-20.96h11.15l10.96,15.58h0.58l-0.19-15.58h6.54v20.96
				H398.26z"/>
			<path class="st3" d="M442.3,208.27c0,0.96,0,1.73,0,2.69c0,1.73-0.19,3.08-1.54,4.23c-0.77,0.77-1.73,1.15-2.69,1.35
				c-3.08,0.58-6.92,0.58-10,0.58c-1.35,0-2.69,0-4.23,0c-2.12,0-5.19-0.19-7.11-1.35c-0.77-0.58-1.35-1.35-1.73-2.31
				c-0.58-1.92-0.58-5.38-0.58-7.5c0-1.35,0-2.69,0.19-4.04c0.19-3.08,1.15-5.38,4.42-5.96c3.08-0.58,6.92-0.58,10-0.58
				c1.54,0,3.08,0,4.61,0c2.31,0,5.96,0.19,7.5,2.12c1.15,1.35,1.15,3.65,1.15,5.38h-6.35c0-0.58,0-1.35-0.58-1.73
				c-0.38-0.19-0.58-0.38-0.96-0.38c-0.58,0-1.15,0-1.73-0.19c-1.35,0-2.69,0-4.23,0c-1.15,0-2.31,0-3.46,0c-0.96,0-2.5,0-3.27,0.58
				c-0.96,0.77-0.96,3.65-0.96,4.81c0,1.15,0,2.88,0.19,4.04c0.19,0.38,0.19,0.77,0.58,1.15c0.77,0.77,2.69,0.58,3.65,0.58
				c0.96,0,1.92,0,3.08,0c1.15,0,2.31,0,3.46,0c0.96,0,3.46,0.19,4.04-0.96c0.19-0.38,0.19-0.96,0.19-1.35v-0.58h-8.46v-4.23h14.61
				c0,0.19,0,0.38,0,0.58L442.3,208.27z"/>
		</g>
		<g>
			<path class="st3" d="M240.58,253.07c-1.92,2.12-6.35,2.12-9.04,2.12c-2.12,0-4.42,0-6.54,0c-3.65,0-8.08,0.19-11.54-0.58
				c-1.35-0.38-2.5-0.77-3.46-1.73c-1.35-1.35-1.54-3.08-1.54-5c0-0.77,0-1.35,0-2.12h8.27c0,0.58,0,1.15,0.19,1.73
				c0.19,0.38,0.38,0.58,0.58,0.96c0.77,0.58,3.08,0.58,4.04,0.58c1.15,0,2.31,0,3.65,0c1.54,0,2.88,0,4.42,0
				c0.96,0,3.65,0.19,4.42-0.96c0.38-0.38,0.38-1.15,0.38-1.54c0-2.12-1.73-2.12-3.46-2.12c-4.42-0.19-8.85-0.38-13.46-0.58
				c-2.5,0-5.58-0.19-7.31-2.12c-1.54-1.54-1.54-4.04-1.54-5.96c0-5,1.35-8.08,6.73-8.65c3.65-0.38,7.31-0.38,10.96-0.38
				c3.46,0,7.31,0,10.58,0.77c3.85,0.96,4.61,3.46,4.61,7.11v1.35h-8.27v-0.38c0-0.77,0-1.35-0.77-1.92
				c-0.77-0.58-2.69-0.58-3.65-0.58h-7.31c-0.96,0-3.27,0-4.04,0.58c-0.58,0.38-0.58,0.96-0.58,1.73c0,0.58,0.19,1.15,0.58,1.54
				c0.38,0.19,0.77,0.38,1.15,0.38c0.96,0.19,1.92,0.19,2.88,0.19c1.92,0,3.85,0.19,5.58,0.19c3.27,0,7.88,0,10.96,0.96
				c0.96,0.38,1.92,0.77,2.69,1.35c1.73,1.54,1.73,4.42,1.73,6.54C242.51,248.65,242.31,251.34,240.58,253.07z"/>
			<path class="st3" d="M275.77,248.26c0,1.92-0.19,4.42-1.92,5.58c-0.96,0.77-1.92,0.96-3.08,1.15c-3.08,0.38-6.35,0.38-9.42,0.38
				c-1.73,0-3.27,0-5,0c-2.12,0-5.58,0-7.5-1.35c-1.73-1.15-1.92-3.65-1.92-5.58c0-1.15,0-2.5,0-3.65s0-2.5,0-3.65
				c0.19-1.92,0.38-4.42,1.92-5.58c0.96-0.58,1.92-0.96,3.08-1.15c2.88-0.38,6.35-0.38,9.42-0.38c1.73,0,3.27,0,5,0
				c2.12,0,5.58,0,7.31,1.35c1.73,1.35,1.92,3.65,1.92,5.58c0,1.15,0,2.5,0,3.65C275.77,245.77,275.77,246.92,275.77,248.26z
				 M269.04,240.96c-0.38-1.15-1.15-1.35-2.12-1.54c-1.54-0.19-3.08-0.19-4.42-0.19h-4.04c-5.19,0-5,0.96-5,5.96
				c0,1.15-0.19,3.27,0.96,4.04c1.15,0.96,5.58,0.77,7.11,0.77c0.96,0,2.12,0,3.08,0c1.15,0,3.08,0,4.04-0.77s0.96-2.88,0.96-4.04
				C269.43,244.03,269.43,242.11,269.04,240.96z"/>
			<path class="st3" d="M279.23,255v-20.96h6.73v15.58h15V255L279.23,255z"/>
			<path class="st3" d="M328.84,246.15c0,2.5,0,5.19-1.73,7.11c-0.77,0.77-1.73,1.35-2.88,1.54c-2.88,0.58-5.96,0.58-8.85,0.58
				c-3.08,0-6.54,0-9.42-0.58c-0.96-0.19-1.92-0.77-2.69-1.54c-1.54-1.54-1.54-4.81-1.54-6.92c0-0.96,0-1.73,0-2.69v-9.61h6.35v9.61
				c0,0.58,0,1.35,0,1.92c0,1.15,0,2.69,0.96,3.46c0.38,0.38,0.77,0.38,1.35,0.58c1.54,0.19,3.27,0.19,4.81,0.19
				c0.77,0,1.73,0,2.5,0c2.12,0,4.23,0,4.61-2.5c0-0.77,0-1.54,0.19-2.31c0.19-3.65,0-7.31,0-10.96h6.35v9.61
				C328.84,244.61,328.84,245.38,328.84,246.15z"/>
			<path class="st3" d="M347.3,239.42V255h-6.73v-15.58h-9.42v-5.38h25.38v5.38H347.3z"/>
			<path class="st3" d="M358.07,255v-20.96h6.73V255H358.07z"/>
			<path class="st3" d="M397.11,248.26c0,1.92-0.19,4.42-1.92,5.58c-0.96,0.77-1.92,0.96-3.08,1.15c-3.08,0.38-6.35,0.38-9.42,0.38
				c-1.73,0-3.27,0-5,0c-2.12,0-5.58,0-7.5-1.35c-1.73-1.15-1.92-3.65-1.92-5.58c0-1.15,0-2.5,0-3.65s0-2.5,0-3.65
				c0.19-1.92,0.38-4.42,1.92-5.58c0.96-0.58,1.92-0.96,3.08-1.15c2.88-0.38,6.35-0.38,9.42-0.38c1.73,0,3.27,0,5,0
				c2.12,0,5.58,0,7.31,1.35c1.73,1.35,1.92,3.65,1.92,5.58c0,1.15,0,2.5,0,3.65C397.11,245.77,397.11,246.92,397.11,248.26z
				 M390.38,240.96c-0.38-1.15-1.15-1.35-2.12-1.54c-1.54-0.19-3.08-0.19-4.42-0.19h-4.04c-5.19,0-5,0.96-5,5.96
				c0,1.15-0.19,3.27,0.96,4.04c1.15,0.96,5.58,0.77,7.11,0.77c0.96,0,2.12,0,3.08,0c1.15,0,3.08,0,4.04-0.77s0.96-2.88,0.96-4.04
				C390.76,244.03,390.76,242.11,390.38,240.96z"/>
			<path class="st3" d="M418.64,255l-11.15-15.58h-0.77l0.19,15.58h-6.54v-20.96h11.15l10.96,15.58h0.58l-0.19-15.58h6.54V255
				L418.64,255z"/>
			<path class="st3" d="M457.29,253.65c-1.54,1.73-4.81,1.54-6.92,1.54c-1.73,0-3.27,0-5,0c-2.69,0-5.96,0-8.65-0.58
				c-0.96-0.19-1.92-0.58-2.69-1.35c-1.15-0.96-1.15-2.31-1.15-3.85c0-0.58,0-1.15,0-1.54h6.15c0,0.38,0,0.96,0.19,1.35
				c0,0.19,0.19,0.38,0.38,0.58c0.58,0.38,2.31,0.38,3.08,0.38c0.96,0,1.73,0,2.69,0c1.15,0,2.31,0,3.46,0c0.77,0,2.69,0,3.27-0.58
				c0.19-0.38,0.19-0.77,0.19-1.15c0-1.54-1.35-1.54-2.5-1.54c-3.46,0-6.73-0.19-10.19-0.38c-1.92,0-4.23-0.19-5.58-1.54
				c-1.15-1.15-1.15-3.08-1.15-4.61c0-3.65,0.96-6.15,5-6.54c2.69-0.19,5.58-0.19,8.27-0.19c2.69,0,5.38,0,8.08,0.58
				c2.88,0.77,3.46,2.69,3.46,5.38v0.96h-6.15v-0.19c0-0.58,0-0.96-0.58-1.35c-0.58-0.38-1.92-0.38-2.69-0.38h-5.38
				c-0.58,0-2.5,0-3.08,0.38c-0.38,0.19-0.58,0.77-0.58,1.35c0,0.38,0,0.96,0.38,1.15c0.19,0.19,0.58,0.19,0.77,0.19
				c0.77,0.19,1.54,0.19,2.12,0.19c1.35,0,2.88,0.19,4.23,0.19c2.5,0,5.96,0,8.27,0.58c0.77,0.19,1.35,0.58,1.92,1.15
				c1.35,1.15,1.35,3.27,1.35,4.81C458.64,250.38,458.64,252.3,457.29,253.65z"/>
			<path class="st3" d="M477.29,255v-20.96h6.73v15.58h15V255L477.29,255z"/>
			<path class="st3" d="M511.52,239.42V255h-6.73v-15.58h-9.42v-5.38h25.38v5.38H511.52z"/>
			<path class="st3" d="M550.75,248.26c-0.19,1.73-0.58,3.65-1.92,5c-2.12,1.92-7.31,1.73-10,1.73h-15.77v-20.96h15.77
				c1.15,0,2.31,0,3.65,0c3.27,0,6.73,0.38,7.88,3.85c0.58,1.92,0.58,4.23,0.58,6.15C550.94,245.57,550.94,246.92,550.75,248.26z
				 M538.83,239.23h-9.23v10.38h8.85c0.77,0,1.54,0,2.31,0c0.96,0,2.31,0,3.08-0.58c0.96-0.77,0.96-3.27,0.96-4.42
				C544.59,239.23,543.63,239.23,538.83,239.23z"/>
		</g>
	</g>
</g>
</svg>
