<svg xmlns="http://www.w3.org/2000/svg" xmlns:xlink="http://www.w3.org/1999/xlink" x="0px" y="0px" viewBox="0 0 600 400" style="enable-background:new 0 0 600 400;" xml:space="preserve">
<style type="text/css">
	.st0{fill:#898989;}
	.st1{fill:#EF3D23;}
	.st2{fill:#898989;stroke:#898989;stroke-miterlimit:10;}
</style>
<g>
	<path class="st0" d="M60,186.62h5.05l2.34,10.21l0.63,6.9l1.38-8.03l2.38-9.08h4.67l2.3,9.08l1.25,8.03l0.63-6.9l2.46-10.21h4.38
		l-5.46,19.86h-4.84l-2.25-9.01l-1-7.39l-1.08,7.39l-2.42,9.01h-4.88L60,186.62z"/>
	<path class="st0" d="M93.39,183.83c-0.73,0-1.35-0.22-1.86-0.66c-0.52-0.44-0.77-1.06-0.77-1.87c0-0.78,0.26-1.39,0.77-1.85
		s1.14-0.68,1.86-0.68c0.7,0,1.31,0.23,1.83,0.68s0.77,1.07,0.77,1.85c0,0.81-0.26,1.43-0.77,1.87
		C94.7,183.61,94.09,183.83,93.39,183.83z M91.17,186.62h4.41v19.86h-4.41V186.62z"/>
	<path class="st0" d="M101.24,179.42h4.41v27.06h-4.41V179.42z"/>
	<path class="st0" d="M112.66,179.42h4.41v27.06h-4.41V179.42z"/>
	<path class="st0" d="M125.81,183.83c-0.73,0-1.35-0.22-1.87-0.66c-0.52-0.44-0.77-1.06-0.77-1.87c0-0.78,0.26-1.39,0.77-1.85
		s1.14-0.68,1.87-0.68c0.7,0,1.31,0.23,1.83,0.68c0.51,0.45,0.77,1.07,0.77,1.85c0,0.81-0.26,1.43-0.77,1.87
		C127.12,183.61,126.51,183.83,125.81,183.83z M123.59,186.62H128v19.86h-4.41V186.62z"/>
	<path class="st0" d="M143.51,192.65c0-0.78-0.19-1.42-0.57-1.93c-0.38-0.5-1.11-0.75-2.18-0.75c-0.86,0-1.76,0.12-2.71,0.35
		c-0.95,0.23-2,0.54-3.15,0.93l-0.59-3.23c0.81-0.39,1.79-0.77,2.95-1.14c1.16-0.37,2.46-0.55,3.9-0.55c1.2,0,2.22,0.14,3.05,0.42
		c0.84,0.28,1.52,0.73,2.05,1.36c0.53,0.62,0.92,1.43,1.17,2.42c0.25,0.99,0.37,2.19,0.37,3.61v8.47c0,0.47,0.09,0.77,0.27,0.92
		c0.19,0.15,0.46,0.22,0.83,0.22h0.88l0.07,1.91c-0.19,0.19-0.5,0.38-0.92,0.57c-0.42,0.19-0.95,0.28-1.62,0.28
		c-0.69,0-1.36-0.1-2-0.29l-1.59-2.16l-1.46,1.83c-0.37,0.17-0.82,0.33-1.37,0.47c-0.55,0.15-1.21,0.22-1.99,0.22
		c-0.71,0-1.38-0.1-2.03-0.29c-0.64-0.2-1.22-0.51-1.72-0.95c-0.5-0.44-0.9-1.01-1.19-1.7c-0.29-0.7-0.44-1.56-0.44-2.58
		c0-1.03,0.13-1.89,0.4-2.59c0.27-0.7,0.69-1.28,1.26-1.76c0.57-0.48,1.31-0.86,2.21-1.15c0.9-0.29,2-0.53,3.29-0.7l2.81-0.37
		L143.51,192.65L143.51,192.65z M143.51,196.95l-2.51,0.37c-1.21,0.17-2.08,0.48-2.61,0.93c-0.52,0.45-0.78,1.23-0.78,2.33v0.29
		c0,1,0.25,1.72,0.75,2.16c0.5,0.44,1.21,0.66,2.13,0.66c0.78,0,1.4-0.12,1.86-0.37c0.46-0.25,0.85-0.54,1.17-0.88L143.51,196.95
		L143.51,196.95z"/>
	<path class="st0" d="M170.86,186.97c0.49-0.2,1.04-0.38,1.63-0.53c0.59-0.15,1.26-0.23,2-0.23c1.9,0,3.34,0.53,4.33,1.58
		c0.99,1.05,1.48,2.66,1.48,4.82v13.87h-4.82v-14.29c0-0.88-0.23-1.5-0.68-1.86s-1.12-0.55-2-0.55c-0.74,0-1.39,0.1-1.96,0.3
		c-0.56,0.2-1.17,0.48-1.83,0.83v15.57h-4.82v-14.29c0-0.88-0.25-1.5-0.74-1.86c-0.49-0.36-1.14-0.55-1.93-0.55
		c-0.71,0-1.37,0.1-1.96,0.3s-1.2,0.46-1.83,0.79v15.61h-4.82v-19.86h3.17l1.57,2.56l2.1-2.21c0.44-0.2,0.95-0.38,1.54-0.53
		c0.59-0.15,1.27-0.23,2.04-0.23c0.82,0,1.53,0.07,2.12,0.21c0.59,0.14,1.12,0.32,1.59,0.55l1.65,2.36L170.86,186.97z"/>
	<path class="st0" d="M195.87,192.05c-0.43-0.56-1.01-1.05-1.76-1.46c-0.75-0.41-1.56-0.62-2.44-0.62c-0.77,0-1.48,0.16-2.12,0.48
		c-0.64,0.32-0.96,0.85-0.96,1.6c0,0.75,0.35,1.28,1.06,1.58c0.71,0.31,1.74,0.62,3.1,0.94c0.72,0.16,1.45,0.37,2.18,0.64
		c0.73,0.27,1.4,0.62,2,1.06c0.6,0.44,1.09,0.99,1.46,1.64c0.37,0.66,0.56,1.45,0.56,2.38c0,1.18-0.22,2.17-0.66,2.98
		c-0.44,0.81-1.03,1.48-1.76,1.98c-0.73,0.51-1.59,0.87-2.56,1.1c-0.98,0.23-1.98,0.34-3.03,0.34c-1.49,0-2.95-0.27-4.37-0.82
		c-1.42-0.55-2.59-1.33-3.53-2.34l3.16-2.97c0.53,0.69,1.23,1.27,2.08,1.72c0.86,0.46,1.8,0.68,2.84,0.68c0.35,0,0.7-0.04,1.06-0.12
		c0.36-0.08,0.69-0.21,1-0.38c0.31-0.17,0.55-0.41,0.74-0.7c0.19-0.29,0.28-0.65,0.28-1.08c0-0.8-0.37-1.38-1.1-1.72
		s-1.84-0.69-3.31-1.04c-0.72-0.16-1.42-0.37-2.1-0.62c-0.68-0.25-1.29-0.59-1.82-1c-0.53-0.41-0.96-0.93-1.28-1.54
		c-0.32-0.61-0.48-1.38-0.48-2.28c0-1.07,0.22-1.99,0.66-2.76c0.44-0.77,1.02-1.41,1.74-1.9c0.72-0.49,1.54-0.86,2.45-1.1
		c0.91-0.24,1.84-0.36,2.8-0.36c1.39,0,2.74,0.24,4.07,0.72c1.32,0.48,2.37,1.22,3.14,2.2L195.87,192.05z"/>
	<path class="st1" d="M223.59,188.73c-1.4,0-2.6-0.45-3.59-1.35c-1-0.9-1.5-2.11-1.5-3.62c0-1.52,0.5-2.74,1.5-3.68
		c1-0.94,2.19-1.41,3.59-1.41s2.6,0.47,3.59,1.41c1,0.94,1.5,2.17,1.5,3.68c0,1.52-0.5,2.73-1.5,3.62
		C226.18,188.28,224.99,188.73,223.59,188.73z M223.59,206.94c-1.4,0-2.6-0.46-3.59-1.38c-1-0.92-1.5-2.13-1.5-3.65
		c0-1.52,0.5-2.75,1.5-3.68c1-0.94,2.19-1.41,3.59-1.41s2.6,0.47,3.59,1.41c1,0.94,1.5,2.17,1.5,3.68c0,1.52-0.5,2.74-1.5,3.65
		S224.99,206.94,223.59,206.94z"/>
	<path class="st0" d="M248.05,181.95h6.5l4.04,14.59l1.11,7.99l1.23-7.99l4.16-14.59h6.81v24.54h-4.99v-9.57l0.95-12.89l-2.02,9.19
		l-3.8,13.27h-5.19l-3.65-13.12l-1.94-9.35l0.91,12.93v9.54h-4.12L248.05,181.95L248.05,181.95z"/>
	<path class="st0" d="M288.05,207.01c-2.11,0-3.91-0.32-5.41-0.96c-1.5-0.64-2.73-1.54-3.69-2.69c-0.97-1.15-1.68-2.52-2.14-4.09
		c-0.46-1.57-0.69-3.27-0.69-5.11c0-1.83,0.24-3.52,0.71-5.07c0.47-1.55,1.2-2.88,2.18-4.01c0.98-1.13,2.23-2.01,3.74-2.64
		c1.51-0.63,3.31-0.94,5.38-0.94c2.11,0,3.92,0.31,5.43,0.94c1.51,0.63,2.75,1.5,3.71,2.6c0.96,1.11,1.68,2.43,2.14,3.98
		c0.46,1.55,0.69,3.23,0.69,5.07c0,1.88-0.23,3.62-0.69,5.2c-0.46,1.58-1.18,2.95-2.16,4.09c-0.98,1.14-2.23,2.03-3.76,2.68
		C291.97,206.69,290.15,207.01,288.05,207.01z M288.14,203.54c1.01,0,1.89-0.14,2.65-0.43c0.75-0.29,1.38-0.77,1.87-1.45
		c0.49-0.68,0.86-1.58,1.11-2.71c0.25-1.13,0.38-2.54,0.38-4.22v-1.66c0-1.53-0.12-2.81-0.36-3.83c-0.24-1.02-0.61-1.83-1.11-2.43
		c-0.51-0.6-1.14-1.02-1.89-1.26c-0.76-0.24-1.65-0.36-2.69-0.36c-1.01,0-1.89,0.13-2.65,0.38c-0.76,0.25-1.39,0.69-1.89,1.32
		c-0.5,0.63-0.87,1.45-1.11,2.47c-0.24,1.02-0.36,2.31-0.36,3.86v1.62c0,1.71,0.13,3.12,0.38,4.24c0.25,1.12,0.64,2.01,1.16,2.68
		c0.52,0.67,1.16,1.13,1.91,1.39C286.29,203.41,287.16,203.54,288.14,203.54z"/>
	<path class="st0" d="M302.99,185.79v-3.85h19.62v3.85h-7.06v20.69h-5.51v-20.69H302.99z"/>
	<path class="st0" d="M368.96,198.53l4.9,7.95h-5.91l-5.54-9.42h-3.91v9.42h-5.65v-24.54h9.71c3.44,0,6.06,0.63,7.83,1.9
		c1.78,1.27,2.67,3.2,2.67,5.79c0,0.83-0.12,1.63-0.35,2.39c-0.24,0.77-0.63,1.46-1.17,2.09c-0.55,0.63-1.27,1.16-2.19,1.58
		c-0.91,0.43-2.04,0.73-3.4,0.91L368.96,198.53z M362.28,192.7c1.75,0,3-0.29,3.73-0.89c0.73-0.59,1.1-0.75,1.1-2.19v-0.75
		c0-1.46-0.38-2.01-1.14-2.52c-0.76-0.5-2.02-0.75-3.78-0.75h-3.69v7.1H362.28z"/>
	<path class="st0" d="M404.53,198.53l4.9,7.95h-5.91l-5.54-9.42h-3.9v9.42h-5.65v-24.54h9.71c3.44,0,6.05,0.63,7.83,1.9
		c1.78,1.27,2.67,3.2,2.67,5.79c0,0.83-0.12,1.63-0.35,2.39c-0.24,0.77-0.63,1.46-1.17,2.09c-0.55,0.63-1.27,1.16-2.19,1.58
		c-0.91,0.43-2.04,0.73-3.4,0.91L404.53,198.53z M397.85,192.7c1.75,0,3-0.29,3.73-0.89c0.73-0.59,1.1-0.75,1.1-2.19v-0.75
		c0-1.46-0.38-2.01-1.14-2.52c-0.76-0.5-2.02-0.75-3.77-0.75h-3.69v7.1H397.85z"/>
	<path class="st0" d="M509.75,198.53l4.9,7.95h-5.91l-5.54-9.42h-3.9v9.42h-5.65v-24.54h9.71c3.44,0,6.05,0.63,7.83,1.9
		c1.78,1.27,2.67,3.2,2.67,5.79c0,0.83-0.12,1.63-0.35,2.39c-0.24,0.77-0.63,1.46-1.17,2.09c-0.55,0.63-1.27,1.16-2.19,1.58
		c-0.91,0.43-2.04,0.73-3.4,0.91L509.75,198.53z M503.07,192.7c1.75,0,3-0.29,3.73-0.89c0.73-0.59,1.1-0.75,1.1-2.19v-0.75
		c0-1.46-0.38-2.01-1.14-2.52c-0.76-0.5-2.02-0.75-3.78-0.75h-3.69v7.1H503.07z"/>
	<path class="st0" d="M413.28,181.95h18.33v3.85h-13.17v5.6h12.49v3.58h-12.49v7.78h13.9v3.73h-19.06L413.28,181.95L413.28,181.95z"
		/>
	<path class="st0" d="M437.12,181.53h9.47c3.33,0,5.85,0.71,7.55,2.13c1.71,1.42,2.56,3.44,2.56,6.05c0,2.51-0.85,3.68-2.53,5.18
		c-1.69,1.51-4.2,2.26-7.55,2.26h-4.41v9.33h-5.08L437.12,181.53L437.12,181.53z M446.31,193.41c1.69,0,2.87-0.34,3.55-1.02
		c0.69-0.68,1.03-1,1.03-2.66v-0.75c0-1.61-0.36-2.29-1.07-2.89c-0.71-0.6-1.91-0.91-3.6-0.91h-4.02v8.23H446.31z"/>
	<path class="st0" d="M460.93,206.48h-4.84l9.32-24.54h5.27l9.14,24.54h-4.58l-1.87-5.57h-10.49L460.93,206.48z M467.7,186.32
		l-3.71,10.58h7.49L467.7,186.32z"/>
	<path class="st0" d="M483.76,181.95h4.82v24.54h-4.82V181.95z"/>
	<path class="st0" d="M336.32,207.01c-2.11,0-3.91-0.32-5.41-0.96c-1.5-0.64-2.73-1.54-3.69-2.69c-0.97-1.15-1.68-2.52-2.14-4.09
		c-0.46-1.57-0.69-3.27-0.69-5.11c0-1.83,0.24-3.52,0.71-5.07c0.47-1.55,1.2-2.88,2.18-4.01c0.98-1.13,2.22-2.01,3.74-2.64
		c1.51-0.63,3.31-0.94,5.38-0.94c2.11,0,3.92,0.31,5.43,0.94c1.51,0.63,2.75,1.5,3.71,2.6c0.96,1.11,1.68,2.43,2.14,3.98
		c0.46,1.55,0.69,3.23,0.69,5.07c0,1.88-0.23,3.62-0.69,5.2c-0.46,1.58-1.18,2.95-2.16,4.09c-0.98,1.14-2.23,2.03-3.76,2.68
		C340.24,206.69,338.43,207.01,336.32,207.01z M336.41,203.54c1.01,0,1.89-0.14,2.65-0.43c0.75-0.29,1.38-0.77,1.87-1.45
		c0.49-0.68,0.86-1.58,1.11-2.71c0.25-1.13,0.38-2.54,0.38-4.22v-1.66c0-1.53-0.12-2.81-0.36-3.83c-0.24-1.02-0.61-1.83-1.11-2.43
		c-0.5-0.6-1.13-1.02-1.89-1.26c-0.76-0.24-1.66-0.36-2.69-0.36c-1.01,0-1.89,0.13-2.65,0.38c-0.76,0.25-1.39,0.69-1.89,1.32
		c-0.51,0.63-0.87,1.45-1.11,2.47c-0.24,1.02-0.36,2.31-0.36,3.86v1.62c0,1.71,0.13,3.12,0.38,4.24c0.25,1.12,0.64,2.01,1.16,2.68
		c0.52,0.67,1.16,1.13,1.91,1.39C334.56,203.41,335.43,203.54,336.41,203.54z"/>
	<path class="st2" d="M521.95,198.34c0.11,1.28,0.44,2.26,0.98,2.94c0.98,1.24,2.69,1.85,5.13,1.85c1.45,0,2.72-0.31,3.83-0.93
		c1.1-0.62,1.65-1.57,1.65-2.86c0-0.98-0.44-1.73-1.32-2.24c-0.56-0.31-1.67-0.67-3.33-1.09l-3.09-0.77
		c-1.98-0.48-3.43-1.02-4.37-1.62c-1.67-1.04-2.51-2.47-2.51-4.3c0-2.16,0.79-3.9,2.36-5.24c1.58-1.33,3.69-2,6.35-2
		c3.48,0,5.99,1.01,7.53,3.02c0.96,1.28,1.43,2.65,1.4,4.13h-3.62c-0.07-0.86-0.39-1.65-0.94-2.35c-0.9-1-2.46-1.5-4.69-1.5
		c-1.48,0-2.6,0.28-3.36,0.83c-0.77,0.55-1.15,1.28-1.15,2.19c0,0.99,0.5,1.78,1.5,2.38c0.58,0.35,1.43,0.67,2.56,0.93l2.58,0.62
		c2.81,0.67,4.69,1.31,5.64,1.94c1.49,0.98,2.24,2.52,2.24,4.62c0,2.03-0.78,3.78-2.34,5.26c-1.56,1.48-3.93,2.21-7.13,2.21
		c-3.43,0-5.87-0.77-7.3-2.31c-1.43-1.54-2.19-3.45-2.3-5.72L521.95,198.34L521.95,198.34z"/>
	<path class="st1" d="M537.88,221.33h-288.8c-1.17,0-2.12-1.5-2.12-2.67c0-1.17,0.95-2.67,2.12-2.67h288.8
		c1.17,0,2.12,1.5,2.12,2.67C540,219.84,539.05,221.33,537.88,221.33z"/>
</g>
</svg>
