<?xml version="1.0" encoding="utf-8"?>
<!-- Generator: Adobe Illustrator 22.1.0, SVG Export Plug-In . SVG Version: 6.00 Build 0)  -->
<svg version="1.1" id="Layer_1" xmlns="http://www.w3.org/2000/svg" xmlns:xlink="http://www.w3.org/1999/xlink" x="0px" y="0px"
	 viewBox="0 0 300 300" style="enable-background:new 0 0 300 300;" xml:space="preserve">
<style type="text/css">
	.st0{fill:#133C63;}
	.st1{fill:#FFFFFF;}
</style>
<g>
	<rect class="st0" width="300" height="300"/>
	<g>
		<g>
			<path class="st1" d="M52.3,60.8h-7v20.6h-5V60.8h-7v-4.3h18.9V60.8z"/>
			<path class="st1" d="M75.2,81.4h-4.9v-11h-9.9v11h-4.9V56.5h4.9v9.9h9.9v-9.9h4.9V81.4z"/>
			<path class="st1" d="M96.6,81.4H79.9V56.5h16.7v4H84.7v6h11.7v3.9H84.7v6.9h11.9V81.4z"/>
			<path class="st1" d="M132.5,56.4V70c0,1.7-0.2,3.2-0.7,4.7c-0.5,1.4-1.2,2.7-2.2,3.8c-1,1.1-2.1,1.9-3.5,2.5
				c-1.4,0.6-3,0.9-4.7,0.9c-1.7,0-3.3-0.3-4.7-0.9c-1.4-0.6-2.6-1.4-3.5-2.5c-1-1.1-1.7-2.3-2.3-3.7c-0.5-1.4-0.8-3-0.8-4.6V56.4
				h4.9v13.7c0,1,0.1,1.9,0.4,2.7c0.3,0.8,0.7,1.6,1.2,2.2c0.5,0.6,1.2,1.1,2,1.5c0.8,0.4,1.7,0.5,2.7,0.5c1.1,0,2-0.2,2.8-0.5
				c0.8-0.3,1.4-0.8,2-1.4c0.5-0.6,0.9-1.3,1.2-2.2c0.3-0.8,0.4-1.8,0.4-2.7V56.4H132.5z"/>
			<path class="st1" d="M158,81.4h-6.4l-10.1-11v11h-4.9v-25h4.9v11.1l10.3-11.1h5.8l-11.4,12.3L158,81.4z"/>
		</g>
		<path class="st1" d="M43.3,137.2h-7.2v-36.7h7.2V137.2z"/>
		<path class="st1" d="M81.2,137.2h-7.1l-16.8-25.8v25.8h-7.1v-36.7h8.1l15.7,24v-24h7.1V137.2z"/>
		<path class="st1" d="M113.7,106.9h-10.3v30.3h-7.3v-30.3H85.9v-6.3h27.8V106.9z"/>
		<path class="st1" d="M142.9,137.2h-24.5v-36.7h24.5v5.9h-17.5v8.8h17.2v5.7h-17.2V131h17.5V137.2z"/>
		<path class="st1" d="M176.4,137.2h-7.9l-2.6-8.3c-0.3-0.9-0.6-1.8-1-2.5c-0.4-0.8-0.9-1.4-1.5-2c-0.6-0.5-1.3-1-2.1-1.3
			c-0.8-0.3-1.8-0.5-2.9-0.5h-2.7v14.6h-7.1v-36.7l14.7,0c1.6,0,3,0.3,4.4,0.8c1.4,0.5,2.5,1.3,3.5,2.2c1,0.9,1.8,2.1,2.3,3.4
			c0.6,1.3,0.8,2.7,0.8,4.2c0,1.1-0.2,2.1-0.5,3.1c-0.3,1-0.8,1.9-1.4,2.8c-0.6,0.8-1.3,1.6-2.2,2.3c-0.9,0.7-1.8,1.2-2.8,1.5
			c1.2,0.4,2.1,1,2.9,1.9c0.7,0.8,1.3,1.8,1.8,2.9c0.2,0.5,0.4,1,0.6,1.6c0.2,0.5,0.4,1.1,0.6,1.6c0.2,0.6,0.4,1.2,0.6,1.8
			c0.2,0.7,0.5,1.4,0.8,2.2c0.3,1,0.6,1.9,0.9,2.6C175.7,136,176,136.7,176.4,137.2z M167,111.6c0-0.9-0.2-1.6-0.5-2.3
			c-0.3-0.7-0.8-1.3-1.3-1.8c-0.6-0.5-1.2-0.9-2-1.2c-0.8-0.3-1.6-0.4-2.4-0.4h-5.2v11.4h5.2c0.9,0,1.7-0.1,2.4-0.4
			c0.7-0.3,1.4-0.6,2-1.1c0.6-0.5,1-1.1,1.3-1.8C166.8,113.2,167,112.4,167,111.6z"/>
		<path class="st1" d="M188,137.2h-7.2v-36.7h7.2V137.2z"/>
		<path class="st1" d="M233,118.9c0,2.6-0.5,5.1-1.5,7.4c-1.1,2.3-2.5,4.3-4.3,6.1c-1.8,1.7-3.9,3.1-6.3,4.1c-2.4,1-4.9,1.5-7.6,1.5
			c-2.7,0-5.2-0.5-7.6-1.5c-2.4-1-4.5-2.4-6.3-4.1c-1.8-1.7-3.2-3.7-4.3-6c-1-2.3-1.6-4.8-1.6-7.5c0-2.7,0.5-5.2,1.6-7.5
			c1-2.3,2.5-4.4,4.3-6.1c1.8-1.7,3.9-3.1,6.3-4c2.4-1,4.9-1.5,7.6-1.5c2.7,0,5.2,0.5,7.6,1.5c2.4,1,4.5,2.3,6.3,4.1
			c1.8,1.7,3.2,3.8,4.3,6.1C232.5,113.7,233,116.2,233,118.9z M225.8,118.9c0-1.7-0.3-3.3-1-4.8c-0.7-1.5-1.5-2.8-2.7-3.9
			c-1.1-1.1-2.5-2-4-2.7c-1.5-0.7-3.1-1-4.9-1c-1.7,0-3.4,0.3-4.9,1c-1.5,0.7-2.8,1.6-4,2.7c-1.1,1.1-2,2.4-2.7,3.9
			c-0.7,1.5-1,3.1-1,4.8c0,1.7,0.3,3.2,1,4.7c0.7,1.5,1.5,2.8,2.7,3.9c1.1,1.1,2.5,2,4,2.7c1.5,0.7,3.2,1,4.9,1c1.7,0,3.3-0.3,4.9-1
			c1.5-0.7,2.8-1.6,4-2.7c1.1-1.1,2-2.4,2.7-3.9C225.5,122.1,225.8,120.5,225.8,118.9z"/>
		<path class="st1" d="M266.6,137.2h-7.9l-2.6-8.3c-0.3-0.9-0.6-1.8-1-2.5c-0.4-0.8-0.9-1.4-1.5-2c-0.6-0.5-1.3-1-2.1-1.3
			c-0.8-0.3-1.8-0.5-2.9-0.5h-2.7v14.6h-7.1v-36.7l14.7,0c1.6,0,3,0.3,4.4,0.8c1.4,0.5,2.5,1.3,3.5,2.2c1,0.9,1.8,2.1,2.3,3.4
			c0.6,1.3,0.8,2.7,0.8,4.2c0,1.1-0.1,2.1-0.5,3.1c-0.4,1-0.8,1.9-1.4,2.8c-0.6,0.8-1.3,1.6-2.2,2.3c-0.8,0.7-1.8,1.2-2.8,1.5
			c1.2,0.4,2.1,1,2.8,1.9c0.8,0.8,1.3,1.8,1.8,2.9c0.2,0.5,0.4,1,0.6,1.6c0.2,0.5,0.4,1.1,0.6,1.6c0.2,0.6,0.4,1.2,0.6,1.8
			c0.2,0.7,0.5,1.4,0.8,2.2c0.3,1,0.7,1.9,1,2.6C265.9,136,266.2,136.7,266.6,137.2z M257.2,111.6c0-0.9-0.1-1.6-0.5-2.3
			c-0.3-0.7-0.8-1.3-1.3-1.8c-0.6-0.5-1.2-0.9-2-1.2c-0.7-0.3-1.6-0.4-2.4-0.4h-5.2v11.4h5.2c0.9,0,1.7-0.1,2.4-0.4
			c0.7-0.3,1.4-0.6,2-1.1c0.5-0.5,1-1.1,1.3-1.8C257.1,113.2,257.2,112.4,257.2,111.6z"/>
		<path class="st1" d="M69,176.9c0,2.5-0.4,4.9-1.3,7.1c-0.9,2.2-2.1,4.1-3.6,5.8c-1.5,1.7-3.4,3-5.5,4c-2.1,0.9-4.5,1.4-7,1.4H36.1
			v-36.7h15.5c2.5,0,4.9,0.5,7,1.5c2.1,1,4,2.3,5.5,3.9c1.6,1.7,2.7,3.6,3.6,5.8C68.6,172,69,174.4,69,176.9z M61.8,176.7
			c0-1.6-0.3-3.1-1-4.6c-0.6-1.5-1.5-2.9-2.6-4c-1.1-1.2-2.4-2.1-3.9-2.8c-1.5-0.7-3.1-1.1-4.8-1.1h-6.2v25h6.2c1.7,0,3.3-0.3,4.8-1
			c1.5-0.7,2.8-1.6,3.9-2.7c1.1-1.1,2-2.5,2.6-4C61.5,179.9,61.8,178.3,61.8,176.7z"/>
		<path class="st1" d="M99,195.2H74.6v-36.7H99v5.9H81.6v8.8h17.2v5.7H81.6V189H99V195.2z"/>
		<path class="st1" d="M129.3,185.6c0,1.4-0.3,2.7-0.9,3.9c-0.6,1.2-1.4,2.3-2.5,3.3c-1.1,0.9-2.4,1.7-3.8,2.3
			c-1.5,0.6-3.1,0.9-4.9,0.9c-1.6,0-3-0.1-4.3-0.3c-1.3-0.2-2.5-0.5-3.6-0.9c-1.1-0.4-2.2-0.9-3.2-1.5c-1-0.6-2.1-1.4-3.2-2.3
			l5.1-5.1c1.5,1.2,2.9,2.1,4.4,2.6c1.4,0.5,3,0.8,4.6,0.8c0.7,0,1.3-0.1,1.9-0.3c0.6-0.2,1.1-0.5,1.6-0.8c0.4-0.3,0.8-0.7,1.1-1.2
			c0.3-0.4,0.4-1,0.4-1.5c0-0.6-0.1-1.1-0.3-1.5c-0.2-0.5-0.6-0.9-1.2-1.4c-0.6-0.4-1.3-0.9-2.3-1.3c-1-0.4-2.3-0.9-3.8-1.5
			c-1.4-0.5-2.7-1-3.9-1.7c-1.2-0.6-2.4-1.4-3.3-2.3c-0.9-0.9-1.7-1.9-2.3-3.1c-0.6-1.2-0.9-2.6-0.9-4.2c0-1.6,0.3-3,0.9-4.3
			c0.6-1.3,1.5-2.4,2.6-3.4c1.1-0.9,2.4-1.7,3.8-2.2c1.5-0.5,3.1-0.8,4.8-0.8c2.8,0,5.2,0.4,7.2,1.1c2,0.7,3.7,1.8,5.2,3.2l-5,5
			c-0.9-0.9-1.9-1.6-3.1-2c-1.2-0.5-2.5-0.7-4-0.7c-0.7,0-1.4,0.1-2,0.3c-0.6,0.2-1.1,0.5-1.6,0.9c-0.4,0.3-0.8,0.8-1,1.2
			c-0.3,0.5-0.4,1-0.4,1.5c0,0.6,0.1,1.1,0.4,1.6c0.3,0.5,0.7,0.9,1.3,1.4c0.6,0.4,1.4,0.9,2.3,1.3c1,0.4,2.2,0.9,3.6,1.5
			c1.9,0.6,3.4,1.3,4.8,2.1c1.3,0.8,2.4,1.6,3.2,2.5c0.8,0.9,1.5,2,1.8,3.1C129.1,182.9,129.3,184.2,129.3,185.6z"/>
		<path class="st1" d="M141.5,195.2h-7.2v-36.7h7.2V195.2z"/>
		<path class="st1" d="M182.5,188.5c-1.1,1.3-2.2,2.4-3.4,3.3c-1.2,0.9-2.5,1.7-3.9,2.3c-1.4,0.6-2.7,1.1-4.1,1.4
			c-1.4,0.3-2.8,0.4-4.2,0.4c-2.7,0-5.3-0.5-7.7-1.5c-2.4-1-4.5-2.3-6.3-4c-1.8-1.7-3.2-3.7-4.2-6.1c-1.1-2.3-1.6-4.8-1.6-7.5
			c0-2.6,0.5-5.1,1.6-7.4c1-2.3,2.4-4.3,4.2-6c1.8-1.7,3.9-3.1,6.3-4.1c2.4-1,5-1.5,7.7-1.5c3.2,0,6.1,0.6,8.7,1.9
			c2.6,1.3,4.8,3,6.6,5.1l-4.8,4.9c-1.4-1.9-2.9-3.2-4.7-4c-1.7-0.8-3.6-1.2-5.8-1.2c-1.7,0-3.4,0.3-4.9,1c-1.5,0.6-2.9,1.5-4,2.6
			c-1.2,1.1-2.1,2.4-2.7,3.9c-0.7,1.5-1,3.1-1,4.8c0,1.7,0.3,3.3,1,4.8c0.6,1.5,1.6,2.8,2.7,3.9c1.1,1.1,2.5,2,4,2.7
			c1.6,0.6,3.2,1,4.9,1c1.7,0,3.2-0.3,4.7-0.9c1.5-0.6,2.8-1.4,4-2.5v-3.5H168v-6.1h14.5V188.5z"/>
		<path class="st1" d="M218.8,195.2h-7l-16.7-25.7v25.7h-7v-36.7h8l15.7,24v-24h7V195.2z"/>
		<path class="st1" d="M52.8,232.6c0,1-0.2,2-0.6,2.9c-0.4,0.9-1,1.7-1.7,2.3c-0.7,0.6-1.5,1.1-2.5,1.5c-0.9,0.4-1.9,0.5-2.9,0.5
			l-10.1,0v-25h9c1.1,0,2.1,0.2,3,0.5c0.9,0.3,1.7,0.8,2.4,1.4c0.7,0.6,1.2,1.4,1.6,2.2c0.4,0.9,0.6,1.9,0.6,3
			c0,0.9-0.2,1.8-0.6,2.7c-0.4,0.9-1,1.6-1.6,2.2c0.5,0.3,1,0.6,1.5,1c0.4,0.4,0.8,0.9,1.1,1.4c0.3,0.5,0.5,1,0.7,1.6
			C52.7,231.4,52.8,232,52.8,232.6z M46.8,222c0-0.6-0.1-1.1-0.3-1.6c-0.2-0.4-0.5-0.8-0.9-1.1c-0.4-0.3-0.8-0.5-1.3-0.7
			c-0.5-0.2-1-0.2-1.6-0.2h-2.8v6.9c0.5,0,1,0,1.4,0c0.4,0,0.9,0,1.4,0c0.5,0,1.1-0.1,1.6-0.2c0.5-0.1,0.9-0.3,1.3-0.6
			c0.4-0.3,0.7-0.6,0.9-1C46.7,223.1,46.8,222.6,46.8,222z M47.7,232.3c0-0.5-0.1-1-0.3-1.4c-0.2-0.4-0.5-0.8-0.8-1.1
			c-0.4-0.3-0.7-0.5-1.2-0.7c-0.4-0.2-0.9-0.3-1.5-0.3c-0.7,0-1.4,0-2.1,0c-0.7,0-1.4,0-2.1,0v6.9h3.6c0.5,0,1-0.1,1.6-0.2
			c0.5-0.1,1-0.3,1.4-0.6c0.4-0.3,0.7-0.6,1-1.1C47.6,233.5,47.7,232.9,47.7,232.3z"/>
		<path class="st1" d="M78.1,214.8v13.5c0,1.7-0.2,3.2-0.7,4.7c-0.5,1.4-1.2,2.7-2.2,3.8c-1,1.1-2.1,1.9-3.5,2.5
			c-1.4,0.6-2.9,0.9-4.7,0.9c-1.7,0-3.2-0.3-4.6-0.9c-1.4-0.6-2.5-1.4-3.5-2.5c-1-1-1.7-2.3-2.2-3.7c-0.5-1.4-0.8-3-0.8-4.6v-13.7
			h4.9v13.7c0,1,0.1,1.9,0.4,2.7c0.3,0.8,0.7,1.6,1.2,2.2c0.5,0.6,1.2,1.1,1.9,1.5c0.8,0.4,1.7,0.5,2.7,0.5c1.1,0,2-0.2,2.8-0.5
			c0.8-0.3,1.4-0.8,1.9-1.4c0.5-0.6,0.9-1.3,1.1-2.2c0.3-0.8,0.4-1.8,0.4-2.8v-13.8H78.1z"/>
		<path class="st1" d="M100.9,239.8h-5.3l-1.8-5.7c-0.2-0.6-0.4-1.2-0.7-1.7c-0.3-0.5-0.6-1-1-1.3c-0.4-0.4-0.9-0.7-1.4-0.9
			c-0.5-0.2-1.2-0.3-1.9-0.3h-1.8v9.9h-4.8v-24.9l9.9,0c1,0,2,0.2,2.9,0.6c0.9,0.3,1.7,0.9,2.4,1.5c0.7,0.7,1.2,1.4,1.6,2.3
			c0.4,0.9,0.6,1.8,0.6,2.8c0,0.7-0.1,1.4-0.4,2.1c-0.2,0.7-0.5,1.3-1,1.9c-0.4,0.6-0.9,1.1-1.5,1.6c-0.6,0.5-1.2,0.8-1.9,1
			c0.8,0.3,1.4,0.7,1.9,1.3c0.5,0.5,0.9,1.2,1.2,2c0.1,0.4,0.3,0.7,0.4,1.1c0.1,0.3,0.2,0.7,0.4,1.1c0.1,0.4,0.3,0.8,0.4,1.2
			c0.2,0.4,0.3,0.9,0.5,1.5c0.2,0.7,0.5,1.3,0.7,1.8C100.5,239,100.7,239.4,100.9,239.8z M94.6,222.3c0-0.6-0.1-1.1-0.3-1.6
			c-0.2-0.5-0.5-0.9-0.9-1.3c-0.4-0.4-0.8-0.6-1.3-0.8c-0.5-0.2-1-0.3-1.6-0.3h-3.5v7.8h3.5c0.6,0,1.1-0.1,1.6-0.3
			c0.5-0.2,1-0.4,1.3-0.8c0.4-0.3,0.7-0.8,0.9-1.2C94.5,223.4,94.6,222.9,94.6,222.3z"/>
		<path class="st1" d="M120.4,239.8h-16.5v-24.9h16.5v4h-11.8v6h11.6v3.9h-11.6v6.9h11.8V239.8z"/>
		<path class="st1" d="M149.4,239.8h-5.3l-2.3-5h-12.1l-2.3,5H122l11.8-25h3.8L149.4,239.8z M139.9,230.8l-4.2-9l-4.2,9H139.9z"/>
		<path class="st1" d="M172,214.8v13.5c0,1.7-0.3,3.2-0.7,4.7c-0.5,1.4-1.2,2.7-2.2,3.8c-0.9,1.1-2.1,1.9-3.5,2.5
			c-1.4,0.6-2.9,0.9-4.7,0.9c-1.7,0-3.2-0.3-4.6-0.9c-1.4-0.6-2.5-1.4-3.5-2.5c-1-1-1.7-2.3-2.2-3.7c-0.5-1.4-0.8-3-0.8-4.6v-13.7
			h4.9v13.7c0,1,0.1,1.9,0.4,2.7c0.3,0.8,0.7,1.6,1.2,2.2c0.5,0.6,1.2,1.1,2,1.5c0.8,0.4,1.7,0.5,2.7,0.5c1.1,0,2-0.2,2.8-0.5
			c0.8-0.3,1.4-0.8,1.9-1.4c0.5-0.6,0.9-1.3,1.2-2.2c0.3-0.8,0.4-1.8,0.4-2.8v-13.8H172z"/>
	</g>
</g>
</svg>
